<?xml version="1.0" encoding="UTF-8"?>
<svg id="Layer_1" data-name="Layer 1" xmlns="http://www.w3.org/2000/svg" xmlns:xlink="http://www.w3.org/1999/xlink" viewBox="0 0 163.87 39.46">
  <defs>
    <style>
      .cls-1 {
        fill: #e0f2fc;
      }

      .cls-1, .cls-2, .cls-3, .cls-4, .cls-5, .cls-6, .cls-7, .cls-8, .cls-9, .cls-10, .cls-11, .cls-12, .cls-13, .cls-14, .cls-15, .cls-16, .cls-17, .cls-18, .cls-19, .cls-20, .cls-21, .cls-22, .cls-23, .cls-24, .cls-25, .cls-26, .cls-27, .cls-28, .cls-29, .cls-30, .cls-31, .cls-32, .cls-33, .cls-34, .cls-35, .cls-36, .cls-37, .cls-38, .cls-39, .cls-40, .cls-41, .cls-42, .cls-43, .cls-44, .cls-45, .cls-46, .cls-47, .cls-48, .cls-49, .cls-50, .cls-51, .cls-52, .cls-53, .cls-54, .cls-55, .cls-56, .cls-57, .cls-58, .cls-59, .cls-60, .cls-61, .cls-62, .cls-63, .cls-64, .cls-65 {
        stroke-width: 0px;
      }

      .cls-2 {
        fill: #00b2ea;
      }

      .cls-3 {
        fill: #abddf8;
      }

      .cls-4 {
        fill: #0092d7;
      }

      .cls-5 {
        fill: #00b0e8;
      }

      .cls-6 {
        fill: #45c0f0;
      }

      .cls-7 {
        fill: #00a9e4;
      }

      .cls-66 {
        clip-path: url(#clippath);
      }

      .cls-8 {
        fill: #00ade7;
      }

      .cls-9 {
        fill: none;
      }

      .cls-10 {
        fill: #0090d5;
      }

      .cls-11 {
        fill: #00abe5;
      }

      .cls-12 {
        fill: #d6eefb;
      }

      .cls-13 {
        fill: #b7e1f9;
      }

      .cls-14 {
        fill: #00a6e3;
      }

      .cls-15 {
        fill: #bce4f9;
      }

      .cls-16 {
        fill: #c7e8fa;
      }

      .cls-17 {
        fill: #50c2f1;
      }

      .cls-18 {
        fill: #007dc8;
      }

      .cls-19 {
        fill: #75cbf3;
      }

      .cls-20 {
        fill: #37bef0;
      }

      .cls-21 {
        fill: #fbfdff;
      }

      .cls-22 {
        fill: #84d0f4;
      }

      .cls-23 {
        fill: #a5dbf7;
      }

      .cls-24 {
        fill: #64c7f2;
      }

      .cls-25 {
        fill: #eef8fe;
      }

      .cls-26 {
        fill: #0086cf;
      }

      .cls-27 {
        fill: #2fbcef;
      }

      .cls-28 {
        fill: #5bc4f1;
      }

      .cls-29 {
        fill: #e9f6fd;
      }

      .cls-30 {
        fill: #e5f4fd;
      }

      .cls-31 {
        fill: #0fb5eb;
      }

      .cls-32 {
        fill: #007eca;
      }

      .cls-33 {
        fill: #009bdc;
      }

      .cls-34 {
        fill: #0064a9;
      }

      .cls-35 {
        fill: #009ddd;
      }

      .cls-36 {
        fill: #0094d8;
      }

      .cls-37 {
        fill: #cceafb;
      }

      .cls-38 {
        fill: #1db7ec;
      }

      .cls-39 {
        fill: #b1dff8;
      }

      .cls-40 {
        fill: #0084cd;
      }

      .cls-41 {
        fill: #00a4e1;
      }

      .cls-42 {
        fill: #d1ecfb;
      }

      .cls-43 {
        fill: #7dcdf4;
      }

      .cls-44 {
        fill: #9fd9f7;
      }

      .cls-45 {
        fill: #0082cc;
      }

      .cls-46 {
        fill: #dbf0fc;
      }

      .cls-47 {
        fill: #008cd3;
      }

      .cls-48 {
        fill: #f2fafe;
      }

      .cls-49 {
        fill: #0080cb;
      }

      .cls-50 {
        fill: #0088d0;
      }

      .cls-51 {
        fill: #8bd2f5;
      }

      .cls-52 {
        fill: #00a2e0;
      }

      .cls-53 {
        fill: #27baee;
      }

      .cls-54 {
        fill: #92d4f5;
      }

      .cls-55 {
        fill: #6dc9f3;
      }

      .cls-56 {
        fill: #009fdf;
      }

      .cls-57 {
        fill: #007bc7;
      }

      .cls-58 {
        fill: #008ad1;
      }

      .cls-59 {
        fill: #fff;
      }

      .cls-60 {
        fill: #99d6f6;
      }

      .cls-61 {
        fill: #c1e6fa;
      }

      .cls-62 {
        fill: #008ed4;
      }

      .cls-63 {
        fill: #0097d9;
      }

      .cls-64 {
        fill: #f7fcfe;
      }

      .cls-65 {
        fill: #0099db;
      }
    </style>
    <clipPath id="clippath">
      <path class="cls-9" d="M19.89,38.46c10.38,0,18.8-8.42,18.8-18.8S30.27.87,19.86.87,1.06,9.29,1.06,19.66s8.42,18.8,18.83,18.8"/>
    </clipPath>
  </defs>
  <path class="cls-59" d="M39.61,19.73c0,10.9-8.84,19.73-19.72,19.73S.16,30.63.16,19.73,8.98,0,19.89,0s19.72,8.83,19.72,19.73h0Z"/>
  <path class="cls-57" d="M19.88,38.47c10.38,0,18.8-8.42,18.8-18.81S30.26.86,19.87.86,1.07,9.27,1.07,19.66s8.43,18.81,18.81,18.81h0Z"/>
  <g class="cls-66">
    <path class="cls-57" d="M19.95,28.74c8.27,0,15.36,2.3,18.39,5.58,1.01-2.34,1.57-4.91,1.57-7.61,0-10.79-8.94-19.53-19.96-19.53S0,15.91,0,26.7c0,2.7.55,5.27,1.58,7.61,3.03-3.27,10.11-5.58,18.37-5.58h0Z"/>
    <path class="cls-18" d="M19.95,7.34C8.98,7.34.06,16.03.05,26.73v.7c.1,2.43.64,4.74,1.56,6.86,3.03-3.24,10.1-5.52,18.34-5.52s15.31,2.28,18.33,5.52c.93-2.11,1.47-4.43,1.56-6.86v-.71c0-10.7-8.91-19.38-19.9-19.38h0Z"/>
    <path class="cls-32" d="M19.95,7.5C9.01,7.5.12,16.14.1,26.74v.71c.09,2.41.63,4.72,1.56,6.82,3.01-3.22,10.07-5.49,18.28-5.49s15.27,2.27,18.29,5.49c.94-2.11,1.48-4.41,1.56-6.82v-.71c-.02-10.6-8.9-19.24-19.85-19.24h0Z"/>
    <path class="cls-49" d="M19.95,7.67C9.04,7.67.18,16.25.15,26.76v.7c.09,2.41.64,4.7,1.55,6.79,3.01-3.2,10.04-5.44,18.24-5.44s15.23,2.24,18.25,5.44c.92-2.09,1.47-4.38,1.55-6.79v-.7c-.03-10.51-8.88-19.08-19.8-19.08h0Z"/>
    <path class="cls-45" d="M19.95,7.84C9.08,7.84.25,16.36.19,26.78l.02.7c.07,2.38.62,4.66,1.55,6.74,3-3.17,10.01-5.39,18.19-5.39s15.18,2.22,18.19,5.39c.94-2.08,1.47-4.36,1.55-6.75v-.7c-.04-10.41-8.88-18.93-19.75-18.93h0Z"/>
    <path class="cls-40" d="M19.94,8C9.11,8,.31,16.47.25,26.79v.69c.08,2.38.62,4.64,1.54,6.71,3-3.14,10-5.36,18.15-5.36s15.15,2.21,18.14,5.36c.94-2.07,1.47-4.33,1.56-6.71v-.69c-.06-10.32-8.86-18.79-19.7-18.79h0Z"/>
    <path class="cls-26" d="M19.94,8.17C9.14,8.17.36,16.59.29,26.81v.7c.08,2.36.62,4.61,1.55,6.67,2.99-3.12,9.96-5.3,18.1-5.3s15.12,2.18,18.1,5.3c.93-2.06,1.48-4.31,1.54-6.67v-.69c-.06-10.22-8.85-18.63-19.64-18.63h0Z"/>
    <path class="cls-50" d="M19.94,8.34C9.17,8.34.43,16.7.34,26.83v.68c.08,2.35.62,4.59,1.55,6.63,2.97-3.09,9.94-5.26,18.05-5.26s15.07,2.17,18.05,5.26c.94-2.04,1.47-4.28,1.54-6.63v-.69c-.08-10.13-8.83-18.49-19.59-18.48h0Z"/>
    <path class="cls-58" d="M19.94,8.51C9.21,8.51.49,16.81.39,26.85v.68c.07,2.34.61,4.55,1.54,6.59,2.96-3.07,9.91-5.21,18-5.21s15.03,2.15,18.01,5.21c.93-2.03,1.46-4.26,1.52-6.59v-.68c-.09-10.04-8.8-18.34-19.53-18.34h0Z"/>
    <path class="cls-47" d="M19.94,8.67C9.25,8.67.55,16.92.44,26.87v.68c.07,2.33.61,4.54,1.55,6.55,2.94-3.03,9.87-5.17,17.95-5.17s14.99,2.13,17.95,5.17c.94-2.01,1.48-4.23,1.54-6.55v-.68c-.11-9.94-8.8-18.19-19.49-18.19h0Z"/>
    <path class="cls-62" d="M19.94,8.84C9.28,8.84.61,17.03.49,26.88v.68c.06,2.31.61,4.5,1.53,6.51,2.95-3.01,9.86-5.13,17.91-5.13s14.95,2.11,17.91,5.13c.92-2.01,1.47-4.21,1.53-6.52v-.68c-.13-9.84-8.79-18.04-19.44-18.04h0Z"/>
    <path class="cls-10" d="M19.93,9.01C9.31,9.01.68,17.15.54,26.9v.67c.07,2.3.59,4.48,1.53,6.48,2.94-2.99,9.84-5.09,17.86-5.09s14.92,2.1,17.86,5.09c.94-2,1.47-4.18,1.53-6.49v-.67c-.14-9.75-8.78-17.89-19.39-17.89h0Z"/>
    <path class="cls-4" d="M19.92,9.18C9.35,9.18.73,17.26.59,26.92v.66c.05,2.29.58,4.46,1.52,6.44,2.94-2.96,9.81-5.03,17.81-5.03s14.89,2.07,17.82,5.03c.92-1.98,1.47-4.15,1.52-6.44v-.67c-.15-9.66-8.75-17.74-19.34-17.74h0Z"/>
    <path class="cls-36" d="M19.92,9.34C9.38,9.34.79,17.37.64,26.94v.66c.06,2.27.58,4.43,1.52,6.4,2.93-2.93,9.78-4.99,17.76-4.99s14.84,2.06,17.77,4.99c.94-1.97,1.47-4.13,1.52-6.4v-.67c-.17-9.57-8.74-17.59-19.29-17.59h0Z"/>
    <path class="cls-63" d="M19.92,9.51C9.42,9.51.86,17.48.69,26.96v.65c.04,2.26.58,4.4,1.51,6.37,2.92-2.91,9.76-4.95,17.72-4.95s14.8,2.04,17.72,4.95c.94-1.97,1.46-4.11,1.52-6.37v-.66c-.18-9.47-8.72-17.45-19.24-17.45h0Z"/>
    <path class="cls-65" d="M19.92,9.67C9.45,9.67.92,17.59.73,26.98v.65c.06,2.24.58,4.38,1.52,6.33,2.9-2.88,9.73-4.9,17.67-4.9s14.75,2.02,17.67,4.9c.94-1.95,1.47-4.08,1.51-6.33v-.66c-.2-9.38-8.71-17.3-19.19-17.3h0Z"/>
    <path class="cls-33" d="M19.91,9.84C9.48,9.84.99,17.71.79,27v.65c.04,2.23.56,4.35,1.5,6.29,2.9-2.86,9.7-4.86,17.62-4.86s14.73,2,17.63,4.86c.93-1.94,1.47-4.06,1.51-6.3v-.65c-.2-9.29-8.69-17.15-19.13-17.15h0Z"/>
    <path class="cls-35" d="M19.91,10.01C9.52,10.01,1.04,17.82.83,27.01v.64c.05,2.22.57,4.34,1.51,6.26,2.89-2.83,9.68-4.82,17.58-4.82s14.68,1.99,17.58,4.82c.94-1.93,1.46-4.04,1.51-6.26v-.65c-.22-9.19-8.68-16.99-19.08-16.99h0Z"/>
    <path class="cls-56" d="M19.91,10.17C9.54,10.17,1.11,17.93.89,27.04v.63c.03,2.2.56,4.3,1.49,6.21,2.89-2.8,9.65-4.77,17.54-4.77s14.65,1.96,17.53,4.77c.94-1.91,1.47-4.01,1.5-6.21v-.64c-.24-9.1-8.66-16.85-19.03-16.85h0Z"/>
    <path class="cls-52" d="M19.9,10.34C9.58,10.34,1.17,18.04.94,27.05v.64c.03,2.18.55,4.28,1.49,6.17,2.88-2.77,9.63-4.73,17.48-4.73s14.61,1.96,17.49,4.73c.94-1.9,1.47-3.99,1.5-6.17v-.64c-.25-9-8.65-16.7-18.99-16.7h0Z"/>
    <path class="cls-41" d="M19.9,10.51C9.62,10.51,1.23,18.15.98,27.07v.63c.02,2.17.55,4.25,1.48,6.13,2.87-2.75,9.62-4.68,17.44-4.68s14.57,1.93,17.45,4.68c.94-1.89,1.45-3.96,1.49-6.14v-.64c-.26-8.9-8.64-16.55-18.94-16.55h0Z"/>
    <path class="cls-14" d="M19.9,10.67C9.65,10.67,1.3,18.27,1.03,27.09v.62c.03,2.16.55,4.22,1.48,6.09,2.86-2.72,9.57-4.63,17.39-4.63s14.53,1.91,17.39,4.63c.94-1.87,1.46-3.93,1.48-6.09v-.64c-.27-8.81-8.61-16.4-18.88-16.4h0Z"/>
    <path class="cls-7" d="M19.9,10.84C9.68,10.84,1.35,18.38,1.08,27.11v.62c.02,2.14.53,4.2,1.47,6.05,2.86-2.7,9.55-4.58,17.35-4.58s14.48,1.89,17.34,4.58c.94-1.86,1.46-3.91,1.48-6.06v-.63c-.29-8.72-8.61-16.25-18.83-16.25h0Z"/>
    <path class="cls-11" d="M19.9,11.01C9.72,11.01,1.41,18.5,1.13,27.12v.62c0,2.13.54,4.18,1.47,6.02,2.84-2.67,9.52-4.54,17.29-4.54s14.46,1.87,17.29,4.54c.94-1.85,1.47-3.89,1.48-6.02v-.63c-.29-8.62-8.58-16.1-18.77-16.1h0Z"/>
    <path class="cls-8" d="M19.9,11.17C9.74,11.17,1.48,18.6,1.18,27.14v.62c.02,2.11.53,4.14,1.47,5.98,2.84-2.64,9.5-4.49,17.25-4.49s14.41,1.85,17.26,4.49c.92-1.83,1.45-3.87,1.46-5.98v-.63c-.31-8.52-8.57-15.95-18.72-15.95h0Z"/>
    <path class="cls-5" d="M19.9,11.34C9.78,11.34,1.53,18.72,1.22,27.15v.62c.01,2.1.53,4.12,1.47,5.95,2.83-2.62,9.47-4.45,17.2-4.45s14.37,1.83,17.2,4.45c.94-1.83,1.47-3.84,1.47-5.95v-.62c-.33-8.43-8.56-15.81-18.67-15.81h0Z"/>
    <path class="cls-2" d="M19.9,11.51C9.82,11.51,1.6,18.83,1.28,27.18l-.02.61c.02,2.09.53,4.1,1.47,5.9,2.82-2.59,9.44-4.4,17.16-4.4s14.32,1.81,17.16,4.4c.93-1.81,1.45-3.82,1.46-5.9v-.62c-.33-8.34-8.54-15.66-18.62-15.66h0Z"/>
    <path class="cls-31" d="M19.89,11.67C9.86,11.67,1.66,18.94,1.32,27.19v.6c0,2.08.52,4.07,1.46,5.87,2.82-2.57,9.42-4.36,17.11-4.36s14.28,1.79,17.1,4.36c.95-1.8,1.46-3.79,1.47-5.87l-.02-.61c-.33-8.25-8.52-15.51-18.56-15.51h0Z"/>
    <path class="cls-38" d="M19.89,11.84C9.88,11.84,1.72,19.05,1.37,27.21l-.02.6c.02,2.07.53,4.05,1.47,5.83,2.8-2.54,9.4-4.32,17.06-4.32s14.25,1.77,17.05,4.32c.95-1.79,1.46-3.77,1.47-5.83v-.61c-.36-8.16-8.51-15.36-18.52-15.36h0Z"/>
    <path class="cls-53" d="M19.89,12C9.91,12,1.78,19.17,1.42,27.23l-.02.59c0,2.05.53,4.02,1.47,5.79,2.8-2.52,9.36-4.27,17.02-4.27s14.21,1.75,17.01,4.27c.93-1.77,1.45-3.73,1.45-5.79v-.61c-.38-8.06-8.5-15.21-18.46-15.21h0Z"/>
    <path class="cls-27" d="M19.88,12.17C9.96,12.17,1.84,19.28,1.48,27.24l-.02.59c0,2.04.53,3.99,1.45,5.76,2.8-2.49,9.35-4.23,16.97-4.23s14.18,1.74,16.97,4.23c.95-1.77,1.44-3.72,1.46-5.76l-.02-.6c-.38-7.96-8.47-15.06-18.41-15.06h0Z"/>
    <path class="cls-20" d="M19.87,29.38c7.61,0,14.15,1.72,16.93,4.19.94-1.76,1.45-3.7,1.45-5.72,0-8.11-8.21-15.51-18.38-15.51S1.51,19.75,1.51,27.85c0,2.03.52,3.97,1.45,5.73,2.8-2.47,9.31-4.19,16.91-4.19h0Z"/>
    <path class="cls-6" d="M19.87,29.44c7.6,0,14.13,1.7,16.9,4.15.95-1.74,1.46-3.66,1.46-5.68,0-8.06-8.21-15.42-18.36-15.42S1.53,19.86,1.53,27.91c0,2.01.52,3.94,1.45,5.68,2.78-2.45,9.31-4.15,16.89-4.15h0Z"/>
    <path class="cls-17" d="M19.87,29.48c7.59,0,14.1,1.7,16.88,4.13.94-1.73,1.45-3.64,1.45-5.65,0-8-8.2-15.32-18.33-15.32S1.56,19.97,1.56,27.97c0,2,.52,3.91,1.45,5.65,2.78-2.43,9.3-4.13,16.87-4.13h0Z"/>
    <path class="cls-28" d="M19.87,29.53c7.58,0,14.09,1.69,16.86,4.1.94-1.72,1.46-3.61,1.46-5.6,0-7.95-8.19-15.23-18.32-15.23S1.58,20.08,1.58,28.03c0,1.98.52,3.89,1.45,5.61,2.77-2.42,9.28-4.11,16.84-4.11h0Z"/>
    <path class="cls-24" d="M19.87,29.57c7.58,0,14.06,1.68,16.83,4.08.94-1.71,1.45-3.6,1.45-5.57,0-7.9-8.18-15.13-18.28-15.13S1.6,20.19,1.6,28.09c0,1.97.52,3.86,1.45,5.57,2.77-2.4,9.27-4.08,16.82-4.08h0Z"/>
    <path class="cls-55" d="M19.87,29.63c7.55,0,14.05,1.66,16.82,4.05.93-1.7,1.44-3.57,1.44-5.53,0-7.85-8.16-15.04-18.26-15.04S1.64,20.29,1.64,28.14c0,1.96.5,3.84,1.43,5.53,2.78-2.38,9.26-4.05,16.8-4.05h0Z"/>
    <path class="cls-19" d="M19.87,29.67c7.55,0,14.04,1.66,16.79,4.03.93-1.69,1.45-3.55,1.45-5.49,0-7.79-8.16-14.94-18.24-14.94S1.65,20.41,1.65,28.2c0,1.94.52,3.81,1.43,5.49,2.77-2.37,9.26-4.03,16.78-4.03h0Z"/>
    <path class="cls-43" d="M19.87,29.71c7.54,0,14.01,1.65,16.77,4,.92-1.67,1.43-3.52,1.43-5.46,0-7.74-8.14-14.84-18.2-14.84S1.68,20.52,1.68,28.26c0,1.94.52,3.79,1.44,5.46,2.76-2.35,9.23-3.99,16.75-4h0Z"/>
    <path class="cls-22" d="M19.87,29.77c7.54,0,13.99,1.63,16.74,3.96.93-1.66,1.43-3.49,1.43-5.42,0-7.68-8.14-14.75-18.18-14.75S1.7,20.63,1.7,28.31c0,1.93.51,3.76,1.43,5.42,2.76-2.34,9.22-3.97,16.73-3.97h0Z"/>
    <path class="cls-51" d="M19.87,29.81c7.52,0,13.97,1.62,16.72,3.94.92-1.65,1.44-3.48,1.44-5.38,0-7.63-8.12-14.66-18.16-14.66S1.74,20.74,1.74,28.37c0,1.92.5,3.73,1.42,5.38,2.75-2.32,9.21-3.94,16.71-3.94h0Z"/>
    <path class="cls-54" d="M19.87,29.86c7.51,0,13.96,1.61,16.69,3.91.93-1.64,1.45-3.45,1.45-5.34,0-7.58-8.12-14.56-18.14-14.56S1.75,20.86,1.75,28.44c0,1.89.51,3.7,1.43,5.34,2.75-2.3,9.19-3.91,16.68-3.91h0Z"/>
    <path class="cls-60" d="M19.87,29.91c7.51,0,13.92,1.61,16.68,3.89.91-1.63,1.43-3.42,1.43-5.3,0-7.53-8.11-14.46-18.11-14.46S1.78,20.96,1.78,28.5c0,1.88.52,3.68,1.43,5.31,2.75-2.29,9.19-3.89,16.66-3.89h0Z"/>
    <path class="cls-44" d="M19.87,29.96c7.49,0,13.91,1.59,16.65,3.86.92-1.62,1.42-3.4,1.42-5.27,0-7.47-8.08-14.37-18.08-14.37S1.8,21.08,1.8,28.55c0,1.87.51,3.66,1.43,5.27,2.75-2.27,9.17-3.86,16.64-3.86h0Z"/>
    <path class="cls-23" d="M19.87,30.01c7.48,0,13.89,1.58,16.63,3.84.92-1.61,1.43-3.38,1.43-5.24,0-7.42-8.08-14.27-18.06-14.27S1.84,21.19,1.84,28.6c0,1.86.5,3.63,1.42,5.24,2.73-2.26,9.14-3.84,16.61-3.84h0Z"/>
    <path class="cls-3" d="M19.87,30.06c7.46,0,13.87,1.57,16.6,3.8.92-1.6,1.43-3.35,1.43-5.2,0-7.37-8.06-14.17-18.03-14.17S1.85,21.3,1.85,28.66c0,1.85.51,3.6,1.42,5.2,2.75-2.24,9.14-3.8,16.6-3.8h0Z"/>
    <path class="cls-39" d="M19.87,30.1c7.46,0,13.85,1.56,16.59,3.78.91-1.58,1.42-3.33,1.42-5.16,0-7.31-8.06-14.08-18.01-14.08S1.87,21.41,1.87,28.72c0,1.83.52,3.58,1.43,5.16,2.73-2.22,9.13-3.78,16.57-3.78h0Z"/>
    <path class="cls-13" d="M19.87,30.15c7.45,0,13.83,1.55,16.57,3.75.91-1.57,1.41-3.3,1.41-5.12,0-7.26-8.04-13.98-17.98-13.98S1.91,21.52,1.91,28.78c0,1.82.51,3.56,1.41,5.12,2.73-2.2,9.12-3.75,16.55-3.75h0Z"/>
    <path class="cls-15" d="M19.88,30.2c7.43,0,13.81,1.53,16.52,3.72.92-1.56,1.42-3.28,1.42-5.08,0-7.21-8.03-13.89-17.95-13.89S1.93,21.63,1.93,28.84c0,1.8.51,3.53,1.42,5.08,2.72-2.19,9.11-3.72,16.54-3.72h0Z"/>
    <path class="cls-61" d="M19.88,30.25c7.42,0,13.8,1.52,16.51,3.7.91-1.55,1.42-3.26,1.42-5.05,0-7.16-8.03-13.8-17.92-13.8S1.96,21.74,1.96,28.89c0,1.8.49,3.5,1.4,5.05,2.73-2.18,9.1-3.69,16.52-3.7h0Z"/>
    <path class="cls-16" d="M19.88,30.3c7.4,0,13.76,1.51,16.48,3.66.91-1.53,1.41-3.23,1.41-5.01,0-7.11-8.01-13.7-17.9-13.7S1.99,21.85,1.99,28.95c0,1.78.49,3.47,1.4,5.01,2.73-2.16,9.09-3.66,16.5-3.66h0Z"/>
    <path class="cls-37" d="M19.88,30.34c7.4,0,13.74,1.5,16.46,3.64.91-1.53,1.41-3.21,1.41-4.97,0-7.05-8-13.6-17.87-13.6S1.99,21.96,1.99,29.01c0,1.76.52,3.45,1.42,4.97,2.71-2.14,9.07-3.64,16.47-3.64h0Z"/>
    <path class="cls-42" d="M19.88,30.39c7.39,0,13.72,1.5,16.43,3.62.91-1.51,1.42-3.19,1.42-4.93,0-7-7.99-13.51-17.85-13.51S2.02,22.07,2.02,29.07c0,1.75.5,3.42,1.41,4.93,2.72-2.12,9.07-3.62,16.45-3.62h0Z"/>
    <path class="cls-12" d="M19.88,30.44c7.38,0,13.71,1.48,16.41,3.58.9-1.5,1.41-3.16,1.41-4.89,0-6.95-7.98-13.42-17.82-13.42S2.06,22.18,2.06,29.13c0,1.74.5,3.4,1.4,4.89,2.71-2.11,9.05-3.58,16.43-3.58h0Z"/>
    <path class="cls-46" d="M19.88,30.49c7.36,0,13.69,1.47,16.39,3.56.9-1.49,1.41-3.13,1.41-4.86,0-6.89-7.97-13.32-17.8-13.32S2.08,22.29,2.08,29.19c0,1.73.5,3.37,1.4,4.86,2.71-2.09,9.04-3.56,16.4-3.56h0Z"/>
    <path class="cls-1" d="M19.88,30.53c7.35,0,13.67,1.46,16.36,3.54.91-1.47,1.41-3.11,1.41-4.82,0-6.84-7.96-13.23-17.77-13.23S2.11,22.41,2.11,29.24c0,1.71.5,3.35,1.4,4.83,2.7-2.08,9.03-3.54,16.38-3.54h0Z"/>
    <path class="cls-30" d="M19.88,30.58c7.35,0,13.64,1.44,16.35,3.51.89-1.47,1.4-3.08,1.4-4.78,0-6.79-7.95-13.13-17.75-13.13S2.13,22.51,2.13,29.3c0,1.71.5,3.32,1.39,4.79,2.7-2.07,9.01-3.51,16.36-3.51h0Z"/>
    <path class="cls-29" d="M19.88,30.63c7.33,0,13.62,1.43,16.33,3.48.89-1.45,1.4-3.06,1.4-4.75,0-6.73-7.93-13.04-17.72-13.04S2.16,22.63,2.16,29.36c0,1.69.49,3.3,1.38,4.75,2.7-2.05,9-3.48,16.34-3.48h0Z"/>
    <path class="cls-25" d="M19.88,30.68c7.33,0,13.62,1.42,16.3,3.45.9-1.44,1.4-3.03,1.4-4.71,0-6.68-7.93-12.94-17.7-12.94S2.18,22.74,2.18,29.41c0,1.68.49,3.27,1.39,4.72,2.7-2.03,8.99-3.45,16.31-3.45h0Z"/>
    <path class="cls-48" d="M19.88,30.73c7.31,0,13.59,1.41,16.28,3.42.9-1.44,1.4-3.02,1.4-4.68,0-6.62-7.91-12.83-17.67-12.83S2.2,22.85,2.2,29.47c0,1.67.5,3.24,1.39,4.68,2.69-2.01,8.98-3.42,16.29-3.42h0Z"/>
    <path class="cls-64" d="M19.88,30.77c7.31,0,13.57,1.4,16.25,3.4.9-1.42,1.4-2.99,1.4-4.63,0-6.58-7.91-12.75-17.65-12.75S2.22,22.96,2.22,29.54c0,1.65.5,3.21,1.4,4.64,2.68-2,8.97-3.4,16.27-3.4h0Z"/>
    <path class="cls-21" d="M19.88,30.82c7.31,0,13.55,1.39,16.23,3.38.89-1.42,1.4-2.97,1.4-4.6,0-6.53-7.9-12.65-17.63-12.65S2.25,23.07,2.25,29.59c0,1.63.5,3.19,1.38,4.61,2.68-1.99,8.95-3.37,16.24-3.38h0Z"/>
    <path class="cls-59" d="M19.88,30.87c7.28,0,13.53,1.38,16.21,3.35.89-1.4,1.38-2.94,1.38-4.56,0-6.47-7.88-12.56-17.59-12.56S2.28,23.18,2.28,29.65c0,1.63.49,3.16,1.38,4.56,2.68-1.97,8.94-3.34,16.22-3.35h0Z"/>
  </g>
  <path class="cls-57" d="M19.87,24.41c-6.37,0-12.28,1.08-17.16,2.91,2.92,6.58,9.52,11.16,17.17,11.16s14.24-4.58,17.19-11.16c-4.89-1.83-10.81-2.91-17.2-2.91h0Z"/>
  <path class="cls-34" d="M106.25,25.07h4.07c.35.03.65.14.9.55.2.32.17,1.38.17,1.38v7.32c.06.69.39,1.89,2.91,1.99h18.66v-2.59h-15.91c-1,.07-1.1-.43-1.14-1.04v-6.13c0-.61-.08-1.16-.6-1.48h19.69v-2.57h-28.74v2.57h0Z"/>
  <path class="cls-34" d="M121.31,19.83c5.66,0,10.25-3.09,10.25-7.67s-4.59-7.68-10.25-7.68-10.26,3.09-10.26,7.68,4.59,7.67,10.26,7.67h0ZM121.31,7.1c3.09,0,5.62,1.96,5.62,5.06s-2.53,5.07-5.62,5.07-5.63-1.97-5.63-5.07,2.52-5.06,5.63-5.06h0Z"/>
  <polygon class="cls-34" points="44.95 26.11 57.19 26.11 57.19 37.15 61.9 37.15 61.9 26.11 74.14 26.11 74.14 23.43 44.95 23.43 44.95 26.11 44.95 26.11"/>
  <path class="cls-34" d="M59.55,20.56c5.94,0,10.77-3.25,10.77-8.05s-4.82-8.06-10.77-8.06-10.79,3.24-10.79,8.06,4.83,8.05,10.79,8.05h0ZM59.55,7.2c3.26,0,5.89,2.06,5.89,5.3s-2.64,5.31-5.89,5.31-5.91-2.06-5.91-5.31,2.65-5.3,5.91-5.3h0Z"/>
  <path class="cls-34" d="M143.14,6.04v.93h-6.45v2.55h3.08c-1.62,1.19-2.64,2.96-2.64,5.1,0,4.01,3.57,6.71,7.98,6.71s7.97-2.7,7.97-6.71c0-2.15-1.02-3.91-2.64-5.1h2.86v-2.55h-6.12v-1.44c0-.71-.22-1.1-1.2-1.1h-3.19s.36.22.36,1.61h0ZM141.24,14.63c0-2.57,1.73-4.19,3.85-4.19s3.87,1.63,3.87,4.19-1.73,4.19-3.87,4.19-3.85-1.63-3.85-4.19h0Z"/>
  <path class="cls-34" d="M153.9,22.34c-5.46,0-9.88,2.95-9.88,7.33s4.43,7.33,9.88,7.33,9.89-2.95,9.89-7.33-4.43-7.33-9.89-7.33h0ZM153.9,34.45c-2.93,0-5.3-1.85-5.3-4.78s2.37-4.78,5.3-4.78,5.31,1.85,5.31,4.78-2.37,4.78-5.31,4.78h0Z"/>
  <path class="cls-34" d="M160.16,7.55v3.68h-1.71v-5.2c0-.69-.23-1.06-1.24-1.06h-2.85s.38.34.38,2.57v13.38h3.72v-7.04h1.71v7.04h3.71V6.03c0-.69-.23-1.06-1.24-1.06h-2.85s.39.37.39,2.57h0Z"/>
  <path class="cls-34" d="M97.39,36.29h4.39V6.05c0-.69-.46-1.06-1.5-1.06h-3.28s.38.3.38,2.6v28.71h.01Z"/>
  <path class="cls-34" d="M97.39,23.01c0,2.42-3.72,2.37-3.72,2.37h-10.79c-1.01.07-1.11-.43-1.13-1.04v-6.51h9.32c1.03,0,1.27-.38,1.27-1.07V7.01c0-.7-.24-1.07-1.27-1.07h-14.4v2.59h11.08v6.69h-10.98s.39.5.39,1.85v8.9c.05.7.38,1.89,2.91,1.99h12.64s4.94.15,4.94-1.41M97.39,23.01"/>
</svg>