<?xml version="1.0" encoding="UTF-8"?>
<svg id="_레이어_1" data-name="레이어 1" xmlns="http://www.w3.org/2000/svg" viewBox="0 0 1140.95 365.71">
  <defs>
    <style>
      .cls-1 {
        fill: #000;
      }

      .cls-1, .cls-2, .cls-3 {
        stroke-width: 0px;
      }

      .cls-2 {
        fill: #64ff93;
      }

      .cls-3 {
        fill: #4f42e9;
      }
    </style>
  </defs>
  <rect class="cls-2" x="0" y="0" width="1140.95" height="242.53"/>
  <g>
    <polygon class="cls-3" points="1019.68 0 1100.3 80.61 1140.95 121.27 1140.95 0 1019.68 0"/>
    <polygon class="cls-3" points="1019.68 242.53 1140.95 242.53 1140.95 121.27 1100.3 161.92 1019.68 242.53"/>
  </g>
  <g>
    <polygon class="cls-1" points="121.27 121.27 0 121.27 0 242.53 121.27 242.53 242.53 121.27 242.53 0 121.27 121.27"/>
    <rect class="cls-1" x="242.53" y="121.27" width="121.27" height="121.27"/>
    <polygon class="cls-1" points="606.35 0 522.79 83.56 485.08 121.27 485.08 167.11 485.08 242.53 606.35 242.53 606.35 83.56 606.35 78.07 727.61 78.07 727.61 0 606.35 0"/>
    <polygon class="cls-1" points="1018.75 83.56 1018.75 0 802.89 0 802.89 0 727.61 78.07 727.61 110.38 727.61 161.41 771.74 161.41 866.89 161.41 866.89 242.53 1018.75 242.53 1018.75 161.41 866.89 161.41 866.89 83.56 1018.75 83.56"/>
    <rect class="cls-1" x="363.81" y="0" width="121.27" height="121.27"/>
  </g>
  <g>
    <g>
      <path class="cls-1" d="M155.68,323.53c0-17.11,8.2-25.15,19.56-25.15s19.21,8.05,19.21,25.15-8.13,25.44-19.21,25.44-19.56-7.97-19.56-25.44ZM165.94,323.6c0,10.66,3.79,16.24,9.23,16.24,5.03,0,8.95-5.36,8.95-16.24s-3.93-16.17-8.95-16.17c-5.44,0-9.23,5.29-9.23,16.17ZM222.82,328.24h-11.91v37.19h-10.81v-70.61h10.81v24.36h11.91v9.06Z"/>
      <path class="cls-1" d="M251.19,298.66v19.35c0,10.58,7.85,17.91,16.73,22.33l-5.03,8.63c-5.85-3.48-12.74-8.34-17.08-15.08-3.86,6.6-11.09,12.54-17.97,17.25l-6.54-8.12c10.12-6.02,19.01-14.14,19.01-25.23v-19.14h10.88ZM283.42,365.42h-10.81v-70.61h10.81v70.61Z"/>
      <path class="cls-1" d="M292.03,323.53c0-17.11,8.19-25.15,19.56-25.15s19.21,8.05,19.21,25.15-8.13,25.44-19.21,25.44-19.56-7.97-19.56-25.44ZM302.29,323.6c0,10.66,3.79,16.24,9.23,16.24,5.03,0,8.95-5.36,8.95-16.24s-3.93-16.17-8.95-16.17c-5.44,0-9.23,5.29-9.23,16.17ZM359.18,328.24h-11.91v37.19h-10.81v-70.61h10.81v24.36h11.91v9.06Z"/>
      <path class="cls-1" d="M424.67,347.95v8.84h-64.46v-8.84h64.46ZM368.41,338.75v-40.09h48.62v8.48h-37.67v7.18h37.67v8.48h-37.67v7.47h38.29v8.48h-49.24Z"/>
      <path class="cls-1" d="M460.41,347.16c-9.64,1.31-18.46,1.38-29.13,1.38v-29.5h13.57v-11.6h-13.71v-8.26h23.9v28.2h-13.36v12.4c4.27,0,12.53-.29,18.73-1.02v8.41ZM474.32,363.03h-9.99v-36.39h-7.16v-9.13h7.16v-22.25h9.99v67.78ZM488.72,365.42h-10.19v-70.61h10.19v70.61Z"/>
      <path class="cls-1" d="M517.5,295.4c11.57,0,19.01,7.54,19.01,16.82s-7.44,16.96-19.01,16.96-19.21-7.25-19.21-16.96,8.06-16.82,19.21-16.82ZM526.18,312.22c0-4.86-3.72-8.41-8.68-8.41-5.58,0-8.81,3.55-8.81,8.41s3.24,8.34,8.81,8.34c5.1,0,8.68-3.48,8.68-8.34ZM557.31,365.71h-48.48v-20.15h35.81v-4.13h-35.81v-7.97h46.83v19.93h-35.81v4.35h37.46v7.97ZM555.66,330.05h-10.74v-35.23h10.74v35.23Z"/>
      <path class="cls-1" d="M629.2,346.87v8.99h-64.46v-8.99h64.46ZM620.6,338.24c-8.47-2.83-18.39-9.06-23.62-16.02-4.75,6.67-14.53,12.61-23.62,16.17l-5.85-8.41c10.05-3.26,23.83-11.31,23.83-19.79v-2.25h-18.73v-8.63h48.83v8.63h-18.87v2.25c0,8.48,13.36,16.17,23.83,19.79l-5.79,8.26Z"/>
      <path class="cls-1" d="M670.32,298.52c.14,25.66-14.46,36.1-30.71,42.48l-5.16-7.68c8.33-3.41,14.94-6.96,19.28-11.82-5.79.58-11.5.94-16.94,1.02v-8.41c5.65-.07,14.26-.51,21.76-1.09.55-1.81.89-3.77,1.03-5.94h-21.42v-8.55h32.16ZM692.22,363.98h-47.45v-21.82h11.02v13.19h36.43v8.63ZM690.98,345.06h-10.74v-20.66h-11.36v-8.92h11.36v-20.66h10.74v50.24Z"/>
      <path class="cls-1" d="M745.18,346.07c-11.98,1.67-28.1,1.96-43.52,1.96v-8.63h7.92l-.76-25.88h10.33l.69,25.66c2.62-.07,5.16-.07,7.71-.22l.62-25.44h10.4l-.69,24.87c2.55-.22,4.96-.43,7.3-.73v8.41ZM703.24,308.52v-8.77h40.01v8.77h-40.01ZM761.43,365.42h-10.81v-38.93h-8.95v-9.21h8.95v-22.47h10.81v70.61Z"/>
      <path class="cls-1" d="M811.22,336.43c-11.85,1.45-26.38,1.67-37.46,1.67v-23.85h18.32v-7.83h-18.32v-8.12h28.72v23.85h-18.32v7.68c8.61,0,15.91-.44,27.06-1.45v8.05ZM828.58,363.98h-47.45v-20.73h11.02v12.11h36.43v8.63ZM827.34,345.85h-10.74v-24.72h-10.67v-8.84h10.67v-17.47h10.74v51.03Z"/>
      <path class="cls-1" d="M901.92,346.51v8.99h-64.46v-8.99h64.46ZM875.2,308.45c0,9.71,14.05,18.7,23.69,22.11l-5.85,8.05c-8.13-3.26-18.46-8.84-23.35-16.74-4.75,7.18-14.39,13.26-23.55,16.82l-5.78-8.19c9.85-3.41,23.69-12.32,23.69-22.04v-10.22h11.16v10.22Z"/>
      <path class="cls-1" d="M955.09,308.59v9.28c0,10.58,7.37,18.05,16.25,22.47l-5.24,8.63c-5.85-3.48-12.12-8.26-16.39-15.01-3.86,6.6-10.67,12.47-17.56,17.18l-6.54-8.12c10.12-6.02,18.59-14.28,18.59-25.37v-9.06h-13.91v-8.84h38.22v8.84h-13.43ZM985.87,365.42h-10.81v-70.61h10.81v70.61Z"/>
      <path class="cls-1" d="M1038.07,347.23c-14.05,1.59-26.79,1.74-38.77,1.74v-29.87h21.35v-11.45h-21.35v-8.48h32.16v28.42h-21.35v12.76c10.6,0,14.74-.07,27.96-1.52v8.41ZM1053.43,365.42h-10.81v-70.61h10.81v70.61Z"/>
      <path class="cls-1" d="M1099.29,336.28c-6.54-2.46-12.95-6.6-17.01-11.82-3.79,5.8-11.02,10.44-17.63,13.99l-5.92-7.18c8.61-4.42,17.77-10.58,17.77-20.37v-13.77h10.67v13.7c0,9.42,8.54,14.5,16.53,17.98l-4.41,7.47ZM1120.23,363.98h-47.59v-22.47h11.02v13.85h36.57v8.63ZM1128.7,324.32h-10.74v20.73h-10.74v-50.24h10.74v20.66h10.74v8.84Z"/>
    </g>
    <g>
      <path class="cls-1" d="M15.72,328.41l1.81-32.61h34.44v9.13h-24.14l-.86,13.27c3.24-2.74,5.91-3.48,10.4-3.48,15.65,0,17.84,11.62,17.84,21.49,0,14.1-4.67,22.07-19.75,22.07-16.22,0-20.51-6.47-20.42-20.83h12.5c.19,4.48-.57,11.37,6.68,11.7,7.92.41,7.44-6.88,7.63-13.02.48-9.96-2.77-12.28-7.63-12.28-3.34,0-6.3,1.91-6.68,4.56h-11.83Z"/>
      <path class="cls-1" d="M85.26,357.2c-7.35.75-17.65,1.33-17.65-7.38v-31.69h-5.06v-7.88h4.96v-12.86h12.5v12.86h5.25v7.88h-5.25v29.04c.29,1.99,3.72,1.74,5.25,1.57v8.46Z"/>
      <path class="cls-1" d="M95.56,357.03v-62.22h12.4v20.25h.19c3.53-5.48,8.49-6.06,11.16-6.06,7.06,0,12.78,3.57,12.4,11.95v36.09h-12.4v-32.02c0-4.56-.57-7.55-5.25-7.72-4.68-.17-6.3,3.65-6.11,8.63v31.11h-12.4Z"/>
    </g>
  </g>
</svg>