<?xml version="1.0" encoding="UTF-8"?>
<svg id="_레이어_1" data-name="레이어 1" xmlns="http://www.w3.org/2000/svg" viewBox="0 0 1140.95 376.83">
  <defs>
    <style>
      .cls-1 {
        fill: #000;
      }

      .cls-1, .cls-2, .cls-3 {
        stroke-width: 0px;
      }

      .cls-2 {
        fill: #64ff93;
      }

      .cls-3 {
        fill: #4f42e9;
      }
    </style>
  </defs>
  <g>
    <g>
      <polygon class="cls-3" points="1019.68 0 1100.3 80.61 1140.95 121.27 1140.95 0 1019.68 0"/>
      <polygon class="cls-3" points="1019.68 242.53 1140.95 242.53 1140.95 121.27 1100.3 161.92 1019.68 242.53"/>
    </g>
    <polygon class="cls-2" points="1100.3 80.61 1019.68 0 867.12 0 867.12 0 0 0 0 242.53 867.12 242.53 1019.68 242.53 1100.3 161.92 1140.95 121.27 1100.3 80.61"/>
    <g>
      <polygon class="cls-1" points="121.27 121.27 0 121.27 0 242.53 121.27 242.53 242.53 121.27 242.53 0 121.27 121.27"/>
      <rect class="cls-1" x="242.53" y="121.27" width="121.27" height="121.27"/>
      <polygon class="cls-1" points="606.35 0 522.79 83.56 485.08 121.27 485.08 167.11 485.08 242.53 606.35 242.53 606.35 83.56 606.35 78.07 727.61 78.07 727.61 0 606.35 0"/>
      <polygon class="cls-1" points="1018.75 83.56 1018.75 0 802.89 0 802.89 0 727.61 78.07 727.61 110.38 727.61 161.41 771.74 161.41 866.89 161.41 866.89 242.53 1018.75 242.53 1018.75 161.41 866.89 161.41 866.89 83.56 1018.75 83.56"/>
      <rect class="cls-1" x="363.81" y="0" width="121.27" height="121.27"/>
    </g>
  </g>
  <g>
    <path class="cls-1" d="M22.55,329.2c0-19.31,9.25-28.4,22.08-28.4s21.69,9.08,21.69,28.4-9.17,28.72-21.69,28.72-22.08-9-22.08-28.72ZM34.13,329.28c0,12.03,4.28,18.33,10.42,18.33,5.67,0,10.11-6.06,10.11-18.33s-4.43-18.25-10.11-18.25c-6.14,0-10.42,5.97-10.42,18.25ZM98.35,334.52h-13.45v41.98h-12.21v-79.71h12.21v27.5h13.45v10.23Z"/>
    <path class="cls-1" d="M130.37,301.13v21.85c0,11.95,8.86,20.21,18.89,25.2l-5.67,9.74c-6.61-3.93-14.38-9.41-19.28-17.02-4.35,7.45-12.52,14.16-20.29,19.48l-7.38-9.16c11.43-6.79,21.46-15.96,21.46-28.48v-21.6h12.28ZM166.75,376.5h-12.21v-79.71h12.21v79.71Z"/>
    <path class="cls-1" d="M176.46,329.2c0-19.31,9.25-28.4,22.08-28.4s21.69,9.08,21.69,28.4-9.17,28.72-21.69,28.72-22.08-9-22.08-28.72ZM188.04,329.28c0,12.03,4.28,18.33,10.42,18.33,5.68,0,10.11-6.06,10.11-18.33s-4.43-18.25-10.11-18.25c-6.14,0-10.42,5.97-10.42,18.25ZM252.26,334.52h-13.45v41.98h-12.21v-79.71h12.21v27.5h13.45v10.23Z"/>
    <path class="cls-1" d="M326.18,356.78v9.98h-72.77v-9.98h72.77ZM262.66,346.39v-45.25h54.89v9.57h-42.53v8.1h42.53v9.57h-42.53v8.43h43.23v9.57h-55.59Z"/>
    <path class="cls-1" d="M366.52,355.88c-10.88,1.47-20.84,1.55-32.89,1.55v-33.31h15.32v-13.09h-15.47v-9.33h26.98v31.83h-15.08v13.99c4.82,0,14.15-.33,21.15-1.15v9.49ZM382.22,373.8h-11.27v-41.08h-8.08v-10.31h8.08v-25.12h11.27v76.52ZM398.47,376.5h-11.5v-79.71h11.5v79.71Z"/>
    <path class="cls-1" d="M430.95,297.45c13.06,0,21.46,8.51,21.46,18.99s-8.4,19.15-21.46,19.15-21.69-8.18-21.69-19.15,9.1-18.99,21.69-18.99ZM440.75,316.44c0-5.48-4.2-9.49-9.8-9.49-6.3,0-9.95,4.01-9.95,9.49s3.65,9.41,9.95,9.41c5.75,0,9.8-3.93,9.8-9.41ZM475.89,376.83h-54.73v-22.75h40.43v-4.66h-40.43v-9h52.87v22.5h-40.43v4.91h42.29v9ZM474.02,336.57h-12.13v-39.77h12.13v39.77Z"/>
    <path class="cls-1" d="M557.04,355.55v10.15h-72.77v-10.15h72.77ZM547.32,345.81c-9.56-3.19-20.76-10.23-26.67-18.09-5.37,7.53-16.4,14.24-26.67,18.25l-6.61-9.49c11.35-3.68,26.9-12.77,26.9-22.34v-2.54h-21.15v-9.74h55.12v9.74h-21.3v2.54c0,9.57,15.08,18.25,26.9,22.34l-6.53,9.33Z"/>
    <path class="cls-1" d="M603.44,300.97c.16,28.97-16.33,40.75-34.67,47.95l-5.83-8.67c9.41-3.85,16.87-7.86,21.77-13.34-6.53.66-12.98,1.06-19.13,1.15v-9.49c6.37-.08,16.09-.57,24.57-1.23.62-2.05,1.01-4.26,1.17-6.71h-24.18v-9.66h36.31ZM628.16,374.87h-53.57v-24.63h12.44v14.89h41.13v9.74ZM626.76,353.51h-12.13v-23.32h-12.83v-10.07h12.83v-23.32h12.13v56.71Z"/>
    <path class="cls-1" d="M687.94,354.65c-13.53,1.88-31.72,2.21-49.13,2.21v-9.74h8.94l-.86-29.21h11.66l.78,28.97c2.95-.08,5.83-.08,8.71-.25l.7-28.72h11.74l-.78,28.07c2.88-.25,5.6-.49,8.24-.82v9.49ZM640.59,312.26v-9.9h45.17v9.9h-45.17ZM706.28,376.5h-12.21v-43.95h-10.11v-10.39h10.11v-25.37h12.21v79.71Z"/>
    <path class="cls-1" d="M762.48,343.77c-13.37,1.64-29.78,1.88-42.29,1.88v-26.92h20.68v-8.84h-20.68v-9.17h32.42v26.92h-20.68v8.67c9.72,0,17.96-.49,30.55-1.64v9.08ZM782.07,374.87h-53.57v-23.4h12.44v13.67h41.13v9.74ZM780.67,354.41h-12.13v-27.91h-12.05v-9.98h12.05v-19.72h12.13v57.61Z"/>
    <path class="cls-1" d="M864.86,355.14v10.15h-72.77v-10.15h72.77ZM834.69,312.18c0,10.97,15.86,21.11,26.74,24.96l-6.61,9.08c-9.17-3.68-20.84-9.98-26.36-18.9-5.36,8.1-16.25,14.98-26.59,18.99l-6.53-9.25c11.12-3.85,26.74-13.91,26.74-24.88v-11.54h12.59v11.54Z"/>
    <path class="cls-1" d="M924.86,312.34v10.47c0,11.95,8.32,20.38,18.35,25.37l-5.91,9.74c-6.61-3.93-13.68-9.33-18.5-16.94-4.35,7.45-12.05,14.08-19.82,19.39l-7.39-9.16c11.43-6.79,20.99-16.12,20.99-28.64v-10.23h-15.7v-9.98h43.15v9.98h-15.16ZM959.61,376.5h-12.21v-79.71h12.21v79.71Z"/>
    <path class="cls-1" d="M1018.53,355.96c-15.86,1.8-30.24,1.96-43.77,1.96v-33.72h24.1v-12.93h-24.1v-9.57h36.31v32.08h-24.1v14.4c11.97,0,16.64-.08,31.56-1.72v9.49ZM1035.86,376.5h-12.2v-79.71h12.2v79.71Z"/>
    <path class="cls-1" d="M1087.63,343.6c-7.39-2.78-14.62-7.45-19.2-13.34-4.28,6.55-12.44,11.78-19.9,15.79l-6.69-8.1c9.72-4.99,20.06-11.95,20.06-23v-15.55h12.05v15.47c0,10.64,9.64,16.37,18.66,20.3l-4.98,8.43ZM1111.26,374.87h-53.72v-25.37h12.44v15.63h41.28v9.74ZM1120.82,330.1h-12.13v23.4h-12.13v-56.71h12.13v23.32h12.13v9.98Z"/>
  </g>
</svg>