<?xml version="1.0" encoding="UTF-8"?>
<svg id="_레이어_1" data-name="레이어 1" xmlns="http://www.w3.org/2000/svg" viewBox="0 0 1140.95 340.5">
  <defs>
    <style>
      .cls-1 {
        fill: #000;
      }

      .cls-1, .cls-2, .cls-3 {
        stroke-width: 0px;
      }

      .cls-2 {
        fill: #64ff93;
      }

      .cls-3 {
        fill: #4f42e9;
      }
    </style>
  </defs>
  <g>
    <polygon class="cls-3" points="1019.68 0 1100.3 80.61 1140.95 121.27 1140.95 0 1019.68 0"/>
    <polygon class="cls-3" points="1019.68 242.53 1140.95 242.53 1140.95 121.27 1100.3 161.92 1019.68 242.53"/>
  </g>
  <polygon class="cls-2" points="1100.3 80.61 1019.68 0 867.12 0 867.12 0 0 0 0 242.53 867.12 242.53 1019.68 242.53 1100.3 161.92 1140.95 121.27 1100.3 80.61"/>
  <g>
    <polygon class="cls-1" points="121.27 121.27 0 121.27 0 242.53 121.27 242.53 242.53 121.27 242.53 0 121.27 121.27"/>
    <rect class="cls-1" x="242.53" y="121.27" width="121.27" height="121.27"/>
    <polygon class="cls-1" points="606.35 0 522.79 83.56 485.08 121.27 485.08 167.11 485.08 242.53 606.35 242.53 606.35 83.56 606.35 78.07 727.61 78.07 727.61 0 606.35 0"/>
    <polygon class="cls-1" points="1018.75 83.56 1018.75 0 802.89 0 802.89 0 727.61 78.07 727.61 110.38 727.61 161.41 771.74 161.41 866.89 161.41 866.89 242.53 1018.75 242.53 1018.75 161.41 866.89 161.41 866.89 83.56 1018.75 83.56"/>
    <rect class="cls-1" x="363.81" y="0" width="121.27" height="121.27"/>
  </g>
  <g>
    <g>
      <path class="cls-1" d="M16.87,326.52l-4.39,12.24h-5.86l15.81-42.04h6.44l15.22,42.04h-6.21l-4.16-12.24h-16.86ZM31.68,321.48l-6.21-18.5h-.12l-6.73,18.5h13.06Z"/>
      <path class="cls-1" d="M73.34,309.01c-.29-6.5-5.68-8.55-10.42-8.55-3.57,0-9.6,1-9.6,7.38,0,3.57,2.52,4.74,4.98,5.33l12,2.75c5.45,1.29,9.54,4.57,9.54,11.24,0,9.95-9.25,12.71-16.45,12.71-7.79,0-10.83-2.34-12.71-4.04-3.57-3.22-4.27-6.73-4.27-10.66h5.33c0,7.61,6.21,9.84,11.59,9.84,4.1,0,11.01-1.05,11.01-7.08,0-4.39-2.05-5.8-8.96-7.44l-8.61-1.99c-2.75-.64-8.96-2.58-8.96-9.9,0-6.56,4.27-13,14.46-13,14.7,0,16.16,8.78,16.4,13.41h-5.33Z"/>
      <path class="cls-1" d="M91.83,338.76h-5.68v-42.04h5.68v42.04Z"/>
      <path class="cls-1" d="M106.56,326.52l-4.39,12.24h-5.86l15.81-42.04h6.44l15.22,42.04h-6.21l-4.16-12.24h-16.86ZM121.37,321.48l-6.21-18.5h-.12l-6.73,18.5h13.06Z"/>
      <path class="cls-1" d="M142.48,296.72h34.14v5.04h-14.23v37.01h-5.68v-37.01h-14.23v-5.04Z"/>
      <path class="cls-1" d="M187.16,338.76h-5.68v-42.04h19.44c6.91,0,13.82,2.4,13.82,11.3,0,6.21-3.16,8.49-5.86,10.07,2.4,1,4.8,2.05,5.04,7.9l.35,7.61c.06,2.34.35,3.22,2.11,4.22v.94h-6.97c-.82-2.58-1-8.96-1-10.54,0-3.45-.7-7.49-7.49-7.49h-13.76v18.03ZM187.16,315.86h13.17c4.16,0,8.55-1.05,8.55-7.26s-4.74-7.03-7.55-7.03h-14.17v14.29Z"/>
      <path class="cls-1" d="M229.72,326.52l-4.39,12.24h-5.86l15.81-42.04h6.44l15.22,42.04h-6.21l-4.16-12.24h-16.86ZM244.54,321.48l-6.21-18.5h-.12l-6.73,18.5h13.06Z"/>
      <path class="cls-1" d="M267.61,338.76h-5.68v-42.04h5.68v42.04Z"/>
      <path class="cls-1" d="M280.89,333.72h20.41v5.04h-26.09v-42.04h5.68v37.01Z"/>
      <path class="cls-1" d="M329.49,309.01c-.29-6.5-5.68-8.55-10.42-8.55-3.57,0-9.6,1-9.6,7.38,0,3.57,2.52,4.74,4.98,5.33l12,2.75c5.45,1.29,9.54,4.57,9.54,11.24,0,9.95-9.25,12.71-16.45,12.71-7.79,0-10.83-2.34-12.71-4.04-3.57-3.22-4.27-6.73-4.27-10.66h5.33c0,7.61,6.21,9.84,11.59,9.84,4.1,0,11.01-1.05,11.01-7.08,0-4.39-2.05-5.8-8.96-7.44l-8.61-1.99c-2.75-.64-8.96-2.58-8.96-9.9,0-6.56,4.27-13,14.46-13,14.7,0,16.16,8.78,16.4,13.41h-5.33Z"/>
      <path class="cls-1" d="M386.77,309.36c-1.58-7.38-7.73-8.72-11.77-8.72-7.61,0-13.76,5.62-13.76,16.69,0,9.9,3.51,17.51,13.94,17.51,3.69,0,10.07-1.76,12-11.53h5.5c-2.34,15.87-15.22,16.57-18.39,16.57-9.54,0-18.91-6.21-18.91-22.37,0-12.94,7.38-21.9,19.61-21.9,10.83,0,16.45,6.73,17.27,13.76h-5.5Z"/>
      <path class="cls-1" d="M417.92,339.87c-15.69,0-20.49-13.06-20.49-22.13s4.8-22.13,20.49-22.13,20.49,13.06,20.49,22.13-4.8,22.13-20.49,22.13ZM417.92,300.64c-9.13,0-14.64,7.2-14.64,17.1s5.5,17.1,14.64,17.1,14.64-7.2,14.64-17.1-5.5-17.1-14.64-17.1Z"/>
      <path class="cls-1" d="M471.9,296.72h5.5v42.04h-6.38l-21.37-33.96h-.12v33.96h-5.5v-42.04h6.73l21.02,33.96h.12v-33.96Z"/>
      <path class="cls-1" d="M492.63,338.76h-5.68v-42.04h29.1v5.04h-23.42v12.88h20.61v5.04h-20.61v19.09Z"/>
      <path class="cls-1" d="M552.65,338.76h-31.03v-42.04h30.62v5.04h-24.94v12.88h23.01v5.04h-23.01v14.05h25.35v5.04Z"/>
      <path class="cls-1" d="M564.19,338.76h-5.68v-42.04h19.44c6.91,0,13.82,2.4,13.82,11.3,0,6.21-3.16,8.49-5.86,10.07,2.4,1,4.8,2.05,5.04,7.9l.35,7.61c.06,2.34.35,3.22,2.11,4.22v.94h-6.97c-.82-2.58-1-8.96-1-10.54,0-3.45-.7-7.49-7.49-7.49h-13.76v18.03ZM564.19,315.86h13.17c4.16,0,8.55-1.05,8.55-7.26s-4.74-7.03-7.55-7.03h-14.17v14.29Z"/>
      <path class="cls-1" d="M629.41,338.76h-31.03v-42.04h30.62v5.04h-24.94v12.88h23.01v5.04h-23.01v14.05h25.35v5.04Z"/>
      <path class="cls-1" d="M662.44,296.72h5.5v42.04h-6.38l-21.37-33.96h-.12v33.96h-5.5v-42.04h6.73l21.02,33.96h.12v-33.96Z"/>
      <path class="cls-1" d="M702.9,309.36c-1.58-7.38-7.73-8.72-11.77-8.72-7.61,0-13.76,5.62-13.76,16.69,0,9.9,3.51,17.51,13.94,17.51,3.69,0,10.07-1.76,12-11.53h5.5c-2.34,15.87-15.22,16.57-18.39,16.57-9.54,0-18.91-6.21-18.91-22.37,0-12.94,7.38-21.9,19.61-21.9,10.83,0,16.45,6.73,17.27,13.76h-5.5Z"/>
      <path class="cls-1" d="M745,338.76h-31.03v-42.04h30.62v5.04h-24.94v12.88h23.01v5.04h-23.01v14.05h25.35v5.04Z"/>
    </g>
    <g>
      <path class="cls-1" d="M770.19,312.3c-.32-10.14,5.45-17.94,16.1-17.94,8.11,0,15.21,5.2,15.21,13.88,0,6.66-3.55,10.33-7.92,13.44-4.37,3.11-9.57,5.64-12.8,10.21h20.98v7.73h-32.58c.06-10.27,6.34-14.64,14.01-19.84,6.08-4.12,9.32-6.53,9.32-11.03,0-3.87-2.73-6.65-6.15-6.65-5.96,0-7.54,5.51-7.54,10.2h-8.62Z"/>
      <path class="cls-1" d="M824.51,294.36c8.87,0,16.35,5.58,16.35,22.88s-7.48,23.26-16.35,23.26-16.23-5.58-16.23-23.26,7.48-22.88,16.23-22.88ZM824.51,333.09c7.35,0,7.35-10.84,7.35-15.85,0-4.63,0-15.47-7.35-15.47s-7.23,10.84-7.23,15.47c0,5.01,0,15.85,7.23,15.85Z"/>
      <path class="cls-1" d="M847.14,312.3c-.32-10.14,5.45-17.94,16.1-17.94,8.11,0,15.21,5.2,15.21,13.88,0,6.66-3.55,10.33-7.92,13.44-4.37,3.11-9.57,5.64-12.8,10.21h20.98v7.73h-32.58c.06-10.27,6.34-14.64,14.01-19.84,6.08-4.12,9.32-6.53,9.32-11.03,0-3.87-2.73-6.65-6.15-6.65-5.96,0-7.54,5.51-7.54,10.2h-8.62Z"/>
      <path class="cls-1" d="M901.14,329.35h-18.76v-8.24l19.27-25.86h8.05v26.69h5.89v7.42h-5.89v10.27h-8.56v-10.27ZM901.14,306.53h-.19l-11.47,15.4h11.66v-15.4Z"/>
    </g>
    <g>
      <path class="cls-1" d="M937.49,322.41v2.74c0,4.72,2.25,6.42,5.93,6.42,4.94,0,6.31-2.96,6.31-6.81v-29.09h5.32v28.76c0,9.22-6.04,11.69-11.36,11.69-9.16,0-11.19-6.15-11.19-9.82v-3.9h4.99Z"/>
      <path class="cls-1" d="M968.27,335.08h-5.32v-39.4h5.32v39.4Z"/>
      <path class="cls-1" d="M982.32,335.08h-5.32v-39.4h18.22c6.48,0,12.95,2.25,12.95,10.59,0,5.82-2.96,7.96-5.49,9.44,2.25.93,4.5,1.92,4.72,7.41l.33,7.13c.06,2.2.33,3.02,1.98,3.95v.88h-6.53c-.77-2.41-.93-8.4-.93-9.88,0-3.24-.66-7.02-7.02-7.02h-12.9v16.9ZM982.32,313.63h12.35c3.9,0,8.01-.99,8.01-6.8s-4.44-6.59-7.08-6.59h-13.28v13.39Z"/>
      <path class="cls-1" d="M1021.06,335.08h-5.32v-39.4h5.32v39.4Z"/>
      <path class="cls-1" d="M1052.89,307.2c-.27-6.09-5.32-8.01-9.77-8.01-3.35,0-9,.93-9,6.91,0,3.35,2.36,4.45,4.66,4.99l11.25,2.58c5.1,1.21,8.94,4.28,8.94,10.54,0,9.33-8.67,11.91-15.42,11.91-7.3,0-10.15-2.19-11.91-3.79-3.35-3.02-4.01-6.31-4.01-9.99h4.99c0,7.13,5.82,9.22,10.87,9.22,3.84,0,10.32-.99,10.32-6.64,0-4.12-1.92-5.43-8.4-6.97l-8.07-1.87c-2.58-.6-8.4-2.41-8.4-9.27,0-6.15,4.01-12.18,13.55-12.18,13.77,0,15.15,8.23,15.37,12.57h-4.99Z"/>
      <path class="cls-1" d="M1069.52,323.61l-4.12,11.47h-5.49l14.82-39.4h6.04l14.27,39.4h-5.82l-3.9-11.47h-15.81ZM1083.4,318.89l-5.82-17.34h-.11l-6.31,17.34h12.24Z"/>
      <path class="cls-1" d="M1125,295.68h5.16v39.4h-5.98l-20.03-31.83h-.11v31.83h-5.16v-39.4h6.31l19.7,31.83h.11v-31.83Z"/>
    </g>
  </g>
</svg>