<?xml version="1.0" encoding="UTF-8"?>
<svg id="_레이어_1" data-name=" 레이어 1" xmlns="http://www.w3.org/2000/svg" version="1.1" viewBox="0 0 1776.1 260">
  <defs>
    <style>
      .cls-1 {
        fill: #000;
      }

      .cls-1, .cls-2, .cls-3 {
        stroke-width: 0px;
      }

      .cls-2 {
        fill: #64ff93;
      }

      .cls-3 {
        fill: #4f42e9;
      }
    </style>
  </defs>
  <polygon class="cls-2" points="1685.6 86.4 1598.2 0 1179.9 0 1179.9 0 0 0 0 260 1179.9 260 1598.2 260 1685.6 173.6 1729.8 130 1685.6 86.4"/>
  <g>
    <g>
      <polygon class="cls-1" points="370.6 130 0 130 0 260 370.6 260 502.1 130 502.1 0 370.6 130"/>
      <rect class="cls-1" x="502.1" y="130" width="131.6" height="130"/>
      <polygon class="cls-1" points="896.9 0 806.2 89.6 765.3 130 765.3 179.1 765.3 260 896.9 260 896.9 89.6 896.9 83.7 1028.5 83.7 1028.5 0 896.9 0"/>
      <polygon class="cls-1" points="1598.2 89.6 1598.2 0 1110.2 0 1110.2 0 1028.5 83.7 1028.5 118.3 1028.5 173 1076.4 173 1179.6 173 1179.6 260 1598.2 260 1598.2 173 1179.6 173 1179.6 89.6 1598.2 89.6"/>
      <rect class="cls-1" x="633.7" y="0" width="131.6" height="130"/>
    </g>
    <polygon class="cls-3" points="1729.8 0 1598.2 0 1685.6 86.4 1729.8 130 1685.6 173.6 1598.2 260 1729.8 260 1729.8 260 1775.6 260 1775.6 0 1729.8 0"/>
  </g>
</svg>