<?xml version="1.0" encoding="UTF-8"?>
<svg id="_레이어_1" data-name=" 레이어 1" xmlns="http://www.w3.org/2000/svg" version="1.1" viewBox="0 0 1124.6 44.5">
  <defs>
    <style>
      .cls-1 {
        fill: #fff;
        stroke-width: 0px;
      }
    </style>
  </defs>
  <g>
    <g>
      <path class="cls-1" d="M94.7,31l-4.1,11.3h-5.4L99.8,3.4h6l14.1,38.9h-5.7l-3.8-11.3s-15.7,0-15.7,0ZM108.4,26.4l-5.7-17.1h0l-6.2,17.1h12.1-.2Z"/>
      <path class="cls-1" d="M146.9,14.8c-.3-6-5.2-7.9-9.6-7.9s-8.9.9-8.9,6.8,2.3,4.4,4.6,4.9l11.1,2.5c5,1.2,8.8,4.2,8.8,10.4,0,9.2-8.6,11.8-15.2,11.8s-10-2.2-11.8-3.7c-3.3-3-3.9-6.2-3.9-9.9h4.9c0,7,5.7,9.1,10.7,9.1s10.2-1,10.2-6.5-1.9-5.4-8.3-6.9l-8-1.8c-2.6-.6-8.3-2.4-8.3-9.1s3.9-12,13.4-12c13.6,0,14.9,8.1,15.2,12.4h-4.9Z"/>
      <path class="cls-1" d="M164,42.4h-5.2V3.5h5.2v38.9Z"/>
      <path class="cls-1" d="M177.6,31l-4.1,11.3h-5.4l14.6-38.9h6l14.1,38.9h-5.7l-3.9-11.3h-15.6ZM191.3,26.4l-5.7-17.1h-.1l-6.2,17.1h12.1-.1Z"/>
      <path class="cls-1" d="M210.9,3.5h31.6v4.7h-13.2v34.2h-5.2V8.2h-13.2V3.5h0Z"/>
      <path class="cls-1" d="M252.2,42.4h-5.2V3.5h18c6.4,0,12.8,2.2,12.8,10.5s-2.9,7.9-5.4,9.3c2.2.9,4.4,1.9,4.7,7.3l.3,7c0,2.2.3,3,2,3.9v.9h-6.5c-.8-2.4-.9-8.3-.9-9.8,0-3.2-.6-6.9-6.9-6.9h-12.7v16.7h-.2ZM252.2,21.2h12.2c3.9,0,7.9-1,7.9-6.7s-4.4-6.5-7-6.5h-13.1v13.2h0Z"/>
      <path class="cls-1" d="M291.6,31l-4.1,11.3h-5.4l14.6-38.9h6l14.1,38.9h-5.7l-3.9-11.3h-15.6ZM305.3,26.4l-5.7-17.1h-.1l-6.2,17.1h12.1,0Z"/>
      <path class="cls-1" d="M326.6,42.4h-5.2V3.5h5.2v38.9Z"/>
      <path class="cls-1" d="M338.9,37.7h18.9v4.7h-24.1V3.5h5.2v34.2Z"/>
      <path class="cls-1" d="M383.9,14.8c-.3-6-5.2-7.9-9.6-7.9s-8.9.9-8.9,6.8,2.3,4.4,4.6,4.9l11.1,2.5c5,1.2,8.8,4.2,8.8,10.4,0,9.2-8.6,11.8-15.2,11.8s-10-2.2-11.8-3.7c-3.3-3-4-6.2-4-9.9h4.9c0,7,5.7,9.1,10.7,9.1s10.2-1,10.2-6.5-1.9-5.4-8.3-6.9l-8-1.8c-2.5-.6-8.3-2.4-8.3-9.1s4-12,13.4-12c13.6,0,15,8.1,15.2,12.4h-4.9,0Z"/>
      <path class="cls-1" d="M436.9,15.2c-1.5-6.8-7.1-8.1-10.9-8.1-7,0-12.7,5.2-12.7,15.4s3.2,16.2,12.9,16.2,9.3-1.6,11.1-10.7h5.1c-2.2,14.7-14.1,15.3-17,15.3-8.8,0-17.5-5.7-17.5-20.7s6.8-20.3,18.1-20.3,15.2,6.2,16,12.7h-5.1v.2Z"/>
      <path class="cls-1" d="M465.7,43.4c-14.5,0-19-12.1-19-20.5s4.4-20.5,19-20.5,19,12.1,19,20.5-4.4,20.5-19,20.5ZM465.7,7.1c-8.5,0-13.5,6.7-13.5,15.8s5.1,15.8,13.5,15.8,13.5-6.7,13.5-15.8-5.1-15.8-13.5-15.8Z"/>
      <path class="cls-1" d="M515.6,3.5h5.1v38.9h-5.9l-19.8-31.4h-.1v31.4h-5.1V3.5h6.2l19.4,31.4h0V3.5h.2Z"/>
      <path class="cls-1" d="M534.8,42.4h-5.2V3.5h26.9v4.7h-21.7v11.9h19.1v4.7h-19.1v17.7h0Z"/>
      <path class="cls-1" d="M590.3,42.4h-28.7V3.5h28.3v4.7h-23.1v11.9h21.3v4.7h-21.3v13h23.5v4.7h0Z"/>
      <path class="cls-1" d="M601,42.4h-5.2V3.5h18c6.4,0,12.8,2.2,12.8,10.5s-2.9,7.9-5.4,9.3c2.2.9,4.4,1.9,4.7,7.3l.3,7c0,2.2.3,3,2,3.9v.9h-6.5c-.8-2.4-.9-8.3-.9-9.8,0-3.2-.7-6.9-6.9-6.9h-12.7v16.7h-.2,0ZM601,21.2h12.2c3.8,0,7.9-1,7.9-6.7s-4.4-6.5-7-6.5h-13.1v13.2h0Z"/>
      <path class="cls-1" d="M661.3,42.4h-28.7V3.5h28.3v4.7h-23.1v11.9h21.3v4.7h-21.3v13h23.5v4.7h0Z"/>
      <path class="cls-1" d="M691.9,3.5h5.1v38.9h-5.9l-19.8-31.4h0v31.4h-5.1V3.5h6.2l19.5,31.4h0V3.5h0Z"/>
      <path class="cls-1" d="M729.3,15.2c-1.5-6.8-7.2-8.1-10.9-8.1-7,0-12.7,5.2-12.7,15.4s3.2,16.2,12.9,16.2,9.3-1.6,11.1-10.7h5.1c-2.2,14.7-14.1,15.3-17,15.3-8.8,0-17.5-5.7-17.5-20.7s6.8-20.3,18.2-20.3,15.2,6.2,16,12.7h-5.1v.2h0Z"/>
      <path class="cls-1" d="M768.2,42.4h-28.7V3.5h28.3v4.7h-23.1v11.9h21.3v4.7h-21.3v13h23.5v4.7h0Z"/>
    </g>
    <g>
      <path class="cls-1" d="M791.6,17.9c-.3-9.4,5-16.6,14.9-16.6s14.1,4.8,14.1,12.8-3.3,9.6-7.3,12.4-8.8,5.2-11.8,9.4h19.4v7.1h-30.1c0-9.5,5.9-13.5,13-18.4,5.6-3.8,8.6-6,8.6-10.2s-2.5-6.2-5.7-6.2c-5.5,0-7,5.1-7,9.4h-8v.3h-.1Z"/>
      <path class="cls-1" d="M841.8,1.3c8.2,0,15.1,5.2,15.1,21.2s-6.9,21.5-15.1,21.5-15-5.2-15-21.5,6.9-21.2,15-21.2ZM841.8,37.1c6.8,0,6.8-10,6.8-14.7s0-14.3-6.8-14.3-6.7,10-6.7,14.3,0,14.7,6.7,14.7Z"/>
      <path class="cls-1" d="M862.7,17.9c-.3-9.4,5-16.6,14.9-16.6s14.1,4.8,14.1,12.8-3.3,9.6-7.3,12.4-8.8,5.2-11.8,9.4h19.4v7.1h-30.1c0-9.5,5.9-13.5,13-18.4,5.6-3.8,8.6-6,8.6-10.2s-2.5-6.2-5.7-6.2c-5.5,0-7,5.1-7,9.4h-8v.3h-.1Z"/>
      <path class="cls-1" d="M912.7,33.7h-17.4v-7.6l17.8-23.9h7.5v24.7h5.5v6.9h-5.5v9.5h-7.9v-9.5h0ZM912.7,12.5h-.2l-10.6,14.2h10.8v-14.2Z"/>
    </g>
    <g>
      <path class="cls-1" d="M946.3,27.2v2.5c0,4.4,2.1,5.9,5.5,5.9s5.8-2.7,5.8-6.3V2.4h4.9v26.6c0,8.5-5.6,10.8-10.5,10.8-8.5,0-10.4-5.7-10.4-9.1v-3.6h4.7Z"/>
      <path class="cls-1" d="M974.8,39h-4.9V2.5h4.9v36.5Z"/>
      <path class="cls-1" d="M987.8,39h-4.9V2.5h16.9c6,0,12,2.1,12,9.8s-2.7,7.4-5.1,8.7c2.1.9,4.2,1.8,4.4,6.9l.3,6.6c0,2,.3,2.8,1.8,3.7v.8h-6c-.7-2.2-.9-7.8-.9-9.1,0-3-.6-6.5-6.5-6.5h-11.9v15.6h0ZM987.8,19.1h11.4c3.6,0,7.4-.9,7.4-6.3s-4.1-6.1-6.5-6.1h-12.3v12.4h0Z"/>
      <path class="cls-1" d="M1023.6,39h-4.9V2.5h4.9v36.5Z"/>
      <path class="cls-1" d="M1053.1,13.2c-.2-5.6-4.9-7.4-9-7.4s-8.3.9-8.3,6.4,2.2,4.1,4.3,4.6l10.4,2.4c4.7,1.1,8.3,4,8.3,9.8,0,8.6-8,11-14.3,11s-9.4-2-11-3.5c-3.1-2.8-3.7-5.8-3.7-9.2h4.6c0,6.6,5.4,8.5,10.1,8.5s9.5-.9,9.5-6.1-1.8-5-7.8-6.5l-7.5-1.7c-2.4-.6-7.8-2.2-7.8-8.6s3.7-11.3,12.5-11.3c12.7,0,14,7.6,14.2,11.6h-4.6.1Z"/>
      <path class="cls-1" d="M1068.5,28.4l-3.8,10.6h-5.1l13.7-36.5h5.6l13.2,36.5h-5.4l-3.6-10.6h-14.6,0ZM1081.3,24l-5.4-16h0l-5.8,16h11.3,0Z"/>
      <path class="cls-1" d="M1119.8,2.5h4.8v36.5h-5.5l-18.5-29.4h0v29.4h-4.8V2.5h5.8l18.2,29.4h0V2.5h0Z"/>
    </g>
  </g>
  <g>
    <path class="cls-1" d="M.3,23.5L1.4.6h21v6.4H7.7l-.5,9.3c2-1.9,3.6-2.4,6.3-2.4,9.5,0,10.9,8.1,10.9,15.1,0,9.9-2.9,15.5-12,15.5S0,40,0,29.9h7.6c0,3.1-.4,8,4.1,8.2,4.8.3,4.5-4.8,4.6-9.1.3-7-1.7-8.6-4.6-8.6s-3.8,1.3-4.1,3.2H.3Z"/>
    <path class="cls-1" d="M42.7,43.7c-4.5.5-10.8.9-10.8-5.2v-22.2h-3.1v-5.5h3V1.8h7.6v9h3.2v5.5h-3.2v20.4c.2,1.4,2.3,1.2,3.2,1.1v5.9h0Z"/>
    <path class="cls-1" d="M48.9,43.6V0h7.6v14.2h0c2.2-3.8,5.2-4.2,6.8-4.2,4.3,0,7.8,2.5,7.6,8.4v25.3h-7.6v-22.5c0-3.2-.3-5.3-3.2-5.4s-3.8,2.6-3.7,6v21.8h-7.6,0Z"/>
  </g>
</svg>