<?xml version="1.0" encoding="UTF-8"?>
<svg id="_레이어_1" data-name="레이어 1" xmlns="http://www.w3.org/2000/svg" viewBox="0 0 1140.95 339.6">
  <defs>
    <style>
      .cls-1 {
        fill: #000;
      }

      .cls-1, .cls-2, .cls-3 {
        stroke-width: 0px;
      }

      .cls-2 {
        fill: #64ff93;
      }

      .cls-3 {
        fill: #4f42e9;
      }
    </style>
  </defs>
  <g>
    <polygon class="cls-3" points="1019.68 0 1100.3 80.61 1140.95 121.27 1140.95 0 1019.68 0"/>
    <polygon class="cls-3" points="1019.68 242.53 1140.95 242.53 1140.95 121.27 1100.3 161.92 1019.68 242.53"/>
  </g>
  <polygon class="cls-2" points="1100.3 80.61 1019.68 0 867.12 0 867.12 0 0 0 0 242.53 867.12 242.53 1019.68 242.53 1100.3 161.92 1140.95 121.27 1100.3 80.61"/>
  <g>
    <polygon class="cls-1" points="121.27 121.27 0 121.27 0 242.53 121.27 242.53 242.53 121.27 242.53 0 121.27 121.27"/>
    <rect class="cls-1" x="242.53" y="121.27" width="121.27" height="121.27"/>
    <polygon class="cls-1" points="606.35 0 522.79 83.56 485.08 121.27 485.08 167.11 485.08 242.53 606.35 242.53 606.35 83.56 606.35 78.07 727.61 78.07 727.61 0 606.35 0"/>
    <polygon class="cls-1" points="1018.75 83.56 1018.75 0 802.89 0 802.89 0 727.61 78.07 727.61 110.38 727.61 161.41 771.74 161.41 866.89 161.41 866.89 242.53 1018.75 242.53 1018.75 161.41 866.89 161.41 866.89 83.56 1018.75 83.56"/>
    <rect class="cls-1" x="363.81" y="0" width="121.27" height="121.27"/>
  </g>
  <g>
    <g>
      <path class="cls-1" d="M100.27,326.19l-4.06,11.32h-5.42l14.62-38.89h5.96l14.08,38.89h-5.74l-3.85-11.32h-15.6ZM113.97,321.53l-5.74-17.12h-.11l-6.23,17.12h12.08Z"/>
      <path class="cls-1" d="M152.51,309.99c-.27-6.01-5.25-7.91-9.64-7.91-3.3,0-8.88.92-8.88,6.83,0,3.3,2.33,4.39,4.6,4.93l11.1,2.55c5.04,1.19,8.83,4.23,8.83,10.4,0,9.21-8.56,11.75-15.22,11.75-7.2,0-10.02-2.17-11.75-3.74-3.3-2.98-3.95-6.23-3.95-9.86h4.93c0,7.04,5.74,9.1,10.72,9.1,3.79,0,10.18-.97,10.18-6.55,0-4.06-1.9-5.36-8.29-6.88l-7.96-1.84c-2.55-.6-8.29-2.38-8.29-9.15,0-6.07,3.95-12.02,13.38-12.02,13.6,0,14.95,8.12,15.17,12.4h-4.93Z"/>
      <path class="cls-1" d="M169.62,337.51h-5.25v-38.89h5.25v38.89Z"/>
      <path class="cls-1" d="M183.24,326.19l-4.06,11.32h-5.42l14.62-38.89h5.96l14.08,38.89h-5.74l-3.85-11.32h-15.6ZM196.95,321.53l-5.74-17.12h-.11l-6.23,17.12h12.08Z"/>
      <path class="cls-1" d="M216.47,298.62h31.58v4.66h-13.16v34.23h-5.25v-34.23h-13.16v-4.66Z"/>
      <path class="cls-1" d="M257.8,337.51h-5.25v-38.89h17.98c6.39,0,12.78,2.22,12.78,10.45,0,5.74-2.92,7.85-5.42,9.32,2.22.92,4.44,1.9,4.66,7.31l.33,7.04c.05,2.17.32,2.98,1.95,3.9v.87h-6.45c-.76-2.38-.92-8.29-.92-9.75,0-3.2-.65-6.93-6.93-6.93h-12.73v16.68ZM257.8,316.33h12.19c3.85,0,7.91-.97,7.91-6.72s-4.39-6.5-6.99-6.5h-13.11v13.22Z"/>
      <path class="cls-1" d="M297.18,326.19l-4.06,11.32h-5.42l14.62-38.89h5.96l14.08,38.89h-5.74l-3.85-11.32h-15.6ZM310.88,321.53l-5.74-17.12h-.11l-6.23,17.12h12.08Z"/>
      <path class="cls-1" d="M332.23,337.51h-5.25v-38.89h5.25v38.89Z"/>
      <path class="cls-1" d="M344.51,332.85h18.88v4.66h-24.13v-38.89h5.25v34.23Z"/>
      <path class="cls-1" d="M389.47,309.99c-.27-6.01-5.25-7.91-9.64-7.91-3.3,0-8.88.92-8.88,6.83,0,3.3,2.33,4.39,4.6,4.93l11.1,2.55c5.04,1.19,8.83,4.23,8.83,10.4,0,9.21-8.56,11.75-15.22,11.75-7.2,0-10.02-2.17-11.75-3.74-3.3-2.98-3.95-6.23-3.95-9.86h4.93c0,7.04,5.74,9.1,10.72,9.1,3.79,0,10.18-.97,10.18-6.55,0-4.06-1.9-5.36-8.29-6.88l-7.96-1.84c-2.55-.6-8.29-2.38-8.29-9.15,0-6.07,3.95-12.02,13.38-12.02,13.6,0,14.95,8.12,15.17,12.4h-4.93Z"/>
      <path class="cls-1" d="M442.46,310.32c-1.46-6.83-7.15-8.07-10.89-8.07-7.04,0-12.73,5.2-12.73,15.44,0,9.15,3.25,16.2,12.89,16.2,3.41,0,9.32-1.62,11.1-10.67h5.09c-2.17,14.68-14.08,15.33-17.01,15.33-8.83,0-17.5-5.74-17.5-20.69,0-11.97,6.83-20.26,18.15-20.26,10.02,0,15.22,6.23,15.98,12.73h-5.09Z"/>
      <path class="cls-1" d="M471.27,338.54c-14.52,0-18.96-12.08-18.96-20.47s4.44-20.47,18.96-20.47,18.96,12.08,18.96,20.47-4.44,20.47-18.96,20.47ZM471.27,302.25c-8.45,0-13.54,6.66-13.54,15.82s5.09,15.82,13.54,15.82,13.54-6.66,13.54-15.82-5.09-15.82-13.54-15.82Z"/>
      <path class="cls-1" d="M521.22,298.62h5.09v38.89h-5.9l-19.77-31.42h-.11v31.42h-5.09v-38.89h6.23l19.45,31.42h.11v-31.42Z"/>
      <path class="cls-1" d="M540.39,337.51h-5.25v-38.89h26.92v4.66h-21.67v11.92h19.07v4.66h-19.07v17.66Z"/>
      <path class="cls-1" d="M595.91,337.51h-28.71v-38.89h28.33v4.66h-23.08v11.92h21.29v4.66h-21.29v13h23.45v4.66Z"/>
      <path class="cls-1" d="M606.59,337.51h-5.25v-38.89h17.98c6.39,0,12.78,2.22,12.78,10.45,0,5.74-2.92,7.85-5.42,9.32,2.22.92,4.44,1.9,4.66,7.31l.33,7.04c.05,2.17.32,2.98,1.95,3.9v.87h-6.45c-.76-2.38-.92-8.29-.92-9.75,0-3.2-.65-6.93-6.93-6.93h-12.73v16.68ZM606.59,316.33h12.19c3.85,0,7.91-.97,7.91-6.72s-4.39-6.5-6.99-6.5h-13.11v13.22Z"/>
      <path class="cls-1" d="M666.93,337.51h-28.71v-38.89h28.33v4.66h-23.08v11.92h21.29v4.66h-21.29v13h23.45v4.66Z"/>
      <path class="cls-1" d="M697.48,298.62h5.09v38.89h-5.9l-19.77-31.42h-.11v31.42h-5.09v-38.89h6.23l19.45,31.42h.11v-31.42Z"/>
      <path class="cls-1" d="M734.91,310.32c-1.46-6.83-7.15-8.07-10.89-8.07-7.04,0-12.73,5.2-12.73,15.44,0,9.15,3.25,16.2,12.89,16.2,3.41,0,9.32-1.62,11.1-10.67h5.09c-2.17,14.68-14.08,15.33-17.01,15.33-8.83,0-17.5-5.74-17.5-20.69,0-11.97,6.83-20.26,18.15-20.26,10.02,0,15.22,6.23,15.98,12.73h-5.09Z"/>
      <path class="cls-1" d="M773.85,337.51h-28.71v-38.89h28.33v4.66h-23.08v11.92h21.29v4.66h-21.29v13h23.45v4.66Z"/>
    </g>
    <g>
      <path class="cls-1" d="M797.15,313.03c-.29-9.38,5.04-16.59,14.89-16.59,7.51,0,14.07,4.81,14.07,12.84,0,6.16-3.28,9.56-7.33,12.43-4.05,2.87-8.85,5.22-11.84,9.44h19.41v7.15h-30.14c.06-9.5,5.86-13.55,12.96-18.35,5.63-3.81,8.62-6.04,8.62-10.2,0-3.58-2.52-6.16-5.69-6.16-5.51,0-6.98,5.1-6.98,9.44h-7.97Z"/>
      <path class="cls-1" d="M847.4,296.44c8.21,0,15.13,5.16,15.13,21.17s-6.92,21.52-15.13,21.52-15.01-5.16-15.01-21.52,6.92-21.17,15.01-21.17ZM847.4,332.26c6.8,0,6.8-10.03,6.8-14.66,0-4.28,0-14.31-6.8-14.31s-6.68,10.03-6.68,14.31c0,4.63,0,14.66,6.68,14.66Z"/>
      <path class="cls-1" d="M868.34,313.03c-.29-9.38,5.04-16.59,14.89-16.59,7.51,0,14.07,4.81,14.07,12.84,0,6.16-3.28,9.56-7.33,12.43-4.05,2.87-8.85,5.22-11.84,9.44h19.41v7.15h-30.14c.06-9.5,5.86-13.55,12.96-18.35,5.63-3.81,8.62-6.04,8.62-10.2,0-3.58-2.52-6.16-5.69-6.16-5.51,0-6.98,5.1-6.98,9.44h-7.97Z"/>
      <path class="cls-1" d="M918.3,328.8h-17.36v-7.62l17.83-23.92h7.45v24.69h5.45v6.86h-5.45v9.5h-7.92v-9.5ZM918.3,307.69h-.18l-10.61,14.25h10.79v-14.25Z"/>
    </g>
    <g>
      <path class="cls-1" d="M951.92,322.38v2.54c0,4.37,2.08,5.94,5.48,5.94,4.57,0,5.84-2.74,5.84-6.3v-26.91h4.92v26.6c0,8.53-5.58,10.81-10.51,10.81-8.48,0-10.36-5.69-10.36-9.09v-3.6h4.62Z"/>
      <path class="cls-1" d="M980.4,334.11h-4.92v-36.45h4.92v36.45Z"/>
      <path class="cls-1" d="M993.4,334.11h-4.92v-36.45h16.86c5.99,0,11.98,2.08,11.98,9.8,0,5.38-2.74,7.36-5.08,8.73,2.08.86,4.16,1.78,4.37,6.85l.3,6.6c.05,2.03.3,2.79,1.83,3.66v.81h-6.04c-.71-2.23-.86-7.77-.86-9.14,0-3-.61-6.5-6.5-6.5h-11.93v15.64ZM993.4,314.26h11.42c3.6,0,7.41-.91,7.41-6.29s-4.11-6.09-6.55-6.09h-12.29v12.39Z"/>
      <path class="cls-1" d="M1029.24,334.11h-4.92v-36.45h4.92v36.45Z"/>
      <path class="cls-1" d="M1058.68,308.32c-.25-5.64-4.92-7.41-9.04-7.41-3.1,0-8.33.86-8.33,6.4,0,3.1,2.18,4.11,4.32,4.62l10.41,2.39c4.72,1.12,8.27,3.96,8.27,9.75,0,8.63-8.02,11.02-14.27,11.02-6.75,0-9.39-2.03-11.02-3.5-3.1-2.79-3.71-5.84-3.71-9.24h4.62c0,6.6,5.38,8.53,10.05,8.53,3.55,0,9.54-.91,9.54-6.14,0-3.81-1.78-5.03-7.77-6.45l-7.46-1.73c-2.39-.56-7.77-2.23-7.77-8.58,0-5.69,3.71-11.27,12.54-11.27,12.74,0,14.01,7.62,14.21,11.63h-4.62Z"/>
      <path class="cls-1" d="M1074.06,323.5l-3.81,10.61h-5.08l13.71-36.45h5.58l13.2,36.45h-5.38l-3.6-10.61h-14.62ZM1086.9,319.13l-5.38-16.04h-.1l-5.84,16.04h11.32Z"/>
      <path class="cls-1" d="M1125.38,297.66h4.77v36.45h-5.53l-18.53-29.44h-.1v29.44h-4.77v-36.45h5.84l18.23,29.44h.1v-29.44Z"/>
    </g>
  </g>
  <g>
    <path class="cls-1" d="M5.87,318.66l1.1-22.86h21v6.4h-14.72l-.52,9.3c1.98-1.92,3.61-2.44,6.34-2.44,9.54,0,10.88,8.14,10.88,15.06,0,9.89-2.85,15.47-12.04,15.47-9.89,0-12.5-4.54-12.45-14.6h7.62c.12,3.14-.35,7.97,4.07,8.2,4.83.29,4.54-4.83,4.65-9.13.29-6.98-1.69-8.61-4.65-8.61-2.03,0-3.84,1.34-4.07,3.2h-7.21Z"/>
    <path class="cls-1" d="M48.27,338.84c-4.48.52-10.76.93-10.76-5.18v-22.22h-3.08v-5.52h3.03v-9.01h7.62v9.01h3.2v5.52h-3.2v20.36c.17,1.4,2.27,1.22,3.2,1.1v5.93Z"/>
    <path class="cls-1" d="M54.55,338.73v-43.62h7.56v14.19h.11c2.15-3.84,5.18-4.25,6.81-4.25,4.3,0,7.79,2.5,7.56,8.37v25.3h-7.56v-22.45c0-3.2-.35-5.29-3.2-5.41-2.85-.12-3.84,2.56-3.72,6.05v21.81h-7.56Z"/>
  </g>
</svg>