<?xml version="1.0" encoding="UTF-8"?>
<svg id="_레이어_1" data-name=" 레이어 1" xmlns="http://www.w3.org/2000/svg" version="1.1" viewBox="0 0 1029.4 430.7">
  <defs>
    <style>
      .cls-1 {
        fill: #fff;
        stroke-width: 0px;
      }
    </style>
  </defs>
  <g>
    <g>
      <path class="cls-1" d="M16.7,427.9l38-106.1h35.4l38,106.1h-34.6l-4.1-14h-34.6l-4,14H16.7ZM72.1,353.8l-10.8,38h22s-11.2-38-11.2-38Z"/>
      <path class="cls-1" d="M117.8,321.8h97.3v27.9h-31.2v78.3h-34.8v-78.3h-31.2v-27.9h-.1Z"/>
      <path class="cls-1" d="M290.3,362.3c-1-11.1-8-17.4-18.9-17.4s-19.6,10.5-19.6,31,3.2,28.9,20.9,28.9,16.5-7.8,17.8-18h33.5c-3.1,27.4-22.7,43.9-50.7,43.9s-56.3-21.5-56.3-56,23.3-55.7,52.9-55.7,50.6,16.1,53.4,43.3h-33,0Z"/>
    </g>
    <g>
      <path class="cls-1" d="M366.6,362.1c-.7-22.7,12.2-40.2,36.1-40.2s34.1,11.6,34.1,31.1-8,23.2-17.8,30.1c-9.8,7-21.5,12.6-28.7,22.9h47v17.3h-73c.1-23,14.2-32.8,31.4-44.5,13.6-9.2,20.9-14.6,20.9-24.7s-6.1-14.9-13.8-14.9c-13.4,0-16.9,12.4-16.9,22.9h-19.3Z"/>
      <path class="cls-1" d="M481.1,321.9c19.9,0,36.6,12.5,36.6,51.3s-16.8,52.1-36.6,52.1-36.4-12.5-36.4-52.1,16.8-51.3,36.4-51.3h0ZM481.1,408.7c16.5,0,16.5-24.3,16.5-35.5s0-34.7-16.5-34.7-16.2,24.3-16.2,34.7,0,35.5,16.2,35.5Z"/>
      <path class="cls-1" d="M527.4,362.1c-.7-22.7,12.2-40.2,36.1-40.2s34.1,11.6,34.1,31.1-8,23.2-17.8,30.1-21.5,12.6-28.7,22.9h47v17.3h-73c0-23,14.2-32.8,31.4-44.5,13.6-9.2,20.9-14.6,20.9-24.7s-6.1-14.9-13.8-14.9c-13.3,0-16.9,12.4-16.9,22.9h-19.3Z"/>
      <path class="cls-1" d="M646.9,400.3h-42v-18.5l43.2-58h18v59.8h13.2v16.6h-13.2v23h-19.2v-23h0ZM646.9,349.1h-.4l-25.7,34.5h26.1v-34.5h0Z"/>
    </g>
  </g>
  <g>
    <polygon class="cls-1" points="609.2 0 485.6 123.6 485.6 170.3 485.6 247.1 609.2 247.1 609.2 85.1 609.2 79.5 732.8 79.5 732.8 0 609.2 0"/>
    <polygon class="cls-1" points="1029.4 85.1 1029.4 0 809.5 0 809.5 0 732.8 79.5 732.8 112.5 732.8 164.5 777.7 164.5 874.7 164.5 874.7 247.1 1029.4 247.1 1029.4 164.5 874.7 164.5 874.7 85.1 1029.4 85.1"/>
    <polygon class="cls-1" points="362.1 0 362.1 123.6 247.1 123.6 247.1 0 123.6 123.6 0 123.6 0 247.1 123.6 247.1 242.2 128.5 242.2 247.1 365.7 247.1 365.7 123.6 485.6 123.6 485.6 0 362.1 0"/>
  </g>
  <g>
    <path class="cls-1" d="M757.5,342.6v13.3c0,15.1,11.1,25.8,24.5,32.2l-7.9,12.3c-8.8-5-18.3-11.8-24.7-21.5-5.8,9.4-16.1,17.8-26.5,24.6l-9.8-11.6c15.2-8.6,28-20.4,28-36.3v-13h-21v-12.7h57.6v12.7h-20.2,0ZM803.9,423.9h-16.3v-101h16.3v101Z"/>
    <path class="cls-1" d="M883,397.9c-21.2,2.3-40.3,2.5-58.4,2.5v-42.7h32.2v-16.4h-32.2v-12.1h48.4v40.7h-32.2v18.3c16,0,22.2-.1,42.1-2.2v12h.1ZM906.1,423.9h-16.3v-101h16.3v101Z"/>
    <path class="cls-1" d="M975.7,382.2c-9.8-3.5-19.5-9.4-25.6-16.9-5.7,8.3-16.6,14.9-26.6,20l-8.9-10.3c13-6.3,26.8-15.1,26.8-29.1v-19.7h16.1v19.6c0,13.5,12.9,20.8,24.9,25.7l-6.6,10.7h-.1ZM1007.3,421.8h-71.7v-32.2h16.6v19.8h55.1v12.3h0ZM1020,365.1h-16.2v29.7h-16.2v-71.9h16.2v29.6h16.2v12.7h0Z"/>
  </g>
</svg>