<svg width="512" height="512" viewBox="0 0 512 512" fill="none" xmlns="http://www.w3.org/2000/svg">
<rect width="512" height="512" fill="white"/>
<g clip-path="url(#clip0_508_40)">
<path d="M210.058 249.772H199.199C198.003 252.477 197.396 254.359 197.396 255.418C197.396 256.182 197.69 256.672 198.258 256.868C198.827 257.064 199.689 257.182 200.846 257.182V258.711H190.339V257.182C190.947 257.103 191.476 257.005 191.927 256.868C192.378 256.731 192.77 256.555 193.122 256.339C193.475 256.104 193.769 255.81 194.024 255.437C194.279 255.065 194.514 254.614 194.749 254.085L204.844 228.798H207.687L216.86 251.203C217.39 252.517 217.84 253.536 218.213 254.281C218.585 255.026 218.977 255.594 219.409 255.986C219.82 256.378 220.31 256.653 220.859 256.809C221.408 256.966 222.114 257.084 222.996 257.162V258.73H208.49V257.162C209.725 257.103 210.607 256.986 211.137 256.77C211.666 256.574 211.94 256.163 211.94 255.535C211.94 255.182 211.842 254.712 211.666 254.163C211.489 253.595 211.254 252.909 210.941 252.085L210.058 249.792V249.772ZM200.081 247.459H209.216L204.805 235.835H204.648L200.081 247.459Z" fill="#E60039"/>
<path d="M250.262 237.599H248.615C248.537 236.345 248.361 235.306 248.067 234.463C247.773 233.64 247.361 232.973 246.812 232.464C246.283 231.974 245.616 231.621 244.852 231.425C244.087 231.229 243.186 231.131 242.166 231.131C241.147 231.131 240.363 231.131 239.775 231.19C239.187 231.248 238.716 231.288 238.403 231.386C238.089 231.484 237.874 231.601 237.776 231.758C237.678 231.915 237.619 232.111 237.619 232.326V252.438C237.619 253.261 237.678 253.967 237.795 254.555C237.913 255.143 238.148 255.613 238.501 255.986C238.854 256.358 239.383 256.633 240.069 256.829C240.755 257.025 241.676 257.123 242.794 257.162V258.691H226.72V257.162C227.877 257.142 228.798 257.025 229.484 256.829C230.17 256.633 230.699 256.358 231.072 255.986C231.444 255.613 231.679 255.143 231.797 254.555C231.915 253.967 231.973 253.261 231.973 252.438V232.326C231.973 232.091 231.934 231.895 231.836 231.758C231.738 231.601 231.562 231.484 231.287 231.386C231.013 231.288 230.601 231.229 230.072 231.19C229.543 231.15 228.857 231.131 228.014 231.131C227.093 231.131 226.21 231.17 225.368 231.268C224.525 231.366 223.78 231.621 223.133 232.032C222.486 232.444 221.976 233.091 221.584 233.953C221.192 234.816 220.977 236.012 220.957 237.58H219.467L219.859 229.131H249.909L250.301 237.58L250.262 237.599Z" fill="#E60039"/>
<path d="M276.43 259.083L259.436 234.875H259.279V251.38C259.279 252.654 259.318 253.673 259.416 254.418C259.514 255.163 259.69 255.732 259.984 256.143C260.279 256.555 260.69 256.829 261.219 256.947C261.749 257.064 262.435 257.143 263.278 257.182V258.711H251.889V257.182C252.83 257.162 253.594 257.064 254.182 256.927C254.751 256.79 255.202 256.516 255.515 256.143C255.829 255.771 256.045 255.222 256.143 254.516C256.241 253.811 256.299 252.87 256.299 251.654V236.228C256.299 235.15 256.241 234.267 256.143 233.562C256.045 232.856 255.848 232.307 255.574 231.896C255.3 231.484 254.888 231.21 254.359 231.033C253.829 230.876 253.143 230.759 252.261 230.7V229.171H262.964L278.43 251.341H278.587V236.482C278.587 235.228 278.547 234.228 278.449 233.464C278.351 232.699 278.175 232.131 277.881 231.719C277.587 231.308 277.175 231.033 276.646 230.916C276.117 230.798 275.431 230.72 274.588 230.68V229.151H285.977V230.68C285.036 230.7 284.271 230.798 283.703 230.935C283.134 231.072 282.683 231.347 282.35 231.719C282.037 232.111 281.821 232.66 281.723 233.366C281.625 234.091 281.566 235.032 281.566 236.208V259.083H276.43Z" fill="#E60039"/>
<path d="M221.565 128.28L182.577 118.008L145.529 279.783L151.37 281.723L144.569 300.933L180.812 313.772L188.477 292.171L177.049 288.113L221.565 128.28Z" fill="#E60039"/>
<path d="M381.457 288.055L352.27 296.503L298.6 81L244.558 97.0539L315.674 311.401L325.004 308.617L333.178 336.883L390.768 320.241L381.457 288.055Z" fill="#E60039"/>
<path d="M129.534 361.307L122.909 353.741C120.341 354.505 118.694 355.211 117.988 355.838C117.459 356.289 117.322 356.779 117.538 357.308C117.753 357.837 118.204 358.484 118.91 359.288L117.871 360.19L111.441 352.859L112.48 351.957C112.912 352.349 113.304 352.643 113.656 352.878C114.009 353.113 114.382 353.29 114.754 353.388C115.127 353.486 115.499 353.525 115.911 353.486C116.322 353.447 116.773 353.349 117.283 353.192L140.57 345.233L142.295 347.213L132.729 366.893C132.18 368.05 131.749 368.971 131.475 369.657C131.2 370.343 131.063 370.971 131.043 371.5C131.043 372.029 131.141 372.539 131.377 373.009C131.612 373.48 131.965 374.048 132.435 374.695L131.377 375.636L122.516 365.521L123.575 364.58C124.359 365.404 124.986 365.953 125.457 366.207C125.927 366.462 126.358 366.403 126.77 366.051C127.005 365.835 127.28 365.502 127.535 365.051C127.809 364.6 128.123 364.012 128.495 363.306L129.514 361.327L129.534 361.307ZM125.006 352.996L130.573 359.366L135.748 349.389L135.65 349.291L124.986 352.996H125.006Z" fill="#E60039"/>
<path d="M133.219 376.636L132.396 375.891L136.61 371.225L137.728 372.225C136.924 373.735 136.532 375.009 136.591 376.087C136.649 377.165 137.12 378.106 138.022 378.909C138.668 379.497 139.296 379.811 139.903 379.889C140.511 379.948 141.021 379.752 141.432 379.282C141.864 378.811 142.06 378.145 142.04 377.282C142.001 376.44 141.726 375.303 141.197 373.911C140.491 372.01 140.158 370.441 140.197 369.226C140.237 368.011 140.648 366.972 141.432 366.09C141.942 365.521 142.53 365.09 143.177 364.816C143.843 364.522 144.51 364.365 145.215 364.345C145.921 364.345 146.627 364.463 147.332 364.737C148.038 365.012 148.705 365.443 149.312 365.992C149.861 366.482 150.332 367.05 150.724 367.678C151.116 368.324 151.39 368.952 151.566 369.599L152.605 369.403L153.291 370.03L149.802 373.911L148.763 372.99C149.234 371.657 149.449 370.579 149.41 369.755C149.371 368.932 149.038 368.246 148.411 367.697C147.921 367.246 147.411 367.031 146.882 367.031C146.352 367.031 145.902 367.227 145.529 367.658C145.098 368.128 144.902 368.775 144.961 369.599C145 370.422 145.294 371.539 145.843 372.95C146.215 373.97 146.49 374.871 146.666 375.695C146.862 376.518 146.94 377.243 146.921 377.91C146.921 378.557 146.803 379.164 146.588 379.693C146.372 380.223 146.058 380.732 145.647 381.183C145.117 381.791 144.51 382.222 143.843 382.497C143.177 382.771 142.491 382.889 141.766 382.849C141.04 382.81 140.295 382.614 139.531 382.281C138.766 381.948 138.041 381.438 137.316 380.791C136.551 380.105 135.944 379.38 135.473 378.596C135.003 377.812 134.728 377.047 134.63 376.283L133.239 376.655L133.219 376.636Z" fill="#E60039"/>
<path d="M154.036 386.77C153.468 387.495 153.056 388.103 152.762 388.593C152.488 389.083 152.331 389.494 152.331 389.867C152.331 390.239 152.429 390.573 152.684 390.906C152.939 391.239 153.331 391.611 153.86 392.062L153.017 393.16L144.137 386.319L144.98 385.221C145.509 385.613 146 385.868 146.392 386.025C146.784 386.182 147.176 386.201 147.528 386.123C147.881 386.025 148.254 385.809 148.626 385.456C149.018 385.104 149.449 384.594 149.939 383.967L152.527 380.595C153.35 379.537 153.997 378.655 154.487 377.949C154.977 377.243 155.291 376.734 155.428 376.44C155.683 375.91 155.702 375.44 155.487 375.048C155.271 374.656 154.722 374.127 153.86 373.44L154.585 372.519L161.916 376.518L153.997 386.809L154.036 386.77ZM162.289 367.501C162.759 366.893 163.347 366.56 164.092 366.482C164.837 366.403 165.503 366.58 166.111 367.05C166.738 367.521 167.091 368.128 167.209 368.873C167.307 369.618 167.13 370.285 166.679 370.873C166.229 371.461 165.641 371.794 164.896 371.872C164.151 371.951 163.484 371.755 162.857 371.284C162.249 370.814 161.897 370.226 161.799 369.481C161.701 368.736 161.857 368.089 162.308 367.501H162.289Z" fill="#E60039"/>
<path d="M169.992 390.416L170.776 389.201C171.502 388.083 171.815 387.123 171.737 386.358C171.658 385.574 171.188 384.927 170.325 384.359C169.757 383.987 169.208 383.849 168.718 383.967C168.228 384.065 167.62 384.398 166.915 384.927C166.425 385.3 165.935 385.516 165.425 385.574C164.915 385.633 164.386 385.476 163.798 385.104C163.23 384.751 162.916 384.3 162.838 383.791C162.759 383.281 162.896 382.712 163.288 382.105C163.876 381.184 164.876 380.772 166.287 380.909C167.679 381.046 169.443 381.791 171.56 383.144C173.795 384.575 175.128 386.006 175.598 387.397C176.049 388.789 175.677 390.416 174.501 392.259L170.404 398.629C169.345 400.276 169.149 401.315 169.835 401.746C170.208 401.981 170.639 402.079 171.129 402.04L171.031 403.177C170.443 403.49 169.757 403.588 168.993 403.49C168.228 403.392 167.464 403.098 166.738 402.628C165.817 402.04 165.307 401.315 165.17 400.472C165.033 399.629 165.288 398.708 165.935 397.708L165.778 397.61C164.562 398.237 163.308 398.531 162.053 398.472C160.799 398.394 159.584 398.002 158.408 397.237C157.153 396.434 156.369 395.434 156.055 394.258C155.742 393.082 155.938 391.945 156.643 390.847C157.192 390.004 158.094 389.456 159.348 389.201C160.603 388.965 162.367 389.063 164.641 389.514L169.992 390.455V390.416ZM169.012 391.965C166.856 391.631 165.17 391.494 163.916 391.573C162.661 391.651 161.818 392.043 161.387 392.709C161.034 393.278 160.897 393.827 161.015 394.356C161.132 394.885 161.407 395.316 161.897 395.611C162.387 395.905 162.877 396.12 163.406 396.238C163.935 396.336 164.425 396.355 164.896 396.277C165.366 396.199 165.817 396.022 166.229 395.748C166.64 395.473 166.993 395.14 167.268 394.709L169.032 391.945L169.012 391.965Z" fill="#E60039"/>
<path d="M211.999 402.784L210.588 402.196C210.96 401.138 211.176 400.197 211.215 399.413C211.254 398.609 211.137 397.923 210.843 397.316C210.568 396.708 210.117 396.179 209.529 395.747C208.941 395.316 208.216 394.905 207.334 394.532C206.491 394.179 205.785 393.905 205.276 393.709C204.766 393.513 204.335 393.415 204.021 393.376C203.727 393.336 203.492 393.376 203.355 393.454C203.217 393.552 203.1 393.689 203.021 393.866L195.965 410.527C195.671 411.213 195.475 411.801 195.377 412.331C195.259 412.86 195.298 413.35 195.475 413.781C195.651 414.212 196.004 414.644 196.514 415.055C197.043 415.467 197.768 415.879 198.729 416.31L198.199 417.584L184.478 411.782L185.007 410.508C186.007 410.9 186.83 411.154 187.477 411.233C188.144 411.331 188.692 411.272 189.124 411.115C189.575 410.939 189.947 410.625 190.241 410.194C190.535 409.763 190.849 409.194 191.123 408.508L198.18 391.847C198.258 391.651 198.297 391.474 198.258 391.317C198.239 391.161 198.121 390.984 197.905 390.808C197.69 390.631 197.376 390.435 196.945 390.22C196.514 390.004 195.926 389.73 195.22 389.436C194.436 389.102 193.671 388.828 192.907 388.593C192.162 388.357 191.437 388.299 190.731 388.416C190.045 388.534 189.379 388.887 188.732 389.436C188.085 390.004 187.497 390.925 186.928 392.219L185.654 391.67L188.947 384.81L214.587 395.669L211.96 402.804L211.999 402.784Z" fill="#E60039"/>
<path d="M214.41 417.192C214.155 418.054 213.998 418.74 213.94 419.27C213.881 419.799 213.94 420.211 214.097 420.563C214.273 420.897 214.587 421.191 215.037 421.406C215.488 421.622 216.115 421.838 216.919 422.073L216.527 423.406L205.119 420.073L205.511 418.74C206.197 418.897 206.765 418.995 207.216 419.015C207.647 419.054 208 418.956 208.294 418.76C208.569 418.564 208.824 418.211 209.02 417.741C209.216 417.251 209.451 416.604 209.686 415.761L210.862 411.723C211.254 410.351 211.548 409.253 211.725 408.41C211.901 407.567 211.94 406.901 211.842 406.391C211.744 405.882 211.509 405.49 211.117 405.235C210.745 404.96 210.215 404.745 209.529 404.529L209.862 403.373L217.056 404.137L216.488 408.116L216.625 408.155C217.586 407.156 218.664 406.47 219.859 406.078C221.055 405.686 222.231 405.646 223.329 405.98C224.191 406.234 224.838 406.646 225.27 407.234C225.701 407.822 225.818 408.43 225.622 409.057C225.407 409.763 225.034 410.292 224.466 410.664C223.897 411.017 223.251 411.096 222.525 410.9C222.192 410.802 221.898 410.645 221.663 410.429C221.428 410.214 221.232 409.998 221.055 409.763C220.898 409.528 220.722 409.312 220.546 409.116C220.369 408.92 220.173 408.783 219.938 408.704C219.507 408.587 219.017 408.743 218.468 409.175C217.919 409.606 217.39 410.253 216.86 411.115C216.488 411.723 216.115 412.429 215.763 413.232C215.41 414.036 215.116 414.84 214.861 415.643L214.391 417.231L214.41 417.192Z" fill="#E60039"/>
<path d="M235.266 415.565L235.541 414.134C235.776 412.821 235.717 411.821 235.365 411.135C234.992 410.449 234.306 410.018 233.306 409.822C232.64 409.684 232.091 409.782 231.679 410.057C231.268 410.351 230.836 410.86 230.366 411.625C230.052 412.154 229.68 412.546 229.229 412.781C228.778 413.017 228.229 413.076 227.543 412.958C226.896 412.84 226.426 412.546 226.152 412.095C225.877 411.645 225.799 411.076 225.936 410.37C226.132 409.292 226.916 408.547 228.249 408.136C229.582 407.724 231.503 407.763 233.973 408.214C236.58 408.704 238.364 409.508 239.304 410.625C240.245 411.743 240.52 413.389 240.128 415.545L238.736 422.974C238.383 424.895 238.599 425.934 239.383 426.072C239.834 426.15 240.265 426.072 240.696 425.856L241.029 426.934C240.598 427.444 240.01 427.797 239.265 427.993C238.52 428.189 237.717 428.208 236.854 428.051C235.776 427.855 235.031 427.385 234.58 426.64C234.13 425.895 234.032 424.954 234.247 423.798L234.071 423.759C233.169 424.817 232.13 425.542 230.954 425.954C229.758 426.366 228.484 426.444 227.112 426.189C225.642 425.915 224.544 425.287 223.799 424.327C223.055 423.366 222.819 422.23 223.055 420.936C223.231 419.936 223.878 419.093 224.936 418.388C226.014 417.682 227.681 417.114 229.954 416.663L235.266 415.506V415.565ZM234.933 417.368C232.816 417.858 231.189 418.388 230.072 418.936C228.935 419.485 228.308 420.152 228.151 420.955C228.033 421.602 228.112 422.171 228.425 422.622C228.719 423.072 229.151 423.347 229.719 423.465C230.288 423.563 230.817 423.563 231.346 423.465C231.875 423.367 232.346 423.19 232.738 422.935C233.149 422.68 233.483 422.347 233.777 421.955C234.051 421.544 234.247 421.093 234.345 420.603L234.953 417.388L234.933 417.368Z" fill="#E60039"/>
<path d="M250.83 423.641C250.732 424.562 250.713 425.288 250.713 425.856C250.713 426.405 250.83 426.856 251.007 427.169C251.183 427.483 251.477 427.718 251.869 427.856C252.261 427.993 252.791 428.11 253.477 428.208L253.339 429.581L242.186 428.483L242.323 427.111C242.99 427.15 243.539 427.13 243.95 427.052C244.381 426.973 244.715 426.797 244.969 426.523C245.224 426.248 245.42 425.876 245.538 425.366C245.675 424.856 245.773 424.21 245.852 423.406L246.263 419.172C246.4 417.839 246.479 416.741 246.518 415.879C246.557 415.016 246.557 414.428 246.518 414.095C246.459 413.507 246.224 413.115 245.832 412.88C245.44 412.664 244.695 412.488 243.617 412.39L243.735 411.214L252.065 410.724L250.791 423.641H250.83ZM247.616 402.922C247.694 402.157 248.027 401.55 248.596 401.099C249.184 400.629 249.85 400.452 250.595 400.511C251.379 400.589 252.007 400.903 252.477 401.471C252.967 402.04 253.163 402.706 253.085 403.451C253.006 404.176 252.693 404.784 252.105 405.255C251.516 405.725 250.85 405.921 250.066 405.843C249.321 405.764 248.694 405.451 248.223 404.882C247.753 404.314 247.537 403.667 247.616 402.922Z" fill="#E60039"/>
<path d="M262.944 424.268C262.925 425.19 262.944 425.935 262.984 426.483C263.042 427.032 263.16 427.464 263.376 427.777C263.572 428.091 263.885 428.287 264.277 428.404C264.669 428.522 265.218 428.6 265.904 428.64L265.865 430.012L254.672 429.659L254.712 428.287C255.378 428.287 255.907 428.228 256.339 428.11C256.75 427.993 257.083 427.797 257.319 427.522C257.554 427.248 257.73 426.836 257.809 426.327C257.907 425.817 257.965 425.15 258.005 424.347L258.456 410.096C258.495 408.763 258.514 407.666 258.495 406.803C258.495 405.941 258.436 405.353 258.377 405.019C258.279 404.451 258.024 404.059 257.613 403.863C257.201 403.667 256.456 403.549 255.358 403.51L255.398 402.334L263.689 401.275L262.964 424.268H262.944Z" fill="#E60039"/>
<path d="M269.629 429.992L268.531 430.031L268.257 423.759L269.746 423.7C270.217 425.327 270.844 426.522 271.648 427.248C272.432 427.973 273.431 428.306 274.647 428.247C275.529 428.208 276.195 428.012 276.666 427.62C277.136 427.248 277.352 426.738 277.332 426.13C277.313 425.483 276.979 424.876 276.352 424.288C275.725 423.7 274.745 423.092 273.392 422.465C271.55 421.602 270.217 420.72 269.393 419.819C268.57 418.917 268.139 417.878 268.08 416.721C268.041 415.957 268.159 415.251 268.433 414.585C268.707 413.918 269.08 413.33 269.57 412.821C270.06 412.311 270.648 411.919 271.354 411.625C272.059 411.331 272.824 411.154 273.647 411.135C274.372 411.096 275.117 411.174 275.842 411.351C276.568 411.527 277.215 411.782 277.783 412.135L278.391 411.272L279.312 411.233L279.547 416.447L278.155 416.506C277.548 415.212 276.94 414.31 276.352 413.762C275.744 413.213 275.019 412.958 274.196 412.997C273.529 413.036 273.02 413.232 272.647 413.585C272.275 413.938 272.099 414.408 272.118 414.996C272.138 415.643 272.471 416.231 273.059 416.78C273.667 417.329 274.666 417.917 276.038 418.544C277.019 419.015 277.842 419.466 278.548 419.917C279.253 420.367 279.841 420.838 280.272 421.308C280.704 421.779 281.057 422.288 281.292 422.818C281.507 423.347 281.645 423.935 281.664 424.543C281.703 425.346 281.586 426.072 281.292 426.738C281.017 427.385 280.606 427.973 280.057 428.443C279.508 428.933 278.842 429.306 278.057 429.6C277.273 429.894 276.391 430.051 275.431 430.09C274.412 430.129 273.451 430.051 272.569 429.815C271.687 429.6 270.942 429.227 270.354 428.757L269.629 429.992Z" fill="#E60039"/>
<path d="M316.046 423.955L295.876 406.176L295.738 406.215L299.012 420.701C299.267 421.818 299.502 422.7 299.737 423.328C299.972 423.955 300.247 424.425 300.6 424.719C300.952 425.013 301.364 425.17 301.874 425.17C302.383 425.17 303.011 425.111 303.775 424.955L304.089 426.307L293.778 428.64L293.484 427.287C294.327 427.072 295.013 426.836 295.503 426.601C295.993 426.366 296.346 426.033 296.562 425.641C296.777 425.229 296.856 424.719 296.816 424.072C296.777 423.426 296.62 422.583 296.385 421.524L293.327 407.979C293.112 407.038 292.896 406.274 292.661 405.666C292.426 405.078 292.151 404.627 291.818 404.314C291.485 404.02 291.053 403.843 290.563 403.804C290.054 403.765 289.407 403.804 288.603 403.941L288.309 402.589L297.993 400.413L316.36 416.722L316.497 416.683L313.556 403.647C313.302 402.55 313.066 401.667 312.831 401.04C312.596 400.393 312.322 399.923 311.969 399.629C311.616 399.335 311.204 399.178 310.695 399.178C310.185 399.178 309.558 399.237 308.793 399.394L308.48 398.041L318.79 395.708L319.084 397.061C318.241 397.277 317.555 397.512 317.065 397.747C316.575 397.982 316.222 398.316 316.007 398.708C315.791 399.1 315.713 399.629 315.771 400.276C315.83 400.923 315.967 401.765 316.203 402.804L320.731 422.877L316.085 423.935L316.046 423.955Z" fill="#E60039"/>
<path d="M341.195 411.665C339.999 414.644 337.902 416.683 334.864 417.82C333.492 418.329 332.159 418.584 330.885 418.584C329.61 418.584 328.434 418.349 327.337 417.878C326.258 417.408 325.298 416.741 324.455 415.84C323.612 414.958 322.965 413.86 322.475 412.566C321.985 411.233 321.75 409.92 321.809 408.626C321.868 407.333 322.162 406.137 322.711 405C323.259 403.863 324.043 402.863 325.043 401.981C326.043 401.099 327.239 400.393 328.63 399.864C330.983 398.982 333.041 398.923 334.825 399.668C336.589 400.413 337.902 401.883 338.725 404.118C338.862 404.471 338.882 404.686 338.804 404.804C338.725 404.921 338.431 405.078 337.922 405.255L327.199 409.254C327.199 409.489 327.278 409.861 327.454 410.371C328.238 412.488 329.336 413.978 330.728 414.86C332.119 415.742 333.648 415.879 335.275 415.271C336.197 414.918 337.059 414.37 337.824 413.625C338.588 412.88 339.274 411.959 339.862 410.88L341.215 411.665H341.195ZM331.571 405.549C332.453 405.216 333.021 404.961 333.237 404.765C333.452 404.569 333.492 404.294 333.354 403.922C333.002 402.981 332.433 402.295 331.649 401.903C330.865 401.511 330.061 401.472 329.218 401.785C328.258 402.138 327.552 402.844 327.101 403.883C326.651 404.921 326.533 406.078 326.749 407.352L331.571 405.549Z" fill="#E60039"/>
<path d="M337.49 398.766L336.824 397.375C337.941 396.414 338.764 395.356 339.294 394.238C339.823 393.101 340.078 391.964 340.058 390.828L341.705 390.043L343.508 393.807L347.193 392.043L348.017 393.748L344.331 395.512L348.899 405.078C349.506 406.372 350.094 407.215 350.643 407.607C351.192 408.018 351.8 408.038 352.486 407.724C353.329 407.332 353.78 406.646 353.838 405.705L354.936 406.293C355.034 408.058 353.976 409.469 351.761 410.527C350.29 411.233 348.977 411.449 347.84 411.174C346.703 410.9 345.841 410.155 345.272 408.959L339.882 397.649L337.53 398.766H337.49Z" fill="#E60039"/>
<path d="M365.933 402.902L363.678 404.333L351.996 394.924C351.094 394.199 350.29 393.768 349.644 393.65C348.977 393.533 348.291 393.69 347.566 394.082L346.821 392.905L355.426 387.476L356.171 388.652C355.465 389.122 355.034 389.554 354.858 389.906C354.701 390.259 354.76 390.671 355.034 391.122C355.171 391.337 355.348 391.553 355.563 391.769C355.779 391.984 356.053 392.219 356.347 392.494L362.561 398.139L362.679 398.061L360.072 384.575L362.542 383.026L372.539 391.867L372.695 391.769L371.304 384.202C371.206 383.595 371.068 383.085 370.931 382.673C370.774 382.262 370.618 381.928 370.461 381.654C370.147 381.144 369.735 380.89 369.265 380.89C368.795 380.89 368.265 381.066 367.677 381.438L366.932 380.262L373.401 376.185L374.146 377.361C373.793 377.596 373.499 377.812 373.323 378.047C373.127 378.282 373.009 378.616 372.95 379.067C372.891 379.517 372.911 380.125 373.009 380.909C373.107 381.693 373.283 382.732 373.519 384.045L375.734 396.767L373.362 398.257L363.639 389.887L363.522 389.965L365.992 402.902H365.933Z" fill="#E60039"/>
<path d="M379.321 370.03C380.399 369.109 381.595 368.423 382.869 367.972C384.143 367.521 385.417 367.286 386.671 367.305C387.946 367.305 389.161 367.58 390.317 368.089C391.474 368.599 392.493 369.383 393.375 370.402C394.277 371.481 394.904 372.637 395.238 373.892C395.571 375.146 395.649 376.42 395.473 377.675C395.296 378.949 394.865 380.184 394.218 381.36C393.571 382.556 392.689 383.594 391.611 384.516C390.533 385.417 389.377 386.104 388.102 386.554C386.848 387.005 385.574 387.221 384.3 387.182C383.026 387.142 381.791 386.848 380.615 386.3C379.438 385.751 378.399 384.927 377.478 383.869C376.596 382.83 376.008 381.693 375.675 380.458C375.342 379.223 375.283 377.988 375.459 376.734C375.655 375.499 376.067 374.284 376.733 373.127C377.4 371.971 378.262 370.932 379.321 370.03ZM380.615 371.559C380.066 372.01 379.693 372.578 379.478 373.225C379.262 373.872 379.203 374.597 379.301 375.342C379.399 376.107 379.654 376.91 380.066 377.734C380.477 378.576 381.046 379.419 381.751 380.262C382.496 381.144 383.261 381.87 384.025 382.418C384.79 382.987 385.535 383.359 386.279 383.594C387.024 383.83 387.71 383.889 388.396 383.771C389.063 383.673 389.69 383.379 390.239 382.908C390.807 382.438 391.2 381.87 391.435 381.203C391.67 380.537 391.729 379.811 391.631 379.047C391.533 378.263 391.278 377.459 390.866 376.597C390.455 375.734 389.886 374.872 389.161 374.029C388.455 373.186 387.71 372.5 386.946 371.971C386.181 371.441 385.437 371.069 384.672 370.834C383.927 370.598 383.202 370.559 382.516 370.677C381.83 370.794 381.203 371.088 380.634 371.559H380.615Z" fill="#E60039"/>
<path d="M402.725 366.207C403.372 366.835 403.921 367.286 404.352 367.58C404.784 367.874 405.195 368.03 405.568 368.03C405.94 368.03 406.332 367.874 406.744 367.58C407.155 367.286 407.626 366.815 408.214 366.227L409.214 367.188L401.02 375.793L400.02 374.832C400.471 374.283 400.824 373.833 401.059 373.46C401.275 373.088 401.373 372.735 401.314 372.382C401.255 372.029 401.059 371.657 400.726 371.265C400.393 370.873 399.903 370.363 399.276 369.755L396.218 366.854C395.179 365.874 394.336 365.11 393.669 364.58C393.003 364.051 392.415 363.698 391.925 363.561C391.435 363.424 390.964 363.444 390.572 363.659C390.161 363.875 389.71 364.228 389.22 364.757L388.338 363.934L392.317 357.896L395.59 360.229L395.688 360.131C395.238 358.818 395.12 357.543 395.336 356.308C395.532 355.054 396.041 354.015 396.845 353.172C397.472 352.525 398.139 352.133 398.844 352.035C399.55 351.918 400.158 352.094 400.628 352.565C401.157 353.074 401.451 353.662 401.53 354.329C401.589 354.995 401.373 355.603 400.844 356.152C400.589 356.406 400.334 356.583 400.04 356.701C399.746 356.818 399.452 356.897 399.177 356.936C398.903 356.975 398.629 357.034 398.354 357.093C398.099 357.151 397.884 357.269 397.707 357.445C397.394 357.779 397.315 358.288 397.453 358.974C397.59 359.66 397.923 360.444 398.433 361.287C398.805 361.895 399.256 362.542 399.805 363.228C400.354 363.914 400.922 364.541 401.549 365.129L402.745 366.266L402.725 366.207Z" fill="#E60039"/>
<path d="M419.269 352.859C419.72 352.251 420.034 351.82 420.171 351.545C420.308 351.271 420.308 351.075 420.171 350.957C420.054 350.879 419.701 350.801 419.073 350.722C418.446 350.644 417.701 350.585 416.839 350.546L412.076 350.291L412.311 352.702L413.369 353.525C414.075 354.074 414.683 354.486 415.153 354.76C415.623 355.035 416.055 355.211 416.408 355.25C416.76 355.289 417.074 355.231 417.368 355.054C417.662 354.878 417.956 354.584 418.25 354.192L419.348 355.035L412.958 363.365L411.86 362.522C412.252 361.974 412.507 361.523 412.664 361.131C412.82 360.739 412.86 360.366 412.762 359.994C412.683 359.621 412.448 359.249 412.095 358.876C411.742 358.504 411.233 358.053 410.566 357.544L398.942 348.644C397.825 347.782 396.943 347.135 396.257 346.684C395.59 346.233 395.042 345.959 394.591 345.88C394.14 345.802 393.767 345.88 393.434 346.155C393.101 346.429 392.729 346.841 392.297 347.409L391.278 346.625L395.061 339.529L410.292 351.212L409.88 346.586C409.723 344.92 409.586 343.705 409.469 342.96C409.331 342.195 409.174 341.744 408.978 341.588C408.822 341.47 408.567 341.548 408.234 341.842C407.9 342.136 407.371 342.764 406.646 343.705L405.548 342.862L411.448 335.158L412.546 336.001C411.997 336.726 411.625 337.432 411.448 338.157C411.272 338.883 411.233 339.784 411.311 340.882L411.703 345.528L422.151 345.782C423.072 345.782 423.797 345.684 424.327 345.43C424.856 345.194 425.385 344.724 425.914 344.038L427.012 344.881L420.289 353.662L419.191 352.819L419.269 352.859Z" fill="#E60039"/>
<path d="M80 251.341C80.294 255.692 84.0772 258.985 88.4288 258.691C92.7804 258.397 96.0736 254.614 95.7795 250.263C95.4855 245.911 91.7023 242.618 87.3507 242.912C82.9991 243.206 79.706 246.989 80 251.341Z" fill="#E60039"/>
<path d="M427.914 227.426C428.208 231.778 431.991 235.071 436.343 234.777C440.694 234.483 443.987 230.7 443.693 226.348C443.399 221.996 439.616 218.703 435.265 218.997C430.913 219.291 427.62 223.074 427.914 227.426Z" fill="#E60039"/>
</g>
<defs>
<clipPath id="clip0_508_40">
<rect width="363.713" height="349.09" fill="white" transform="translate(80 81)"/>
</clipPath>
</defs>
</svg>
