<svg width="512" height="512" viewBox="0 0 512 512" fill="none" xmlns="http://www.w3.org/2000/svg">
<rect width="512" height="512" fill="white"/>
<g clip-path="url(#clip0_315_9)">
<path d="M103.136 371.934C103.402 371.578 103.542 371.401 103.808 371.052C104.182 371.274 104.569 371.509 104.981 371.756C105.393 372.003 105.774 372.213 106.123 372.384C106.471 372.555 106.789 372.669 107.061 372.739C107.334 372.802 107.55 372.771 107.607 372.657C107.645 372.581 107.708 372.428 107.803 372.27C107.898 372.111 107.968 371.877 108.006 371.566C108.425 369.613 108.64 368.636 109.091 366.695C109.211 365.985 108.678 365.18 107.499 364.273C105.387 362.643 104.334 361.812 102.254 360.119C101.366 359.396 100.637 359.206 100.041 359.542C98.5949 360.328 97.8655 360.721 96.4006 361.495C96.1659 361.584 95.9123 361.793 95.6459 362.11C94.9229 362.979 95.6015 364.298 97.7133 366.01C97.3899 366.416 97.225 366.613 96.8952 367.019C93.6419 364.374 92.031 363.011 88.8601 360.214C89.2026 359.827 89.3738 359.63 89.7163 359.244C90.4265 359.808 91.1685 360.125 91.9423 360.208C92.7096 360.29 93.5341 360.15 94.4029 359.795C101.709 356.865 108.888 353.631 115.927 350.105C116.213 350.555 116.358 350.777 116.65 351.227C114.779 359.117 113.206 367.082 111.938 375.092C111.989 375.764 112.078 376.214 112.204 376.462C112.224 376.538 112.395 376.734 112.705 377.064C113.016 377.388 113.454 377.844 114.006 378.44C113.752 378.808 113.631 378.992 113.378 379.36C109.224 376.506 107.175 375.028 103.136 371.946V371.934ZM112.211 353.821C109.11 355.337 107.537 356.073 104.372 357.5C103.744 357.753 103.358 357.975 103.199 358.165C102.964 358.451 103.275 358.946 104.131 359.637C105.888 361.051 106.77 361.749 108.545 363.112C109.249 363.658 109.693 363.803 109.871 363.569C109.947 363.467 110.061 363.049 110.219 362.3C110.974 358.888 111.367 357.189 112.204 353.815L112.211 353.821Z" fill="#E60039"/>
<path d="M113.46 379.791L113.2 379.614C109.008 376.735 106.998 375.282 102.952 372.194L102.698 372.004L103.732 370.64L105.152 371.49C105.552 371.731 105.926 371.94 106.268 372.099C106.598 372.257 106.89 372.365 107.144 372.428C107.245 372.454 107.321 372.454 107.359 372.454V372.441C107.41 372.352 107.461 372.232 107.537 372.111C107.588 372.029 107.651 371.864 107.695 371.534C108.12 369.549 108.336 368.573 108.786 366.632C108.881 366.074 108.387 365.364 107.309 364.533C105.171 362.89 104.144 362.072 102.057 360.373C101.277 359.738 100.669 359.561 100.206 359.827C98.747 360.62 98.0241 361.013 96.5591 361.787C96.4006 361.85 96.1849 361.983 95.8995 362.326C95.741 362.516 95.6712 362.732 95.6966 362.979C95.7473 363.467 96.1659 364.355 97.9226 365.776L98.1699 365.972L96.9586 367.475L96.7113 367.273C93.4389 364.609 91.8598 363.277 88.6698 360.455L88.4352 360.246L89.6972 358.812L89.9319 358.996C90.5914 359.516 91.2827 359.821 91.993 359.897C92.7033 359.973 93.4833 359.84 94.3014 359.504C101.588 356.58 108.824 353.32 115.8 349.826L116.054 349.699L116.206 349.94C116.492 350.39 116.637 350.612 116.923 351.063L116.999 351.177L116.967 351.31C115.115 359.117 113.536 367.127 112.262 375.117C112.319 375.904 112.433 376.208 112.49 376.322L112.515 376.386C112.515 376.386 112.56 376.456 112.94 376.849C113.257 377.172 113.688 377.635 114.247 378.225L114.424 378.409L113.473 379.798L113.46 379.791ZM103.58 371.877C107.372 374.762 109.376 376.215 113.295 378.91L113.6 378.466C113.124 377.965 112.756 377.565 112.477 377.28C112.052 376.842 111.951 376.684 111.913 376.582C111.767 376.291 111.672 375.815 111.621 375.117V375.079V375.041C112.889 367.07 114.469 359.072 116.308 351.285C116.117 350.987 115.991 350.784 115.813 350.517C108.894 353.974 101.734 357.195 94.5234 360.087C93.6101 360.461 92.7286 360.614 91.9105 360.525C91.1685 360.449 90.4456 360.163 89.767 359.675L89.3167 360.189C92.2657 362.789 93.8384 364.121 96.8572 366.575L97.2757 366.061C95.8742 364.882 95.1449 363.886 95.0624 363.03C95.0244 362.611 95.1385 362.231 95.4112 361.907C95.7156 361.539 96.0074 361.311 96.2991 361.197C97.726 360.442 98.449 360.049 99.8949 359.263C100.599 358.857 101.461 359.066 102.457 359.872C104.537 361.565 105.565 362.377 107.695 364.019C108.989 365.015 109.554 365.909 109.408 366.746C108.957 368.706 108.742 369.676 108.323 371.636C108.285 371.965 108.203 372.238 108.082 372.435C108.019 372.536 107.974 372.631 107.943 372.701L107.898 372.796C107.765 373.05 107.429 373.139 106.998 373.044C106.7 372.974 106.364 372.847 105.996 372.669C105.634 372.498 105.241 372.283 104.829 372.029L103.903 371.471L103.592 371.877H103.58ZM109.636 364C109.319 364 108.913 363.804 108.355 363.372C106.554 361.983 105.685 361.298 103.935 359.891C103.212 359.307 102.85 358.851 102.812 358.464C102.793 358.28 102.844 358.115 102.952 357.975C103.142 357.741 103.554 357.5 104.252 357.214C107.416 355.787 108.957 355.064 112.071 353.542L112.68 353.244L112.515 353.904C111.672 357.29 111.285 358.952 110.53 362.377C110.296 363.474 110.2 363.664 110.124 363.765C110.029 363.892 109.89 363.975 109.731 363.994C109.699 363.994 109.668 363.994 109.636 363.994V364ZM111.742 354.405C109.008 355.73 107.473 356.453 104.499 357.791C103.706 358.115 103.497 358.305 103.44 358.369C103.44 358.464 103.529 358.755 104.328 359.396C106.072 360.804 106.941 361.482 108.735 362.865C109.433 363.398 109.636 363.36 109.642 363.366C109.63 363.366 109.706 363.169 109.909 362.237C110.613 359.034 111 357.367 111.735 354.405H111.742Z" fill="#E60039"/>
<path d="M129.651 376.956C129.841 374.09 129.036 372.086 127.203 370.9C126.455 370.418 125.706 370.145 124.945 370.088C124.184 370.031 123.569 370.361 123.087 371.084C122.814 371.496 122.808 371.997 123.068 372.587C123.328 373.176 123.715 373.811 124.229 374.502C124.742 375.193 125.319 375.91 125.954 376.665C126.588 377.419 127.146 378.18 127.615 378.954C128.091 379.728 128.414 380.501 128.585 381.269C128.757 382.042 128.63 382.784 128.199 383.507C127.818 384.142 127.33 384.63 126.74 384.966C126.15 385.302 125.497 385.499 124.774 385.549C124.051 385.6 123.29 385.53 122.497 385.34C121.705 385.15 120.848 384.884 120.144 384.49C118.889 383.786 117.893 382.651 117.253 381.459C116.46 381.44 115.547 381.155 114.513 380.609C115.115 378.84 115.997 377.108 117.145 375.415C117.544 375.688 117.747 375.827 118.147 376.094C117.925 377.013 117.811 377.838 117.804 378.561C117.798 379.284 117.899 379.931 118.102 380.495C118.312 381.059 118.629 381.573 119.06 382.03C119.491 382.486 120.024 382.918 120.664 383.33C122.789 384.687 124.286 384.662 125.123 383.292C125.37 382.892 125.497 382.499 125.503 382.112C125.516 381.725 125.408 381.326 125.193 380.914C124.977 380.501 124.673 380.045 124.279 379.55C123.886 379.055 123.417 378.497 122.859 377.876C122.428 377.394 121.984 376.848 121.533 376.24C121.083 375.631 120.703 375.003 120.404 374.356C120.106 373.709 119.935 373.069 119.884 372.422C119.84 371.781 120.005 371.185 120.379 370.633C120.753 370.082 121.197 369.638 121.705 369.295C122.212 368.953 122.783 368.744 123.411 368.661C124.038 368.579 124.73 368.648 125.478 368.864C126.226 369.08 127.038 369.466 127.901 370.025C128.934 370.69 129.784 371.585 130.469 372.707C131.027 372.675 131.63 372.764 132.276 372.961C131.839 374.66 131.236 376.157 130.456 377.445C130.127 377.242 129.968 377.146 129.638 376.944L129.651 376.956Z" fill="#E60039"/>
<path d="M124.324 385.892C123.715 385.892 123.081 385.816 122.428 385.657C121.413 385.416 120.62 385.124 119.992 384.776C118.819 384.116 117.785 383.057 117.062 381.776C116.263 381.719 115.356 381.421 114.367 380.894L114.132 380.768L114.221 380.514C114.824 378.745 115.718 376.975 116.891 375.244L117.069 374.978L117.329 375.155C117.703 375.415 117.906 375.548 118.261 375.789L118.508 375.961L118.458 376.176C118.242 377.07 118.128 377.876 118.121 378.573C118.115 379.252 118.21 379.861 118.4 380.393C118.591 380.92 118.895 381.395 119.288 381.82C119.701 382.258 120.221 382.677 120.829 383.07C122.034 383.843 123.017 384.148 123.759 383.977C124.21 383.875 124.565 383.596 124.85 383.133C125.066 382.784 125.18 382.442 125.186 382.112C125.193 381.782 125.104 381.434 124.914 381.072C124.711 380.685 124.413 380.241 124.032 379.759C123.652 379.277 123.176 378.719 122.624 378.098C122.187 377.609 121.736 377.051 121.28 376.436C120.817 375.815 120.424 375.161 120.119 374.496C119.808 373.817 119.624 373.132 119.574 372.453C119.523 371.743 119.707 371.071 120.119 370.462C120.512 369.879 120.988 369.403 121.533 369.042C122.079 368.68 122.7 368.445 123.379 368.357C124.045 368.268 124.78 368.338 125.573 368.566C126.347 368.788 127.19 369.194 128.078 369.765C129.093 370.424 129.955 371.306 130.647 372.39C131.186 372.39 131.763 372.472 132.378 372.663L132.67 372.752L132.594 373.043C132.143 374.781 131.522 376.322 130.735 377.616L130.57 377.888L129.315 377.121L129.327 376.931C129.511 374.172 128.757 372.282 127.025 371.166C126.315 370.709 125.624 370.456 124.92 370.405C124.273 370.354 123.766 370.64 123.353 371.261C123.144 371.578 123.144 371.971 123.353 372.46C123.607 373.031 123.981 373.652 124.476 374.312C124.996 375.003 125.567 375.726 126.188 376.462C126.835 377.229 127.4 378.009 127.882 378.789C128.376 379.594 128.712 380.406 128.89 381.199C129.08 382.049 128.941 382.879 128.465 383.672C128.053 384.357 127.526 384.884 126.892 385.245C126.264 385.606 125.554 385.816 124.787 385.866C124.628 385.879 124.47 385.886 124.311 385.886L124.324 385.892ZM114.906 380.463C115.788 380.907 116.58 381.135 117.265 381.154H117.449L117.538 381.319C118.204 382.569 119.187 383.596 120.309 384.224C120.886 384.547 121.628 384.814 122.586 385.042C123.341 385.226 124.076 385.289 124.768 385.245C125.434 385.201 126.055 385.017 126.6 384.706C127.14 384.402 127.59 383.945 127.945 383.355C128.338 382.702 128.452 382.049 128.294 381.351C128.129 380.622 127.818 379.873 127.361 379.131C126.899 378.377 126.353 377.622 125.725 376.88C125.097 376.138 124.514 375.402 123.988 374.698C123.468 374.001 123.062 373.335 122.789 372.72C122.485 372.029 122.497 371.426 122.833 370.919C123.379 370.101 124.095 369.72 124.977 369.784C125.782 369.841 126.588 370.132 127.381 370.64C129.283 371.87 130.133 373.88 129.981 376.791L130.361 377.026C130.995 375.922 131.515 374.635 131.909 373.202C131.408 373.075 130.938 373.024 130.501 373.043L130.31 373.056L130.209 372.897C129.543 371.807 128.738 370.957 127.736 370.316C126.899 369.777 126.112 369.397 125.396 369.194C124.685 368.991 124.032 368.927 123.455 369.003C122.878 369.08 122.345 369.276 121.882 369.587C121.406 369.904 120.988 370.323 120.639 370.836C120.303 371.331 120.157 371.851 120.202 372.428C120.246 373.031 120.411 373.646 120.69 374.255C120.982 374.876 121.349 375.491 121.787 376.081C122.231 376.677 122.675 377.223 123.1 377.698C123.658 378.326 124.14 378.897 124.533 379.391C124.939 379.905 125.256 380.374 125.478 380.799C125.719 381.262 125.839 381.719 125.827 382.15C125.814 382.594 125.668 383.044 125.396 383.488C125.021 384.097 124.52 384.478 123.905 384.617C122.998 384.82 121.85 384.49 120.493 383.621C119.834 383.203 119.276 382.746 118.832 382.271C118.375 381.789 118.033 381.231 117.811 380.628C117.589 380.026 117.481 379.334 117.494 378.58C117.5 377.895 117.601 377.115 117.798 376.259C117.589 376.119 117.43 376.011 117.24 375.878C116.244 377.394 115.458 378.935 114.912 380.476L114.906 380.463Z" fill="#E60039"/>
<path d="M128.173 388.778C128.395 388.397 128.509 388.201 128.738 387.82C130.532 388.879 131.807 388.733 132.555 387.427C134.014 384.865 134.743 383.584 136.202 381.028C137.166 379.335 136.893 378.06 135.384 377.172C135.587 376.83 135.688 376.652 135.891 376.31C138.263 377.172 139.455 377.584 141.834 378.377C139.405 382.791 138.193 384.992 135.764 389.406C135.086 390.636 135.745 391.815 137.756 392.894C137.547 393.287 137.445 393.483 137.236 393.877C133.583 391.923 131.769 390.902 128.18 388.79L128.173 388.778ZM142.005 373.805C140.717 373.075 140.451 372.054 141.206 370.748C141.91 369.53 142.931 369.315 144.288 370.076C145.575 370.799 145.886 371.769 145.208 373.006C144.485 374.325 143.413 374.597 142.005 373.805Z" fill="#E60039"/>
<path d="M137.363 394.295L137.084 394.143C133.399 392.17 131.617 391.168 128.021 389.05L127.748 388.892L128.63 387.389L128.903 387.547C129.854 388.105 130.647 388.308 131.249 388.15C131.674 388.036 132.01 387.75 132.283 387.268L135.929 380.869C136.805 379.328 136.583 378.244 135.225 377.445L134.953 377.286L135.752 375.923L135.999 376.011C138.377 376.874 139.538 377.28 141.935 378.072L142.297 378.193L136.044 389.558C135.822 389.957 135.771 390.331 135.879 390.705C136.069 391.352 136.754 391.993 137.908 392.608L138.187 392.76L137.369 394.301L137.363 394.295ZM128.611 388.663C131.934 390.617 133.703 391.612 137.103 393.432L137.331 393.008C136.189 392.348 135.498 391.631 135.27 390.877C135.111 390.338 135.181 389.792 135.485 389.24L141.371 378.542C139.291 377.851 138.13 377.445 136.031 376.684L135.815 377.051C136.862 377.768 137.699 379.036 136.481 381.167L132.835 387.566C132.479 388.194 131.997 388.594 131.408 388.746C130.697 388.936 129.841 388.759 128.852 388.232L128.605 388.651L128.611 388.663ZM143.444 374.565C142.956 374.565 142.423 374.401 141.853 374.083C141.142 373.684 140.705 373.183 140.546 372.599C140.381 372.003 140.515 371.325 140.933 370.595C141.485 369.644 142.538 368.731 144.446 369.809C145.886 370.621 146.248 371.781 145.487 373.164C145.093 373.881 144.592 374.324 144.003 374.496C143.825 374.546 143.641 374.572 143.444 374.572V374.565ZM142.867 369.949C142.297 369.949 141.846 370.266 141.478 370.906C141.142 371.49 141.035 372.003 141.149 372.428C141.263 372.847 141.605 373.215 142.157 373.532C142.804 373.893 143.362 374.014 143.819 373.881C144.244 373.76 144.618 373.411 144.922 372.853C145.518 371.769 145.271 371.001 144.123 370.354C143.647 370.088 143.229 369.955 142.855 369.955L142.867 369.949Z" fill="#E60039"/>
<path d="M157.06 401.703C156.135 402.73 154.771 402.857 152.995 402.058C151.435 401.36 150.788 400.174 151.055 398.532C148.442 399.09 146.013 398.817 143.825 397.733C142.398 397.022 141.472 396.236 141.06 395.399C140.648 394.562 140.717 393.604 141.276 392.532C142.671 389.837 146.837 389.755 153.794 391.765C154.035 391.239 154.156 390.979 154.403 390.452C155.418 388.258 154.949 386.71 152.995 385.772C152.146 385.366 151.359 385.125 150.623 385.068C149.888 385.004 148.987 385.632 149.006 386C149.006 386.102 149.165 386.362 149.146 386.59C149.127 386.818 149.07 387.028 148.975 387.23C148.556 388.074 147.757 388.201 146.565 387.598C146.127 387.376 145.816 387.066 145.632 386.666C145.449 386.267 145.487 385.816 145.747 385.309C146.007 384.802 146.431 384.415 147.028 384.136C147.617 383.857 148.29 383.692 149.032 383.641C149.774 383.59 150.573 383.641 151.423 383.8C152.272 383.958 153.09 384.224 153.883 384.605C155.995 385.62 157.346 386.66 157.929 387.763C158.513 388.867 158.456 390.237 157.733 391.86C156.426 394.796 155.773 396.261 154.46 399.198C154.086 400.035 154.365 400.656 155.291 401.062C155.729 401.252 156.204 401.316 156.718 401.24C156.851 401.424 156.915 401.519 157.048 401.709L157.06 401.703ZM153.433 392.976C152.583 392.665 151.721 392.399 150.845 392.19C149.97 391.981 149.152 391.873 148.391 391.866C147.624 391.866 146.933 391.993 146.317 392.266C145.702 392.539 145.227 393.014 144.884 393.699C144.167 395.132 144.656 396.28 146.355 397.111C147.11 397.479 147.789 397.688 148.378 397.739C148.968 397.79 149.495 397.726 149.951 397.561C150.408 397.396 150.814 397.162 151.163 396.864C151.511 396.566 151.816 396.242 152.076 395.9C152.615 394.733 152.888 394.143 153.427 392.976H153.433Z" fill="#E60039"/>
<path d="M155.082 402.895C154.422 402.895 153.68 402.711 152.868 402.349C151.334 401.664 150.592 400.485 150.693 398.925C148.175 399.375 145.823 399.071 143.692 398.011C142.214 397.276 141.231 396.445 140.787 395.538C140.331 394.612 140.4 393.547 141.003 392.386C142.417 389.659 146.431 389.336 153.629 391.384L154.124 390.319C155.069 388.277 154.67 386.926 152.868 386.057C152.057 385.664 151.296 385.442 150.611 385.385C150.059 385.347 149.38 385.81 149.336 386C149.336 385.987 149.349 386.019 149.368 386.057C149.418 386.203 149.495 386.4 149.476 386.615C149.457 386.882 149.387 387.135 149.273 387.37C149.063 387.795 148.759 388.08 148.372 388.207C147.852 388.378 147.218 388.27 146.438 387.877C145.937 387.624 145.575 387.256 145.36 386.793C145.131 386.304 145.176 385.753 145.48 385.157C145.772 384.592 146.248 384.148 146.907 383.837C147.529 383.546 148.239 383.368 149.019 383.311C149.78 383.254 150.611 383.311 151.492 383.476C152.367 383.641 153.224 383.92 154.029 384.307C156.236 385.366 157.606 386.444 158.221 387.605C158.855 388.803 158.792 390.274 158.031 391.974L154.758 399.312C154.619 399.629 154.587 399.895 154.676 400.117C154.771 400.364 155.025 400.58 155.431 400.757C155.811 400.922 156.23 400.973 156.686 400.916L156.877 400.891L157.466 401.721L157.295 401.912C156.705 402.565 155.963 402.895 155.082 402.895ZM151.442 398.119L151.365 398.576C151.118 400.085 151.695 401.125 153.122 401.766C154.663 402.451 155.817 402.425 156.642 401.664L156.572 401.569C156.071 401.614 155.602 401.538 155.164 401.347C154.6 401.1 154.238 400.764 154.073 400.352C153.928 399.971 153.959 399.534 154.169 399.058L157.441 391.72C158.12 390.205 158.189 388.917 157.65 387.903C157.105 386.869 155.824 385.88 153.744 384.877C152.983 384.51 152.184 384.25 151.365 384.097C150.535 383.945 149.761 383.888 149.057 383.939C148.353 383.99 147.719 384.148 147.167 384.408C146.634 384.662 146.26 384.998 146.032 385.442C145.816 385.86 145.785 386.216 145.924 386.52C146.083 386.856 146.336 387.116 146.717 387.306C147.326 387.617 147.814 387.719 148.163 387.598C148.385 387.522 148.562 387.357 148.696 387.084C148.778 386.926 148.822 386.748 148.835 386.564C148.835 386.488 148.797 386.361 148.759 386.266C148.727 386.178 148.696 386.095 148.696 386.013C148.683 385.81 148.791 385.588 149 385.379C149.349 385.036 150.015 384.694 150.649 384.744C151.416 384.808 152.253 385.055 153.128 385.48C155.253 386.507 155.779 388.22 154.689 390.579L153.966 392.139L153.706 392.063C146.679 390.033 142.823 390.224 141.555 392.672C141.041 393.661 140.971 394.504 141.339 395.253C141.726 396.033 142.607 396.768 143.958 397.441C146.076 398.493 148.442 398.753 150.979 398.214L151.435 398.119H151.442ZM148.765 398.075C148.632 398.075 148.493 398.075 148.353 398.056C147.725 398.005 147.002 397.783 146.216 397.396C145.227 396.914 144.599 396.312 144.358 395.602C144.148 394.986 144.231 394.295 144.599 393.559C144.973 392.811 145.506 392.278 146.19 391.974C146.844 391.682 147.605 391.555 148.391 391.543C149.178 391.543 150.027 391.657 150.922 391.873C151.797 392.088 152.678 392.355 153.541 392.672L153.864 392.792L152.336 396.084C152.069 396.445 151.74 396.788 151.372 397.098C150.991 397.422 150.547 397.675 150.059 397.853C149.672 397.992 149.235 398.069 148.765 398.069V398.075ZM148.347 392.183C147.643 392.183 147.002 392.31 146.444 392.557C145.892 392.805 145.474 393.223 145.163 393.845C144.871 394.428 144.802 394.948 144.954 395.399C145.138 395.944 145.651 396.426 146.489 396.832C147.205 397.181 147.846 397.384 148.397 397.428C148.937 397.472 149.418 397.422 149.837 397.269C150.256 397.117 150.63 396.902 150.953 396.629C151.277 396.356 151.562 396.058 151.797 395.741L152.989 393.16C152.253 392.9 151.505 392.678 150.763 392.5C149.919 392.297 149.114 392.19 148.378 392.183H148.34H148.347Z" fill="#E60039"/>
<path d="M174.57 410.13C174.716 409.712 174.786 409.503 174.932 409.078C177.925 410.105 179.777 409.49 180.475 407.327C182.561 400.827 183.607 397.574 185.694 391.073C185.973 390.204 185.485 389.57 184.229 389.152C182.536 388.594 181.007 388.613 179.606 389.234C178.204 389.856 176.885 391.06 175.636 392.868C175.192 392.583 174.97 392.437 174.526 392.145C176.042 389.342 176.796 387.934 178.28 385.125C178.832 385.404 179.365 385.664 179.866 385.892C180.367 386.12 180.861 386.323 181.343 386.488C187.197 388.53 190.152 389.45 196.107 391.08C196.646 391.225 197.211 391.352 197.788 391.46C198.365 391.561 198.967 391.657 199.576 391.739C198.803 394.739 198.416 396.235 197.642 399.235C197.192 399.178 196.97 399.153 196.526 399.096C197.211 395.189 195.644 392.76 191.839 391.644C190.552 391.27 189.791 391.473 189.55 392.278C187.571 398.817 186.588 402.083 184.609 408.621C183.95 410.796 185.142 412.356 188.205 413.225C188.085 413.65 188.021 413.866 187.901 414.297C182.536 412.781 179.872 411.951 174.577 410.137L174.57 410.13Z" fill="#E60039"/>
<path d="M188.11 414.678L187.806 414.589C182.39 413.06 179.771 412.242 174.469 410.422L174.171 410.321L174.735 408.666L175.033 408.767C176.663 409.325 177.944 409.382 178.832 408.938C179.453 408.628 179.904 408.05 180.17 407.22L185.389 390.965C185.478 390.693 185.707 389.97 184.127 389.443C182.498 388.904 181.058 388.93 179.733 389.513C178.388 390.109 177.101 391.289 175.896 393.033L175.718 393.287L175.458 393.122C175.014 392.83 174.792 392.69 174.348 392.399L174.107 392.24L174.247 391.986C175.763 389.183 176.511 387.782 178.001 384.966L178.147 384.687L178.426 384.827C178.978 385.106 179.504 385.359 179.999 385.588C180.487 385.81 180.969 386.012 181.445 386.177C187.305 388.219 190.197 389.12 196.19 390.763C196.729 390.908 197.287 391.035 197.845 391.137C198.422 391.238 199.012 391.333 199.621 391.409L199.976 391.454L197.883 399.565L196.158 399.349L196.215 399.02C196.862 395.316 195.403 392.995 191.75 391.923C190.12 391.447 189.924 392.094 189.848 392.342L184.907 408.685C184.66 409.509 184.698 410.245 185.034 410.854C185.516 411.735 186.607 412.42 188.288 412.889L188.592 412.978L188.116 414.659L188.11 414.678ZM174.976 409.934C179.967 411.64 182.58 412.458 187.679 413.898L187.812 413.435C186.138 412.915 185.015 412.16 184.483 411.183C184.064 410.416 184.001 409.522 184.305 408.526L189.245 392.183C189.455 391.498 190.089 390.801 191.928 391.34C195.784 392.468 197.452 394.986 196.894 398.823L197.407 398.886L199.183 392.006C198.688 391.936 198.206 391.86 197.731 391.777C197.154 391.676 196.577 391.543 196.018 391.39C190.013 389.741 187.114 388.841 181.236 386.786C180.741 386.615 180.234 386.406 179.733 386.177C179.314 385.981 178.87 385.771 178.413 385.543C177.063 388.093 176.314 389.494 174.938 392.037C175.154 392.183 175.331 392.291 175.547 392.43C176.771 390.724 178.09 389.551 179.473 388.942C180.931 388.296 182.567 388.264 184.324 388.847C186.125 389.443 186.227 390.439 185.992 391.168L180.773 407.423C180.456 408.418 179.897 409.122 179.111 409.515C178.122 410.01 176.784 409.997 175.122 409.477L174.963 409.934H174.976Z" fill="#E60039"/>
<path d="M193.805 415.876C193.913 415.445 193.97 415.229 194.078 414.798C195.93 415.274 197.027 414.811 197.363 413.441C198.099 410.416 198.466 408.906 199.208 405.888C199.627 404.163 198.904 403.072 197.033 402.596C197.135 402.209 197.185 402.013 197.28 401.626C198.352 401.696 199.437 401.772 200.527 401.848C201.618 401.924 202.69 401.975 203.743 402.013C203.426 403.402 203.267 404.093 202.95 405.482C203.02 405.558 203.052 405.596 203.121 405.672C203.273 405.38 203.54 405.057 203.914 404.714C204.295 404.372 204.732 404.055 205.233 403.776C205.734 403.497 206.267 403.275 206.838 403.123C207.408 402.964 207.973 402.945 208.537 403.066C210.586 403.49 211.448 404.518 211.125 406.192C210.858 407.575 210.085 408.145 208.816 407.885C207.681 407.657 207.212 407.093 207.396 406.198C207.478 405.812 207.58 405.533 207.7 405.355C207.408 405.292 207.263 405.266 206.971 405.203C206.159 405.032 205.461 405.12 204.872 405.469C204.282 405.818 203.787 406.287 203.381 406.883C202.975 407.479 202.646 408.114 202.386 408.805C202.126 409.496 201.929 410.073 201.79 410.549C201.434 412.096 201.257 412.864 200.908 414.411C200.61 415.711 201.561 416.618 203.775 417.094C203.679 417.531 203.635 417.747 203.54 418.178C199.633 417.341 197.68 416.878 193.799 415.889L193.805 415.876Z" fill="#E60039"/>
<path d="M203.787 418.546L203.476 418.483C199.538 417.639 197.623 417.189 193.723 416.187L193.418 416.111L193.85 414.418L194.16 414.494C195.131 414.741 195.873 414.722 196.361 414.43C196.71 414.221 196.938 413.879 197.058 413.371L198.904 405.818C199.278 404.271 198.663 403.345 196.957 402.907L196.646 402.831L197.039 401.303L200.547 401.537C201.618 401.607 202.696 401.664 203.755 401.702L204.136 401.715L203.445 404.727C203.521 404.645 203.61 404.562 203.698 404.48C204.092 404.119 204.555 403.789 205.075 403.497C205.595 403.205 206.159 402.977 206.749 402.812C207.364 402.641 207.986 402.622 208.601 402.749C211.391 403.326 211.683 404.968 211.435 406.243C211.277 407.048 210.954 407.619 210.472 407.943C210.021 408.247 209.444 408.323 208.753 408.19C208.043 408.044 207.542 407.765 207.275 407.359C207.053 407.023 206.99 406.605 207.091 406.123C207.136 405.913 207.186 405.729 207.244 405.571L206.907 405.501C206.165 405.342 205.557 405.419 205.037 405.729C204.491 406.053 204.022 406.497 203.641 407.048C203.248 407.619 202.931 408.241 202.677 408.9C202.424 409.579 202.227 410.162 202.094 410.625L201.212 414.468C201.117 414.874 201.168 415.217 201.365 415.521C201.72 416.079 202.551 416.498 203.838 416.77L204.149 416.84L203.781 418.546H203.787ZM194.192 415.648C197.775 416.561 199.678 417.012 203.299 417.792L203.4 417.322C202.094 417.005 201.257 416.523 200.832 415.864C200.547 415.42 200.47 414.9 200.597 414.329L201.479 410.467C201.625 409.972 201.821 409.376 202.088 408.678C202.354 407.968 202.703 407.302 203.121 406.693C203.553 406.065 204.085 405.558 204.713 405.184C205.366 404.791 206.153 404.689 207.041 404.88L208.239 405.133L207.966 405.526C207.897 405.622 207.802 405.831 207.713 406.256C207.649 406.573 207.681 406.814 207.808 407.01C207.979 407.27 208.341 407.461 208.886 407.568C209.406 407.676 209.818 407.619 210.129 407.416C210.465 407.188 210.7 406.757 210.82 406.123C211.004 405.184 210.954 403.884 208.48 403.37C207.966 403.262 207.446 403.281 206.926 403.421C206.387 403.567 205.867 403.782 205.392 404.049C204.916 404.315 204.491 404.62 204.13 404.949C203.781 405.266 203.534 405.564 203.4 405.818L203.191 406.224L202.601 405.571L203.343 402.317C202.405 402.279 201.453 402.229 200.502 402.165L197.521 401.962L197.414 402.375C199.221 402.945 199.95 404.176 199.513 405.964L197.667 413.517C197.502 414.183 197.173 414.671 196.678 414.969C196.101 415.318 195.302 415.388 194.306 415.179L194.186 415.648H194.192Z" fill="#E60039"/>
<path d="M228.235 420.639C227.652 421.888 226.402 422.408 224.506 422.167C222.845 421.952 221.9 421.013 221.69 419.358C219.388 420.651 217.023 421.108 214.67 420.709C213.129 420.449 212.044 419.973 211.423 419.294C210.801 418.616 210.605 417.684 210.827 416.491C211.385 413.504 215.26 412.191 222.375 412.084C222.458 411.513 222.496 411.227 222.578 410.657C222.921 408.26 222.039 406.921 219.94 406.592C219.027 406.452 218.221 406.458 217.511 406.617C216.801 406.776 216.128 407.632 216.255 407.98C216.287 408.076 216.503 408.279 216.553 408.5C216.604 408.722 216.604 408.944 216.572 409.16C216.414 410.086 215.697 410.441 214.416 410.219C213.941 410.137 213.56 409.927 213.275 409.604C212.989 409.274 212.9 408.83 213.002 408.272C213.103 407.714 213.395 407.213 213.877 406.776C214.353 406.338 214.936 405.983 215.621 405.71C216.306 405.444 217.067 405.26 217.911 405.158C218.754 405.057 219.604 405.076 220.447 405.209C222.718 405.558 224.278 406.16 225.14 407.048C226.003 407.936 226.333 409.255 226.104 411.025C225.698 414.214 225.495 415.806 225.09 418.996C224.975 419.903 225.407 420.417 226.396 420.537C226.859 420.594 227.328 420.512 227.791 420.29C227.969 420.43 228.058 420.499 228.235 420.639ZM222.363 413.358C221.475 413.308 220.587 413.308 219.712 413.358C218.83 413.409 218.031 413.549 217.308 413.771C216.585 413.993 215.976 414.322 215.475 414.76C214.974 415.197 214.657 415.8 214.53 416.555C214.258 418.14 215.038 419.091 216.87 419.383C217.689 419.516 218.38 419.516 218.951 419.383C219.521 419.256 219.997 419.047 220.378 418.755C220.764 418.464 221.075 418.121 221.322 417.734C221.57 417.347 221.766 416.948 221.912 416.548C222.096 415.274 222.185 414.633 222.363 413.358Z" fill="#E60039"/>
<path d="M225.375 422.542C225.09 422.542 224.785 422.523 224.462 422.478C222.825 422.269 221.792 421.362 221.449 419.846C219.211 421.013 216.909 421.406 214.613 421.02C213.015 420.753 211.86 420.239 211.182 419.504C210.491 418.755 210.262 417.722 210.503 416.428C211.068 413.397 214.752 411.913 222.09 411.767L222.255 410.606C222.572 408.38 221.817 407.201 219.883 406.903C219.014 406.769 218.234 406.776 217.574 406.922C217.029 407.042 216.534 407.689 216.553 407.886C216.553 407.873 216.572 407.898 216.598 407.93C216.687 408.05 216.813 408.228 216.858 408.437C216.915 408.691 216.921 408.957 216.877 409.217C216.794 409.693 216.585 410.054 216.249 410.289C215.811 410.6 215.171 410.676 214.346 410.536C213.801 410.441 213.357 410.2 213.021 409.813C212.672 409.414 212.558 408.875 212.679 408.215C212.793 407.594 213.122 407.029 213.649 406.541C214.15 406.078 214.771 405.698 215.488 405.419C216.192 405.14 216.991 404.949 217.86 404.848C218.729 404.746 219.61 404.765 220.485 404.899C222.864 405.266 224.455 405.894 225.362 406.826C226.294 407.79 226.65 409.211 226.415 411.063L225.4 419.034C225.356 419.383 225.4 419.65 225.552 419.834C225.711 420.043 226.009 420.17 226.434 420.22C226.834 420.271 227.246 420.195 227.658 420.005L227.836 419.922L228.635 420.544L228.527 420.772C227.975 421.945 226.922 422.542 225.381 422.542H225.375ZM221.944 418.851L222.001 419.32C222.191 420.829 223.022 421.66 224.544 421.85C226.187 422.06 227.265 421.692 227.829 420.728L227.74 420.658C227.277 420.842 226.815 420.905 226.352 420.848C225.755 420.779 225.318 420.563 225.045 420.22C224.791 419.897 224.703 419.472 224.766 418.952L225.781 410.98C225.99 409.331 225.698 408.082 224.906 407.27C224.1 406.44 222.623 405.869 220.39 405.526C219.578 405.4 218.754 405.387 217.936 405.476C217.118 405.571 216.376 405.748 215.723 406.002C215.076 406.256 214.524 406.592 214.08 407.004C213.649 407.404 213.395 407.835 213.306 408.323C213.224 408.786 213.287 409.135 213.503 409.389C213.744 409.661 214.055 409.832 214.461 409.902C215.114 410.016 215.589 409.972 215.887 409.763C216.084 409.623 216.205 409.408 216.255 409.103C216.287 408.919 216.281 408.742 216.243 408.564C216.224 408.488 216.148 408.38 216.09 408.298C216.033 408.222 215.989 408.158 215.964 408.082C215.894 407.886 215.932 407.645 216.078 407.378C216.312 406.953 216.839 406.433 217.448 406.3C218.183 406.135 219.039 406.129 219.991 406.275C222.286 406.63 223.263 408.12 222.895 410.695L222.654 412.395H222.382C215.222 412.509 211.645 413.828 211.137 416.549C210.935 417.646 211.106 418.476 211.657 419.079C212.235 419.707 213.268 420.151 214.727 420.398C217.016 420.785 219.306 420.341 221.538 419.085L221.95 418.857L221.944 418.851ZM218.012 419.796C217.644 419.796 217.245 419.764 216.82 419.694C215.761 419.523 215.006 419.136 214.575 418.534C214.194 418.001 214.074 417.316 214.213 416.498C214.353 415.68 214.708 415.014 215.26 414.519C215.792 414.05 216.446 413.695 217.213 413.46C217.955 413.232 218.786 413.092 219.686 413.035C220.568 412.984 221.475 412.978 222.375 413.035L222.718 413.054L222.204 416.65C222.052 417.075 221.843 417.493 221.582 417.899C221.316 418.318 220.974 418.692 220.561 419.003C220.143 419.326 219.617 419.555 219.008 419.688C218.703 419.751 218.374 419.789 218.006 419.789L218.012 419.796ZM221.056 413.638C220.612 413.638 220.168 413.65 219.731 413.676C218.881 413.726 218.094 413.86 217.403 414.075C216.725 414.284 216.148 414.595 215.685 415.001C215.234 415.401 214.962 415.927 214.841 416.612C214.727 417.259 214.816 417.785 215.088 418.172C215.412 418.629 216.027 418.933 216.915 419.073C217.682 419.199 218.342 419.199 218.875 419.085C219.395 418.971 219.832 418.781 220.181 418.514C220.53 418.248 220.828 417.931 221.05 417.576C221.278 417.221 221.462 416.847 221.595 416.479L221.995 413.663C221.678 413.65 221.367 413.644 221.05 413.644L221.056 413.638Z" fill="#E60039"/>
<path d="M229.548 422.351C229.599 421.908 229.618 421.686 229.668 421.248C231.679 421.464 232.75 420.804 232.896 419.307C233.175 416.371 233.321 414.906 233.6 411.97C233.784 410.029 233.036 408.983 231.349 408.799C231.393 408.399 231.412 408.203 231.457 407.803C233.898 407.6 235.116 407.486 237.545 407.22C237.133 412.242 236.93 414.748 236.524 419.77C236.41 421.172 237.456 421.971 239.676 422.123C239.644 422.567 239.631 422.789 239.6 423.233C235.573 422.96 233.562 422.783 229.548 422.345V422.351ZM235.896 402.996C234.469 402.869 233.829 402.045 233.974 400.548C234.114 399.147 234.938 398.525 236.448 398.658C237.875 398.785 238.534 399.54 238.426 400.941C238.306 402.444 237.462 403.136 235.896 402.996Z" fill="#E60039"/>
<path d="M239.898 423.575L239.581 423.556C235.528 423.277 233.556 423.106 229.516 422.668L229.199 422.637L229.389 420.899L229.706 420.931C230.753 421.045 231.526 420.905 231.996 420.525C232.338 420.246 232.529 419.84 232.586 419.275L233.29 411.938C233.461 410.175 232.833 409.274 231.324 409.116L231.006 409.084L231.171 407.511L231.431 407.492C233.873 407.289 235.065 407.175 237.513 406.915L237.894 406.871L236.841 419.802C236.803 420.265 236.911 420.639 237.164 420.937C237.589 421.432 238.445 421.73 239.701 421.812L240.018 421.831L239.898 423.575ZM229.897 422.072C233.613 422.472 235.579 422.643 239.302 422.903L239.333 422.421C238.071 422.294 237.177 421.933 236.676 421.349C236.308 420.924 236.15 420.385 236.2 419.751L237.19 407.581C235.072 407.809 233.886 407.924 231.736 408.101L231.691 408.532C232.903 408.754 234.146 409.56 233.911 412.001L233.207 419.339C233.137 420.068 232.865 420.633 232.389 421.019C231.837 421.47 231.019 421.666 229.941 421.597L229.89 422.079L229.897 422.072ZM236.27 403.332C236.137 403.332 236.004 403.332 235.864 403.313C235.084 403.243 234.501 402.977 234.12 402.52C233.727 402.045 233.569 401.366 233.651 400.516C233.759 399.419 234.336 398.157 236.467 398.347C238.078 398.493 238.858 399.4 238.731 400.973C238.667 401.797 238.395 402.412 237.919 402.812C237.507 403.161 236.955 403.332 236.264 403.332H236.27ZM235.921 402.679C236.632 402.742 237.164 402.622 237.513 402.324C237.856 402.038 238.052 401.563 238.103 400.916C238.204 399.685 237.678 399.083 236.416 398.969C235.065 398.848 234.412 399.343 234.285 400.573C234.215 401.252 234.33 401.772 234.609 402.114C234.875 402.431 235.313 402.622 235.915 402.679H235.921Z" fill="#E60039"/>
<path d="M242.504 423.417C242.53 422.973 242.542 422.751 242.568 422.307C244.553 422.421 245.574 421.888 245.624 420.76C245.904 414.507 246.189 408.253 246.468 402C246.525 400.789 245.523 400.149 243.475 400.028C243.5 399.629 243.513 399.432 243.532 399.032C246.119 398.741 247.407 398.569 249.969 398.208C249.734 405.825 249.506 413.435 249.271 421.051C249.239 422.085 250.336 422.65 252.556 422.688C252.55 423.131 252.543 423.353 252.537 423.797C248.523 423.728 246.512 423.652 242.504 423.423V423.417Z" fill="#E60039"/>
<path d="M252.848 424.115H252.531C248.491 424.039 246.525 423.969 242.485 423.74L242.168 423.721L242.27 421.977L242.587 421.996C243.754 422.066 244.546 421.908 244.965 421.527C245.181 421.331 245.288 421.077 245.307 420.747L246.151 401.988C246.17 401.62 246.214 400.51 243.456 400.345L243.138 400.326L243.227 398.779L243.494 398.716C246.081 398.424 247.343 398.259 249.924 397.891L250.298 397.84L249.594 421.058C249.588 421.305 249.664 421.508 249.823 421.679C250.108 421.977 250.812 422.333 252.562 422.364H252.88L252.848 424.115ZM242.834 423.119C246.544 423.328 248.51 423.398 252.22 423.468V422.986C250.799 422.929 249.861 422.643 249.353 422.111C249.074 421.813 248.935 421.451 248.948 421.033L249.633 398.57C247.381 398.887 246.125 399.052 243.823 399.312L243.798 399.73C245.834 399.914 246.836 400.681 246.772 402.007L245.929 420.766C245.904 421.267 245.72 421.679 245.377 421.99C244.863 422.453 244.033 422.662 242.853 422.631L242.828 423.113L242.834 423.119Z" fill="#E60039"/>
<path d="M266.166 412.762C264.777 410.27 263.065 409.052 260.959 409.09C260.103 409.103 259.355 409.3 258.72 409.674C258.086 410.048 257.769 410.669 257.769 411.532C257.769 412.027 258.029 412.445 258.556 412.788C259.076 413.13 259.729 413.447 260.509 413.732C261.289 414.018 262.132 414.297 263.046 414.576C263.959 414.849 264.815 415.178 265.608 415.559C266.4 415.939 267.079 416.402 267.631 416.948C268.182 417.493 268.481 418.184 268.519 419.028C268.55 419.77 268.423 420.442 268.132 421.051C267.84 421.66 267.415 422.186 266.863 422.63C266.312 423.074 265.665 423.436 264.923 423.721C264.181 424.006 263.356 424.26 262.583 424.323C261.206 424.438 259.799 424.051 258.651 423.417C258.01 423.841 257.129 424.114 256.012 424.235C255.549 422.433 255.327 420.506 255.34 418.451C255.803 418.451 256.038 418.451 256.501 418.451C256.818 419.339 257.16 420.087 257.541 420.69C257.921 421.292 258.346 421.774 258.816 422.129C259.285 422.484 259.811 422.732 260.401 422.871C260.984 423.011 261.65 423.074 262.38 423.061C264.809 423.011 265.995 422.154 265.937 420.55C265.918 420.081 265.811 419.681 265.614 419.358C265.417 419.034 265.119 418.755 264.72 418.533C264.327 418.311 263.838 418.102 263.261 417.905C262.684 417.709 262.005 417.512 261.225 417.303C260.623 417.138 259.976 416.935 259.291 416.681C258.606 416.428 257.966 416.117 257.382 415.749C256.799 415.381 256.317 414.937 255.936 414.43C255.556 413.923 255.372 413.333 255.378 412.667C255.378 412.001 255.499 411.386 255.727 410.815C255.955 410.251 256.298 409.756 256.754 409.338C257.211 408.919 257.794 408.589 258.511 408.348C259.228 408.107 260.078 407.98 261.067 407.968C262.253 407.949 263.413 408.215 264.561 408.773C264.992 408.437 265.519 408.171 266.147 407.974C266.705 409.636 267.028 411.215 267.092 412.718C266.724 412.73 266.534 412.743 266.166 412.756V412.762Z" fill="#E60039"/>
<path d="M262.101 424.66C260.959 424.66 259.76 424.355 258.663 423.785C257.997 424.178 257.116 424.438 256.044 424.552L255.771 424.584L255.702 424.317C255.239 422.516 255.01 420.544 255.023 418.457V418.14L256.729 418.147L256.805 418.356C257.11 419.218 257.452 419.948 257.813 420.531C258.169 421.096 258.568 421.552 259.006 421.882C259.437 422.212 259.932 422.44 260.471 422.567C261.029 422.7 261.669 422.763 262.367 422.744C263.724 422.713 264.669 422.427 265.17 421.901C265.487 421.565 265.633 421.127 265.614 420.563C265.601 420.151 265.506 419.802 265.335 419.523C265.17 419.25 264.904 419.009 264.555 418.812C264.181 418.603 263.711 418.4 263.147 418.21C262.576 418.02 261.904 417.817 261.13 417.614C260.515 417.449 259.856 417.24 259.164 416.986C258.46 416.726 257.794 416.403 257.198 416.022C256.59 415.635 256.07 415.166 255.67 414.627C255.251 414.069 255.042 413.409 255.048 412.674C255.048 411.97 255.175 411.31 255.416 410.708C255.657 410.099 256.031 409.566 256.52 409.116C257.008 408.672 257.636 408.317 258.391 408.063C259.133 407.816 260.02 407.683 261.042 407.664C262.196 407.657 263.369 407.898 264.504 408.418C264.935 408.114 265.449 407.873 266.033 407.689L266.331 407.594L266.432 407.885C267.003 409.585 267.326 411.209 267.39 412.718L267.402 413.035L265.963 413.092L265.868 412.921C264.536 410.524 262.931 409.395 260.946 409.408C260.147 409.42 259.45 409.604 258.866 409.947C258.327 410.264 258.067 410.784 258.074 411.532C258.074 411.919 258.283 412.242 258.714 412.528C259.215 412.858 259.849 413.168 260.598 413.441C261.378 413.726 262.227 414.005 263.115 414.278C264.041 414.557 264.923 414.893 265.722 415.28C266.546 415.673 267.257 416.162 267.834 416.732C268.442 417.335 268.779 418.109 268.817 419.022C268.855 419.815 268.715 420.55 268.398 421.197C268.081 421.844 267.624 422.415 267.041 422.884C266.464 423.347 265.785 423.727 265.018 424.019C264.073 424.381 263.28 424.584 262.589 424.641C262.418 424.653 262.246 424.66 262.075 424.66H262.101ZM258.638 423.043L258.809 423.138C260.001 423.797 261.333 424.108 262.564 424.006C263.191 423.956 263.933 423.765 264.821 423.423C265.525 423.15 266.153 422.802 266.673 422.383C267.187 421.971 267.58 421.482 267.853 420.918C268.119 420.366 268.24 419.732 268.208 419.047C268.17 418.286 267.91 417.677 267.409 417.183C266.882 416.669 266.235 416.219 265.474 415.857C264.701 415.489 263.857 415.166 262.957 414.893C262.05 414.621 261.194 414.335 260.401 414.05C259.608 413.758 258.93 413.428 258.384 413.073C257.769 412.667 257.458 412.16 257.458 411.551C257.458 410.568 257.826 409.851 258.562 409.414C259.24 409.014 260.046 408.799 260.953 408.786C260.984 408.786 261.016 408.786 261.048 408.786C263.185 408.786 264.923 409.985 266.343 412.452L266.756 412.433C266.673 411.164 266.4 409.807 265.944 408.399C265.481 408.57 265.081 408.786 264.751 409.04L264.599 409.16L264.422 409.078C263.306 408.539 262.196 408.291 261.067 408.304C260.109 408.323 259.278 408.444 258.606 408.672C257.934 408.894 257.382 409.205 256.964 409.591C256.545 409.978 256.228 410.435 256.019 410.955C255.809 411.481 255.702 412.065 255.695 412.693C255.695 413.295 255.854 413.809 256.196 414.265C256.551 414.741 257.008 415.16 257.553 415.508C258.112 415.864 258.733 416.168 259.399 416.409C260.071 416.656 260.712 416.859 261.308 417.024C262.088 417.233 262.779 417.436 263.363 417.633C263.959 417.836 264.472 418.051 264.878 418.28C265.322 418.527 265.658 418.844 265.887 419.212C266.115 419.586 266.242 420.036 266.255 420.557C266.28 421.286 266.071 421.888 265.639 422.351C265.018 423.011 263.921 423.366 262.392 423.398C261.638 423.41 260.946 423.347 260.331 423.201C259.703 423.049 259.133 422.782 258.632 422.402C258.131 422.021 257.674 421.508 257.281 420.88C256.919 420.303 256.59 419.605 256.285 418.787H255.664C255.676 420.601 255.873 422.313 256.253 423.899C257.186 423.772 257.934 423.524 258.479 423.163L258.638 423.055V423.043Z" fill="#E60039"/>
<path d="M309.944 418.667C302.314 413.181 295.04 407.461 287.925 401.322C288.717 407.239 289.111 410.2 289.897 416.117C290.284 419.028 291.977 420.303 294.958 419.846C295.027 420.284 295.059 420.506 295.123 420.943C290.937 421.578 288.832 421.85 284.627 422.313C284.576 421.869 284.557 421.654 284.506 421.21C286.948 420.943 287.988 419.32 287.627 416.403C286.821 409.909 286.415 406.662 285.61 400.167C285.483 399.134 284.107 398.798 281.481 399.077C281.437 398.633 281.412 398.411 281.361 397.973C284.259 397.662 285.705 397.485 288.591 397.085C294.691 402.565 301.09 407.714 307.743 412.509C306.658 407.308 306.113 404.702 305.029 399.502C304.471 396.838 302.86 395.798 300.177 396.305C300.095 395.868 300.05 395.652 299.968 395.214C303.735 394.498 305.612 394.098 309.347 393.223C309.449 393.654 309.5 393.87 309.601 394.308C307.204 394.872 306.284 396.451 306.861 399.108C308.244 405.463 309.62 411.817 311.003 418.178C310.578 418.375 310.362 418.476 309.931 418.673L309.944 418.667Z" fill="#E60039"/>
<path d="M284.354 422.669L284.164 420.931L284.481 420.899C285.496 420.791 286.244 420.43 286.72 419.827C287.303 419.092 287.506 417.95 287.316 416.447L285.299 400.212C285.198 399.413 283.929 399.14 281.519 399.394L281.202 399.426L281.018 397.688L281.335 397.656C284.234 397.346 285.648 397.174 288.552 396.768L288.698 396.749L288.806 396.851C294.634 402.089 300.843 407.106 307.274 411.773L304.724 399.565C304.204 397.073 302.777 396.134 300.247 396.616L299.936 396.673L299.613 394.961L299.923 394.904C303.703 394.187 305.536 393.794 309.29 392.919L309.601 392.849L310.001 394.549L309.69 394.619C307.445 395.145 306.646 396.553 307.185 399.045L311.383 418.362L309.912 419.041L309.76 418.933C302.245 413.53 295.237 408.025 288.35 402.115L290.214 416.086C290.398 417.443 290.874 418.419 291.635 418.99C292.408 419.574 293.518 419.758 294.913 419.548L295.224 419.498L295.484 421.223L295.173 421.273C290.969 421.914 288.901 422.18 284.665 422.643L284.348 422.675L284.354 422.669ZM284.862 421.489L284.912 421.971C288.825 421.54 290.88 421.273 294.768 420.684L294.698 420.208C293.271 420.373 292.11 420.132 291.254 419.491C290.354 418.813 289.795 417.697 289.586 416.162L287.5 400.542L288.134 401.087C295.161 407.15 302.308 412.782 309.982 418.305L310.654 417.995L306.563 399.178C305.974 396.464 306.874 394.752 309.233 394.079L309.125 393.61C305.669 394.416 303.83 394.809 300.355 395.475L300.443 395.95C303.132 395.544 304.781 396.718 305.352 399.445L308.238 413.251L307.578 412.775C300.938 407.987 294.52 402.825 288.508 397.434C285.8 397.808 284.38 397.986 281.729 398.271L281.779 398.747C283.561 398.582 285.749 398.608 285.94 400.149L287.956 416.384C288.166 418.064 287.918 419.364 287.227 420.24C286.694 420.912 285.902 421.337 284.874 421.508L284.862 421.489Z" fill="#E60039"/>
<path d="M331.449 408.837C331.132 410.384 330.466 411.716 329.438 412.819C328.411 413.923 327.035 414.722 325.316 415.204C323.889 415.603 322.57 415.737 321.378 415.616C320.186 415.496 319.139 415.172 318.239 414.658C317.338 414.145 316.59 413.454 315.987 412.578C315.385 411.709 314.96 410.733 314.7 409.648C314.44 408.564 314.389 407.492 314.535 406.414C314.681 405.336 315.004 404.328 315.505 403.389C316.006 402.45 316.679 401.626 317.528 400.922C318.378 400.212 319.387 399.704 320.56 399.375C321.283 399.172 322.057 399.038 322.887 398.969C323.718 398.899 324.549 398.981 325.38 399.222C326.21 399.463 327.003 399.926 327.777 400.605C328.544 401.283 329.223 402.286 329.813 403.598C329.901 403.884 329.939 404.156 329.933 404.416C325.564 405.774 323.369 406.401 318.955 407.549C318.429 407.689 318.213 407.93 318.302 408.291C318.524 409.154 318.873 409.927 319.349 410.625C319.824 411.316 320.395 411.887 321.054 412.325C321.714 412.762 322.456 413.048 323.28 413.168C324.105 413.289 324.974 413.225 325.881 412.965C327.073 412.629 328.012 412.046 328.703 411.221C329.394 410.397 329.939 409.509 330.352 408.558C330.789 408.672 331.005 408.729 331.449 408.837ZM324.162 404.987C325.285 404.664 325.728 403.941 325.411 403.008C325.12 402.159 324.492 401.448 323.686 400.947C322.887 400.446 321.911 400.358 320.756 400.675C320.135 400.846 319.609 401.125 319.165 401.512C318.721 401.899 318.366 402.349 318.112 402.863C317.852 403.376 317.7 403.928 317.649 404.512C317.598 405.101 317.649 405.678 317.788 406.256C317.865 406.541 318.201 406.611 318.809 406.452C320.959 405.894 322.031 405.596 324.168 404.987H324.162Z" fill="#E60039"/>
<path d="M322.24 415.978C321.936 415.978 321.638 415.965 321.346 415.933C320.116 415.807 319.019 415.477 318.08 414.938C317.142 414.405 316.355 413.669 315.727 412.762C315.112 411.868 314.662 410.847 314.396 409.731C314.129 408.621 314.072 407.492 314.224 406.376C314.377 405.273 314.713 404.22 315.233 403.243C315.753 402.273 316.457 401.411 317.332 400.681C318.213 399.952 319.272 399.407 320.484 399.077C321.219 398.874 322.018 398.734 322.868 398.658C323.737 398.582 324.612 398.671 325.475 398.925C326.344 399.178 327.187 399.667 327.992 400.377C328.792 401.087 329.508 402.134 330.111 403.478C330.225 403.827 330.269 404.138 330.257 404.436V404.658L330.035 404.727C325.64 406.091 323.483 406.706 319.038 407.867C318.556 407.993 318.594 408.139 318.613 408.222C318.822 409.046 319.158 409.794 319.615 410.454C320.065 411.114 320.611 411.653 321.232 412.065C321.847 412.477 322.551 412.743 323.325 412.858C324.099 412.972 324.929 412.908 325.792 412.661C326.914 412.344 327.809 411.792 328.455 411.018C329.121 410.226 329.66 409.357 330.054 408.431L330.161 408.184L330.428 408.253C330.865 408.368 331.081 408.425 331.519 408.532L331.81 408.609L331.753 408.907C331.423 410.511 330.726 411.9 329.66 413.042C328.589 414.189 327.155 415.02 325.392 415.515C324.276 415.826 323.217 415.978 322.228 415.978H322.24ZM323.464 399.267C323.287 399.267 323.103 399.273 322.925 399.292C322.114 399.362 321.346 399.495 320.655 399.686C319.526 399.996 318.549 400.497 317.738 401.17C316.92 401.848 316.266 402.647 315.791 403.541C315.309 404.448 314.992 405.425 314.852 406.459C314.713 407.499 314.763 408.545 315.011 409.579C315.264 410.625 315.677 411.57 316.247 412.401C316.818 413.232 317.541 413.898 318.391 414.386C319.253 414.874 320.268 415.185 321.403 415.299C322.558 415.42 323.845 415.28 325.221 414.9C326.87 414.443 328.208 413.669 329.197 412.604C330.111 411.621 330.739 410.435 331.068 409.072C330.878 409.021 330.719 408.983 330.529 408.932C330.123 409.82 329.591 410.657 328.944 411.424C328.214 412.3 327.212 412.915 325.963 413.27C325.018 413.536 324.099 413.612 323.236 413.479C322.374 413.346 321.575 413.054 320.883 412.585C320.192 412.128 319.59 411.526 319.095 410.803C318.6 410.086 318.232 409.268 318.004 408.374C317.941 408.12 317.896 407.505 318.879 407.245C323.23 406.11 325.386 405.501 329.616 404.182C329.603 404.023 329.572 403.858 329.515 403.694C328.963 402.463 328.303 401.493 327.568 400.84C326.838 400.193 326.071 399.749 325.297 399.521C324.688 399.343 324.073 399.254 323.464 399.254V399.267ZM318.258 406.852C318.061 406.852 317.903 406.814 317.776 406.738C317.624 406.649 317.522 406.509 317.478 406.332C317.319 405.729 317.275 405.108 317.325 404.48C317.383 403.859 317.547 403.262 317.82 402.717C318.093 402.172 318.473 401.683 318.949 401.265C319.425 400.846 320.008 400.542 320.668 400.364C321.911 400.022 322.976 400.123 323.851 400.669C324.745 401.227 325.405 402.019 325.703 402.901C325.881 403.408 325.862 403.89 325.652 404.29C325.411 404.746 324.929 405.095 324.244 405.285C322.088 405.901 321.035 406.186 318.879 406.75C318.638 406.814 318.429 406.846 318.258 406.846V406.852ZM322.031 400.802C321.663 400.802 321.27 400.859 320.839 400.979C320.268 401.138 319.773 401.398 319.368 401.747C318.955 402.108 318.626 402.527 318.391 403.002C318.15 403.478 318.01 403.998 317.96 404.537C317.909 405.089 317.96 405.641 318.093 406.173C318.093 406.186 318.22 406.275 318.727 406.142C320.877 405.584 321.923 405.292 324.073 404.683C324.581 404.537 324.936 404.302 325.088 403.998C325.215 403.751 325.221 403.453 325.107 403.11C324.853 402.368 324.289 401.696 323.515 401.214C323.078 400.941 322.589 400.802 322.031 400.802Z" fill="#E60039"/>
<path d="M345.147 404.01C345.211 404.676 345.204 405.304 345.147 405.888C345.084 406.477 344.906 407.029 344.627 407.543C344.342 408.057 343.917 408.526 343.365 408.951C342.807 409.376 342.09 409.744 341.222 410.048C339.845 410.53 338.659 410.625 337.67 410.346C336.687 410.067 335.996 409.312 335.596 408.088C334.277 404.08 333.618 402.07 332.292 398.062C331.252 398.404 330.732 398.576 329.686 398.905C329.616 398.461 329.578 398.239 329.508 397.795C330.662 397.193 331.449 396.254 331.842 394.992C332.242 393.73 332.362 392.373 332.222 390.94C332.685 390.718 332.914 390.61 333.377 390.388C334.093 392.462 334.448 393.496 335.165 395.569C336.414 395.138 337.042 394.916 338.285 394.466C338.653 394.333 338.977 394.187 339.262 394.022C339.547 393.864 339.795 393.705 340.004 393.559C340.239 394.2 340.359 394.517 340.594 395.157C338.615 395.893 337.619 396.248 335.628 396.939C336.903 400.624 337.537 402.463 338.812 406.148C338.907 406.427 339.015 406.699 339.135 406.953C339.256 407.213 339.42 407.435 339.623 407.625C339.826 407.816 340.099 407.93 340.423 407.974C340.746 408.019 341.165 407.949 341.666 407.771C342.471 407.486 343.111 406.991 343.581 406.294C344.05 405.596 344.215 404.86 344.088 404.093C344.507 404.061 344.716 404.049 345.141 404.017L345.147 404.01Z" fill="#E60039"/>
<path d="M338.843 410.828C338.393 410.828 337.975 410.771 337.581 410.657C336.497 410.346 335.73 409.522 335.292 408.196L332.089 398.474C331.24 398.753 330.719 398.918 329.781 399.216L329.432 399.33L329.166 397.631L329.369 397.523C330.447 396.965 331.176 396.083 331.55 394.904C331.931 393.692 332.058 392.373 331.918 390.972L331.899 390.75L332.102 390.655C332.565 390.439 332.793 390.325 333.256 390.103L333.58 389.951L335.381 395.17C336.44 394.802 337.061 394.58 338.197 394.168C338.545 394.041 338.862 393.902 339.122 393.749C339.395 393.591 339.636 393.445 339.845 393.299L340.182 393.065L341.025 395.341L340.727 395.449C338.843 396.147 337.867 396.502 336.053 397.13L339.129 406.034C339.224 406.306 339.332 406.566 339.446 406.814C339.547 407.036 339.687 407.226 339.864 407.391C340.023 407.537 340.226 407.625 340.492 407.657C340.771 407.689 341.139 407.632 341.589 407.473C342.331 407.207 342.921 406.757 343.346 406.116C343.771 405.482 343.917 404.841 343.803 404.144L343.746 403.801L345.452 403.674L345.477 403.985C345.54 404.67 345.54 405.323 345.477 405.926C345.407 406.554 345.223 407.156 344.919 407.702C344.614 408.253 344.158 408.761 343.568 409.211C342.985 409.655 342.23 410.042 341.336 410.359C340.442 410.676 339.611 410.828 338.862 410.828H338.843ZM332.489 397.669L335.888 407.993C336.262 409.122 336.871 409.794 337.753 410.042C338.679 410.308 339.807 410.207 341.107 409.75C341.938 409.458 342.636 409.103 343.169 408.697C343.689 408.304 344.082 407.86 344.348 407.384C344.608 406.909 344.773 406.395 344.83 405.85C344.881 405.374 344.887 404.873 344.855 404.34L344.45 404.372C344.494 405.101 344.297 405.799 343.853 406.459C343.346 407.213 342.655 407.752 341.78 408.063C341.234 408.26 340.771 408.329 340.391 408.285C339.998 408.234 339.668 408.088 339.414 407.854C339.18 407.638 338.989 407.378 338.85 407.08C338.729 406.814 338.615 406.535 338.514 406.243L335.229 396.736L335.527 396.635C337.429 395.975 338.406 395.627 340.188 394.967L339.845 394.041C339.712 394.124 339.566 394.212 339.414 394.295C339.122 394.466 338.774 394.618 338.387 394.758C337.137 395.208 336.516 395.43 335.26 395.868L334.962 395.969L333.186 390.826C332.971 390.934 332.787 391.016 332.552 391.13C332.666 392.532 332.527 393.864 332.14 395.088C331.741 396.356 330.973 397.326 329.851 397.967L329.933 398.493C330.751 398.233 331.265 398.068 332.184 397.764L332.483 397.662L332.489 397.669Z" fill="#E60039"/>
<path d="M365.054 400.465C361.725 397.859 360.089 396.527 356.873 393.826C356.626 398.005 356.467 400.104 356.081 404.309C355.675 404.543 355.472 404.664 355.06 404.898C350.557 401.049 348.363 399.077 344.101 395.056C343.333 394.32 342.357 394.181 341.177 394.625C341.019 394.206 340.943 394.003 340.79 393.585C343.923 392.411 345.477 391.796 348.572 390.509C348.743 390.921 348.825 391.124 348.997 391.536C347.798 392.031 347.335 392.621 347.614 393.306C347.709 393.534 347.944 393.851 348.324 394.257C350.925 396.667 352.25 397.859 354.933 400.212C355.224 397.142 355.351 395.608 355.561 392.551C354.799 391.771 354.425 391.378 353.671 390.591C352.973 390.198 352.053 390.249 350.912 390.737C350.741 390.325 350.652 390.122 350.481 389.716C353.614 388.384 355.174 387.687 358.268 386.234C358.459 386.634 358.548 386.837 358.738 387.243C357.349 387.89 356.772 388.467 357.006 388.98C357.108 389.202 357.425 389.627 357.964 390.255C360.571 392.532 361.89 393.654 364.579 395.868C364.547 392.843 364.464 390.56 364.357 388.999C364.249 387.439 364.217 386.545 364.255 386.304C364.179 386.146 364.135 386.063 364.059 385.905C363.729 385.239 362.79 385.296 361.236 386.05C361.046 385.651 360.945 385.448 360.754 385.048C363.241 383.85 364.477 383.228 366.938 381.954C367.141 382.347 367.242 382.543 367.445 382.943C366.462 383.457 366.006 384.224 366.082 385.264C366.221 391.054 366.228 393.971 366.101 399.819C365.688 400.079 365.479 400.212 365.061 400.472L365.054 400.465Z" fill="#E60039"/>
<path d="M355.021 405.285L354.85 405.14C350.328 401.271 348.179 399.343 343.879 395.291C343.2 394.644 342.35 394.523 341.285 394.923L340.987 395.037L340.378 393.401L340.676 393.293C343.828 392.113 345.356 391.511 348.451 390.223L348.743 390.103L349.409 391.714L349.117 391.834C347.608 392.462 347.83 393.014 347.906 393.191C347.957 393.325 348.115 393.578 348.553 394.048C350.994 396.312 352.288 397.479 354.673 399.571C354.92 396.946 355.04 395.449 355.231 392.678C354.546 391.974 354.172 391.581 353.474 390.851C352.872 390.534 352.073 390.591 351.032 391.029L350.741 391.156L350.056 389.551L350.348 389.424C353.499 388.08 355.028 387.401 358.123 385.949L358.408 385.816L359.15 387.395L358.865 387.528C357.742 388.055 357.152 388.549 357.292 388.847C357.343 388.961 357.533 389.266 358.199 390.046C360.615 392.151 361.909 393.255 364.249 395.189C364.211 392.164 364.116 390.179 364.04 389.025C363.925 387.3 363.906 386.653 363.932 386.368L363.773 386.051C363.488 385.467 362.308 385.892 361.37 386.342L361.084 386.482L360.33 384.909L360.615 384.77C363.12 383.558 364.331 382.956 366.792 381.675L367.071 381.529L367.87 383.076L367.591 383.222C366.722 383.672 366.335 384.332 366.399 385.239C366.538 391.092 366.545 393.953 366.418 399.825V399.996L366.272 400.085C365.86 400.351 365.65 400.478 365.232 400.738L365.042 400.859L364.864 400.719C361.687 398.233 360.076 396.927 357.159 394.479C356.93 398.284 356.772 400.345 356.398 404.34L356.385 404.505L355.028 405.285H355.021ZM342.433 394.06C343.15 394.06 343.784 394.32 344.323 394.834C348.559 398.823 350.703 400.757 355.104 404.518L355.789 404.125C356.169 400.034 356.322 397.973 356.569 393.819L356.607 393.191L357.089 393.597C360.26 396.261 361.864 397.567 365.086 400.091C365.34 399.933 365.524 399.812 365.79 399.647C365.91 393.902 365.904 391.048 365.765 385.277C365.688 384.224 366.107 383.393 367.02 382.823L366.798 382.391C364.61 383.527 363.399 384.135 361.173 385.207L361.382 385.638C362.2 385.264 363.792 384.662 364.344 385.772L364.585 386.26L364.566 386.361C364.515 386.653 364.636 388.41 364.674 388.987C364.756 390.236 364.864 392.443 364.896 395.868V396.553L364.376 396.121C361.687 393.902 360.387 392.798 357.755 390.503C357.165 389.824 356.835 389.38 356.721 389.12C356.334 388.264 357.368 387.573 358.319 387.103L358.116 386.666C355.294 387.985 353.772 388.67 350.899 389.894L351.09 390.338C352.193 389.925 353.113 389.925 353.836 390.325L353.912 390.382C354.666 391.168 355.04 391.562 355.802 392.342L355.903 392.443L355.89 392.583C355.675 395.671 355.554 397.174 355.262 400.25L355.205 400.865L354.736 400.459C352.034 398.094 350.734 396.927 348.122 394.498C347.697 394.048 347.443 393.705 347.335 393.432C347.107 392.868 347.158 392.069 348.604 391.378L348.42 390.927C345.604 392.094 344.082 392.697 341.215 393.775L341.386 394.232C341.761 394.117 342.116 394.06 342.452 394.06H342.433Z" fill="#E60039"/>
<path d="M382.704 391.321C381.467 392.025 380.218 392.475 378.981 392.659C377.744 392.85 376.584 392.811 375.518 392.551C374.453 392.298 373.495 391.835 372.652 391.175C371.808 390.516 371.136 389.704 370.641 388.74C370.052 387.598 369.735 386.451 369.684 385.29C369.633 384.129 369.798 383.032 370.185 381.986C370.565 380.946 371.149 379.982 371.929 379.1C372.709 378.219 373.641 377.477 374.726 376.855C375.835 376.221 376.964 375.815 378.112 375.638C379.266 375.46 380.363 375.473 381.416 375.688C382.469 375.904 383.439 376.31 384.314 376.912C385.196 377.515 385.925 378.276 386.496 379.202C387.181 380.318 387.587 381.453 387.707 382.614C387.822 383.774 387.695 384.897 387.321 385.975C386.946 387.053 386.363 388.055 385.57 388.981C384.777 389.907 383.82 390.687 382.716 391.315L382.704 391.321ZM382.228 390.103C383.249 389.52 383.947 388.867 384.314 388.15C384.682 387.434 384.873 386.73 384.879 386.038C384.885 385.347 384.771 384.694 384.536 384.091C384.302 383.489 384.073 383.007 383.858 382.645C383.446 381.948 382.938 381.212 382.336 380.432C381.74 379.658 381.074 379.005 380.344 378.479C379.615 377.952 378.816 377.616 377.947 377.47C377.078 377.318 376.172 377.521 375.201 378.073C374.212 378.637 373.533 379.265 373.165 379.957C372.798 380.654 372.607 381.339 372.582 382.024C372.563 382.709 372.658 383.356 372.874 383.971C373.089 384.58 373.292 385.074 373.495 385.442C373.882 386.159 374.358 386.914 374.922 387.713C375.487 388.512 376.133 389.184 376.85 389.729C377.573 390.275 378.385 390.624 379.285 390.769C380.192 390.915 381.169 390.693 382.222 390.091L382.228 390.103Z" fill="#E60039"/>
<path d="M377.465 393.097C376.761 393.097 376.089 393.021 375.442 392.868C374.339 392.602 373.33 392.12 372.455 391.435C371.586 390.757 370.876 389.9 370.356 388.892C369.754 387.725 369.417 386.52 369.36 385.315C369.31 384.123 369.481 382.975 369.88 381.891C370.274 380.819 370.882 379.81 371.681 378.904C372.481 378.003 373.445 377.223 374.554 376.595C375.69 375.948 376.869 375.523 378.049 375.339C379.235 375.156 380.383 375.175 381.467 375.39C382.558 375.612 383.572 376.037 384.486 376.659C385.405 377.286 386.173 378.092 386.756 379.043C387.466 380.197 387.891 381.39 388.012 382.588C388.132 383.793 387.999 384.966 387.612 386.083C387.225 387.199 386.617 388.245 385.798 389.19C384.98 390.141 383.991 390.947 382.862 391.594C381.594 392.317 380.306 392.78 379.032 392.97C378.499 393.052 377.979 393.09 377.472 393.09L377.465 393.097ZM379.647 375.847C379.159 375.847 378.658 375.885 378.15 375.967C377.047 376.139 375.943 376.532 374.871 377.147C373.819 377.743 372.905 378.479 372.157 379.328C371.409 380.178 370.838 381.111 370.477 382.113C370.109 383.115 369.95 384.186 369.995 385.29C370.045 386.406 370.356 387.516 370.92 388.607C371.396 389.533 372.049 390.319 372.848 390.94C373.654 391.568 374.58 392.012 375.594 392.253C376.622 392.501 377.751 392.532 378.937 392.355C380.135 392.171 381.353 391.733 382.551 391.055C383.623 390.446 384.555 389.685 385.323 388.784C386.084 387.896 386.655 386.92 387.016 385.88C387.371 384.852 387.498 383.768 387.384 382.658C387.276 381.554 386.883 380.457 386.223 379.386C385.684 378.51 384.98 377.775 384.137 377.191C383.3 376.621 382.361 376.221 381.353 376.018C380.807 375.91 380.237 375.853 379.66 375.853L379.647 375.847ZM379.831 391.143C379.628 391.143 379.431 391.131 379.241 391.099C378.29 390.947 377.421 390.573 376.66 390.002C375.918 389.437 375.246 388.733 374.662 387.915C374.098 387.116 373.609 386.343 373.216 385.607C373.007 385.226 372.798 384.725 372.576 384.091C372.347 383.451 372.246 382.753 372.265 382.03C372.284 381.301 372.493 380.559 372.88 379.823C373.28 379.068 373.984 378.415 375.043 377.813C376.07 377.229 377.066 377.014 377.998 377.172C378.911 377.331 379.761 377.692 380.522 378.238C381.277 378.783 381.968 379.462 382.583 380.254C383.192 381.041 383.706 381.795 384.124 382.493C384.346 382.867 384.581 383.368 384.822 383.983C385.075 384.624 385.196 385.322 385.19 386.045C385.183 386.787 384.98 387.541 384.587 388.296C384.188 389.07 383.446 389.767 382.374 390.376C381.486 390.883 380.63 391.137 379.824 391.137L379.831 391.143ZM377.383 377.749C376.742 377.749 376.076 377.952 375.36 378.358C374.428 378.891 373.781 379.481 373.445 380.115C373.102 380.768 372.918 381.415 372.899 382.043C372.88 382.69 372.969 383.305 373.172 383.869C373.381 384.465 373.584 384.947 373.774 385.296C374.155 386.006 374.63 386.761 375.176 387.535C375.721 388.309 376.349 388.962 377.04 389.488C377.719 390.002 378.493 390.332 379.336 390.465C380.167 390.598 381.086 390.382 382.063 389.824C383.027 389.279 383.687 388.664 384.029 388.004C384.372 387.338 384.549 386.672 384.562 386.032C384.568 385.385 384.46 384.77 384.238 384.205C384.01 383.622 383.788 383.153 383.585 382.804C383.179 382.125 382.678 381.39 382.088 380.622C381.518 379.88 380.865 379.24 380.161 378.732C379.476 378.238 378.715 377.921 377.897 377.775C377.725 377.743 377.554 377.73 377.383 377.73V377.749Z" fill="#E60039"/>
<path d="M392.736 384.472C392.502 384.098 392.381 383.907 392.147 383.533C393.808 382.48 394.252 381.345 393.491 380.159C391.798 377.546 390.954 376.246 389.268 373.634C388.304 372.143 386.984 371.947 385.304 373.006C385.088 372.67 384.987 372.498 384.771 372.162C385.589 371.414 386.414 370.653 387.244 369.892C388.075 369.131 388.881 368.363 389.661 367.602C390.453 368.782 390.847 369.372 391.639 370.558C391.747 370.558 391.798 370.558 391.906 370.558C391.798 370.241 391.754 369.828 391.773 369.308C391.792 368.788 391.874 368.249 392.026 367.679C392.178 367.114 392.4 366.562 392.692 366.03C392.984 365.497 393.377 365.059 393.865 364.711C395.647 363.455 397.024 363.499 398.019 364.882C398.844 366.023 398.704 366.994 397.607 367.774C396.624 368.471 395.869 368.44 395.349 367.691C395.121 367.368 394.988 367.101 394.95 366.886C394.696 367.063 394.569 367.152 394.309 367.33C393.599 367.824 393.168 368.408 393.003 369.086C392.838 369.765 392.825 370.463 392.971 371.167C393.117 371.877 393.345 372.562 393.669 373.221C393.992 373.881 394.271 374.426 394.525 374.858C395.406 376.177 395.844 376.83 396.726 378.149C397.468 379.259 398.812 379.164 400.746 377.826C401 378.193 401.127 378.377 401.374 378.739C397.956 381.104 396.231 382.252 392.743 384.465L392.736 384.472Z" fill="#E60039"/>
<path d="M392.641 384.909L391.709 383.432L391.975 383.26C392.863 382.696 393.377 382.119 393.504 381.548C393.593 381.155 393.504 380.755 393.225 380.331L389.001 373.805C388.139 372.467 387.016 372.302 385.475 373.278L385.209 373.45L384.365 372.111L387.029 369.664C387.86 368.896 388.671 368.129 389.439 367.38L389.711 367.114L391.449 369.708C391.449 369.581 391.449 369.442 391.449 369.302C391.468 368.763 391.557 368.192 391.715 367.602C391.874 367.013 392.109 366.436 392.413 365.884C392.73 365.313 393.155 364.831 393.681 364.457C395.622 363.087 397.169 363.169 398.273 364.704C398.742 365.357 398.932 365.979 398.837 366.556C398.749 367.114 398.393 367.615 397.785 368.046C397.163 368.49 396.592 368.674 396.098 368.585C395.698 368.516 395.356 368.281 395.083 367.888C394.962 367.71 394.861 367.545 394.785 367.399L394.487 367.609C393.84 368.059 393.453 368.573 393.307 369.182C393.155 369.816 393.142 370.469 393.276 371.128C393.415 371.807 393.637 372.473 393.948 373.107C394.271 373.773 394.55 374.299 394.791 374.718L396.986 377.997C397.207 378.333 397.487 378.529 397.835 378.593C398.495 378.72 399.414 378.384 400.562 377.591L400.822 377.407L401.812 378.84L401.552 379.018C398.133 381.39 396.44 382.512 392.908 384.751L392.641 384.922V384.909ZM392.578 383.628L392.838 384.034C396.085 381.967 397.778 380.851 400.93 378.669L400.657 378.276C399.472 379.049 398.508 379.354 397.715 379.202C397.201 379.107 396.776 378.815 396.453 378.333L394.252 375.041C393.986 374.591 393.707 374.052 393.377 373.367C393.047 372.689 392.806 371.972 392.654 371.236C392.502 370.488 392.515 369.74 392.686 369.017C392.87 368.262 393.352 367.609 394.119 367.07L395.153 366.34L395.248 366.822C395.273 366.937 395.349 367.152 395.597 367.507C395.774 367.761 395.971 367.907 396.199 367.945C396.523 368.002 396.928 367.856 397.41 367.514C397.873 367.184 398.14 366.822 398.203 366.442C398.273 366.036 398.114 365.573 397.753 365.066C397.195 364.292 396.205 363.442 394.037 364.971C393.586 365.288 393.225 365.694 392.958 366.182C392.679 366.689 392.464 367.222 392.318 367.761C392.172 368.306 392.09 368.826 392.077 369.315C392.064 369.79 392.102 370.177 392.197 370.45L392.337 370.868H391.462L389.604 368.084C388.912 368.757 388.189 369.435 387.454 370.114L385.177 372.207L385.405 372.568C387.542 371.357 388.824 372.365 389.527 373.45L393.751 379.975C394.119 380.54 394.239 381.111 394.119 381.669C393.967 382.347 393.453 383 392.578 383.609V383.628Z" fill="#E60039"/>
<path d="M417.527 366.575C417.248 366.232 417.108 366.061 416.823 365.712C417.66 365.027 417.952 364.526 417.704 364.222C414.61 363.708 413.075 363.423 410.037 362.814C409.898 363.175 409.726 363.556 409.523 363.949C409.32 364.349 409.041 364.812 408.686 365.338C409.58 366.499 410.031 367.076 410.931 368.236C411.629 369.137 412.866 368.902 414.629 367.494C414.908 367.843 415.041 368.014 415.32 368.363C412.105 370.932 410.481 372.181 407.19 374.597C406.93 374.236 406.796 374.058 406.536 373.703C408.116 372.542 408.528 371.452 407.792 370.462C404.069 365.497 400.347 360.531 396.624 355.565C395.901 354.595 394.779 354.69 393.244 355.819C392.971 355.451 392.838 355.261 392.565 354.893C394.385 353.079 395.28 352.16 397.049 350.302C401.292 355.781 403.41 358.521 407.653 364C407.938 363.436 408.23 362.738 408.521 361.907C408.819 361.076 409.067 360.246 409.263 359.421C409.46 358.597 409.587 357.861 409.65 357.201C409.707 356.548 409.65 356.104 409.454 355.876C409.156 355.515 408.376 355.857 407.094 356.884C406.853 356.586 406.733 356.434 406.492 356.136C409.441 353.764 410.9 352.547 413.779 350.042C414.032 350.333 414.159 350.479 414.407 350.771C414.096 351.044 413.747 351.475 413.36 352.065C412.973 352.661 412.225 353.53 411.927 354.354C411.604 355.248 411.546 356.548 411.299 357.404C411.058 358.261 410.785 358.984 410.494 359.567C414.153 360.163 416.005 360.429 419.74 360.88C421.357 361.121 422.613 360.854 423.482 360.093C423.805 359.808 423.97 359.668 424.287 359.383C424.579 359.719 424.725 359.884 425.023 360.214C422.061 362.827 420.565 364.101 417.533 366.581L417.527 366.575Z" fill="#E60039"/>
<path d="M407.114 375.041L406.086 373.633L406.34 373.443C407.228 372.79 407.722 372.168 407.805 371.604C407.856 371.274 407.76 370.963 407.526 370.646L396.358 355.749C395.977 355.242 395.254 354.722 393.421 356.066L393.168 356.257L392.14 354.855L392.331 354.665C394.151 352.851 395.026 351.95 396.808 350.08L397.062 349.813L407.576 363.398C407.786 362.935 408.001 362.402 408.211 361.799C408.502 360.981 408.75 360.157 408.94 359.351C409.13 358.559 409.257 357.823 409.314 357.183C409.384 356.415 409.251 356.161 409.187 356.085C409.187 356.085 408.902 355.832 407.272 357.144L407.025 357.341L406.029 356.092L406.276 355.895C409.238 353.511 410.671 352.318 413.55 349.807L413.791 349.598L414.838 350.803L414.597 351.012C414.312 351.259 413.975 351.678 413.608 352.242C413.5 352.413 413.36 352.604 413.208 352.807C412.834 353.327 412.403 353.916 412.206 354.462C412.035 354.938 411.94 355.559 411.845 356.155C411.768 356.637 411.699 357.1 411.591 357.487C411.394 358.178 411.179 358.793 410.944 359.32C414.362 359.878 416.176 360.131 419.759 360.563C421.281 360.785 422.454 360.55 423.254 359.852L424.3 358.933L425.454 360.239L425.22 360.449C422.264 363.061 420.793 364.311 417.717 366.822L417.47 367.025L416.366 365.674L416.614 365.471C417.305 364.907 417.432 364.615 417.457 364.507C414.572 364.025 413.062 363.746 410.227 363.182C410.107 363.48 409.961 363.784 409.796 364.102C409.606 364.469 409.359 364.882 409.067 365.325L411.172 368.046C411.356 368.281 411.578 368.414 411.851 368.446C412.453 368.515 413.348 368.103 414.419 367.247L414.667 367.05L415.751 368.414L415.504 368.611C412.282 371.185 410.684 372.409 407.361 374.851L407.107 375.041H407.114ZM406.968 373.766L407.253 374.153C410.31 371.902 411.902 370.684 414.87 368.312L414.572 367.938C413.443 368.794 412.529 369.162 411.781 369.074C411.337 369.023 410.963 368.807 410.678 368.433L408.293 365.351L408.42 365.161C408.762 364.66 409.035 364.203 409.238 363.81C409.435 363.429 409.606 363.055 409.739 362.706L409.834 362.453L410.101 362.503C413.164 363.118 414.667 363.398 417.755 363.911L417.869 363.93L417.945 364.019C418.066 364.165 418.123 364.342 418.104 364.539C418.072 364.888 417.8 365.275 417.267 365.75L417.571 366.125C420.387 363.816 421.852 362.573 424.573 360.176L424.256 359.821L423.685 360.322C422.74 361.146 421.395 361.438 419.689 361.184C415.96 360.734 414.14 360.474 410.437 359.871L410.012 359.802L410.202 359.415C410.487 358.844 410.754 358.134 410.982 357.309C411.084 356.954 411.147 356.517 411.223 356.054C411.318 355.426 411.42 354.773 411.616 354.24C411.845 353.606 412.32 352.953 412.701 352.426C412.84 352.23 412.973 352.052 413.081 351.887C413.398 351.405 413.69 351.025 413.956 350.746L413.734 350.486C411.083 352.794 409.65 353.986 406.93 356.181L407.139 356.441C408.141 355.66 409.175 355.045 409.695 355.673C409.942 355.978 410.024 356.485 409.961 357.227C409.898 357.905 409.764 358.667 409.568 359.491C409.371 360.322 409.118 361.165 408.819 362.009C408.521 362.839 408.223 363.556 407.932 364.14L407.703 364.59L397.017 350.784C395.457 352.42 394.582 353.32 392.971 354.925L393.301 355.381C394.867 354.316 396.066 354.316 396.865 355.381L408.033 370.278C408.369 370.729 408.509 371.211 408.433 371.712C408.331 372.39 407.836 373.082 406.968 373.773V373.766Z" fill="#E60039"/>
<path d="M200.927 257.635V256.189C201.377 256.125 201.853 256.062 202.354 255.998C202.855 255.935 203.305 255.853 203.705 255.757C204.104 255.662 204.447 255.542 204.719 255.396C204.992 255.25 205.132 255.079 205.132 254.889C205.1 254.762 205.075 254.571 205.062 254.331C205.043 254.09 204.954 253.791 204.796 253.436L202.62 247.5C202.265 246.663 201.282 246.245 199.678 246.245H192.486C191.262 246.245 190.52 246.663 190.266 247.494L188.624 252.491C188.497 252.783 188.434 253.195 188.434 253.741C188.434 255.212 189.848 255.948 192.683 255.948V257.635H181.819V255.948C182.751 255.884 183.55 255.561 184.21 254.984C184.869 254.407 185.428 253.569 185.878 252.479L197.464 224.911L198.91 225.488L210.351 254.166C210.801 254.844 211.156 255.263 211.41 255.421C211.474 255.485 211.74 255.574 212.209 255.688C212.672 255.802 213.325 255.967 214.163 256.195V257.641H200.933L200.927 257.635ZM196.729 231.715L192.48 241.856C192.125 242.63 191.947 243.175 191.947 243.499C191.947 243.981 192.543 244.222 193.735 244.222H199.817C200.781 244.222 201.263 244.031 201.263 243.644C201.263 243.486 201.086 242.953 200.73 242.053L196.722 231.722L196.729 231.715Z" fill="#E60039"/>
<path d="M214.473 257.952H200.61V255.91L200.883 255.872C201.333 255.808 201.809 255.745 202.31 255.675C202.792 255.612 203.235 255.536 203.629 255.44C204.003 255.352 204.32 255.237 204.567 255.104C204.7 255.035 204.789 254.958 204.802 254.901C204.77 254.756 204.751 254.572 204.732 254.343C204.719 254.14 204.637 253.88 204.491 253.563L202.31 247.602C202.018 246.911 201.124 246.556 199.665 246.556H192.473C191.395 246.556 190.767 246.892 190.558 247.583L188.916 252.587C188.795 252.859 188.738 253.24 188.738 253.734C188.738 254.204 188.738 255.624 192.67 255.624H192.987V257.945H181.489V255.643L181.787 255.624C182.643 255.567 183.385 255.269 183.988 254.736C184.609 254.191 185.142 253.392 185.567 252.346L197.274 224.486L199.139 225.228L199.189 225.355L210.617 254.001C211.131 254.775 211.416 255.047 211.562 255.136L211.619 255.18C211.619 255.18 211.74 255.231 212.266 255.358C212.736 255.472 213.389 255.643 214.226 255.865L214.461 255.929V257.939L214.473 257.952ZM201.244 257.318H213.839V256.43C213.116 256.24 212.545 256.087 212.127 255.986C211.537 255.84 211.321 255.758 211.214 255.669C210.915 255.472 210.554 255.047 210.078 254.337L210.047 254.28L198.657 225.729L197.623 225.317L186.157 252.599C185.688 253.734 185.104 254.616 184.407 255.225C183.766 255.783 182.999 256.125 182.123 256.24V257.324H192.353V256.265C189.531 256.208 188.104 255.358 188.104 253.741C188.104 253.145 188.174 252.694 188.326 252.365L189.956 247.399C190.254 246.429 191.104 245.934 192.48 245.934H199.671C201.409 245.934 202.5 246.422 202.906 247.386L205.081 253.335C205.252 253.703 205.347 254.033 205.366 254.318C205.385 254.591 205.411 254.743 205.43 254.819V254.895C205.436 255.111 205.341 255.428 204.859 255.681C204.561 255.84 204.199 255.967 203.768 256.075C203.356 256.176 202.893 256.259 202.386 256.322C201.986 256.373 201.606 256.423 201.238 256.474V257.33L201.244 257.318ZM199.817 244.532H193.735C193.215 244.532 191.63 244.532 191.63 243.492C191.63 243.118 191.814 242.541 192.188 241.717L196.735 230.866L201.029 241.932C201.517 243.169 201.58 243.486 201.58 243.638C201.58 244.532 200.255 244.532 199.817 244.532ZM196.716 232.559L192.771 241.97C192.353 242.884 192.264 243.296 192.264 243.486C192.264 243.74 192.829 243.892 193.735 243.892H199.817C200.648 243.892 200.946 243.733 200.946 243.632C200.946 243.588 200.895 243.327 200.439 242.154L196.716 232.553V232.559Z" fill="#E60039"/>
<path d="M219.464 257.634V256.189C222.908 256.189 224.633 254.711 224.633 251.749V229.496C224.633 228.303 223.847 227.707 222.267 227.707C220.143 227.707 218.424 228.392 217.099 229.762C215.78 231.132 214.797 233.199 214.156 235.964L212.66 235.578L213.966 225.297C214.708 225.392 215.406 225.475 216.065 225.538C216.725 225.602 217.359 225.633 217.974 225.633H236.562C237.241 225.633 237.932 225.602 238.636 225.538C239.346 225.475 240.069 225.392 240.811 225.297V235.387L239.505 235.578C239.118 230.428 236.556 227.853 231.818 227.853C230.214 227.853 229.415 228.399 229.415 229.496V251.749C229.415 254.711 231.152 256.189 234.628 256.189V257.634H219.471H219.464Z" fill="#E60039"/>
<path d="M234.938 257.952H219.147V255.872H219.464C222.724 255.872 224.316 254.521 224.316 251.749V229.496C224.316 228.868 224.107 228.025 222.267 228.025C220.244 228.025 218.583 228.684 217.327 229.978C216.052 231.297 215.088 233.333 214.461 236.034L214.385 236.351L212.304 235.812L213.681 224.936L213.998 224.974C214.733 225.069 215.431 225.152 216.09 225.215C216.725 225.278 217.359 225.31 217.968 225.31H236.556C237.234 225.31 237.919 225.278 238.604 225.215C239.302 225.152 240.025 225.069 240.767 224.974L241.122 224.93V235.654L239.213 235.939L239.188 235.597C238.813 230.599 236.403 228.164 231.818 228.164C229.947 228.164 229.732 228.919 229.732 229.489V251.743C229.732 254.521 231.336 255.865 234.628 255.865H234.945V257.945L234.938 257.952ZM219.781 257.318H234.304V256.499C230.842 256.411 229.091 254.813 229.091 251.743V229.489C229.091 228.595 229.561 227.53 231.812 227.53C236.619 227.53 239.302 230.111 239.784 235.21L240.481 235.108V225.653C239.86 225.729 239.245 225.799 238.655 225.849C237.951 225.913 237.247 225.944 236.549 225.944H217.961C217.327 225.944 216.68 225.913 216.021 225.843C215.45 225.786 214.854 225.722 214.226 225.64L212.996 235.33L213.909 235.565C214.562 232.908 215.558 230.878 216.858 229.528C218.234 228.101 220.048 227.378 222.248 227.378C224.449 227.378 224.931 228.519 224.931 229.483V251.737C224.931 254.8 223.193 256.398 219.762 256.493V257.311L219.781 257.318Z" fill="#E60039"/>
<path d="M272.812 258.167L251.472 230.986V250.443C251.472 254.273 253.127 256.188 256.444 256.188V257.634H244.857V256.188C247.559 256.188 248.91 254.273 248.91 250.436V229.115C248.91 227.764 247.318 227.086 244.128 227.086V225.64H252.956L271.842 249.732V232.413C271.842 228.868 270.199 227.092 266.92 227.092V225.646H278.507V227.092C275.545 227.092 274.068 228.868 274.068 232.413V257.844L272.812 258.18V258.167Z" fill="#E60039"/>
<path d="M272.691 258.529L272.565 258.364L251.795 231.906V250.443C251.795 254.096 253.317 255.871 256.45 255.871H256.767V257.952H244.546V255.871H244.863C247.381 255.871 248.599 254.096 248.599 250.437V229.115C248.599 227.98 247.096 227.403 244.134 227.403H243.817V225.323H253.114L253.209 225.443L271.525 248.813V232.413C271.525 229.045 270.015 227.409 266.92 227.409H266.603V225.329H278.824V227.409H278.507C275.729 227.409 274.385 229.045 274.385 232.413V258.091L272.691 258.548V258.529ZM251.155 230.073L272.932 257.806L273.751 257.584V232.394C273.751 228.779 275.247 226.889 278.19 226.762V225.944H267.237V226.762C270.504 226.877 272.159 228.773 272.159 232.394V250.633L252.803 225.944H244.451V226.762C247.667 226.807 249.233 227.58 249.233 229.109V250.43C249.233 254.311 247.869 256.347 245.181 256.493V257.317H256.133V256.499C252.835 256.379 251.161 254.343 251.161 250.443V230.073H251.155Z" fill="#E60039"/>
<path d="M235.864 86.8546L293.575 71L351.92 299.307L314.503 316.43L235.864 86.8546Z" fill="#E60039"/>
<path d="M169.909 108.417L213.034 119.832L167.372 285.989L132.492 279.013L169.909 108.417Z" fill="#E60039"/>
<path d="M380.719 285.989C378.556 287.891 319.577 306.917 319.577 306.917L330.358 339.26L390.606 322.137L380.719 285.989Z" fill="#E60039"/>
<path d="M140.02 277.32L131.224 301.615L171.812 314.528L181.959 290.175L140.02 277.32Z" fill="#E60039"/>
<path d="M73.5128 259.987C78.7666 259.987 83.0256 255.728 83.0256 250.475C83.0256 245.221 78.7666 240.962 73.5128 240.962C68.259 240.962 64 245.221 64 250.475C64 255.728 68.259 259.987 73.5128 259.987Z" fill="#E60039"/>
<path d="M437.535 234.62C442.789 234.62 447.048 230.361 447.048 225.107C447.048 219.853 442.789 215.594 437.535 215.594C432.282 215.594 428.023 219.853 428.023 225.107C428.023 230.361 432.282 234.62 437.535 234.62Z" fill="#E60039"/>
</g>
<defs>
<clipPath id="clip0_315_9">
<rect width="383.048" height="353.66" fill="white" transform="translate(64 71)"/>
</clipPath>
</defs>
</svg>
