<svg width="512" height="512" viewBox="0 0 512 512" fill="none" xmlns="http://www.w3.org/2000/svg">
<rect width="512" height="512" fill="white"/>
<g clip-path="url(#clip0_315_4)">
<path d="M141.859 226.285V237.648H173.133V264.356H185.182V237.648H213.469V226.285H141.879H141.859ZM201.38 222.584H213.429V198.711C212.948 196.117 211.204 195.051 209.76 194.649H143.684V205.73H201.38V222.604V222.584Z" fill="#4C4948"/>
<path d="M332.231 262.848H343.277V194.649H332.231V262.848ZM304.024 194.649H272.168V205.73H294.682V219.527H272.168V260.153C272.609 261.48 273.672 262.868 276.178 263.27H306.57V251.907H284.197V229.905H306.57V197.223C306.049 195.775 305.026 195.011 304.024 194.649ZM316.614 208.747H309.196V219.246H316.614V229.905H309.196V240.544H316.614V263.049H327.64V194.649H316.614V208.747Z" fill="#4C4948"/>
<path d="M456.846 217.858H468.895V197.465C468.314 195.715 466.97 194.951 465.828 194.649H400.773V205.73H456.846V217.878V217.858ZM398.929 221.981V233.062H427.878V242.052H439.926V233.062H468.895V221.981H398.929ZM410.958 237.447H399.049V259.771C399.41 260.897 400.212 262.084 401.976 262.687H467.933V251.605H410.958V237.447Z" fill="#4C4948"/>
<path d="M169.645 292.412L169.906 292.694C169.806 294.343 169.765 296.515 169.765 299.19V307.978L169.485 308.3C166.478 309.386 163.009 309.929 159.12 309.929C153.006 309.929 148.455 308.119 145.488 304.499C143.062 301.543 141.859 297.681 141.859 292.895C141.859 287.102 143.523 282.577 146.831 279.299C149.798 276.343 153.928 274.875 159.24 274.875C162.829 274.875 165.916 275.438 168.482 276.584L168.643 276.906L168.342 280.224C168.282 280.848 168.182 281.813 168.081 283.1L167.68 283.261C165.636 281.853 163.33 281.149 160.764 281.149C157.496 281.149 155.03 282.235 153.367 284.407C151.783 286.439 151.001 289.254 151.001 292.834C151.001 295.891 151.542 298.365 152.625 300.256C153.968 302.468 155.913 303.574 158.519 303.574C159.501 303.574 160.443 303.393 161.305 303.031C161.386 301.301 161.406 300.014 161.406 299.169C161.406 296.696 161.325 294.584 161.185 292.854L161.446 292.533C164.533 292.533 167.26 292.492 169.625 292.432" fill="#4C4948"/>
<path d="M202.964 275.156L203.285 275.418L203.225 277.007C203.105 280.084 203.044 284.85 203.044 291.306V294.645C203.044 297.862 202.924 300.135 202.684 301.422C202.403 303.112 201.761 304.58 200.779 305.827C198.634 308.562 195.005 309.909 189.873 309.909C183.518 309.909 179.529 307.737 177.925 303.393C177.323 301.764 177.043 298.848 177.043 294.645V287.183C177.043 282.437 176.983 278.575 176.842 275.579L177.043 275.317C180.07 275.317 182.997 275.257 185.824 275.156L186.084 275.418C185.944 282.115 185.884 288.792 185.884 295.409C185.884 298.124 186.064 299.994 186.405 301.02C187.107 303.031 188.53 304.037 190.695 304.037C192.078 304.037 193.161 303.614 193.983 302.77C195.005 301.643 195.506 299.351 195.506 295.891V275.579L195.767 275.317C198.433 275.317 200.839 275.257 202.984 275.156" fill="#4C4948"/>
<path d="M210.442 275.518L210.662 275.317C214.05 275.217 218 275.156 222.511 275.156C226.119 275.156 228.685 275.558 230.229 276.323C233.196 277.811 234.679 280.687 234.679 284.971C234.679 287.887 233.878 290.18 232.294 291.889C231.512 292.734 230.449 293.458 229.106 294.061L231.492 298.948C233.677 303.413 235.421 306.732 236.724 308.884L236.504 309.185C233.477 309.266 230.489 309.386 227.522 309.527L227.101 309.266C226.781 308.381 225.277 304.881 222.611 298.788L221.348 295.912C220.706 295.952 220.025 295.972 219.283 295.972C219.283 301.804 219.403 306.189 219.604 309.145L219.403 309.407C217.238 309.407 214.431 309.447 210.943 309.507L210.622 309.246L210.863 293.92C210.863 292.05 210.823 288.712 210.743 283.925C210.703 280.586 210.622 277.791 210.462 275.518M219.223 290.562C220.426 290.662 221.488 290.622 222.39 290.401C224.756 289.858 225.939 288.189 225.939 285.313C225.939 283.543 225.458 282.256 224.495 281.471C223.854 280.969 222.891 280.727 221.588 280.727C221.127 280.727 220.365 280.767 219.303 280.828L219.203 290.542L219.223 290.562Z" fill="#4C4948"/>
<path d="M262.024 287.465L257.995 295.892C257.834 296.394 257.894 300.799 258.195 309.105L257.874 309.366C254.406 309.366 251.499 309.427 249.174 309.527L248.853 309.266C249.054 306.671 249.154 302.327 249.154 296.193L244.904 287.485C244.423 286.52 243.701 285.092 242.779 283.181C241.957 281.451 240.734 278.958 239.11 275.699L239.27 275.418C241.917 275.398 244.904 275.257 248.252 275.036L248.612 275.358C248.873 276.102 249.795 278.455 251.419 282.417L254.326 289.215L256.812 283.704C257.634 281.854 258.736 279.098 260.14 275.458L260.521 275.177C263.367 275.177 265.853 275.136 267.978 275.016L268.179 275.337C267.537 276.403 266.735 277.972 265.713 280.084C264.931 281.532 263.708 283.985 262.024 287.425" fill="#4C4948"/>
<path d="M284.197 294.584H281.992V303.353H284.157C287.846 303.353 290.993 303.252 293.559 303.071L293.86 303.393C293.8 304.419 293.659 306.309 293.499 309.065L293.178 309.326H284.718C279.365 309.326 275.576 309.386 273.351 309.527L273.091 309.266C273.211 305.445 273.271 301.181 273.271 296.515C273.271 286.519 273.131 279.52 272.87 275.518L273.131 275.257C281.09 275.337 287.685 275.297 292.938 275.156L293.198 275.418C293.098 276.544 292.978 278.314 292.877 280.707L292.557 281.029H281.791V289.114H284.057C285.801 289.114 288.467 289.033 292.076 288.872L292.396 289.194C292.296 290.562 292.176 292.291 292.076 294.323L291.755 294.604H284.137L284.197 294.584Z" fill="#4C4948"/>
<path d="M328.382 310.07C326.638 310.07 325.014 309.788 323.47 309.245C321.926 308.702 320.583 307.898 319.42 306.832C318.258 305.766 317.356 304.459 316.694 302.93C316.032 301.402 315.692 299.672 315.692 297.742C315.692 294.986 316.193 292.412 317.215 290.019C318.238 287.625 319.641 285.493 321.425 283.623C323.149 281.813 325.214 280.365 327.62 279.279C330.026 278.193 332.552 277.65 335.198 277.65C337.163 277.65 338.927 277.871 340.43 278.273C341.934 278.696 343.177 279.219 344.159 279.842L345.502 278.394H347.427L344.841 289.395H342.916V288.51C342.916 287.324 342.816 286.197 342.615 285.091C342.395 284.005 341.994 283.04 341.413 282.175C340.831 281.33 340.049 280.647 339.047 280.144C338.065 279.641 336.762 279.38 335.218 279.38C333.253 279.38 331.429 279.862 329.745 280.807C328.041 281.753 326.597 283.02 325.354 284.609C324.152 286.157 323.169 288.068 322.428 290.32C321.706 292.573 321.325 294.886 321.325 297.219C321.325 300.336 322.167 302.85 323.811 304.761C325.495 306.691 327.72 307.636 330.527 307.636C332.872 307.636 335.017 307.013 336.982 305.746C338.967 304.499 340.571 302.81 341.793 300.718L343.538 301.543C341.533 304.66 339.288 306.872 336.822 308.139C334.356 309.406 331.549 310.03 328.382 310.03" fill="#4C4948"/>
<path d="M369.459 295.892C369.459 297.601 369.138 299.311 368.497 301.02C367.855 302.729 366.913 304.238 365.71 305.525C364.487 306.873 363.004 307.959 361.26 308.743C359.516 309.547 357.511 309.95 355.245 309.95C352.599 309.95 350.434 309.165 348.79 307.617C347.126 306.068 346.304 303.976 346.304 301.342C346.304 299.411 346.645 297.601 347.367 295.932C348.068 294.262 349.011 292.794 350.193 291.527C351.396 290.26 352.88 289.235 354.644 288.45C356.388 287.666 358.313 287.284 360.378 287.284C363.224 287.284 365.45 288.088 367.053 289.657C368.657 291.246 369.459 293.297 369.459 295.871M364.608 295.047C364.608 292.995 364.187 291.427 363.405 290.401C362.583 289.375 361.42 288.852 359.896 288.852C358.573 288.852 357.31 289.235 356.148 289.979C354.965 290.723 353.962 291.93 353.12 293.599C352.459 294.866 351.978 296.274 351.677 297.822C351.356 299.371 351.216 300.819 351.216 302.126C351.216 304.198 351.617 305.786 352.399 306.852C353.181 307.918 354.383 308.441 355.987 308.441C357.411 308.441 358.674 308.039 359.776 307.214C360.879 306.41 361.781 305.364 362.463 304.117C363.144 302.911 363.665 301.503 364.046 299.934C364.407 298.365 364.608 296.736 364.608 295.067" fill="#4C4948"/>
<path d="M387.903 306.249H387.763C387.041 306.792 386.339 307.295 385.658 307.737C384.976 308.2 384.314 308.582 383.673 308.883C382.911 309.245 382.229 309.487 381.608 309.648C380.986 309.788 380.185 309.869 379.182 309.869C377.639 309.869 376.476 309.467 375.614 308.662C374.772 307.858 374.351 306.812 374.351 305.525C374.351 305.183 374.391 304.76 374.431 304.278C374.491 303.795 374.651 303.091 374.892 302.146L376.756 295.228C376.917 294.604 377.037 294.021 377.137 293.538C377.238 293.055 377.298 292.573 377.298 292.11C377.298 291.306 377.137 290.783 376.857 290.501C376.556 290.22 375.955 290.099 375.052 290.099C374.712 290.099 374.271 290.159 373.709 290.3C373.168 290.421 372.747 290.521 372.446 290.602L372.807 289.174C374.05 288.651 375.173 288.249 376.115 287.967C377.077 287.706 377.839 287.565 378.42 287.565C379.703 287.565 380.646 287.826 381.247 288.39C381.849 288.933 382.149 289.717 382.149 290.722C382.149 291.004 382.109 291.346 382.049 291.809C381.989 292.271 381.889 292.714 381.768 293.156L379.623 301.241C379.463 301.864 379.323 302.448 379.222 302.971C379.122 303.514 379.062 303.896 379.062 304.177C379.062 305.143 379.302 305.927 379.764 306.49C380.225 307.053 380.946 307.355 381.949 307.355C382.951 307.355 384.014 307.093 385.076 306.611C386.159 306.108 387.241 305.344 388.324 304.338L392.494 287.947L396.664 287.686L396.944 288.007L393.396 301.965C393.236 302.548 393.095 303.152 392.975 303.755C392.835 304.358 392.774 304.781 392.774 305.022C392.774 305.847 392.975 306.41 393.376 306.711C393.757 307.013 394.398 307.154 395.32 307.154C395.621 307.154 396.062 307.114 396.604 307.033C397.165 306.953 397.586 306.852 397.887 306.772L397.526 308.179C396.183 308.682 395.1 309.084 394.198 309.326C393.316 309.567 392.494 309.708 391.752 309.708C390.469 309.708 389.487 309.366 388.865 308.682C388.224 308.019 387.923 307.214 387.923 306.289" fill="#4C4948"/>
<path d="M426.675 306.631L426.314 308.079C424.871 308.622 423.748 309.044 422.946 309.286C422.144 309.527 421.342 309.668 420.52 309.668C419.237 309.668 418.275 309.366 417.633 308.763C416.992 308.159 416.671 307.415 416.671 306.51C416.671 306.189 416.691 305.847 416.751 305.444C416.811 305.062 416.912 304.6 417.072 304.077L419.418 295.932C419.598 295.308 419.738 294.745 419.839 294.222C419.939 293.719 419.999 293.317 419.999 293.015C419.999 292.03 419.738 291.266 419.237 290.703C418.736 290.139 417.974 289.838 416.972 289.838C415.969 289.838 414.907 290.139 413.724 290.743C412.501 291.346 411.379 292.191 410.316 293.317L406.266 309.326H401.796L405.364 295.248C405.445 294.906 405.545 294.423 405.705 293.739C405.845 293.076 405.926 292.533 405.926 292.13C405.926 291.326 405.785 290.783 405.465 290.521C405.164 290.24 404.562 290.099 403.66 290.099C403.299 290.099 402.858 290.159 402.317 290.3C401.776 290.421 401.355 290.542 401.054 290.602L401.415 289.154C402.658 288.611 403.761 288.229 404.723 287.947C405.685 287.686 406.507 287.565 407.209 287.565C408.472 287.565 409.374 287.867 409.915 288.51C410.456 289.134 410.737 289.999 410.777 291.125H410.918C412.682 289.838 414.185 288.892 415.468 288.249C416.731 287.625 418.195 287.324 419.819 287.324C421.342 287.324 422.545 287.726 423.407 288.53C424.269 289.335 424.69 290.401 424.69 291.688C424.69 291.949 424.65 292.412 424.57 293.076C424.47 293.759 424.329 294.403 424.149 295.067L422.124 302.046C421.984 302.508 421.843 303.031 421.703 303.634C421.583 304.238 421.503 304.7 421.503 305.042C421.503 305.867 421.703 306.43 422.104 306.732C422.505 307.033 423.167 307.174 424.069 307.174C424.369 307.174 424.81 307.114 425.372 307.013C425.933 306.913 426.374 306.792 426.675 306.691" fill="#4C4948"/>
<path d="M435.275 309.808C433.752 309.808 432.649 309.527 431.947 308.984C431.246 308.421 430.905 307.596 430.905 306.55C430.905 306.208 430.905 305.887 430.965 305.605C431.005 305.303 431.065 304.962 431.145 304.579L434.854 289.978H430.604L431.105 287.987H435.436L437.12 281.612H441.41L439.786 287.987H446.482L445.981 289.978H439.345L436.278 302.025C436.137 302.588 436.017 303.131 435.917 303.634C435.817 304.137 435.776 304.579 435.776 304.941C435.776 305.746 435.997 306.329 436.418 306.711C436.859 307.073 437.661 307.254 438.804 307.254C439.225 307.254 439.786 307.214 440.548 307.113C441.29 307.013 441.891 306.892 442.292 306.772L441.891 308.381C440.768 308.763 439.726 309.105 438.743 309.386C437.761 309.688 436.578 309.808 435.255 309.808" fill="#4C4948"/>
<path d="M462.119 306.168H461.979C460.515 307.275 459.132 308.159 457.809 308.803C456.486 309.447 454.982 309.768 453.298 309.768C451.774 309.768 450.572 309.366 449.669 308.562C448.767 307.757 448.326 306.691 448.326 305.384C448.326 305.042 448.366 304.62 448.426 304.137C448.507 303.654 448.647 302.951 448.888 302.005L450.752 295.207C450.932 294.584 451.053 294.021 451.153 293.518C451.253 293.035 451.293 292.553 451.293 292.09C451.293 291.286 451.153 290.763 450.852 290.481C450.572 290.2 449.97 290.079 449.048 290.079C448.707 290.079 448.246 290.139 447.705 290.26C447.163 290.381 446.742 290.481 446.442 290.582L446.783 289.154C448.046 288.631 449.128 288.229 450.09 287.947C451.033 287.686 451.794 287.545 452.376 287.545C453.659 287.545 454.601 287.806 455.223 288.329C455.824 288.852 456.145 289.657 456.145 290.682C456.145 290.964 456.105 291.306 456.045 291.768C455.984 292.231 455.884 292.673 455.744 293.116L453.559 301.1C453.398 301.704 453.258 302.287 453.158 302.81C453.057 303.333 452.997 303.755 452.997 304.037C452.997 305.022 453.258 305.786 453.779 306.37C454.28 306.933 455.042 307.214 456.045 307.214C457.207 307.214 458.33 306.953 459.433 306.41C460.535 305.867 461.578 305.143 462.54 304.218L466.489 287.907L470.659 287.645L470.96 287.987L466.85 305.022C466.229 307.536 465.447 309.668 464.525 311.438C463.582 313.187 462.5 314.635 461.217 315.742C459.894 316.868 458.47 317.692 456.947 318.215C455.423 318.718 453.679 318.98 451.734 318.98C450.371 318.98 449.309 318.879 448.507 318.718C447.725 318.537 447.083 318.296 446.622 317.994C446.161 317.713 445.84 317.391 445.7 317.009C445.54 316.647 445.459 316.285 445.459 315.923C445.459 315.299 445.66 314.756 446.081 314.273C446.482 313.771 447.083 313.549 447.865 313.549C448.467 313.549 448.948 313.69 449.369 314.012C449.79 314.314 450.11 314.656 450.371 315.018C450.672 315.4 450.932 315.842 451.173 316.345C451.414 316.848 451.594 317.23 451.754 317.511H452.336C453.238 317.511 454.2 317.31 455.203 316.908C456.205 316.486 457.147 315.882 457.969 315.018C458.891 314.072 459.693 312.866 460.415 311.397C461.137 309.929 461.718 308.18 462.139 306.128" fill="#4C4948"/>
<path d="M51.6453 270.933C56.2562 269.606 57.4189 264.739 62.0299 265.724C62.6915 265.724 64.2552 265.804 65.2375 265.483C71.8331 261.179 76.6045 254.301 80.5739 251.002C83.3003 249.092 83.4607 248.106 85.7662 247.121C88.4125 245.793 89.896 248.448 92.2015 247.121C95.8301 244.808 101.022 240.745 104.651 238.774C105.313 238.432 106.295 238.111 107.297 238.432C109.603 239.418 111.908 240.745 114.554 241.751C115.216 241.751 115.537 242.736 116.539 243.078C117.522 243.078 118.183 242.736 119.185 243.078C119.506 243.42 119.847 243.42 119.847 244.064C122.734 243.742 124.699 246.859 127.846 246.718V193H41V279.661C42.7842 278.415 44.5284 275.518 46.4329 274.392C48.0768 273.065 49.6405 271.255 51.6252 270.913" fill="#124D96"/>
<path d="M91.4196 230.69C82.9395 220.955 68.2647 216.209 63.7941 204.705C63.7941 205.007 63.7941 205.288 63.7941 205.59L63.3931 200.321C61.7893 209.512 60.7869 219.548 64.8766 227.673C71.773 236.884 83.14 242.073 91.58 250.459C94.3666 253.275 95.8701 256.493 96.7322 259.892V271.054C98.5565 257.74 101.724 242.515 91.4396 230.669" fill="#66B02F"/>
<path d="M59.3235 289.275V299.552C59.3235 302.086 59.1029 303.836 58.6819 304.801C58.3411 305.545 57.88 305.988 57.2987 306.189C56.3965 306.49 55.7951 305.947 55.4944 304.58C55.3541 303.876 55.2739 302.528 55.2739 300.537C55.2739 295.811 55.2739 291.045 55.354 286.258C54.071 286.7 52.808 287.344 51.6453 287.927C51.6853 290.059 51.7254 292.633 51.7254 295.932V301.382C51.7254 304.439 51.8457 306.531 52.1063 307.637C52.808 310.593 54.5121 311.619 57.2185 310.734C59.4037 310.01 60.9674 308.522 61.8896 306.249C62.3106 305.203 62.5912 304.057 62.6915 302.77C62.8117 301.784 62.8518 300.115 62.8518 297.782V295.348C62.8518 290.642 62.8919 287.143 62.932 284.89V284.408C61.7492 284.609 60.5464 284.85 59.3235 285.132V289.295V289.275Z" fill="#124D96"/>
<path d="M87.0292 295.791L88.9137 288.691C89.6354 285.775 90.1767 283.704 90.5175 282.477C90.8583 281.149 91.1389 280.084 91.3795 279.219C90.738 279.641 90.0163 280.084 89.2344 280.526C88.7733 280.767 88.2721 281.009 87.7709 281.23C87.2497 283.543 86.7886 285.353 86.4478 286.64L85.1848 291.246L83.4407 286.519C82.8994 284.91 82.4784 283.684 82.1777 282.819C80.6942 283.1 79.2307 283.301 77.9075 283.422C78.7094 285.594 79.3309 287.263 79.7319 288.45C80.213 289.777 80.5739 290.763 80.8144 291.406L83.16 297.38C83.16 301.442 83.1199 305.062 83.0598 307.335C84.4631 307.033 85.8464 306.671 87.1094 306.189C86.969 299.672 86.949 296.193 87.0292 295.811" fill="#124D96"/>
<path d="M74.2789 297.641C74.74 297.5 75.1009 297.279 75.1009 297.279C75.8627 296.797 76.4641 296.254 76.9052 295.61C77.8073 294.323 78.2684 292.633 78.2684 290.522C78.2684 287.404 77.4264 285.333 75.7424 284.327C75.0207 283.905 73.9381 283.684 72.4947 283.664C72.2341 283.664 71.9534 283.664 71.6728 283.664C71.5725 283.664 71.4723 283.664 71.372 283.664C71.1515 283.664 70.931 283.664 70.7105 283.664C68.9663 283.724 66.8413 283.865 64.5559 284.186C64.6361 285.816 64.6962 287.988 64.6962 290.361C64.7363 293.84 64.7564 296.274 64.7564 297.641L64.6361 308.843C66.4403 308.602 68.0041 308.461 69.3673 308.401C69.247 306.169 69.1869 302.186 69.1869 297.641H69.4876L70.6102 299.733C72.7754 303.735 74.6197 307.174 75.1811 308.3C76.4842 308.24 78.2283 308.14 80.0526 307.878C79.0302 306.229 77.4665 303.554 75.8026 300.517L74.2589 297.661L74.2789 297.641ZM71.2117 294.765C70.6102 294.946 69.9286 295.007 69.1468 294.966L69.227 287.746C69.9086 287.686 70.4098 287.646 70.7105 287.646C71.5525 287.646 72.194 287.847 72.5949 288.189C73.2164 288.732 73.5372 289.657 73.5372 290.964C73.5372 293.036 72.7553 294.303 71.2317 294.745" fill="#124D96"/>
<path d="M91.8606 303.574C93.5246 302.528 94.6473 301.382 94.6473 301.382C94.6473 301.382 96.8926 299.431 96.8926 297.36C96.8926 296.093 96.9327 293.257 96.8926 292.291C96.8926 294.041 95.5293 296.977 94.4267 297.762V290.803H94.4869C94.4869 290.803 96.7522 288.832 96.8926 287.284C97.0129 286.017 96.9327 282.899 96.8926 281.934C96.8926 283.643 95.4692 285.836 94.4267 286.7V280.828C94.4267 280.828 96.6921 278.877 96.8324 277.348C96.9327 276.081 96.8725 273.246 96.8324 272.28C96.9327 275.579 91.8406 278.897 91.8406 278.897V303.574H91.8606Z" fill="#124D96"/>
<path d="M50.2419 304.298C50.2419 302.327 50.2419 300.055 50.282 298.808C50.282 298.808 50.282 298.607 50.2219 298.647C50.2219 298.647 46.5331 301.442 46.052 302.951V306.43C46.2525 305.867 47.2949 304.861 47.8763 304.298C47.8763 304.881 47.8763 305.465 47.8763 306.108C47.8763 306.591 47.8563 308.18 47.7761 309.386C47.7159 310.432 47.3751 311.156 47.3751 311.156C47.2348 311.579 46.9942 311.961 46.8539 312.142C46.3126 312.866 45.5307 313.349 45.1097 312.323C44.7489 311.458 44.5484 309.045 44.5083 306.913C44.4682 304.399 44.809 301.02 45.2501 299.17C45.6911 297.219 46.4529 295.63 47.335 294.524C48.0367 293.659 49.0792 292.774 49.9412 292.473V288.772C49.2596 289.114 48.1971 289.798 47.1345 290.783C45.5708 292.231 44.2477 294.222 43.3857 297.118C42.4234 300.316 42.0826 304.861 42.0826 309.024C42.0826 312.464 42.4033 314.575 43.125 316.003C43.947 317.612 45.5307 317.572 47.0945 315.963C48.1971 314.837 50.1016 312.544 50.2219 309.125V304.298H50.2419Z" fill="#124D96"/>
</g>
<defs>
<clipPath id="clip0_315_4">
<rect width="430" height="126" fill="white" transform="translate(41 193)"/>
</clipPath>
</defs>
</svg>
