<svg width="512" height="200" viewBox="0 0 512 200" fill="none" xmlns="http://www.w3.org/2000/svg">
<rect width="512" height="200" fill="white"/>
<g clip-path="url(#clip0_315_4)">
<path d="M152.477 73.115V83.3959H180.842V107.561H191.77V83.3959H217.425V73.115H152.495H152.477ZM206.461 69.7669H217.389V48.1678C216.953 45.8205 215.371 44.8561 214.062 44.4922H154.132V54.5184H206.461V69.7851V69.7669Z" fill="#4C4948"/>
<path d="M325.14 106.196H335.158V44.4922H325.14V106.196ZM299.557 44.4922H270.664V54.5184H291.083V67.001H270.664V103.758C271.064 104.959 272.028 106.214 274.301 106.578H301.866V96.2971H281.574V76.3904H301.866V46.8213C301.393 45.5112 300.466 44.8197 299.557 44.4922ZM310.975 57.2478H304.248V66.7463H310.975V76.3904H304.248V86.0162H310.975V106.378H320.976V44.4922H310.975V57.2478Z" fill="#4C4948"/>
<path d="M438.163 65.4908H449.091V47.0397C448.564 45.4566 447.345 44.7651 446.309 44.4922H387.306V54.5184H438.163V65.5089V65.4908ZM385.633 69.221V79.2472H411.889V87.3809H422.817V79.2472H449.091V69.221H385.633ZM396.543 83.214H385.742V103.412C386.07 104.431 386.797 105.504 388.397 106.05H448.218V96.0242H396.543V83.214Z" fill="#4C4948"/>
<path d="M177.678 132.944L177.915 133.199C177.824 134.691 177.787 136.656 177.787 139.077V147.028L177.533 147.319C174.805 148.302 171.66 148.793 168.132 148.793C162.587 148.793 158.459 147.156 155.768 143.88C153.568 141.205 152.477 137.712 152.477 133.381C152.477 128.141 153.986 124.046 156.986 121.08C159.677 118.405 163.423 117.077 168.241 117.077C171.496 117.077 174.296 117.587 176.624 118.624L176.769 118.915L176.496 121.917C176.442 122.481 176.351 123.355 176.26 124.519L175.896 124.665C174.042 123.391 171.951 122.754 169.623 122.754C166.659 122.754 164.423 123.737 162.914 125.702C161.477 127.54 160.768 130.088 160.768 133.326C160.768 136.092 161.259 138.33 162.241 140.041C163.459 142.043 165.223 143.043 167.587 143.043C168.478 143.043 169.332 142.88 170.114 142.552C170.187 140.987 170.205 139.823 170.205 139.058C170.205 136.82 170.132 134.91 170.005 133.345L170.241 133.054C173.042 133.054 175.514 133.017 177.66 132.963" fill="#4C4948"/>
<path d="M207.898 117.332L208.189 117.569L208.134 119.006C208.025 121.79 207.97 126.103 207.97 131.944V134.964C207.97 137.876 207.861 139.932 207.643 141.096C207.389 142.625 206.807 143.953 205.916 145.081C203.97 147.556 200.679 148.775 196.024 148.775C190.261 148.775 186.642 146.81 185.188 142.88C184.642 141.406 184.388 138.767 184.388 134.964V128.213C184.388 123.919 184.333 120.425 184.206 117.714L184.388 117.478C187.133 117.478 189.788 117.423 192.352 117.332L192.588 117.569C192.461 123.628 192.406 129.669 192.406 135.656C192.406 138.112 192.57 139.805 192.879 140.733C193.515 142.552 194.806 143.462 196.77 143.462C198.025 143.462 199.006 143.08 199.752 142.316C200.679 141.297 201.134 139.222 201.134 136.092V117.714L201.37 117.478C203.788 117.478 205.97 117.423 207.916 117.332" fill="#4C4948"/>
<path d="M214.68 117.66L214.88 117.478C217.953 117.387 221.535 117.332 225.626 117.332C228.899 117.332 231.226 117.696 232.626 118.387C235.317 119.734 236.663 122.336 236.663 126.212C236.663 128.85 235.935 130.925 234.499 132.471C233.79 133.236 232.826 133.891 231.608 134.437L233.772 138.858C235.754 142.898 237.335 145.9 238.517 147.847L238.317 148.12C235.572 148.193 232.863 148.302 230.172 148.43L229.79 148.193C229.499 147.392 228.135 144.226 225.717 138.713L224.571 136.111C223.989 136.147 223.371 136.165 222.698 136.165C222.698 141.442 222.808 145.409 222.989 148.084L222.808 148.32C220.844 148.32 218.298 148.357 215.134 148.411L214.844 148.175L215.062 134.309C215.062 132.617 215.025 129.596 214.953 125.266C214.916 122.245 214.844 119.716 214.698 117.66M222.644 131.27C223.735 131.361 224.699 131.325 225.517 131.125C227.662 130.634 228.735 129.123 228.735 126.521C228.735 124.92 228.299 123.755 227.426 123.046C226.844 122.591 225.971 122.372 224.789 122.372C224.371 122.372 223.68 122.409 222.717 122.463L222.626 131.252L222.644 131.27Z" fill="#4C4948"/>
<path d="M261.464 128.468L257.809 136.092C257.664 136.547 257.718 140.532 257.991 148.047L257.7 148.284C254.554 148.284 251.918 148.339 249.809 148.429L249.518 148.193C249.7 145.846 249.791 141.915 249.791 136.365L245.936 128.486C245.5 127.613 244.845 126.321 244.009 124.592C243.263 123.027 242.154 120.771 240.681 117.823L240.827 117.569C243.227 117.55 245.936 117.423 248.972 117.223L249.3 117.514C249.536 118.187 250.372 120.316 251.845 123.901L254.482 130.051L256.736 125.065C257.482 123.391 258.482 120.898 259.755 117.605L260.1 117.35C262.682 117.35 264.937 117.314 266.864 117.205L267.046 117.496C266.464 118.46 265.737 119.879 264.809 121.79C264.1 123.1 262.991 125.32 261.464 128.432" fill="#4C4948"/>
<path d="M281.574 134.91H279.574V142.843H281.538C284.883 142.843 287.738 142.752 290.065 142.589L290.338 142.88C290.283 143.808 290.156 145.518 290.011 148.011L289.72 148.248H282.047C277.192 148.248 273.755 148.302 271.737 148.43L271.501 148.193C271.61 144.736 271.664 140.878 271.664 136.657C271.664 127.613 271.537 121.281 271.301 117.66L271.537 117.423C278.756 117.496 284.738 117.459 289.502 117.332L289.738 117.569C289.647 118.588 289.538 120.189 289.447 122.354L289.156 122.645H279.392V129.96H281.447C283.029 129.96 285.447 129.887 288.72 129.742L289.011 130.033C288.92 131.27 288.811 132.835 288.72 134.673L288.429 134.928H281.519L281.574 134.91Z" fill="#4C4948"/>
<path d="M321.649 148.921C320.067 148.921 318.594 148.666 317.194 148.175C315.794 147.684 314.575 146.956 313.521 145.991C312.466 145.027 311.648 143.844 311.048 142.461C310.448 141.078 310.139 139.513 310.139 137.767C310.139 135.274 310.593 132.944 311.521 130.779C312.448 128.614 313.721 126.685 315.339 124.993C316.903 123.355 318.776 122.045 320.958 121.062C323.14 120.08 325.431 119.588 327.831 119.588C329.613 119.588 331.213 119.789 332.576 120.152C333.94 120.535 335.067 121.008 335.958 121.572L337.177 120.262H338.922L336.576 130.215H334.831V129.414C334.831 128.341 334.74 127.322 334.558 126.321C334.358 125.338 333.995 124.465 333.467 123.683C332.94 122.918 332.231 122.3 331.322 121.845C330.431 121.39 329.249 121.153 327.849 121.153C326.067 121.153 324.412 121.59 322.885 122.445C321.339 123.3 320.03 124.447 318.903 125.884C317.812 127.285 316.921 129.014 316.248 131.052C315.594 133.09 315.248 135.183 315.248 137.293C315.248 140.114 316.012 142.388 317.503 144.117C319.03 145.864 321.048 146.719 323.594 146.719C325.721 146.719 327.667 146.155 329.449 145.009C331.249 143.88 332.704 142.352 333.813 140.46L335.395 141.206C333.576 144.026 331.54 146.028 329.303 147.174C327.067 148.32 324.521 148.884 321.649 148.884" fill="#4C4948"/>
<path d="M358.905 136.093C358.905 137.639 358.614 139.186 358.032 140.733C357.45 142.279 356.596 143.644 355.505 144.809C354.396 146.028 353.05 147.011 351.468 147.72C349.886 148.448 348.068 148.812 346.013 148.812C343.613 148.812 341.649 148.102 340.158 146.701C338.649 145.3 337.904 143.408 337.904 141.024C337.904 139.277 338.213 137.639 338.868 136.129C339.504 134.619 340.358 133.29 341.431 132.144C342.522 130.998 343.868 130.07 345.468 129.36C347.05 128.65 348.795 128.305 350.668 128.305C353.25 128.305 355.268 129.033 356.723 130.452C358.177 131.889 358.905 133.745 358.905 136.075M354.505 135.328C354.505 133.472 354.123 132.053 353.414 131.125C352.668 130.197 351.614 129.724 350.232 129.724C349.032 129.724 347.886 130.07 346.832 130.743C345.759 131.416 344.85 132.508 344.086 134.018C343.486 135.165 343.05 136.438 342.777 137.84C342.486 139.241 342.359 140.551 342.359 141.734C342.359 143.608 342.722 145.045 343.431 146.01C344.14 146.974 345.231 147.447 346.686 147.447C347.977 147.447 349.123 147.083 350.123 146.337C351.123 145.609 351.941 144.663 352.559 143.535C353.177 142.443 353.65 141.169 353.995 139.75C354.323 138.331 354.505 136.857 354.505 135.347" fill="#4C4948"/>
<path d="M375.633 145.463H375.506C374.851 145.955 374.215 146.41 373.596 146.81C372.978 147.229 372.378 147.574 371.796 147.847C371.105 148.175 370.487 148.393 369.923 148.539C369.36 148.666 368.633 148.739 367.723 148.739C366.323 148.739 365.269 148.375 364.487 147.647C363.723 146.919 363.341 145.973 363.341 144.808C363.341 144.499 363.378 144.117 363.414 143.68C363.469 143.244 363.614 142.607 363.832 141.751L365.523 135.492C365.669 134.928 365.778 134.4 365.869 133.963C365.96 133.527 366.014 133.09 366.014 132.671C366.014 131.944 365.869 131.47 365.614 131.216C365.341 130.961 364.796 130.852 363.978 130.852C363.669 130.852 363.269 130.906 362.76 131.034C362.269 131.143 361.887 131.234 361.614 131.307L361.941 130.015C363.069 129.542 364.087 129.178 364.941 128.923C365.814 128.686 366.505 128.559 367.032 128.559C368.196 128.559 369.051 128.796 369.596 129.305C370.142 129.796 370.414 130.506 370.414 131.416C370.414 131.671 370.378 131.98 370.323 132.399C370.269 132.817 370.178 133.217 370.069 133.618L368.123 140.933C367.978 141.497 367.851 142.024 367.76 142.497C367.669 142.989 367.614 143.334 367.614 143.589C367.614 144.463 367.832 145.172 368.251 145.682C368.669 146.191 369.323 146.464 370.233 146.464C371.142 146.464 372.105 146.228 373.069 145.791C374.051 145.336 375.033 144.645 376.015 143.735L379.797 128.905L383.579 128.668L383.833 128.959L380.615 141.588C380.469 142.115 380.342 142.661 380.233 143.207C380.106 143.753 380.051 144.135 380.051 144.353C380.051 145.1 380.233 145.609 380.597 145.882C380.942 146.155 381.524 146.282 382.36 146.282C382.633 146.282 383.033 146.246 383.524 146.173C384.033 146.1 384.415 146.009 384.688 145.937L384.361 147.21C383.142 147.665 382.16 148.029 381.342 148.248C380.542 148.466 379.797 148.593 379.124 148.593C377.96 148.593 377.069 148.284 376.506 147.665C375.924 147.065 375.651 146.337 375.651 145.5" fill="#4C4948"/>
<path d="M410.798 145.809L410.471 147.119C409.162 147.611 408.143 147.993 407.416 148.211C406.689 148.43 405.962 148.557 405.216 148.557C404.052 148.557 403.18 148.284 402.598 147.738C402.016 147.192 401.725 146.519 401.725 145.7C401.725 145.409 401.743 145.1 401.798 144.736C401.852 144.39 401.943 143.971 402.089 143.498L404.216 136.129C404.38 135.565 404.507 135.055 404.598 134.582C404.689 134.127 404.743 133.763 404.743 133.49C404.743 132.599 404.507 131.907 404.052 131.398C403.598 130.888 402.907 130.615 401.998 130.615C401.089 130.615 400.125 130.888 399.052 131.434C397.943 131.98 396.925 132.744 395.961 133.763L392.288 148.248H388.233L391.47 135.51C391.543 135.201 391.634 134.764 391.779 134.145C391.906 133.545 391.979 133.054 391.979 132.69C391.979 131.962 391.852 131.471 391.561 131.234C391.288 130.979 390.743 130.852 389.924 130.852C389.597 130.852 389.197 130.907 388.706 131.034C388.215 131.143 387.833 131.252 387.561 131.307L387.888 129.997C389.015 129.505 390.015 129.16 390.888 128.905C391.761 128.668 392.506 128.559 393.143 128.559C394.288 128.559 395.107 128.832 395.597 129.414C396.088 129.978 396.343 130.761 396.379 131.78H396.507C398.107 130.615 399.47 129.76 400.634 129.178C401.78 128.614 403.107 128.341 404.58 128.341C405.962 128.341 407.053 128.705 407.834 129.433C408.616 130.16 408.998 131.125 408.998 132.289C408.998 132.526 408.962 132.944 408.889 133.545C408.798 134.164 408.671 134.746 408.507 135.346L406.671 141.661C406.543 142.079 406.416 142.552 406.289 143.098C406.18 143.644 406.107 144.062 406.107 144.372C406.107 145.118 406.289 145.627 406.652 145.9C407.016 146.173 407.616 146.301 408.434 146.301C408.707 146.301 409.107 146.246 409.616 146.155C410.125 146.064 410.525 145.955 410.798 145.864" fill="#4C4948"/>
<path d="M418.599 148.685C417.217 148.685 416.217 148.43 415.58 147.939C414.944 147.429 414.635 146.683 414.635 145.737C414.635 145.427 414.635 145.136 414.689 144.882C414.726 144.609 414.78 144.299 414.853 143.954L418.217 130.743H414.362L414.817 128.942H418.744L420.271 123.173H424.162L422.69 128.942H428.763L428.308 130.743H422.29L419.508 141.643C419.38 142.152 419.271 142.643 419.18 143.098C419.089 143.553 419.053 143.954 419.053 144.281C419.053 145.009 419.253 145.537 419.635 145.882C420.035 146.21 420.762 146.374 421.799 146.374C422.18 146.374 422.69 146.337 423.381 146.246C424.053 146.155 424.599 146.046 424.962 145.937L424.599 147.393C423.581 147.738 422.635 148.048 421.744 148.302C420.853 148.575 419.78 148.685 418.58 148.685" fill="#4C4948"/>
<path d="M442.945 145.391H442.818C441.49 146.392 440.236 147.192 439.036 147.775C437.836 148.357 436.472 148.648 434.945 148.648C433.563 148.648 432.472 148.284 431.654 147.556C430.835 146.828 430.435 145.864 430.435 144.681C430.435 144.372 430.472 143.99 430.526 143.553C430.599 143.116 430.726 142.479 430.945 141.624L432.636 135.474C432.799 134.91 432.908 134.4 432.999 133.945C433.09 133.509 433.126 133.072 433.126 132.653C433.126 131.926 432.999 131.452 432.726 131.198C432.472 130.943 431.926 130.834 431.09 130.834C430.781 130.834 430.363 130.888 429.872 130.998C429.381 131.107 428.999 131.198 428.726 131.289L429.035 129.997C430.181 129.524 431.163 129.16 432.035 128.905C432.89 128.668 433.581 128.541 434.108 128.541C435.272 128.541 436.127 128.778 436.69 129.251C437.236 129.724 437.527 130.452 437.527 131.38C437.527 131.634 437.49 131.944 437.436 132.362C437.381 132.781 437.29 133.181 437.163 133.581L435.181 140.805C435.036 141.351 434.908 141.879 434.817 142.352C434.727 142.825 434.672 143.207 434.672 143.462C434.672 144.354 434.908 145.045 435.381 145.573C435.836 146.082 436.527 146.337 437.436 146.337C438.49 146.337 439.509 146.1 440.509 145.609C441.509 145.118 442.454 144.463 443.327 143.626L446.909 128.869L450.691 128.632L450.964 128.941L447.236 144.354C446.673 146.628 445.963 148.557 445.127 150.158C444.272 151.741 443.291 153.051 442.127 154.052C440.927 155.071 439.636 155.817 438.254 156.29C436.872 156.745 435.29 156.982 433.526 156.982C432.29 156.982 431.326 156.891 430.599 156.745C429.89 156.582 429.308 156.363 428.89 156.09C428.472 155.836 428.181 155.544 428.053 155.199C427.908 154.871 427.835 154.544 427.835 154.216C427.835 153.652 428.017 153.161 428.399 152.724C428.763 152.269 429.308 152.069 430.017 152.069C430.563 152.069 430.999 152.196 431.381 152.487C431.763 152.76 432.054 153.07 432.29 153.397C432.563 153.743 432.799 154.143 433.017 154.598C433.236 155.053 433.399 155.399 433.545 155.654H434.072C434.89 155.654 435.763 155.472 436.672 155.108C437.581 154.726 438.436 154.18 439.181 153.397C440.018 152.542 440.745 151.45 441.4 150.122C442.054 148.794 442.581 147.21 442.963 145.354" fill="#4C4948"/>
<path d="M70.655 113.511C74.837 112.31 75.8916 107.906 80.0736 108.798C80.6736 108.798 82.0919 108.871 82.9828 108.58C88.9649 104.686 93.2924 98.4624 96.8926 95.4782C99.3654 93.7496 99.5109 92.8579 101.602 91.9663C104.002 90.7654 105.348 93.1673 107.439 91.9663C110.73 89.8737 115.439 86.1981 118.73 84.4148C119.33 84.1055 120.221 83.8144 121.13 84.1055C123.221 84.9971 125.312 86.1981 127.712 87.1079C128.312 87.1079 128.603 87.9995 129.512 88.3089C130.403 88.3089 131.003 87.9995 131.912 88.3089C132.203 88.6182 132.512 88.6182 132.512 89.2005C135.131 88.9093 136.913 91.7298 139.767 91.6024V43H61V121.408C62.6183 120.28 64.2001 117.66 65.9275 116.641C67.4185 115.44 68.8367 113.802 70.6368 113.493" fill="#124D96"/>
<path d="M106.729 77.1C99.0381 68.293 85.7284 63.9986 81.6737 53.5903C81.6737 53.8633 81.6737 54.118 81.6737 54.391L81.31 49.6235C79.8554 57.9393 78.9463 67.0192 82.6556 74.3705C88.9104 82.7045 99.22 87.3991 106.875 94.987C109.402 97.5345 110.766 100.446 111.548 103.521V113.62C113.202 101.574 116.075 87.7994 106.748 77.0818" fill="#66B02F"/>
<path d="M77.619 130.106V139.404C77.619 141.697 77.4189 143.28 77.0371 144.153C76.728 144.826 76.3098 145.227 75.7825 145.409C74.9643 145.682 74.4188 145.19 74.1461 143.953C74.0188 143.316 73.9461 142.097 73.9461 140.296C73.9461 136.019 73.9461 131.707 74.0188 127.376C72.8551 127.777 71.7096 128.359 70.655 128.887C70.6914 130.815 70.7277 133.144 70.7277 136.129V141.06C70.7277 143.826 70.8368 145.718 71.0732 146.719C71.7096 149.394 73.2551 150.322 75.7098 149.521C77.6917 148.866 79.1099 147.52 79.9463 145.463C80.3282 144.517 80.5827 143.48 80.6736 142.315C80.7827 141.424 80.8191 139.913 80.8191 137.803V135.601C80.8191 131.343 80.8555 128.177 80.8918 126.139V125.702C79.8191 125.884 78.7281 126.102 77.619 126.357V130.124V130.106Z" fill="#124D96"/>
<path d="M102.747 136.002L104.457 129.578C105.111 126.94 105.602 125.066 105.911 123.956C106.22 122.755 106.475 121.79 106.693 121.008C106.111 121.39 105.457 121.79 104.747 122.191C104.329 122.409 103.875 122.627 103.42 122.827C102.947 124.92 102.529 126.558 102.22 127.722L101.075 131.889L99.4927 127.613C99.0018 126.157 98.6199 125.047 98.3472 124.265C97.0017 124.52 95.6743 124.702 94.4743 124.811C95.2016 126.776 95.7653 128.286 96.1289 129.36C96.5653 130.561 96.8926 131.453 97.1108 132.035L99.2381 137.439C99.2381 141.115 99.2018 144.39 99.1472 146.446C100.42 146.173 101.675 145.846 102.82 145.409C102.693 139.513 102.675 136.366 102.747 136.02" fill="#124D96"/>
<path d="M91.1832 137.676C91.6014 137.548 91.9287 137.348 91.9287 137.348C92.6197 136.911 93.1651 136.42 93.5652 135.838C94.3834 134.673 94.8016 133.145 94.8016 131.234C94.8016 128.414 94.0379 126.54 92.5106 125.63C91.856 125.248 90.8741 125.047 89.565 125.029C89.3286 125.029 89.074 125.029 88.8195 125.029C88.7286 125.029 88.6377 125.029 88.5467 125.029C88.3467 125.029 88.1467 125.029 87.9467 125.029C86.3648 125.084 84.4375 125.211 82.3646 125.502C82.4374 126.976 82.4919 128.942 82.4919 131.089C82.5283 134.237 82.5465 136.438 82.5465 137.676L82.4374 147.811C84.0738 147.593 85.492 147.465 86.7285 147.411C86.6194 145.391 86.5648 141.788 86.5648 137.676H86.8376L87.8558 139.568C89.8195 143.189 91.4923 146.301 92.0014 147.32C93.1833 147.265 94.7652 147.174 96.4198 146.938C95.4925 145.446 94.0743 143.025 92.5651 140.278L91.165 137.694L91.1832 137.676ZM88.4013 135.074C87.8558 135.237 87.2376 135.292 86.5285 135.256L86.6012 128.723C87.2194 128.669 87.674 128.632 87.9467 128.632C88.7104 128.632 89.2922 128.814 89.6559 129.123C90.2195 129.615 90.5105 130.452 90.5105 131.635C90.5105 133.509 89.8013 134.655 88.4195 135.055" fill="#124D96"/>
<path d="M107.129 143.043C108.639 142.097 109.657 141.06 109.657 141.06C109.657 141.06 111.693 139.295 111.693 137.421C111.693 136.274 111.73 133.709 111.693 132.835C111.693 134.418 110.457 137.075 109.457 137.785V131.489H109.511C109.511 131.489 111.566 129.706 111.693 128.304C111.802 127.158 111.73 124.338 111.693 123.464C111.693 125.011 110.402 126.994 109.457 127.777V122.463C109.457 122.463 111.511 120.698 111.639 119.315C111.73 118.169 111.675 115.603 111.639 114.73C111.73 117.714 107.111 120.717 107.111 120.717V143.043H107.129Z" fill="#124D96"/>
<path d="M69.3822 143.698C69.3822 141.915 69.3822 139.859 69.4186 138.731C69.4186 138.731 69.4186 138.549 69.364 138.585C69.364 138.585 66.0184 141.115 65.582 142.479V145.627C65.7639 145.118 66.7094 144.208 67.2367 143.698C67.2367 144.226 67.2367 144.754 67.2367 145.336C67.2367 145.773 67.2185 147.21 67.1457 148.302C67.0912 149.248 66.7821 149.903 66.7821 149.903C66.6548 150.286 66.4366 150.631 66.3093 150.795C65.8184 151.45 65.1093 151.887 64.7274 150.959C64.4002 150.176 64.2183 147.993 64.182 146.064C64.1456 143.789 64.4547 140.732 64.8547 139.058C65.2547 137.293 65.9457 135.856 66.7457 134.855C67.3821 134.073 68.3276 133.272 69.1095 132.999V129.651C68.4913 129.96 67.5276 130.579 66.5639 131.471C65.1456 132.781 63.9456 134.582 63.1637 137.202C62.291 140.096 61.9819 144.208 61.9819 147.975C61.9819 151.086 62.2728 152.997 62.9274 154.289C63.6729 155.744 65.1093 155.708 66.5275 154.252C67.5276 153.233 69.2549 151.159 69.364 148.066V143.698H69.3822Z" fill="#124D96"/>
</g>
<defs>
<clipPath id="clip0_315_4">
<rect width="390" height="114" fill="white" transform="translate(61 43)"/>
</clipPath>
</defs>
</svg>
