<svg width="512" height="200" viewBox="0 0 512 200" fill="none" xmlns="http://www.w3.org/2000/svg">
<rect width="512" height="200" fill="white"/>
<g clip-path="url(#clip0_315_2)">
<path d="M169.672 116.755C171.526 121.138 171.845 107.37 171.845 102.368C171.845 75.655 150.19 54 123.477 54C96.7639 54 75.0901 75.655 75.0901 102.368C75.0901 109.056 76.4388 115.406 78.8928 121.194C78.8928 121.194 86.5358 100.645 96.5578 100.645C102.852 100.645 105.437 110.086 105.437 110.086C105.437 110.086 114.298 81.4622 124.039 81.4622C135.484 81.4622 141.779 103.492 142.94 107.22C142.94 107.22 148.953 97.7784 154.667 98.6214C154.667 98.6214 160.905 96.2049 169.672 116.736V116.755Z" fill="#0B318F"/>
<path d="M118.625 119.171C115.74 122.244 109.109 130.299 101.859 145.585C108.078 146.053 114.092 146.203 121.023 146.24L122.016 119.19C121.004 119.19 119.636 119.153 118.625 119.19V119.171Z" fill="#009944"/>
<path d="M108.153 119.527C103.302 121.963 91.8185 128.781 81.1221 142.962C86.1799 143.918 90.7132 144.611 96.9887 145.191C103.208 131.816 111.02 123.78 114.691 119.359C112.743 119.415 110.045 119.434 108.153 119.527Z" fill="#009944"/>
<path d="M101.766 119.977C77.9937 121.963 59.6731 126.964 59.6731 132.753C59.6731 136.406 65.7425 139.534 76.7386 141.988C84.7 130.186 95.5463 124.042 101.766 119.977Z" fill="#009944"/>
<path d="M128.235 119.171C131.12 122.244 137.751 130.299 145.001 145.585C138.8 146.053 132.787 146.203 125.837 146.24L124.844 119.19C125.875 119.19 127.242 119.153 128.254 119.19L128.235 119.171Z" fill="#009944"/>
<path d="M138.688 119.527C143.539 121.963 155.041 128.781 165.719 142.962C160.661 143.918 156.128 144.611 149.852 145.191C143.652 131.816 135.84 123.78 132.15 119.359C134.098 119.415 136.796 119.434 138.688 119.527Z" fill="#009944"/>
<path d="M145.076 119.977C168.848 121.963 187.187 126.964 187.187 132.753C187.187 136.406 181.099 139.534 170.121 141.988C162.141 130.186 151.314 124.042 145.076 119.977Z" fill="#009944"/>
<path d="M123.664 59.4323C123.664 59.4323 131.476 67.094 135.391 68.424C139.306 69.754 140.617 68.8923 140.617 68.8923C140.617 68.8923 141.947 67.4125 142.884 67.5623C143.82 67.7122 144.289 68.499 145.057 68.5739C145.057 68.5739 143.258 69.4356 143.258 70.2224C143.258 71.0091 142.715 73.4257 152.325 73.4257C152.325 73.4257 149.44 78.2774 139.437 74.8306L139.044 78.5772C139.044 78.5772 139.175 80.8626 136.758 80.7689C134.342 80.694 131.682 80.975 127.56 76.5353C127.56 76.5353 132.244 75.6736 134.042 73.8752C134.042 73.8752 128.722 73.4819 125.687 68.9485C122.652 64.4152 123.664 59.4136 123.664 59.4136V59.4323Z" fill="white"/>
<path d="M211.727 92.0652C211.333 91.4283 210.622 91.0723 209.722 91.0723C208.636 91.0723 207.437 89.0679 207.437 86.1831C207.437 83.4856 209.854 81.2939 212.832 81.2939H217.103C220.719 81.2939 223.66 78.7837 223.66 75.6928C223.66 73.2388 226.095 71.2344 229.055 71.2344H229.635C232.614 71.2344 235.03 73.2388 235.03 75.6928C235.03 78.7837 237.971 81.2939 241.587 81.2939H245.783C248.761 81.2939 251.178 83.4856 251.178 86.1831C251.178 88.8806 248.761 91.0723 245.783 91.0723H244.771L245.221 91.9341C246.045 93.339 246.682 94.7627 247.094 96.2239C247.563 97.7787 247.787 99.4271 247.787 101.132C247.787 106.246 245.952 110.648 242.336 114.207C238.721 117.823 234.281 119.659 229.167 119.659C224.053 119.659 219.632 117.804 216.017 114.132C212.457 110.461 210.64 106.059 210.64 101.057C210.64 99.3522 210.846 97.7225 211.258 96.2239L211.633 94.6503L211.577 94.7814C212.083 93.7886 212.139 92.7958 211.689 92.0839L211.727 92.0652ZM223.397 95.1373C221.861 96.7484 221.074 98.7715 221.074 101.151C221.074 103.53 221.861 105.403 223.397 107.014C224.952 108.681 226.919 109.524 229.261 109.524C231.602 109.524 233.55 108.681 235.199 107.033C236.904 105.384 237.784 103.398 237.784 101.169C237.784 98.9401 236.904 96.8046 235.199 95.1373C233.55 93.5451 231.546 92.7208 229.261 92.7208C226.975 92.7208 224.933 93.5263 223.397 95.1373Z" fill="#231815"/>
<path d="M260.694 135.263V75.2056C260.694 72.2271 263.092 69.8105 266.052 69.8105C269.011 69.8105 271.409 72.2271 271.409 75.2056V135.263C271.409 138.241 269.011 140.658 266.052 140.658C263.092 140.658 260.694 138.241 260.694 135.263Z" fill="#231815"/>
<path d="M338.36 98.9962C338.36 100.476 340.795 101.694 343.793 101.694H359.865C362.863 101.694 365.298 103.829 365.298 106.414C365.298 108.999 362.844 111.154 359.865 111.154H338.229C341.095 112.278 343.437 114.151 345.235 116.774C347.09 119.452 348.008 122.412 348.008 125.672C348.008 129.961 346.49 133.596 343.474 136.612C340.458 139.721 336.805 141.276 332.534 141.276C328.263 141.276 324.535 139.721 321.519 136.612C318.503 133.596 317.005 129.943 317.005 125.672C317.005 122.468 317.904 119.509 319.702 116.848C321.501 114.226 322.025 113.907 322.025 113.907C324.592 112.39 324.254 111.154 321.276 111.154H305.128C302.131 111.154 299.696 109.018 299.696 106.414C299.696 103.81 302.131 101.694 305.128 101.694H320.976C323.973 101.694 326.409 100.476 326.409 98.9962C326.409 97.5163 323.973 96.2987 320.976 96.2987H307.77C304.791 96.2987 302.337 93.8447 302.337 90.8662V78.0155C302.337 75.0183 304.791 72.583 307.77 72.583H356.063C359.06 72.583 361.495 74.6623 361.495 77.1913C361.495 79.7202 359.06 81.7995 356.063 81.7995H318.429C315.45 81.7995 312.996 82.9797 312.996 84.4408C312.996 85.902 315.431 87.0821 318.429 87.0821H356.063C359.06 87.0821 361.495 89.1615 361.495 91.6904C361.495 94.2193 359.06 96.2987 356.063 96.2987H343.811C340.833 96.2987 338.379 97.5163 338.379 98.9962H338.36ZM328.413 121.588C327.289 122.712 326.727 124.042 326.727 125.597C326.727 127.151 327.289 128.575 328.413 129.68C329.537 130.804 330.886 131.366 332.497 131.366C334.014 131.366 335.325 130.804 336.431 129.68C337.592 128.519 338.173 127.151 338.173 125.597C338.173 124.042 337.592 122.712 336.431 121.588C335.307 120.52 333.995 119.977 332.497 119.977C330.886 119.977 329.537 120.52 328.413 121.588Z" fill="#231815"/>
<path d="M437.456 86.8384C437.456 84.4781 435.002 82.5299 432.024 82.5299H394.502C391.505 82.5299 389.07 80.3007 389.07 77.5657C389.07 74.8308 391.524 72.6016 394.502 72.6016H442.795C445.774 72.6016 448.228 75.0368 448.228 78.0341V85.7145C448.228 88.693 445.811 91.147 442.833 91.147C439.854 91.147 437.438 89.2175 437.438 86.8384H437.456ZM413.272 112.783C413.272 109.786 410.818 107.351 407.84 107.351H391.336C388.358 107.351 385.904 105.122 385.904 102.387C385.904 99.6516 388.339 97.4224 391.336 97.4224H446.055C449.033 97.4224 451.487 99.6516 451.487 102.387C451.487 105.122 449.033 107.351 446.055 107.351H429.476C426.498 107.351 424.044 109.786 424.044 112.783V114.282C424.044 117.279 421.627 119.714 418.649 119.714C415.67 119.714 413.254 117.279 413.254 114.282V112.783H413.272ZM399.729 121.419C399.729 124.398 402.164 126.852 405.161 126.852H443.751C446.748 126.852 449.183 129.081 449.183 131.816C449.183 134.551 446.748 136.78 443.751 136.78H394.502C391.505 136.78 389.07 134.345 389.07 131.347V119.771C389.07 116.773 391.467 114.338 394.408 114.338C397.35 114.338 399.729 116.773 399.729 119.771V121.419Z" fill="#231815"/>
<path d="M287.032 80.5068C287.032 80.5068 261.893 91.8401 266.988 111.022C266.988 111.022 294.038 106.62 287.032 80.5068Z" fill="#00A33E"/>
</g>
<defs>
<clipPath id="clip0_315_2">
<rect width="391.814" height="92.24" fill="white" transform="translate(59.6731 54)"/>
</clipPath>
</defs>
</svg>
