<svg width="512" height="512" viewBox="0 0 512 512" fill="none" xmlns="http://www.w3.org/2000/svg">
<rect width="512" height="512" fill="white"/>
<g clip-path="url(#clip0_315_2)">
<path d="M169.672 272.755C171.526 277.138 171.845 263.37 171.845 258.368C171.845 231.655 150.19 210 123.477 210C96.7639 210 75.0901 231.655 75.0901 258.368C75.0901 265.056 76.4388 271.406 78.8928 277.194C78.8928 277.194 86.5358 256.645 96.5578 256.645C102.852 256.645 105.437 266.086 105.437 266.086C105.437 266.086 114.298 237.462 124.039 237.462C135.484 237.462 141.779 259.492 142.94 263.22C142.94 263.22 148.953 253.778 154.667 254.621C154.667 254.621 160.905 252.205 169.672 272.736V272.755Z" fill="#0B318F"/>
<path d="M118.625 275.171C115.74 278.244 109.109 286.299 101.859 301.585C108.078 302.053 114.092 302.203 121.023 302.24L122.016 275.19C121.004 275.19 119.636 275.153 118.625 275.19V275.171Z" fill="#009944"/>
<path d="M108.153 275.527C103.302 277.963 91.8185 284.781 81.1221 298.962C86.1799 299.918 90.7132 300.611 96.9887 301.191C103.208 287.816 111.02 279.78 114.691 275.359C112.743 275.415 110.045 275.434 108.153 275.527Z" fill="#009944"/>
<path d="M101.766 275.977C77.9937 277.963 59.6731 282.964 59.6731 288.753C59.6731 292.406 65.7425 295.534 76.7386 297.988C84.7 286.186 95.5463 280.042 101.766 275.977Z" fill="#009944"/>
<path d="M128.235 275.171C131.12 278.244 137.751 286.299 145.001 301.585C138.8 302.053 132.787 302.203 125.837 302.24L124.844 275.19C125.875 275.19 127.242 275.153 128.254 275.19L128.235 275.171Z" fill="#009944"/>
<path d="M138.688 275.527C143.539 277.963 155.041 284.781 165.719 298.962C160.661 299.918 156.128 300.611 149.852 301.191C143.652 287.816 135.84 279.78 132.15 275.359C134.098 275.415 136.796 275.434 138.688 275.527Z" fill="#009944"/>
<path d="M145.076 275.977C168.848 277.963 187.187 282.964 187.187 288.753C187.187 292.406 181.099 295.534 170.121 297.988C162.141 286.186 151.314 280.042 145.076 275.977Z" fill="#009944"/>
<path d="M123.664 215.432C123.664 215.432 131.476 223.094 135.391 224.424C139.306 225.754 140.617 224.892 140.617 224.892C140.617 224.892 141.947 223.412 142.884 223.562C143.82 223.712 144.289 224.499 145.057 224.574C145.057 224.574 143.258 225.436 143.258 226.222C143.258 227.009 142.715 229.426 152.325 229.426C152.325 229.426 149.44 234.277 139.437 230.831L139.044 234.577C139.044 234.577 139.175 236.863 136.758 236.769C134.342 236.694 131.682 236.975 127.56 232.535C127.56 232.535 132.244 231.674 134.042 229.875C134.042 229.875 128.722 229.482 125.687 224.949C122.652 220.415 123.664 215.414 123.664 215.414V215.432Z" fill="white"/>
<path d="M211.727 248.065C211.333 247.428 210.622 247.072 209.722 247.072C208.636 247.072 207.437 245.068 207.437 242.183C207.437 239.486 209.854 237.294 212.832 237.294H217.103C220.719 237.294 223.66 234.784 223.66 231.693C223.66 229.239 226.095 227.234 229.055 227.234H229.635C232.614 227.234 235.03 229.239 235.03 231.693C235.03 234.784 237.971 237.294 241.587 237.294H245.783C248.761 237.294 251.178 239.486 251.178 242.183C251.178 244.881 248.761 247.072 245.783 247.072H244.771L245.221 247.934C246.045 249.339 246.682 250.763 247.094 252.224C247.563 253.779 247.787 255.427 247.787 257.132C247.787 262.246 245.952 266.648 242.336 270.207C238.721 273.823 234.281 275.659 229.167 275.659C224.053 275.659 219.632 273.804 216.017 270.132C212.457 266.461 210.64 262.059 210.64 257.057C210.64 255.352 210.846 253.722 211.258 252.224L211.633 250.65L211.577 250.781C212.083 249.789 212.139 248.796 211.689 248.084L211.727 248.065ZM223.397 251.137C221.861 252.748 221.074 254.772 221.074 257.151C221.074 259.53 221.861 261.403 223.397 263.014C224.952 264.681 226.919 265.524 229.261 265.524C231.602 265.524 233.55 264.681 235.199 263.033C236.904 261.384 237.784 259.398 237.784 257.169C237.784 254.94 236.904 252.805 235.199 251.137C233.55 249.545 231.546 248.721 229.261 248.721C226.975 248.721 224.933 249.526 223.397 251.137Z" fill="#231815"/>
<path d="M260.694 291.263V231.206C260.694 228.227 263.092 225.811 266.052 225.811C269.011 225.811 271.409 228.227 271.409 231.206V291.263C271.409 294.241 269.011 296.658 266.052 296.658C263.092 296.658 260.694 294.241 260.694 291.263Z" fill="#231815"/>
<path d="M338.36 254.996C338.36 256.476 340.795 257.694 343.793 257.694H359.865C362.863 257.694 365.298 259.829 365.298 262.414C365.298 264.999 362.844 267.154 359.865 267.154H338.229C341.095 268.278 343.437 270.151 345.235 272.774C347.09 275.452 348.008 278.412 348.008 281.672C348.008 285.961 346.49 289.596 343.474 292.612C340.458 295.721 336.805 297.276 332.534 297.276C328.263 297.276 324.535 295.721 321.519 292.612C318.503 289.596 317.005 285.943 317.005 281.672C317.005 278.468 317.904 275.509 319.702 272.848C321.501 270.226 322.025 269.907 322.025 269.907C324.592 268.39 324.254 267.154 321.276 267.154H305.128C302.131 267.154 299.696 265.018 299.696 262.414C299.696 259.81 302.131 257.694 305.128 257.694H320.976C323.973 257.694 326.409 256.476 326.409 254.996C326.409 253.516 323.973 252.299 320.976 252.299H307.77C304.791 252.299 302.337 249.845 302.337 246.866V234.016C302.337 231.018 304.791 228.583 307.77 228.583H356.063C359.06 228.583 361.495 230.662 361.495 233.191C361.495 235.72 359.06 237.8 356.063 237.8H318.429C315.45 237.8 312.996 238.98 312.996 240.441C312.996 241.902 315.431 243.082 318.429 243.082H356.063C359.06 243.082 361.495 245.161 361.495 247.69C361.495 250.219 359.06 252.299 356.063 252.299H343.811C340.833 252.299 338.379 253.516 338.379 254.996H338.36ZM328.413 277.588C327.289 278.712 326.727 280.042 326.727 281.597C326.727 283.151 327.289 284.575 328.413 285.68C329.537 286.804 330.886 287.366 332.497 287.366C334.014 287.366 335.325 286.804 336.431 285.68C337.592 284.519 338.173 283.151 338.173 281.597C338.173 280.042 337.592 278.712 336.431 277.588C335.307 276.52 333.995 275.977 332.497 275.977C330.886 275.977 329.537 276.52 328.413 277.588Z" fill="#231815"/>
<path d="M437.456 242.838C437.456 240.478 435.002 238.53 432.024 238.53H394.502C391.505 238.53 389.07 236.301 389.07 233.566C389.07 230.831 391.524 228.602 394.502 228.602H442.795C445.774 228.602 448.228 231.037 448.228 234.034V241.714C448.228 244.693 445.811 247.147 442.833 247.147C439.854 247.147 437.438 245.218 437.438 242.838H437.456ZM413.272 268.783C413.272 265.786 410.818 263.351 407.84 263.351H391.336C388.358 263.351 385.904 261.122 385.904 258.387C385.904 255.652 388.339 253.422 391.336 253.422H446.055C449.033 253.422 451.487 255.652 451.487 258.387C451.487 261.122 449.033 263.351 446.055 263.351H429.476C426.498 263.351 424.044 265.786 424.044 268.783V270.282C424.044 273.279 421.627 275.714 418.649 275.714C415.67 275.714 413.254 273.279 413.254 270.282V268.783H413.272ZM399.729 277.419C399.729 280.398 402.164 282.852 405.161 282.852H443.751C446.748 282.852 449.183 285.081 449.183 287.816C449.183 290.551 446.748 292.78 443.751 292.78H394.502C391.505 292.78 389.07 290.345 389.07 287.347V275.771C389.07 272.773 391.467 270.338 394.408 270.338C397.35 270.338 399.729 272.773 399.729 275.771V277.419Z" fill="#231815"/>
<path d="M287.032 236.507C287.032 236.507 261.893 247.84 266.988 267.022C266.988 267.022 294.038 262.62 287.032 236.507Z" fill="#00A33E"/>
</g>
<defs>
<clipPath id="clip0_315_2">
<rect width="391.814" height="92.24" fill="white" transform="translate(59.6731 210)"/>
</clipPath>
</defs>
</svg>
