<svg width="512" height="200" viewBox="0 0 512 200" fill="none" xmlns="http://www.w3.org/2000/svg">
<rect width="512" height="200" fill="white"/>
<g clip-path="url(#clip0_315_7)">
<path d="M149.371 46.381C149.83 46.381 150.375 45.9228 150.747 46.1233C150.747 44.9779 150.891 45.2929 151.895 44.8061C151.895 44.8061 153.214 43.718 154.562 43.8611C155.91 44.0043 156.34 44.6915 158.204 45.5506C160.04 46.4096 162.793 50.2181 162.793 53.8547C162.793 57.9209 159.495 63.0465 153.615 63.0465C147.048 63.0465 144.323 57.4341 144.323 54.4274C144.323 49.989 146.675 46.3524 149.371 46.3524V46.381Z" fill="#E60012"/>
<path d="M137.325 126.559C137.325 127.704 137.325 128.821 137.239 129.938C136.895 129.222 136.35 129.995 136.551 131.083C137.211 132.286 138.1 134.262 137.727 136.381C138.702 137.526 139.907 134.72 139.792 138.929C139.763 142.279 137.153 143.912 138.53 147.462C136.838 147.548 137.928 151.929 136.551 152.76C136.866 153.333 136.866 154.678 136.178 155.308C135.863 154.048 135.289 154.507 134.859 154.106C133.396 150.44 132.823 158.63 131.389 156.941L131.188 154.907C129.955 158.029 129.438 155.623 128.09 155.795C128.09 156.024 128.119 156.253 128.148 156.511C127.918 156.855 127.775 157.284 127.689 157.8C130.356 157.714 132.966 157.599 135.547 157.485C135.834 156.568 136.207 155.767 136.58 156.826C136.58 157.026 136.608 157.227 136.637 157.399C169.905 155.566 194.427 149.266 194.427 141.793C194.427 134.319 170.25 128.334 137.354 126.53L137.325 126.559Z" fill="#004098"/>
<path d="M128.607 155.452C129.295 155.509 129.582 154.106 129.582 152.789C129.496 151.901 129.152 151.758 128.922 151.042C128.607 151.242 128.234 151.328 127.804 151.729C127.804 152.731 127.861 153.505 127.918 154.249C128.091 153.676 128.349 153.218 128.693 153.361C128.693 154.02 128.406 154.765 128.578 155.48L128.607 155.452Z" fill="#004098"/>
<path d="M123.014 152.674L124.448 152.474C124.305 154.764 123.559 155.48 122.957 157.542C122.613 157.198 122.297 157.456 122.01 157.914C123.358 157.914 124.678 157.857 125.997 157.828C126.341 156.368 126.57 154.879 126.284 153.39C126.456 152.875 126.743 151.958 127.029 151.414C126.886 150.756 126.972 149.925 127.115 149.095C126.857 148.923 126.57 148.952 126.312 148.694C125.136 144.914 123.932 153.132 122.613 151.328V149.267C120.892 152.76 120.691 149.066 118.741 150.154C119.114 149.438 119.515 147.205 120.261 147.52C120.204 148.178 119.859 148.894 119.974 149.61C120.662 149.725 121.064 148.322 121.15 147.004C121.15 146.117 120.72 145.945 120.519 145.229C120.089 145.487 119.601 145.487 118.97 146.288C118.024 145.258 118.856 142.881 119.257 141.335L119.745 140.676C120.691 141.02 119.544 143.568 120.318 145.143C121.552 142.652 119.573 138.614 120.548 135.35C120.404 133.689 120.175 129.738 121.465 129.623C121.58 128.478 121.609 127.246 121.552 125.986C120.777 125.986 119.171 125.986 119.171 125.986H118.741C118.741 125.986 117.221 125.986 116.475 125.986C111.456 125.986 106.868 126.101 102.107 126.273C97.8048 139.072 88.3691 149.381 76.5818 155.652C88.2544 157.112 101.906 157.943 116.475 157.943C117.852 157.943 119.2 157.943 120.576 157.943C121.265 156.024 122.211 154.364 122.986 152.674H123.014Z" fill="#004098"/>
<path d="M91.6673 72.8112C95.0229 74.4147 98.6652 75.646 101.705 76.8487C104.43 79.1967 104.803 79.7122 105.52 80.5999C107.527 81.3444 109.506 82.0316 111.227 82.8334C115.586 86.4414 113.894 85.6396 117.164 88.9326C117.221 88.9326 117.307 88.9326 117.336 88.904L117.164 88.2167C117.278 88.6176 117.422 88.9899 117.565 89.3335C117.68 89.4194 117.737 89.5053 117.852 89.6198C120.032 89.448 122.527 93.9437 124.247 93.9724C124.993 94.7741 125.681 95.6045 126.226 96.5495C126.226 95.8623 126.054 95.2323 125.94 94.5164C126.255 94.7455 126.628 95.0318 126.714 94.86C126.657 94.631 126.599 94.4019 126.571 94.1728L126.743 94.86C127.718 98.5253 130.815 100.415 131.503 104.109C134.285 109.321 136.121 114.99 136.895 120.689C163.911 122.235 185.45 126.702 193.796 132.171C191.645 123.867 189.867 119.572 189.867 119.572C168.529 55.2007 153.73 102.677 153.73 102.677C140.767 57.9783 128.377 42.5441 117.536 42C117.536 42 117.307 42 117.192 42C117.078 42 116.963 42 116.848 42C108.961 42.4009 100.243 50.7336 91.0938 72.5248C91.2658 72.6393 91.4666 72.7539 91.6673 72.8398V72.8112Z" fill="#009944"/>
<path d="M119.917 118.513C120.118 117.911 121.179 118.971 120.835 117.539C120.835 116.938 120.29 116.709 120.232 116.308C119.888 116.709 119.372 116.479 118.97 116.479C118.77 115.935 118.512 115.42 118.225 114.933C118.282 114.761 118.426 114.933 118.483 114.733C116.59 114.246 117.164 111.153 116.16 109.235C115.902 107.946 117.709 109.607 116.533 107.631L116.189 107.288C117.622 106.085 114.238 102.792 114.009 100.702L113.751 100.759L113.951 100.616C112.632 98.3535 111.399 95.9768 110.108 94.4019C107.957 92.7697 106.237 90.7653 104.487 89.0186C104.602 89.6485 103.627 88.5031 104.114 88.6463C102.91 87.4723 101.648 86.4414 100.185 85.7828C100.128 85.7542 100.099 85.7255 100.042 85.6683C99.8698 85.5824 99.7551 85.4678 99.669 85.3533C99.4109 85.1528 99.1815 84.9524 98.9233 84.752C102.537 91.882 105.061 99.9284 105.061 108.462C105.061 112.671 104.889 116.422 103.971 120.345C108.302 120.202 111.915 120.116 116.475 120.116C117.852 120.116 119.2 120.116 120.548 120.116C120.376 119.543 120.175 118.999 119.946 118.455L119.917 118.513Z" fill="#009944"/>
<path d="M86.6483 77.2496C86.4475 77.0778 86.2754 76.8773 86.046 76.6483C85.7592 76.3619 85.4724 76.0756 85.1856 75.7892C84.6981 75.3597 84.2105 75.0447 83.6943 74.787C82.5758 74.3861 81.6293 74.3575 80.9697 74.4434C77.4421 75.3024 70.2722 77.8509 62.5287 84.981C64.0487 85.611 65.4827 86.3841 66.8306 87.2718V87.3864L57.8539 100.186C56.3052 99.3271 54.4983 98.8403 52.6055 98.869C52.3187 98.869 52.0319 98.9262 51.7738 98.9549C51.487 99.2412 51.1428 99.6135 50.7413 100.043C48.2462 104.252 45.8944 109.149 43.8008 114.819C44.3457 115.735 45.0627 116.565 45.8944 117.281L40.2732 125.27C39.7283 127.017 39.126 129.222 38.5524 131.341C37.606 134.462 36 139.702 36 139.702C36 139.702 34.9962 149.839 63.5038 153.905C84.3252 149.095 99.6689 130.31 99.2673 108.147C99.0666 96.1486 94.2771 85.3246 86.6483 77.2496ZM78.9334 108.977C79.0195 113.645 77.8723 118.054 75.8074 121.891L75.5206 121.834L62.5 113.444C63.0449 112.156 63.3317 110.752 63.303 109.263L78.704 106.4C78.79 107.23 78.8761 108.089 78.8761 108.948L78.9334 108.977ZM69.5265 89.3335L69.5839 89.2763C73.7424 92.7984 76.8111 97.5804 78.1591 103.05L77.7863 103.221L62.8155 105.999C62.3279 104.567 61.5249 103.279 60.5211 102.191L69.5552 89.3049L69.5265 89.3335ZM39.2694 132.429L48.6764 119.028C49.9956 119.601 51.4583 119.916 52.9783 119.887C53.093 119.887 53.2364 119.887 53.3512 119.887L55.6169 135.751C54.6991 135.865 53.7814 135.923 52.8636 135.951C47.9307 136.037 43.2559 134.748 39.2694 132.458V132.429ZM58.915 135.121V135.035L56.6206 119.171C58.2267 118.541 59.6607 117.539 60.7792 116.25L74.0292 124.812C70.4443 129.852 65.1098 133.574 58.9437 135.121H58.915Z" fill="#004098"/>
<path d="M347.691 77.765C343.59 74.1284 338.685 72.2671 333.093 72.2671C327.5 72.2671 322.51 74.1284 318.409 77.765C313.992 81.7452 311.755 86.8995 311.755 93.0847C311.755 99.2698 313.992 104.367 318.409 108.318C322.481 112.098 327.414 113.988 333.093 113.988C338.771 113.988 343.618 112.07 347.719 108.29C352.165 104.338 354.43 99.2125 354.43 93.056C354.43 86.8995 352.165 81.688 347.719 77.7364L347.691 77.765ZM339.488 99.6134C337.567 101.332 335.502 102.191 333.121 102.191C330.741 102.191 328.59 101.332 326.755 99.6134C324.833 97.8094 323.887 95.6332 323.887 93.056C323.887 90.4789 324.833 88.3313 326.755 86.5845C328.619 84.9237 330.712 84.0933 333.15 84.0933C335.588 84.0933 337.624 84.9237 339.546 86.5845C341.525 88.3599 342.5 90.4789 342.5 93.056C342.5 95.6332 341.525 97.7808 339.517 99.6134H339.488Z" fill="#231815"/>
<path d="M387.613 79.3397H378.493V76.7626V75.5312H377.26H366.935H365.702V76.7626V110.638V111.869H366.935H377.26H378.493V110.638V107.087H387.613H388.846V105.856V96.8356V95.6043H387.613H378.493V90.7937H387.613H388.846V89.5624V80.571V79.3397H387.613Z" fill="#231815"/>
<path d="M373.216 117.138C368.455 112.986 362.805 110.867 356.381 110.867C349.956 110.867 344.392 112.957 339.689 117.138C334.727 121.691 332.204 127.504 332.204 134.433C332.204 141.363 334.727 147.09 339.66 151.614C344.364 155.852 349.985 158 356.352 158C362.719 158 368.426 155.852 373.187 151.643C378.321 147.09 380.902 141.306 380.902 134.433C380.902 127.561 378.292 121.662 373.187 117.138H373.216ZM364.841 142.709C362.432 145.028 359.707 146.174 356.524 146.174C353.341 146.174 350.673 145.057 348.236 142.737C345.769 140.389 344.565 137.669 344.565 134.433C344.565 131.197 345.769 128.363 348.236 126.043C350.673 123.81 353.398 122.693 356.524 122.693C359.65 122.693 362.432 123.781 364.841 126.043C367.365 128.334 368.598 131.083 368.598 134.433C368.598 137.784 367.365 140.447 364.87 142.709H364.841Z" fill="#231815"/>
<path d="M473.767 103.307H471.128V75.0161H405.509V86.7278H458.107V103.307H402.87V114.99H432.783V134.405H445.574V114.99H475.028V103.307H473.795H473.767Z" fill="#231815"/>
<path d="M418.558 141.421V121.004H405.509V145.057C405.509 147.835 406.197 149.897 407.488 151.214C408.664 152.474 410.556 153.104 413.052 153.104H471.128V141.392H418.558V141.421Z" fill="#231815"/>
<path d="M273.353 77.994H257.464V70.7207H243.583V77.994H225.974V89.2189H233.029C232.628 89.9061 232.255 90.622 231.968 91.3951C231.337 93.0273 231.022 94.7454 231.022 96.5208C231.022 102.162 233.058 106.887 237.044 110.523C240.802 113.902 245.304 115.592 250.495 115.592C255.686 115.592 260.132 113.874 263.774 110.523C267.703 106.887 269.711 102.162 269.711 96.5208C269.711 94.774 269.367 93.0273 268.736 91.3951C268.449 90.6506 268.076 89.9347 267.703 89.2189H274.644V77.994H273.41H273.353ZM255.6 102.105C253.994 103.622 252.245 104.367 250.295 104.367C248.344 104.367 246.537 103.622 245.075 102.133C243.555 100.616 242.809 98.8688 242.809 96.8071C242.809 94.7454 243.526 92.8841 245.046 91.3665C246.48 89.992 248.201 89.3048 250.266 89.3048C252.331 89.3048 254.052 89.992 255.629 91.4237C257.206 92.9128 257.981 94.6881 257.981 96.8071C257.981 98.8115 257.206 100.558 255.6 102.133V102.105Z" fill="#231815"/>
<path d="M303.008 87.9303H293.63V76.1327V74.9014H292.396H281.814H280.58V76.1327V112.642V113.873H281.814H292.396H293.63V112.642V99.7565H303.008H304.241V98.4965V89.1616V87.9303H303.008Z" fill="#231815"/>
<path d="M292.396 117.882H230.018V145.143C230.018 147.892 230.678 149.953 231.997 151.271C233.288 152.473 235.123 153.075 237.561 153.075H286.087C288.525 153.075 290.389 152.416 291.593 151.156C292.913 149.953 293.63 147.892 293.63 145.057V117.882H292.396ZM280.695 141.392H242.781V129.594H280.695V141.392Z" fill="#231815"/>
</g>
<defs>
<clipPath id="clip0_315_7">
<rect width="439" height="116" fill="white" transform="translate(36 42)"/>
</clipPath>
</defs>
</svg>
