<svg width="512" height="512" viewBox="0 0 512 512" fill="none" xmlns="http://www.w3.org/2000/svg">
<rect width="512" height="512" fill="white"/>
<g clip-path="url(#clip0_315_7)">
<path d="M149.371 185.381C149.83 185.381 150.375 184.923 150.747 185.123C150.747 183.978 150.891 184.293 151.895 183.806C151.895 183.806 153.214 182.718 154.562 182.861C155.91 183.004 156.34 183.692 158.204 184.551C160.04 185.41 162.793 189.218 162.793 192.855C162.793 196.921 159.495 202.047 153.615 202.047C147.048 202.047 144.323 196.434 144.323 193.427C144.323 188.989 146.675 185.352 149.371 185.352V185.381Z" fill="#E60012"/>
<path d="M137.325 265.559C137.325 266.704 137.325 267.821 137.239 268.938C136.895 268.222 136.35 268.995 136.551 270.083C137.211 271.286 138.1 273.262 137.727 275.381C138.702 276.526 139.907 273.72 139.792 277.929C139.763 281.279 137.153 282.912 138.53 286.462C136.838 286.548 137.928 290.929 136.551 291.76C136.866 292.333 136.866 293.678 136.178 294.308C135.863 293.048 135.289 293.507 134.859 293.106C133.396 289.44 132.823 297.63 131.389 295.941L131.188 293.907C129.955 297.029 129.438 294.623 128.09 294.795C128.09 295.024 128.119 295.253 128.148 295.511C127.918 295.855 127.775 296.284 127.689 296.8C130.356 296.714 132.966 296.599 135.547 296.485C135.834 295.568 136.207 294.767 136.58 295.826C136.58 296.026 136.608 296.227 136.637 296.399C169.905 294.566 194.427 288.266 194.427 280.793C194.427 273.319 170.25 267.334 137.354 265.53L137.325 265.559Z" fill="#004098"/>
<path d="M128.607 294.452C129.295 294.509 129.582 293.106 129.582 291.789C129.496 290.901 129.152 290.758 128.922 290.042C128.607 290.242 128.234 290.328 127.804 290.729C127.804 291.731 127.861 292.505 127.918 293.249C128.091 292.676 128.349 292.218 128.693 292.361C128.693 293.02 128.406 293.765 128.578 294.48L128.607 294.452Z" fill="#004098"/>
<path d="M123.014 291.674L124.448 291.474C124.305 293.764 123.559 294.48 122.957 296.542C122.613 296.198 122.297 296.456 122.01 296.914C123.358 296.914 124.678 296.857 125.997 296.828C126.341 295.368 126.57 293.879 126.284 292.39C126.456 291.875 126.743 290.958 127.029 290.414C126.886 289.756 126.972 288.925 127.115 288.095C126.857 287.923 126.57 287.952 126.312 287.694C125.136 283.914 123.932 292.132 122.613 290.328V288.267C120.892 291.76 120.691 288.066 118.741 289.154C119.114 288.438 119.515 286.205 120.261 286.52C120.204 287.178 119.859 287.894 119.974 288.61C120.662 288.725 121.064 287.322 121.15 286.004C121.15 285.117 120.72 284.945 120.519 284.229C120.089 284.487 119.601 284.487 118.97 285.288C118.024 284.258 118.856 281.881 119.257 280.335L119.745 279.676C120.691 280.02 119.544 282.568 120.318 284.143C121.552 281.652 119.573 277.614 120.548 274.35C120.404 272.689 120.175 268.738 121.465 268.623C121.58 267.478 121.609 266.246 121.552 264.986C120.777 264.986 119.171 264.986 119.171 264.986H118.741C118.741 264.986 117.221 264.986 116.475 264.986C111.456 264.986 106.868 265.101 102.107 265.273C97.8048 278.072 88.3691 288.381 76.5818 294.652C88.2544 296.112 101.906 296.943 116.475 296.943C117.852 296.943 119.2 296.943 120.576 296.943C121.265 295.024 122.211 293.364 122.986 291.674H123.014Z" fill="#004098"/>
<path d="M91.6673 211.811C95.0229 213.415 98.6652 214.646 101.705 215.849C104.43 218.197 104.803 218.712 105.52 219.6C107.527 220.344 109.506 221.032 111.227 221.833C115.586 225.441 113.894 224.64 117.164 227.933C117.221 227.933 117.307 227.933 117.336 227.904L117.164 227.217C117.278 227.618 117.422 227.99 117.565 228.333C117.68 228.419 117.737 228.505 117.852 228.62C120.032 228.448 122.527 232.944 124.247 232.972C124.993 233.774 125.681 234.605 126.226 235.549C126.226 234.862 126.054 234.232 125.94 233.516C126.255 233.745 126.628 234.032 126.714 233.86C126.657 233.631 126.599 233.402 126.571 233.173L126.743 233.86C127.718 237.525 130.815 239.415 131.503 243.109C134.285 248.321 136.121 253.99 136.895 259.689C163.911 261.235 185.45 265.702 193.796 271.171C191.645 262.867 189.867 258.572 189.867 258.572C168.529 194.201 153.73 241.677 153.73 241.677C140.767 196.978 128.377 181.544 117.536 181C117.536 181 117.307 181 117.192 181C117.078 181 116.963 181 116.848 181C108.961 181.401 100.243 189.734 91.0938 211.525C91.2658 211.639 91.4666 211.754 91.6673 211.84V211.811Z" fill="#009944"/>
<path d="M119.917 257.513C120.118 256.911 121.179 257.971 120.835 256.539C120.835 255.938 120.29 255.709 120.232 255.308C119.888 255.709 119.372 255.479 118.97 255.479C118.77 254.935 118.512 254.42 118.225 253.933C118.282 253.761 118.426 253.933 118.483 253.733C116.59 253.246 117.164 250.153 116.16 248.235C115.902 246.946 117.709 248.607 116.533 246.631L116.189 246.288C117.622 245.085 114.238 241.792 114.009 239.702L113.751 239.759L113.951 239.616C112.632 237.354 111.399 234.977 110.108 233.402C107.957 231.77 106.237 229.765 104.487 228.019C104.602 228.649 103.627 227.503 104.114 227.646C102.91 226.472 101.648 225.441 100.185 224.783C100.128 224.754 100.099 224.726 100.042 224.668C99.8698 224.582 99.7551 224.468 99.669 224.353C99.4109 224.153 99.1815 223.952 98.9233 223.752C102.537 230.882 105.061 238.928 105.061 247.462C105.061 251.671 104.889 255.422 103.971 259.345C108.302 259.202 111.915 259.116 116.475 259.116C117.852 259.116 119.2 259.116 120.548 259.116C120.376 258.543 120.175 257.999 119.946 257.455L119.917 257.513Z" fill="#009944"/>
<path d="M86.6483 216.25C86.4475 216.078 86.2754 215.877 86.046 215.648C85.7592 215.362 85.4724 215.076 85.1856 214.789C84.6981 214.36 84.2105 214.045 83.6943 213.787C82.5758 213.386 81.6293 213.357 80.9697 213.443C77.4421 214.302 70.2722 216.851 62.5287 223.981C64.0487 224.611 65.4827 225.384 66.8306 226.272V226.386L57.8539 239.186C56.3052 238.327 54.4983 237.84 52.6055 237.869C52.3187 237.869 52.0319 237.926 51.7738 237.955C51.487 238.241 51.1428 238.613 50.7413 239.043C48.2462 243.252 45.8944 248.149 43.8008 253.819C44.3457 254.735 45.0627 255.565 45.8944 256.281L40.2732 264.27C39.7283 266.017 39.126 268.222 38.5524 270.341C37.606 273.462 36 278.702 36 278.702C36 278.702 34.9962 288.839 63.5038 292.905C84.3252 288.095 99.6689 269.31 99.2673 247.147C99.0666 235.149 94.2771 224.325 86.6483 216.25ZM78.9334 247.977C79.0195 252.645 77.8723 257.054 75.8074 260.891L75.5206 260.834L62.5 252.444C63.0449 251.156 63.3317 249.752 63.303 248.263L78.704 245.4C78.79 246.23 78.8761 247.089 78.8761 247.948L78.9334 247.977ZM69.5265 228.334L69.5839 228.276C73.7424 231.798 76.8111 236.58 78.1591 242.05L77.7863 242.221L62.8155 244.999C62.3279 243.567 61.5249 242.279 60.5211 241.191L69.5552 228.305L69.5265 228.334ZM39.2694 271.429L48.6764 258.028C49.9956 258.601 51.4583 258.916 52.9783 258.887C53.093 258.887 53.2364 258.887 53.3512 258.887L55.6169 274.751C54.6991 274.865 53.7814 274.923 52.8636 274.951C47.9307 275.037 43.2559 273.748 39.2694 271.458V271.429ZM58.915 274.121V274.035L56.6206 258.171C58.2267 257.541 59.6607 256.539 60.7792 255.25L74.0292 263.812C70.4443 268.852 65.1098 272.574 58.9437 274.121H58.915Z" fill="#004098"/>
<path d="M347.691 216.765C343.59 213.128 338.685 211.267 333.093 211.267C327.5 211.267 322.51 213.128 318.409 216.765C313.992 220.745 311.755 225.9 311.755 232.085C311.755 238.27 313.992 243.367 318.409 247.318C322.481 251.098 327.414 252.988 333.093 252.988C338.771 252.988 343.618 251.07 347.719 247.29C352.165 243.338 354.43 238.213 354.43 232.056C354.43 225.9 352.165 220.688 347.719 216.736L347.691 216.765ZM339.488 238.613C337.567 240.332 335.502 241.191 333.121 241.191C330.741 241.191 328.59 240.332 326.755 238.613C324.833 236.809 323.887 234.633 323.887 232.056C323.887 229.479 324.833 227.331 326.755 225.585C328.619 223.924 330.712 223.093 333.15 223.093C335.588 223.093 337.624 223.924 339.546 225.585C341.525 227.36 342.5 229.479 342.5 232.056C342.5 234.633 341.525 236.781 339.517 238.613H339.488Z" fill="#231815"/>
<path d="M387.613 218.34H378.493V215.763V214.531H377.26H366.935H365.702V215.763V249.638V250.869H366.935H377.26H378.493V249.638V246.087H387.613H388.846V244.856V235.836V234.604H387.613H378.493V229.794H387.613H388.846V228.562V219.571V218.34H387.613Z" fill="#231815"/>
<path d="M373.216 256.138C368.455 251.986 362.805 249.867 356.381 249.867C349.956 249.867 344.392 251.957 339.689 256.138C334.727 260.691 332.204 266.504 332.204 273.433C332.204 280.363 334.727 286.09 339.66 290.614C344.364 294.852 349.985 297 356.352 297C362.719 297 368.426 294.852 373.187 290.643C378.321 286.09 380.902 280.306 380.902 273.433C380.902 266.561 378.292 260.662 373.187 256.138H373.216ZM364.841 281.709C362.432 284.028 359.707 285.174 356.524 285.174C353.341 285.174 350.673 284.057 348.236 281.737C345.769 279.389 344.565 276.669 344.565 273.433C344.565 270.197 345.769 267.363 348.236 265.043C350.673 262.81 353.398 261.693 356.524 261.693C359.65 261.693 362.432 262.781 364.841 265.043C367.365 267.334 368.598 270.083 368.598 273.433C368.598 276.784 367.365 279.447 364.87 281.709H364.841Z" fill="#231815"/>
<path d="M473.767 242.307H471.128V214.016H405.509V225.728H458.107V242.307H402.87V253.99H432.783V273.405H445.574V253.99H475.028V242.307H473.795H473.767Z" fill="#231815"/>
<path d="M418.558 280.421V260.004H405.509V284.057C405.509 286.835 406.197 288.897 407.488 290.214C408.664 291.474 410.556 292.104 413.052 292.104H471.128V280.392H418.558V280.421Z" fill="#231815"/>
<path d="M273.353 216.994H257.464V209.721H243.583V216.994H225.974V228.219H233.029C232.628 228.906 232.255 229.622 231.968 230.395C231.337 232.027 231.022 233.745 231.022 235.521C231.022 241.162 233.058 245.887 237.044 249.523C240.802 252.902 245.304 254.592 250.495 254.592C255.686 254.592 260.132 252.874 263.774 249.523C267.703 245.887 269.711 241.162 269.711 235.521C269.711 233.774 269.367 232.027 268.736 230.395C268.449 229.651 268.076 228.935 267.703 228.219H274.644V216.994H273.41H273.353ZM255.6 241.105C253.994 242.622 252.245 243.367 250.295 243.367C248.344 243.367 246.537 242.622 245.075 241.133C243.555 239.616 242.809 237.869 242.809 235.807C242.809 233.745 243.526 231.884 245.046 230.366C246.48 228.992 248.201 228.305 250.266 228.305C252.331 228.305 254.052 228.992 255.629 230.424C257.206 231.913 257.981 233.688 257.981 235.807C257.981 237.812 257.206 239.558 255.6 241.133V241.105Z" fill="#231815"/>
<path d="M303.008 226.93H293.63V215.133V213.901H292.396H281.814H280.58V215.133V251.642V252.873H281.814H292.396H293.63V251.642V238.756H303.008H304.241V237.497V228.162V226.93H303.008Z" fill="#231815"/>
<path d="M292.396 256.882H230.018V284.143C230.018 286.892 230.678 288.953 231.997 290.271C233.288 291.473 235.123 292.075 237.561 292.075H286.087C288.525 292.075 290.389 291.416 291.593 290.156C292.913 288.953 293.63 286.892 293.63 284.057V256.882H292.396ZM280.695 280.392H242.781V268.594H280.695V280.392Z" fill="#231815"/>
</g>
<defs>
<clipPath id="clip0_315_7">
<rect width="439" height="116" fill="white" transform="translate(36 181)"/>
</clipPath>
</defs>
</svg>
