<svg width="512" height="512" viewBox="0 0 512 512" fill="none" xmlns="http://www.w3.org/2000/svg">
<rect width="512" height="512" fill="white"/>
<g clip-path="url(#clip0_315_3)">
<path d="M55.2961 236.592C55.1469 236.592 54.9861 236.581 54.8254 236.547C53.5855 236.296 52.7819 235.087 53.046 233.855C54.1022 228.804 55.939 223.866 58.4991 219.18C60.7952 214.995 63.3323 210.354 66.9141 206.842C70.7141 203.113 75.1799 200.73 79.508 200.148C90.7587 198.609 93.3417 209.522 95.0523 216.74C95.2245 217.447 95.3852 218.142 95.5574 218.804C96.2577 221.552 97.1073 223.467 98.1635 224.642C98.3931 224.893 98.7145 225.166 98.8982 225.155C99.4263 225.064 101.435 224.072 104.937 215.28L105.098 214.869C106.739 210.799 108.748 206.705 112.353 204.299C114.603 202.805 117.198 202.281 119.677 202.828C125.532 204.116 127.232 208.746 128.724 212.817C129.378 214.619 129.642 216.477 129.895 218.268C130.079 219.613 130.262 220.879 130.595 222.031C130.687 222.35 130.767 222.681 130.859 223.023C131.066 223.844 131.296 224.699 131.571 225.28C131.755 225.657 131.904 225.851 131.984 225.93C132.627 225.725 134.189 224.3 135.83 221.574C136.944 219.727 137.851 217.777 138.804 215.713C139.079 215.109 139.366 214.516 139.642 213.912C139.86 213.456 140.055 212.988 140.262 212.509C141.123 210.491 142.098 208.21 144.199 206.625C146.61 204.812 149.618 204.059 152.672 204.538C155.852 205.029 158.71 206.785 160.524 209.362C162.086 211.585 162.464 212.372 163.417 214.767C163.716 215.531 163.991 216.375 164.29 217.264C164.875 219.054 165.541 221.084 166.414 222.361C169.215 226.444 172.062 230.115 176.115 230.218C177.377 230.252 178.388 231.301 178.353 232.556C178.319 233.81 177.274 234.802 176 234.779C169.261 234.608 165.266 228.793 162.614 224.938C161.374 223.125 160.605 220.776 159.916 218.689C159.652 217.88 159.399 217.104 159.135 216.432C158.286 214.288 158.079 213.855 156.759 211.985C155.657 210.422 153.912 209.35 151.96 209.054C150.146 208.769 148.378 209.202 146.966 210.263C145.841 211.118 145.175 212.657 144.475 214.299C144.245 214.824 144.027 215.36 143.786 215.862C143.511 216.443 143.235 217.036 142.96 217.629C141.995 219.716 140.996 221.871 139.745 223.923C137.885 227.014 134.946 230.617 131.686 230.514C130.435 230.457 128.678 229.853 127.415 227.276C126.933 226.284 126.635 225.155 126.382 224.163C126.302 223.855 126.221 223.559 126.141 223.273C125.728 221.814 125.521 220.332 125.314 218.895C125.085 217.264 124.867 215.725 124.373 214.379C122.892 210.32 121.893 207.994 118.656 207.275C117.416 207.001 116.073 207.287 114.879 208.085C112.307 209.795 110.688 213.17 109.334 216.557L109.173 216.945C106.843 222.795 103.892 228.884 99.6674 229.636C98.4045 229.864 96.5333 229.705 94.7079 227.675C93.1121 225.908 91.9526 223.445 91.0686 219.898C90.8964 219.214 90.7242 218.507 90.552 217.777C88.5889 209.533 86.6832 203.774 80.0935 204.664C76.7413 205.12 73.2053 207.036 70.1057 210.08C67.006 213.125 64.7444 217.264 62.5402 221.278C60.1408 225.657 58.4647 230.172 57.5003 234.779C57.2707 235.862 56.3178 236.592 55.2502 236.592H55.2961Z" fill="#231815"/>
<path d="M62.276 255.19C61.7709 255.19 61.2657 255.031 60.8525 254.7C59.8652 253.913 59.6929 252.476 60.4851 251.496L60.8639 251.028C66.1678 244.403 71.6439 237.55 80.7019 234.494C82.4813 233.89 85.1792 233.148 87.9344 233.012C93.6861 232.715 99.9198 234.015 104.581 236.49C105.316 236.877 106.062 237.288 106.831 237.71C112.881 241.017 119.735 244.757 125.98 242.088C127.84 241.29 129.769 240.013 130.985 238.747C131.227 238.496 131.479 238.234 131.72 237.972C133.086 236.524 134.625 234.882 136.691 233.833C139.366 232.464 142.305 232.453 145.083 232.544C149.997 232.727 153.142 235.509 155.921 237.961C157.092 238.998 158.194 239.967 159.422 240.788C161.856 242.419 165.254 243.377 167.826 243.217C171.901 242.944 174.358 241.735 177.217 238.61C178.066 237.675 179.524 237.607 180.465 238.451C181.407 239.295 181.476 240.743 180.626 241.678C176.987 245.646 173.371 247.414 168.147 247.767C164.519 248.018 160.191 246.786 156.874 244.574C155.393 243.582 154.118 242.453 152.878 241.37C150.364 239.146 148.183 237.219 144.923 237.094C142.581 237.003 140.491 237.003 138.804 237.869C137.437 238.565 136.289 239.785 135.072 241.074C134.808 241.347 134.556 241.621 134.292 241.895C132.65 243.594 130.216 245.224 127.782 246.262C119.471 249.808 111.228 245.304 104.615 241.689C103.869 241.279 103.134 240.88 102.423 240.503C98.5192 238.439 93.0661 237.311 88.1755 237.561C86.4076 237.653 84.3411 238.086 82.1828 238.816C74.4107 241.438 69.5775 247.471 64.4687 253.868L64.0899 254.335C63.6422 254.905 62.9648 255.19 62.2875 255.19H62.276Z" fill="#231815"/>
<path d="M140.905 266.947C130.813 266.947 122.352 262.089 116.739 257.665C110.046 252.385 103.467 250.184 96.6251 250.926C88.6463 251.792 82.378 258.007 76.6379 264.301C75.7884 265.236 74.3304 265.305 73.389 264.461C72.4476 263.617 72.3787 262.169 73.2283 261.234C79.5654 254.29 86.5454 247.425 96.1199 246.387C104.11 245.521 111.997 248.109 119.586 254.084C125.372 258.645 134.499 263.731 145.106 262.044C147.666 261.633 150.249 260.88 152.373 259.911C156.449 258.053 159.411 256.08 161.982 253.514C162.878 252.625 164.336 252.613 165.231 253.514C166.127 254.404 166.138 255.84 165.231 256.741C162.304 259.672 158.825 261.998 154.291 264.073C151.799 265.214 148.791 266.092 145.83 266.559C144.142 266.833 142.5 266.947 140.893 266.947H140.905Z" fill="#231815"/>
<path d="M161.293 285.865C161.293 285.865 161.19 285.865 161.133 285.865C154.072 285.386 146.978 283.117 140.962 280.973C137.954 279.89 135.095 278.59 132.685 277.449C123.569 273.128 114.948 269.057 105.017 270.322C95.6607 271.52 87.062 277.598 80.6215 282.752C79.6342 283.538 78.1877 283.39 77.3956 282.41C76.6034 281.429 76.7527 279.992 77.74 279.205C84.6511 273.675 93.9387 267.141 104.432 265.807C115.705 264.359 125.349 268.931 134.659 273.344C136.955 274.439 139.688 275.682 142.512 276.697C148.229 278.738 154.945 280.893 161.443 281.338C162.706 281.429 163.658 282.512 163.578 283.767C163.498 284.964 162.487 285.887 161.293 285.887V285.865Z" fill="#231815"/>
<path d="M164.898 303.858C164.232 302.627 163.509 301.418 162.74 300.243C157.092 291.623 147.196 285.226 137.426 282.193C134.567 281.303 131.56 280.642 128.586 280.231C125.142 279.752 121.445 279.479 117.967 279.718C114.075 279.98 110.333 281.143 106.647 282.307C100.781 284.165 95.5344 286.674 90.7242 290.699C85.7188 294.884 81.6089 299.263 78.7962 305.204C78.3255 306.207 77.4645 307.69 77.9696 308.807C77.9926 308.864 78.027 308.921 78.0615 308.978C80.1623 312.319 85.6614 311.909 88.9792 311.897C91.413 311.897 93.8468 311.909 96.2807 311.909C103.238 311.909 110.195 311.897 117.152 311.92C118.851 311.92 120.55 311.92 122.238 311.92C128.689 311.92 135.141 311.988 141.593 311.966C146.243 311.943 150.709 311.726 155.335 311.202C157.436 310.962 159.537 310.654 161.569 310.096C163.061 309.697 165.277 309.32 165.713 307.587C166.069 306.184 165.564 305.033 164.91 303.835L164.898 303.858ZM161.5 305.705C160.145 307.051 158.377 307.028 156.598 307.245C147.632 308.34 138.551 307.895 129.539 307.849C115.843 307.769 102.147 308.02 88.4511 307.724C87.9001 307.724 82.114 306.823 82.3321 306.515C83.2505 305.227 84.169 303.938 85.1448 302.684C92.0559 293.767 101.148 287.301 112.284 284.861C116.796 283.869 121.549 283.641 126.164 283.88C137.3 284.45 148.47 290.015 155.863 298.248C156.437 298.886 162.338 304.896 161.512 305.717L161.5 305.705Z" fill="#040000"/>
<path d="M289.953 242.795V232.658H268.967V220.867H256.522V255.555H268.967V242.795H289.953Z" fill="#231815"/>
<path d="M288.506 265.236H323.785V277.369H336V265.236H370.935V254.016H288.506V265.236Z" fill="#231815"/>
<path d="M240.829 259.125C231.036 259.125 223.103 267.004 223.103 276.731C223.103 286.457 231.036 294.337 240.829 294.337C250.622 294.337 258.554 286.457 258.554 276.731C258.554 267.004 250.622 259.125 240.829 259.125ZM240.829 282.911C237.396 282.911 234.607 280.14 234.607 276.731C234.607 273.321 237.396 270.55 240.829 270.55C244.261 270.55 247.051 273.321 247.051 276.731C247.051 280.14 244.261 282.911 240.829 282.911Z" fill="#231815"/>
<path d="M329.663 231.164L345.575 249.888L354.908 241.986L332.453 214.698L327.241 214.687L304.935 242.51L314.624 250.23L329.663 231.164Z" fill="#231815"/>
<path d="M244.939 247.482L224.412 231.632H241.885V221.152H199.052V231.632H216.686L196.343 247.151L204.643 256.194L220.382 243.023L236.983 255.954L244.939 247.482Z" fill="#231815"/>
<path d="M453.122 243.594V231.461V225.611V220.811H383.035V231.461H441.481V243.594H377.272V254.814H412.08V263.629H424.421V254.814H459V243.594H453.122Z" fill="#231815"/>
<path d="M395.308 261.804H382.978V280.688H383.494H395.308H453.696V270.391H395.308V261.804Z" fill="#231815"/>
</g>
<defs>
<clipPath id="clip0_315_3">
<rect width="406" height="112" fill="white" transform="translate(53 200)"/>
</clipPath>
</defs>
</svg>
