<svg width="512" height="200" viewBox="0 0 512 200" fill="none" xmlns="http://www.w3.org/2000/svg">
<rect width="512" height="200" fill="white"/>
<g clip-path="url(#clip0_315_3)">
<path d="M68.149 81.9785C68.0093 81.9785 67.8589 81.9679 67.7085 81.9362C66.548 81.7032 65.7959 80.5809 66.043 79.4373C67.0315 74.7466 68.7508 70.1618 71.1469 65.8099C73.2959 61.924 75.6706 57.6145 79.0231 54.3532C82.5797 50.8908 86.7595 48.6778 90.8104 48.1378C101.341 46.7083 103.758 56.8415 105.359 63.544C105.52 64.2005 105.671 64.8464 105.832 65.4605C106.488 68.0123 107.283 69.7912 108.271 70.8818C108.486 71.1148 108.787 71.3689 108.959 71.3583C109.453 71.2736 111.334 70.3524 114.611 62.1887L114.761 61.8075C116.298 58.0274 118.178 54.2261 121.552 51.992C123.658 50.6049 126.087 50.1178 128.407 50.6261C133.887 51.8226 135.478 56.1215 136.875 59.9016C137.487 61.5745 137.734 63.3005 137.971 64.9629C138.143 66.2123 138.314 67.3876 138.626 68.4571C138.712 68.7535 138.787 69.0606 138.873 69.3783C139.067 70.1406 139.282 70.9348 139.539 71.4748C139.711 71.8242 139.851 72.0042 139.926 72.0783C140.528 71.8877 141.989 70.5642 143.526 68.0335C144.568 66.3182 145.417 64.5076 146.309 62.591C146.567 62.0299 146.835 61.4793 147.093 60.9181C147.297 60.4945 147.48 60.0604 147.673 59.6157C148.479 57.7415 149.393 55.6238 151.359 54.152C153.615 52.4685 156.431 51.7696 159.289 52.2143C162.265 52.6696 164.941 54.3003 166.639 56.6933C168.1 58.758 168.454 59.4886 169.346 61.7122C169.626 62.4216 169.884 63.2052 170.163 64.0311C170.711 65.6935 171.334 67.5782 172.151 68.7641C174.773 72.5548 177.437 75.9643 181.23 76.0596C182.412 76.0913 183.358 77.0655 183.326 78.2302C183.293 79.395 182.316 80.3161 181.123 80.295C174.816 80.1361 171.076 74.736 168.594 71.1571C167.434 69.4736 166.714 67.2923 166.069 65.3546C165.822 64.6029 165.585 63.8828 165.338 63.2581C164.543 61.2675 164.35 60.8651 163.114 59.1286C162.083 57.678 160.449 56.6827 158.623 56.4074C156.925 56.1427 155.27 56.545 153.949 57.5298C152.896 58.3239 152.272 59.7533 151.617 61.2781C151.402 61.7651 151.198 62.2628 150.972 62.7287C150.714 63.2687 150.456 63.8193 150.199 64.3699C149.296 66.3076 148.361 68.3088 147.19 70.2147C145.449 73.0842 142.698 76.4302 139.647 76.3349C138.476 76.2819 136.832 75.7208 135.65 73.3278C135.198 72.4066 134.919 71.3583 134.683 70.4371C134.607 70.1512 134.532 69.8759 134.457 69.6112C134.07 68.2559 133.877 66.8794 133.683 65.5452C133.468 64.0311 133.264 62.6016 132.802 61.3522C131.416 57.5827 130.481 55.4226 127.451 54.7556C126.291 54.5014 125.034 54.7662 123.916 55.5074C121.509 57.0956 119.994 60.2298 118.726 63.3746L118.576 63.7346C116.394 69.1665 113.633 74.8207 109.679 75.5196C108.497 75.7313 106.745 75.5831 105.037 73.6984C103.543 72.0571 102.458 69.77 101.631 66.477C101.47 65.8417 101.308 65.1852 101.147 64.5076C99.3098 56.8521 97.5261 51.5049 91.3584 52.3308C88.2209 52.7544 84.9114 54.5332 82.0102 57.3603C79.109 60.1875 76.9922 64.0311 74.9292 67.7582C72.6835 71.8242 71.1147 76.0172 70.2121 80.295C69.9972 81.3009 69.1053 81.9785 68.1061 81.9785H68.149Z" fill="#231815"/>
<path d="M74.682 99.2482C74.2092 99.2482 73.7364 99.1 73.3496 98.7929C72.4255 98.0623 72.2643 96.7282 73.0058 95.8176L73.3603 95.3834C78.3246 89.2315 83.45 82.8679 91.9278 80.0302C93.5933 79.469 96.1184 78.7807 98.6973 78.6537C104.081 78.3784 109.915 79.5854 114.278 81.8831C114.965 82.2431 115.664 82.6243 116.384 83.0161C122.046 86.0868 128.461 89.5598 134.306 87.0821C136.047 86.3409 137.852 85.155 138.991 83.9797C139.217 83.7467 139.453 83.5032 139.679 83.2596C140.958 81.9149 142.398 80.3902 144.332 79.416C146.835 78.1454 149.586 78.1348 152.186 78.2195C156.785 78.3889 159.729 80.9725 162.33 83.2491C163.426 84.2126 164.457 85.1126 165.607 85.875C167.885 87.3891 171.065 88.2786 173.472 88.1303C177.287 87.8762 179.586 86.7538 182.262 83.8526C183.057 82.9843 184.422 82.9208 185.303 83.7044C186.184 84.4879 186.248 85.8326 185.453 86.7009C182.047 90.3857 178.662 92.0269 173.773 92.3551C170.378 92.5881 166.327 91.4445 163.222 89.3904C161.835 88.4692 160.643 87.4209 159.482 86.415C157.129 84.3502 155.087 82.5608 152.036 82.4443C149.844 82.3596 147.888 82.3596 146.309 83.1643C145.03 83.8102 143.956 84.9432 142.817 86.1397C142.569 86.3938 142.333 86.648 142.086 86.9021C140.549 88.4798 138.271 89.9939 135.993 90.9575C128.214 94.2505 120.499 90.068 114.31 86.7115C113.611 86.3303 112.924 85.9597 112.258 85.6103C108.604 83.6938 103.5 82.6455 98.9229 82.8785C97.2682 82.9632 95.334 83.3655 93.314 84.0432C86.0395 86.4785 81.5159 92.0798 76.7343 98.02L76.3797 98.4541C75.9606 98.9835 75.3267 99.2482 74.6927 99.2482H74.682Z" fill="#231815"/>
<path d="M148.275 110.165C138.83 110.165 130.911 105.654 125.657 101.546C119.392 96.6434 113.235 94.5998 106.831 95.2881C99.3634 96.0928 93.4966 101.864 88.1241 107.708C87.3289 108.577 85.9643 108.64 85.0832 107.857C84.2021 107.073 84.1376 105.728 84.9328 104.86C90.8641 98.4117 97.3971 92.0374 106.358 91.0739C113.837 90.2691 121.219 92.6727 128.321 98.2211C133.737 102.456 142.279 107.179 152.208 105.612C154.604 105.231 157.022 104.532 159.009 103.632C162.824 101.906 165.596 100.074 168.003 97.6917C168.841 96.8658 170.206 96.8552 171.044 97.6917C171.882 98.5176 171.893 99.8517 171.044 100.688C168.304 103.409 165.048 105.569 160.804 107.497C158.472 108.555 155.657 109.371 152.885 109.805C151.305 110.059 149.769 110.165 148.264 110.165H148.275Z" fill="#231815"/>
<path d="M167.358 127.731C167.358 127.731 167.262 127.731 167.208 127.731C160.6 127.287 153.959 125.179 148.329 123.189C145.514 122.183 142.838 120.976 140.582 119.917C132.05 115.904 123.98 112.124 114.686 113.299C105.929 114.411 97.8806 120.055 91.8526 124.841C90.9286 125.571 89.5747 125.434 88.8333 124.523C88.0919 123.612 88.2316 122.278 89.1556 121.548C95.6242 116.412 104.317 110.345 114.138 109.106C124.69 107.761 133.716 112.007 142.43 116.105C144.579 117.122 147.136 118.276 149.779 119.218C155.13 121.114 161.416 123.115 167.498 123.528C168.68 123.612 169.572 124.618 169.497 125.783C169.421 126.895 168.476 127.752 167.358 127.752V127.731Z" fill="#231815"/>
<path d="M170.732 144.44C170.109 143.297 169.432 142.174 168.712 141.084C163.426 133.079 154.163 127.139 145.019 124.322C142.344 123.496 139.529 122.882 136.746 122.501C133.522 122.056 130.062 121.802 126.806 122.024C123.164 122.268 119.661 123.348 116.212 124.428C110.721 126.154 105.811 128.483 101.308 132.221C96.6235 136.107 92.7767 140.173 90.1442 145.69C89.7036 146.621 88.8977 147.998 89.3705 149.035C89.392 149.088 89.4243 149.141 89.4565 149.194C91.4228 152.297 96.5697 151.916 99.6751 151.905C101.953 151.905 104.231 151.916 106.509 151.916C113.02 151.916 119.532 151.905 126.044 151.926C127.634 151.926 129.224 151.926 130.804 151.926C136.842 151.926 142.881 151.99 148.92 151.968C153.272 151.947 157.451 151.746 161.782 151.259C163.748 151.037 165.714 150.751 167.616 150.232C169.013 149.861 171.087 149.512 171.495 147.903C171.828 146.6 171.356 145.531 170.743 144.419L170.732 144.44ZM167.552 146.155C166.284 147.405 164.629 147.384 162.964 147.585C154.572 148.601 146.072 148.188 137.637 148.146C124.819 148.072 112 148.305 99.1808 148.03C98.665 148.03 93.2495 147.193 93.4537 146.907C94.3133 145.711 95.1729 144.514 96.0862 143.349C102.555 135.069 111.065 129.066 121.488 126.8C125.71 125.878 130.159 125.667 134.478 125.889C144.901 126.418 155.356 131.586 162.276 139.231C162.813 139.824 168.336 145.404 167.563 146.166L167.552 146.155Z" fill="#040000"/>
<path d="M287.779 87.7386V78.3254H268.137V67.377H256.489V99.5871H268.137V87.7386H287.779Z" fill="#231815"/>
<path d="M286.425 108.577H319.444V119.843H330.877V108.577H363.575V98.1577H286.425V108.577Z" fill="#231815"/>
<path d="M241.8 102.901C232.635 102.901 225.21 110.218 225.21 119.25C225.21 128.282 232.635 135.599 241.8 135.599C250.966 135.599 258.391 128.282 258.391 119.25C258.391 110.218 250.966 102.901 241.8 102.901ZM241.8 124.989C238.588 124.989 235.977 122.416 235.977 119.25C235.977 116.084 238.588 113.511 241.8 113.511C245.013 113.511 247.624 116.084 247.624 119.25C247.624 122.416 245.013 124.989 241.8 124.989Z" fill="#231815"/>
<path d="M324.946 76.9385L339.839 94.3248L348.574 86.987L327.557 61.6488L322.679 61.6382L301.801 87.4741L310.87 94.6425L324.946 76.9385Z" fill="#231815"/>
<path d="M245.647 92.0909L226.435 77.3729H242.789V67.6421H202.699V77.3729H219.204L200.163 91.7838L207.932 100.18L222.663 87.9508L238.201 99.9581L245.647 92.0909Z" fill="#231815"/>
<path d="M440.499 88.48V77.2139V71.782V67.3242H374.9V77.2139H429.603V88.48H369.506V98.899H402.085V107.084H413.636V98.899H446V88.48H440.499Z" fill="#231815"/>
<path d="M386.386 105.39H374.846V122.924H375.33H386.386H441.036V113.363H386.386V105.39Z" fill="#231815"/>
</g>
<defs>
<clipPath id="clip0_315_3">
<rect width="380" height="104" fill="white" transform="translate(66 48)"/>
</clipPath>
</defs>
</svg>
