<svg width="512" height="512" viewBox="0 0 512 512" fill="none" xmlns="http://www.w3.org/2000/svg">
<rect width="512" height="512" fill="white"/>
<g clip-path="url(#clip0_315_8)">
<path d="M240.628 133.201C181.525 133.201 136.954 178.901 136.954 239.497C136.954 241.978 138.915 243.988 141.332 243.988C143.749 243.988 145.71 241.978 145.71 239.497C145.71 185.539 184.347 144.603 236.245 142.396V221.948C236.245 224.429 238.206 226.44 240.623 226.44C243.04 226.44 245.001 224.429 245.001 221.948V137.692C245.001 135.211 243.04 133.201 240.623 133.201H240.628Z" fill="#1D1D1B"/>
<path d="M337.461 162.264C337.461 159.783 335.5 157.773 333.083 157.773H268.021C265.599 157.773 263.643 159.783 263.643 162.264C263.643 164.745 265.604 166.755 268.021 166.755H328.517C326.627 207.149 299.513 235.007 261.175 235.007C258.753 235.007 256.797 237.017 256.797 239.498C256.797 241.979 258.758 243.989 261.175 243.989C306.085 243.989 337.446 210.395 337.461 162.294C337.461 162.284 337.466 162.279 337.466 162.269L337.461 162.264Z" fill="#E68D00"/>
<path d="M255.5 77C168.102 77 97 149.9 97 239.503C97 329.105 168.102 402.005 255.5 402.005C342.898 402.005 414 329.105 414 239.503C414 149.9 342.898 77 255.5 77ZM255.5 393.448C201.971 393.448 154.927 364.563 128.33 321.222H240.623C243.04 321.222 245.001 319.212 245.001 316.731C245.001 314.25 243.04 312.24 240.623 312.24H234.73V261.543H240.623C243.04 261.543 245.001 259.532 245.001 257.051C245.001 254.571 243.04 252.56 240.623 252.56H203.917V243.994H247.474C249.891 243.994 251.857 241.983 251.857 239.503C251.857 237.022 249.896 235.011 247.474 235.011H158.449C156.032 235.011 154.071 237.022 154.071 239.503C154.071 241.983 156.032 243.994 158.449 243.994H195.155V252.56H165.295C162.878 252.56 160.917 254.571 160.917 257.051C160.917 259.532 162.878 261.543 165.295 261.543H199.513C199.513 261.543 199.528 261.543 199.533 261.543C199.539 261.543 199.549 261.543 199.554 261.543H210.57C189.1 268.555 173.2 288.398 171.406 312.24H123.202C111.816 290.565 105.341 265.796 105.341 239.497C105.341 154.613 172.703 85.5517 255.5 85.5517C289.379 85.5517 320.658 97.1261 345.812 116.599V221.949C345.812 224.429 347.773 226.44 350.19 226.44C352.607 226.44 354.568 224.429 354.568 221.949V123.956C385.857 152.188 405.654 193.509 405.654 239.497C405.654 324.387 338.297 393.448 255.495 393.448H255.5ZM180.172 312.24C182.341 287.932 201.915 268.763 225.974 267.877V312.24H180.172Z" fill="#E68D00"/>
<path d="M309.11 345.799C277.699 345.799 263.638 331.202 263.638 316.726V290.403C263.638 285.026 267.904 280.651 273.154 280.651H345.523C342.999 262.257 324.981 261.563 322.786 261.543H268.016C265.594 261.543 263.638 259.533 263.638 257.052C263.638 254.571 265.599 252.561 268.016 252.561H322.807C333.797 252.561 354.578 259.371 354.578 285.142V289.633H273.154C272.728 289.633 272.399 289.972 272.399 290.403V316.726C272.399 326.402 283.886 336.817 309.11 336.817C334.334 336.817 345.888 315.405 346.399 314.493C347.61 312.347 350.281 311.607 352.379 312.838C354.471 314.073 355.196 316.807 354 318.954C353.387 320.053 338.702 345.799 309.11 345.799Z" fill="#1D1D1B"/>
<path d="M274.046 149.839C275.049 151.125 276.235 152.112 277.648 152.811V154.497C277.648 154.796 277.552 155.049 277.35 155.241C277.157 155.434 276.909 155.525 276.635 155.495C274.335 154.391 272.536 152.629 271.279 150.173C269.688 153.074 267.565 154.867 264.905 155.565V153.414C264.905 153.176 264.976 152.953 265.128 152.776C265.28 152.593 265.452 152.477 265.66 152.401C266.896 151.788 267.935 150.816 268.786 149.5C269.607 148.274 270.017 146.588 270.017 144.391V133.966C270.017 133.723 270.088 133.515 270.25 133.333C270.402 133.171 270.595 133.085 270.813 133.085H272.556V144.391C272.556 146.72 273.047 148.533 274.051 149.829L274.046 149.839ZM280.38 133.363C280.532 133.525 280.613 133.738 280.613 133.991V139.576H282.092C282.325 139.576 282.518 139.662 282.67 139.829C282.822 139.991 282.903 140.204 282.903 140.437V142.351H280.613V155.56H278.859C278.682 155.56 278.515 155.484 278.393 155.348C278.272 155.211 278.201 155.034 278.201 154.841V133.105H279.817C280.04 133.105 280.228 133.191 280.38 133.358V133.363Z" fill="#1D1D1B"/>
<path d="M295.297 135.561H285.938C285.842 135.561 285.801 135.616 285.801 135.723V141.996H295.297V142.983C295.297 143.368 295.176 143.697 294.912 143.966C294.654 144.249 294.35 144.386 293.995 144.386H283.607V134.584C283.607 134.199 283.729 133.87 283.987 133.586C284.236 133.303 284.54 133.171 284.894 133.171H293.99C294.345 133.171 294.644 133.303 294.907 133.586C295.166 133.87 295.292 134.199 295.292 134.584V135.556L295.297 135.561ZM286.323 146.107L286.349 152.907L299.696 152.851V154.375C299.696 154.674 299.615 154.948 299.422 155.15C299.245 155.363 299.022 155.464 298.763 155.479L284.981 155.54C284.707 155.54 284.489 155.434 284.297 155.226C284.119 155.018 284.038 154.75 284.023 154.451L283.993 146.715C283.993 146.568 284.033 146.416 284.114 146.295C284.21 146.188 284.322 146.133 284.443 146.133L286.323 146.117V146.107ZM300.82 137.5L299.407 137.485V133.171H298.008C297.79 133.171 297.583 133.257 297.42 133.439C297.258 133.622 297.177 133.829 297.177 134.077V144.239H298.728C298.905 144.239 299.072 144.163 299.209 144.016C299.346 143.88 299.417 143.702 299.417 143.49V139.92H301.662V138.411C301.662 138.158 301.581 137.935 301.418 137.753C301.251 137.591 301.059 137.5 300.831 137.5H300.82Z" fill="#1D1D1B"/>
<path d="M311.973 133.11H313.073C313.362 133.11 313.61 133.217 313.813 133.439C314.015 133.662 314.112 133.931 314.112 134.245V143.009C314.112 143.323 314.015 143.581 313.813 143.804C313.605 144.027 313.362 144.148 313.073 144.148H302.645V134.245C302.645 133.931 302.741 133.662 302.949 133.439C303.156 133.217 303.4 133.11 303.688 133.11H304.783V137.814H311.973V133.11ZM316.594 145.733H317.664C317.978 145.733 318.236 145.854 318.459 146.108C318.677 146.351 318.783 146.634 318.783 146.963V154.34C318.783 154.685 318.677 154.983 318.459 155.221C318.236 155.464 317.978 155.581 317.664 155.581H303.07V146.963C303.07 146.634 303.182 146.351 303.415 146.108C303.638 145.859 303.896 145.733 304.195 145.733H305.264V148.406H316.594V145.733ZM304.783 141.834H311.755C311.907 141.834 311.973 141.758 311.973 141.596V140.087H304.783V141.834ZM305.264 153.069H316.346C316.513 153.069 316.594 152.978 316.594 152.796V150.857H305.264V153.069ZM317.441 137.88V134.26C317.441 133.981 317.537 133.723 317.745 133.526C317.937 133.333 318.17 133.227 318.444 133.227H319.706V143.773C319.706 143.91 319.665 144.027 319.569 144.133C319.473 144.239 319.351 144.28 319.214 144.28H317.446V140.305H314.639V138.903C314.639 138.619 314.735 138.376 314.938 138.184C315.13 137.971 315.363 137.875 315.637 137.875H317.441V137.88Z" fill="#1D1D1B"/>
<path d="M328.188 144.33H325.31C324.008 144.33 322.903 143.824 321.971 142.821C321.054 141.804 320.587 140.599 320.587 139.176V138.31C320.587 136.877 321.054 135.667 321.971 134.665C322.903 133.652 324.013 133.156 325.31 133.156H328.188C329.49 133.156 330.6 133.652 331.532 134.665C332.45 135.662 332.916 136.877 332.916 138.31V139.176C332.916 140.599 332.45 141.804 331.532 142.821C330.6 143.819 329.49 144.33 328.188 144.33ZM323.607 146.123V152.922L336.817 152.938V154.462C336.817 154.76 336.706 155.013 336.503 155.236C336.295 155.444 336.052 155.545 335.748 155.545H322.32C322.021 155.545 321.758 155.429 321.555 155.216C321.347 155.008 321.251 154.74 321.251 154.441L321.236 146.705C321.236 146.558 321.292 146.406 321.388 146.285C321.499 146.178 321.621 146.123 321.758 146.123H323.607ZM325.325 135.753C324.626 135.753 324.033 136.022 323.526 136.573C323.035 137.115 322.787 137.753 322.787 138.518V138.953C322.787 139.718 323.035 140.371 323.526 140.907C324.033 141.449 324.621 141.713 325.325 141.713H328.173C328.872 141.713 329.46 141.444 329.951 140.907C330.458 140.366 330.706 139.713 330.706 138.953V138.518C330.706 137.753 330.463 137.115 329.951 136.573C329.46 136.022 328.867 135.753 328.173 135.753H325.325ZM336.817 143.49V133.171H335.419C335.201 133.171 334.993 133.257 334.831 133.439C334.664 133.622 334.583 133.829 334.583 134.077V144.239H336.133C336.311 144.239 336.478 144.163 336.615 144.016C336.752 143.88 336.822 143.702 336.822 143.49H336.817Z" fill="#1D1D1B"/>
</g>
<defs>
<clipPath id="clip0_315_8">
<rect width="317" height="325" fill="white" transform="translate(97 77)"/>
</clipPath>
</defs>
</svg>
