<svg width="512" height="512" viewBox="0 0 512 512" fill="none" xmlns="http://www.w3.org/2000/svg">
<rect width="512" height="512" fill="white"/>
<g clip-path="url(#clip0_315_11)">
<path d="M250.708 278.936L261.021 267.458H266.038L254.982 279.723L266.015 292.172H260.858L250.731 280.695V292.172H246.597V267.482H250.731V278.959L250.708 278.936Z" fill="#595757"/>
<path d="M275.004 292.589C272.402 292.589 270.173 291.686 268.338 289.905C266.503 288.123 265.574 285.925 265.574 283.287C265.574 280.649 266.503 278.45 268.338 276.668C270.173 274.887 272.402 273.984 275.004 273.984C277.605 273.984 279.859 274.887 281.694 276.668C283.529 278.473 284.434 280.672 284.434 283.287C284.434 285.901 283.505 288.123 281.694 289.905C279.859 291.686 277.629 292.589 275.004 292.589ZM275.004 289.257C276.467 289.257 277.745 288.701 278.79 287.567C279.835 286.434 280.37 285.022 280.37 283.287C280.37 281.551 279.835 280.163 278.79 279.029C277.745 277.895 276.467 277.316 275.004 277.316C273.541 277.316 272.31 277.895 271.241 279.029C270.196 280.186 269.662 281.597 269.662 283.287C269.662 284.976 270.196 286.434 271.241 287.567C272.31 288.678 273.564 289.257 275.004 289.257Z" fill="#595757"/>
<path d="M287.919 292.149V274.4H291.728V277.062C292.332 276.182 293.052 275.511 293.888 275.048C294.91 274.424 296.118 274.123 297.488 274.123H297.767V277.733H297.349C295.653 277.733 294.329 278.242 293.331 279.26C292.402 280.255 291.937 281.805 291.937 283.911V292.172H287.919V292.149Z" fill="#595757"/>
<path d="M303.226 285.068C303.458 286.156 303.969 287.035 304.759 287.73C305.897 288.771 307.407 289.28 309.265 289.28C311.239 289.28 313.074 288.563 314.77 287.128L315.978 290.113C314.05 291.756 311.773 292.589 309.149 292.589C306.129 292.589 303.69 291.733 301.809 290.044C299.927 288.331 298.975 286.11 298.975 283.356C298.975 280.602 299.811 278.404 301.484 276.645C303.156 274.887 305.339 274.007 308.057 274.007C310.775 274.007 312.888 274.887 314.584 276.622C316.28 278.358 317.139 280.533 317.139 283.101C317.139 283.819 317.069 284.467 316.953 285.092H303.226V285.068ZM303.156 281.875H313.051C313.004 280.718 312.517 279.654 311.588 278.705C310.658 277.756 309.497 277.27 308.057 277.27C306.617 277.27 305.386 277.779 304.433 278.82C303.737 279.607 303.318 280.625 303.156 281.875Z" fill="#595757"/>
<path d="M328.265 280.718H332.469C332.469 279.561 332.028 278.705 331.122 278.126C330.216 277.548 328.915 277.247 327.22 277.247H327.104C325.501 277.247 323.782 277.64 321.97 278.381L320.948 275.234C322.83 274.424 324.874 274.007 327.127 273.984H327.197C330.193 273.984 332.469 274.563 334.072 275.697C335.675 276.854 336.464 278.658 336.464 281.181V292.172H332.632V290.229C331.865 290.992 330.936 291.571 329.844 291.987C328.73 292.404 327.615 292.612 326.476 292.612C324.34 292.612 322.621 292.057 321.297 290.923C319.973 289.789 319.322 288.424 319.322 286.804C319.322 284.976 320.135 283.495 321.785 282.291C323.294 281.25 325.454 280.741 328.265 280.741V280.718ZM327.15 289.396C328.195 289.396 329.217 289.141 330.239 288.632C331.261 288.123 332.005 287.544 332.446 286.873V283.865H328.846C326.802 283.865 325.385 284.12 324.572 284.652C323.782 285.23 323.387 285.948 323.387 286.781C323.387 287.544 323.712 288.169 324.386 288.655C325.06 289.141 325.965 289.396 327.127 289.396H327.15Z" fill="#595757"/>
<path d="M356.092 292.149H351.934V267.458H367.659V270.883H356.092V278.034H367.334V281.435H356.092V292.126V292.149Z" fill="#595757"/>
<path d="M379.854 292.589C377.252 292.589 375.022 291.686 373.187 289.905C371.352 288.123 370.423 285.925 370.423 283.287C370.423 280.649 371.352 278.45 373.187 276.668C375.022 274.887 377.252 273.984 379.854 273.984C382.455 273.984 384.708 274.887 386.543 276.668C388.378 278.473 389.284 280.672 389.284 283.287C389.284 285.901 388.378 288.123 386.543 289.905C384.731 291.686 382.478 292.589 379.854 292.589ZM379.854 289.257C381.317 289.257 382.595 288.701 383.64 287.567C384.685 286.434 385.219 285.022 385.219 283.287C385.219 281.551 384.685 280.163 383.64 279.029C382.595 277.895 381.317 277.316 379.854 277.316C378.39 277.316 377.159 277.895 376.114 279.029C375.046 280.186 374.535 281.597 374.535 283.287C374.535 284.976 375.069 286.434 376.114 287.567C377.159 288.678 378.414 289.257 379.854 289.257Z" fill="#595757"/>
<path d="M392.768 292.149V274.4H396.578V277.062C397.158 276.182 397.902 275.511 398.738 275.048C399.76 274.424 400.944 274.123 402.338 274.123H402.617V277.733H402.199C400.503 277.733 399.179 278.242 398.18 279.26C397.251 280.255 396.787 281.805 396.787 283.911V292.172H392.768V292.149Z" fill="#595757"/>
<path d="M408.075 285.068C408.308 286.156 408.819 287.035 409.608 287.73C410.746 288.771 412.256 289.28 414.114 289.28C415.973 289.28 417.924 288.563 419.619 287.128L420.827 290.113C418.899 291.756 416.623 292.589 413.998 292.589C410.979 292.589 408.54 291.733 406.658 290.044C404.777 288.331 403.825 286.11 403.825 283.356C403.825 280.602 404.661 278.404 406.333 276.645C408.006 274.887 410.189 274.007 412.883 274.007C415.578 274.007 417.715 274.887 419.41 276.622C421.106 278.358 421.965 280.533 421.965 283.101C421.965 283.819 421.919 284.467 421.78 285.092H408.052L408.075 285.068ZM408.006 281.875H417.901C417.854 280.718 417.366 279.654 416.437 278.705C415.508 277.756 414.324 277.27 412.907 277.27C411.49 277.27 410.235 277.779 409.283 278.82C408.609 279.607 408.168 280.625 408.006 281.875Z" fill="#595757"/>
<path d="M423.8 288.863L426.332 286.272C427.052 287.243 427.819 287.984 428.678 288.539C429.514 289.025 430.397 289.28 431.349 289.28C432.302 289.28 433.022 289.095 433.649 288.724C434.276 288.354 434.601 287.868 434.601 287.267C434.601 286.665 434.299 286.179 433.695 285.832C433.091 285.485 432.371 285.161 431.535 284.86C430.56 284.559 429.561 284.212 428.539 283.842C427.168 283.356 426.146 282.708 425.519 281.921C424.892 281.134 424.567 280.255 424.567 279.26C424.567 277.802 425.264 276.553 426.634 275.511C428.005 274.493 429.631 273.961 431.512 273.961C433.51 273.961 435.136 274.424 436.39 275.372C437.04 275.858 437.551 276.483 437.923 277.224L435.437 279.63C435.112 279.052 434.717 278.589 434.276 278.242C433.486 277.571 432.511 277.224 431.326 277.224C430.629 277.224 430.049 277.386 429.538 277.733C429.027 278.08 428.771 278.496 428.771 278.959C428.771 279.468 429.05 279.908 429.631 280.278C430.211 280.625 431.047 280.972 432.162 281.296C432.557 281.412 433.022 281.551 433.556 281.713C435.275 282.291 436.599 283.009 437.481 283.911C438.364 284.814 438.829 285.878 438.829 287.128C438.829 288.586 438.109 289.858 436.692 290.946C435.275 292.01 433.463 292.566 431.256 292.566C429.398 292.566 427.772 292.149 426.355 291.293C425.403 290.738 424.59 289.905 423.893 288.863H423.8Z" fill="#595757"/>
<path d="M447.121 268.708V274.401H451V277.663H447.121V286.711C447.121 287.567 447.33 288.146 447.748 288.47C448.166 288.794 448.747 288.956 449.513 288.956H451V292.172H448.538C446.61 292.172 445.216 291.756 444.334 290.9C443.451 290.043 443.01 288.794 443.01 287.105V277.686H439.944V274.424H443.01V268.731H447.098L447.121 268.708Z" fill="#595757"/>
<path d="M246.597 330.585L249.337 327.831C250.081 329.382 250.987 330.539 252.125 331.256C253.333 332.066 254.54 332.46 255.795 332.46C257.095 332.46 258.21 332.112 259.139 331.441C260.069 330.77 260.533 329.891 260.533 328.827C260.533 327.855 260.069 327.068 259.139 326.466C258.21 325.865 257.188 325.355 256.097 324.916C255.005 324.522 253.867 324.083 252.682 323.597C250.778 322.926 249.43 322.023 248.617 320.913C247.804 319.802 247.386 318.622 247.386 317.395C247.386 315.498 248.199 313.855 249.848 312.489C251.474 311.124 253.495 310.453 255.864 310.453C258.35 310.453 260.394 311.101 261.95 312.374C262.763 312.975 263.32 313.67 263.622 314.433L261.137 317.048C260.928 316.632 260.533 316.146 259.976 315.59C258.768 314.503 257.328 313.97 255.679 313.97C254.633 313.97 253.727 314.248 252.914 314.85C252.125 315.428 251.73 316.215 251.73 317.164C251.73 318.622 253.333 319.941 256.561 321.075C257.165 321.26 257.769 321.468 258.396 321.722C260.556 322.555 262.182 323.527 263.251 324.638C264.319 325.749 264.877 327.16 264.877 328.803C264.877 330.77 264.04 332.46 262.345 333.871C260.672 335.306 258.536 336.023 255.911 336.023C253.495 336.023 251.474 335.491 249.895 334.403C248.339 333.339 247.27 332.066 246.666 330.608L246.597 330.585Z" fill="#595757"/>
<path d="M271.52 328.479C271.752 329.567 272.263 330.446 273.053 331.141C274.191 332.182 275.701 332.691 277.582 332.691C279.464 332.691 281.392 331.974 283.087 330.516L284.295 333.501C282.367 335.167 280.091 335.977 277.466 335.977C274.447 335.977 272.008 335.121 270.126 333.431C268.245 331.719 267.292 329.498 267.292 326.721C267.292 323.944 268.129 321.769 269.801 320.01C271.473 318.251 273.657 317.372 276.374 317.372C279.092 317.372 281.206 318.251 282.901 319.987C284.597 321.746 285.433 323.898 285.433 326.466C285.433 327.16 285.387 327.831 285.247 328.456H271.52V328.479ZM271.45 325.286H281.322C281.275 324.129 280.788 323.065 279.859 322.116C278.929 321.167 277.768 320.681 276.328 320.681C274.888 320.681 273.634 321.213 272.704 322.232C272.008 323.018 271.59 324.036 271.427 325.286H271.45Z" fill="#595757"/>
<path d="M288.871 335.56V317.812H292.68V320.473C293.284 319.594 294.004 318.923 294.864 318.46C295.886 317.858 297.07 317.534 298.441 317.534H298.719V321.144H298.301C296.629 321.144 295.282 321.653 294.283 322.671C293.354 323.666 292.889 325.217 292.889 327.299V335.56H288.871Z" fill="#595757"/>
<path d="M309.172 332.205L313.934 317.812H318.138L311.936 335.56H306.385L300.183 317.812H304.387L309.149 332.205H309.172Z" fill="#595757"/>
<path d="M325.176 312.813C325.176 313.508 324.92 314.086 324.409 314.618C323.898 315.127 323.294 315.382 322.574 315.382C321.854 315.382 321.25 315.127 320.739 314.618C320.228 314.109 319.973 313.508 319.973 312.813C319.973 312.119 320.228 311.494 320.739 310.985C321.25 310.476 321.854 310.222 322.574 310.222C323.294 310.222 323.898 310.476 324.409 310.985C324.92 311.494 325.176 312.096 325.176 312.813ZM320.577 335.56V317.812H324.641V335.56H320.577Z" fill="#595757"/>
<path d="M328.335 326.721C328.335 324.175 329.31 321.977 331.238 320.149C333.166 318.321 335.628 317.395 338.578 317.395C340.901 317.395 343.084 318.136 345.128 319.64L343.804 322.787C342.039 321.422 340.274 320.727 338.578 320.727C336.743 320.727 335.28 321.306 334.142 322.463C333.003 323.62 332.423 325.032 332.423 326.721C332.423 328.41 333.003 329.822 334.142 330.955C335.28 332.112 336.766 332.668 338.578 332.668C340.32 332.668 342.085 331.997 343.874 330.655L345.198 333.802C343.224 335.26 341.017 336 338.578 336C335.628 336 333.166 335.098 331.238 333.269C329.31 331.441 328.335 329.266 328.335 326.721Z" fill="#595757"/>
<path d="M351.795 328.479C352.027 329.567 352.538 330.446 353.328 331.141C354.466 332.182 355.976 332.691 357.834 332.691C359.808 332.691 361.643 331.974 363.339 330.516L364.547 333.501C362.619 335.167 360.342 335.977 357.718 335.977C354.698 335.977 352.259 335.121 350.378 333.431C348.496 331.719 347.544 329.498 347.544 326.721C347.544 323.944 348.38 321.769 350.053 320.01C351.725 318.251 353.908 317.372 356.626 317.372C359.344 317.372 361.457 318.251 363.153 319.987C364.849 321.746 365.685 323.898 365.685 326.466C365.685 327.16 365.638 327.831 365.499 328.456H351.771L351.795 328.479ZM351.725 325.286H361.62C361.573 324.129 361.086 323.065 360.157 322.116C359.227 321.167 358.066 320.681 356.626 320.681C355.186 320.681 353.955 321.213 353.002 322.232C352.306 323.018 351.888 324.036 351.725 325.286Z" fill="#595757"/>
<path d="M164.951 231.036C151.804 222.127 134.941 225.76 126.115 239.158C118.728 250.358 107.579 251.746 103.259 251.746C89.1827 251.746 79.5432 241.888 76.6862 231.684C76.6862 231.684 76.6397 231.498 76.6165 231.406C76.5933 231.29 76.5468 231.175 76.5236 231.059C75.4086 226.801 75.1299 224.765 75.1299 220.252C75.1299 195.839 100.262 168.673 136.474 168.673C172.686 168.673 194.776 196.788 200.234 212.408C200.141 212.13 200.072 211.852 199.955 211.575C189.41 180.983 160.306 159 126.068 159C82.9576 159 48 193.826 48 236.774C48 275.164 75.7803 308.023 114.338 308.023C145.092 308.023 165.764 290.853 175.241 267.181C180.444 254.245 176.751 239.019 164.951 231.036Z" fill="#003668"/>
<path d="M200.675 213.889C196.123 198.639 174.753 168.626 136.428 168.626C100.216 168.626 75.0835 195.793 75.0835 220.206C75.0835 224.742 75.3622 226.755 76.4771 231.013C76.0126 229.138 75.7571 227.287 75.7571 225.459C75.7571 200.051 101.307 182.418 127.578 182.418C163.14 182.418 191.942 211.135 191.942 246.54C191.942 274.308 175.915 298.328 152.594 309.875C182.651 299.068 204.067 270.397 204.067 236.751C204.067 228.791 202.998 221.757 200.629 213.866L200.675 213.889Z" fill="#E6002D"/>
<path d="M265.179 175.731L283.83 205.396L277.861 209.168L265.179 188.504L252.705 209.724L246.597 205.859L265.179 175.708V175.731ZM257.908 215V228.514H298.603V235.132H250.383V215H257.908ZM297.07 214.676H289.614V176.078H297.07V189.916H305.757V197.274H297.07V214.653V214.676Z" fill="#595757"/>
<path d="M355.906 206.276H320.159V188.851H346.336V183.714H320.159V177.281H353.862V194.983H327.615V200.259H355.906V206.276ZM323.41 212.639H370.957V235.155H323.41V212.639ZM363.501 218.656H330.867V228.93H363.501V218.656ZM363.432 176.078H370.957V208.983H363.432V176.078Z" fill="#595757"/>
<path d="M385.986 187.37V181.076H400.155V175.337H408.168V181.076H421.663V187.37H406.937L422.198 202.782L417.32 207.386L404.15 193.734L391.119 208.474L386.102 203.823L401.432 187.393H385.963L385.986 187.37ZM434.299 223.515C434.299 225.552 433.881 227.449 433.045 229.231C432.209 231.013 431.094 232.563 429.677 233.928C428.283 235.294 426.611 236.335 424.683 237.145C422.755 237.932 420.711 238.325 418.551 238.325C416.391 238.325 414.393 237.932 412.442 237.145C410.491 236.358 408.819 235.294 407.425 233.928C406.031 232.586 404.916 231.013 404.08 229.231C403.244 227.449 402.826 225.552 402.826 223.515C402.826 221.479 403.244 219.581 404.08 217.8C404.916 216.018 406.031 214.444 407.425 213.102C408.842 211.76 410.514 210.672 412.442 209.886C414.393 209.099 416.414 208.705 418.551 208.705C420.688 208.705 422.755 209.099 424.683 209.886C426.611 210.672 428.26 211.737 429.677 213.102C431.071 214.444 432.186 216.018 433.045 217.8C433.881 219.581 434.299 221.479 434.299 223.515ZM426.89 223.446C426.89 221.201 426.077 219.257 424.428 217.638C422.778 216.018 420.804 215.185 418.481 215.185C416.158 215.185 414.277 215.995 412.651 217.638C411.025 219.257 410.212 221.201 410.212 223.446C410.212 225.69 411.025 227.704 412.651 229.3C414.277 230.897 416.228 231.707 418.481 231.707C420.734 231.707 422.755 230.897 424.428 229.3C426.077 227.704 426.89 225.737 426.89 223.446ZM431.907 208.173V196.672H421.338V190.263H431.907V176.078H439.433V208.173H431.907Z" fill="#595757"/>
</g>
<defs>
<clipPath id="clip0_315_11">
<rect width="403" height="177" fill="white" transform="translate(48 159)"/>
</clipPath>
</defs>
</svg>
