<svg width="512" height="200" viewBox="0 0 512 200" fill="none" xmlns="http://www.w3.org/2000/svg">
<rect width="512" height="200" fill="white"/>
<g clip-path="url(#clip0_315_11)">
<path d="M250.48 125.898L258.848 116.625H262.919L253.948 126.533L262.9 136.591H258.716L250.499 127.318V136.591H247.144V116.643H250.499V125.916L250.48 125.898Z" fill="#595757"/>
<path d="M270.194 136.928C268.083 136.928 266.274 136.199 264.785 134.759C263.296 133.32 262.542 131.543 262.542 129.412C262.542 127.281 263.296 125.505 264.785 124.065C266.274 122.626 268.083 121.897 270.194 121.897C272.305 121.897 274.133 122.626 275.622 124.065C277.111 125.524 277.846 127.3 277.846 129.412C277.846 131.525 277.092 133.32 275.622 134.759C274.133 136.199 272.324 136.928 270.194 136.928ZM270.194 134.236C271.382 134.236 272.418 133.787 273.266 132.871C274.115 131.955 274.548 130.814 274.548 129.412C274.548 128.01 274.115 126.888 273.266 125.972C272.418 125.056 271.382 124.589 270.194 124.589C269.007 124.589 268.008 125.056 267.141 125.972C266.293 126.907 265.859 128.047 265.859 129.412C265.859 130.777 266.293 131.955 267.141 132.871C268.008 133.768 269.026 134.236 270.194 134.236Z" fill="#595757"/>
<path d="M280.673 136.573V122.233H283.764V124.383C284.254 123.673 284.839 123.131 285.517 122.757C286.346 122.252 287.326 122.009 288.438 122.009H288.665V124.925H288.325C286.95 124.925 285.875 125.337 285.065 126.159C284.311 126.963 283.934 128.216 283.934 129.917V136.591H280.673V136.573Z" fill="#595757"/>
<path d="M293.094 130.852C293.282 131.731 293.697 132.441 294.338 133.002C295.261 133.843 296.486 134.254 297.994 134.254C299.596 134.254 301.085 133.675 302.461 132.516L303.441 134.927C301.877 136.255 300.03 136.928 297.9 136.928C295.45 136.928 293.471 136.236 291.944 134.871C290.417 133.488 289.645 131.693 289.645 129.468C289.645 127.244 290.323 125.468 291.68 124.047C293.037 122.626 294.809 121.916 297.014 121.916C299.219 121.916 300.934 122.626 302.31 124.028C303.686 125.43 304.383 127.188 304.383 129.263C304.383 129.842 304.327 130.366 304.232 130.871H293.094V130.852ZM293.037 128.272H301.066C301.028 127.337 300.633 126.477 299.879 125.711C299.125 124.944 298.182 124.552 297.014 124.552C295.845 124.552 294.847 124.963 294.074 125.804C293.508 126.44 293.169 127.262 293.037 128.272Z" fill="#595757"/>
<path d="M313.411 127.337H316.822C316.822 126.402 316.464 125.711 315.729 125.243C314.994 124.776 313.939 124.533 312.563 124.533H312.469C311.168 124.533 309.774 124.851 308.303 125.449L307.474 122.906C309.001 122.252 310.659 121.915 312.488 121.897H312.544C314.975 121.897 316.822 122.364 318.123 123.28C319.423 124.215 320.064 125.673 320.064 127.711V136.591H316.954V135.021C316.332 135.638 315.578 136.105 314.693 136.442C313.788 136.778 312.883 136.946 311.96 136.946C310.226 136.946 308.831 136.498 307.757 135.582C306.683 134.666 306.155 133.563 306.155 132.254C306.155 130.777 306.815 129.58 308.153 128.608C309.378 127.767 311.131 127.356 313.411 127.356V127.337ZM312.506 134.348C313.355 134.348 314.184 134.142 315.013 133.731C315.842 133.32 316.445 132.852 316.804 132.31V129.88H313.882C312.224 129.88 311.074 130.085 310.414 130.515C309.774 130.983 309.453 131.562 309.453 132.235C309.453 132.852 309.717 133.357 310.264 133.75C310.81 134.142 311.545 134.348 312.488 134.348H312.506Z" fill="#595757"/>
<path d="M335.99 136.573H332.616V116.625H345.376V119.392H335.99V125.168H345.112V127.917H335.99V136.554V136.573Z" fill="#595757"/>
<path d="M355.271 136.928C353.16 136.928 351.351 136.199 349.862 134.759C348.373 133.32 347.619 131.543 347.619 129.412C347.619 127.281 348.373 125.505 349.862 124.065C351.351 122.626 353.16 121.897 355.271 121.897C357.382 121.897 359.21 122.626 360.699 124.065C362.188 125.524 362.923 127.3 362.923 129.412C362.923 131.525 362.188 133.32 360.699 134.759C359.229 136.199 357.401 136.928 355.271 136.928ZM355.271 134.236C356.458 134.236 357.495 133.787 358.343 132.871C359.191 131.955 359.625 130.814 359.625 129.412C359.625 128.01 359.191 126.888 358.343 125.972C357.495 125.056 356.458 124.589 355.271 124.589C354.083 124.589 353.085 125.056 352.236 125.972C351.369 126.907 350.955 128.047 350.955 129.412C350.955 130.777 351.388 131.955 352.236 132.871C353.085 133.768 354.102 134.236 355.271 134.236Z" fill="#595757"/>
<path d="M365.75 136.573V122.233H368.841V124.383C369.312 123.673 369.915 123.131 370.594 122.757C371.423 122.252 372.384 122.009 373.515 122.009H373.741V124.925H373.402C372.026 124.925 370.952 125.337 370.141 126.159C369.387 126.963 369.01 128.216 369.01 129.917V136.591H365.75V136.573Z" fill="#595757"/>
<path d="M378.17 130.852C378.359 131.731 378.773 132.441 379.414 133.002C380.338 133.843 381.563 134.254 383.071 134.254C384.578 134.254 386.161 133.675 387.537 132.516L388.517 134.927C386.953 136.255 385.106 136.928 382.976 136.928C380.526 136.928 378.547 136.236 377.021 134.871C375.494 133.488 374.721 131.693 374.721 129.468C374.721 127.244 375.4 125.468 376.757 124.047C378.114 122.626 379.885 121.916 382.072 121.916C384.258 121.916 385.992 122.626 387.368 124.028C388.744 125.43 389.441 127.188 389.441 129.263C389.441 129.842 389.403 130.366 389.29 130.871H378.151L378.17 130.852ZM378.114 128.272H386.143C386.105 127.337 385.709 126.477 384.955 125.711C384.201 124.944 383.24 124.552 382.09 124.552C380.941 124.552 379.923 124.963 379.15 125.804C378.604 126.44 378.246 127.262 378.114 128.272Z" fill="#595757"/>
<path d="M390.93 133.918L392.984 131.824C393.568 132.609 394.19 133.207 394.888 133.656C395.566 134.049 396.282 134.254 397.055 134.254C397.828 134.254 398.412 134.105 398.921 133.806C399.43 133.507 399.694 133.114 399.694 132.628C399.694 132.142 399.449 131.749 398.959 131.469C398.469 131.188 397.884 130.927 397.206 130.684C396.414 130.441 395.604 130.16 394.775 129.861C393.663 129.468 392.833 128.945 392.325 128.309C391.816 127.674 391.552 126.963 391.552 126.159C391.552 124.982 392.117 123.972 393.229 123.131C394.341 122.308 395.661 121.878 397.187 121.878C398.808 121.878 400.127 122.252 401.145 123.019C401.673 123.411 402.087 123.916 402.389 124.514L400.372 126.459C400.108 125.991 399.788 125.617 399.43 125.337C398.789 124.795 397.998 124.514 397.036 124.514C396.471 124.514 396 124.645 395.585 124.926C395.17 125.206 394.963 125.542 394.963 125.916C394.963 126.328 395.189 126.683 395.661 126.982C396.132 127.262 396.81 127.543 397.715 127.805C398.035 127.898 398.412 128.01 398.846 128.141C400.24 128.608 401.315 129.188 402.031 129.917C402.747 130.646 403.124 131.506 403.124 132.516C403.124 133.694 402.54 134.722 401.39 135.6C400.24 136.46 398.77 136.909 396.98 136.909C395.472 136.909 394.153 136.573 393.003 135.881C392.23 135.432 391.571 134.759 391.005 133.918H390.93Z" fill="#595757"/>
<path d="M409.853 117.634V122.233H413V124.869H409.853V132.179C409.853 132.871 410.022 133.338 410.361 133.6C410.701 133.862 411.172 133.993 411.794 133.993H413V136.591H411.002C409.438 136.591 408.307 136.255 407.591 135.563C406.875 134.871 406.517 133.862 406.517 132.497V124.888H404.029V122.252H406.517V117.653H409.834L409.853 117.634Z" fill="#595757"/>
<path d="M247.144 167.625L249.368 165.401C249.971 166.653 250.706 167.588 251.63 168.168C252.61 168.822 253.59 169.14 254.608 169.14C255.663 169.14 256.568 168.859 257.322 168.317C258.076 167.775 258.452 167.065 258.452 166.205C258.452 165.419 258.076 164.784 257.322 164.298C256.568 163.812 255.738 163.4 254.853 163.045C253.967 162.727 253.043 162.372 252.082 161.98C250.537 161.437 249.443 160.708 248.784 159.811C248.124 158.913 247.785 157.96 247.785 156.969C247.785 155.436 248.445 154.109 249.783 153.006C251.102 151.903 252.742 151.361 254.664 151.361C256.681 151.361 258.339 151.884 259.602 152.912C260.262 153.398 260.714 153.959 260.959 154.576L258.942 156.689C258.773 156.352 258.452 155.96 258 155.511C257.02 154.632 255.852 154.202 254.513 154.202C253.665 154.202 252.93 154.427 252.271 154.913C251.63 155.38 251.309 156.016 251.309 156.782C251.309 157.96 252.61 159.026 255.23 159.942C255.72 160.091 256.21 160.26 256.719 160.465C258.471 161.138 259.791 161.923 260.658 162.821C261.525 163.718 261.977 164.859 261.977 166.186C261.977 167.775 261.298 169.14 259.923 170.28C258.566 171.439 256.832 172.019 254.702 172.019C252.742 172.019 251.102 171.589 249.82 170.71C248.558 169.85 247.691 168.822 247.201 167.644L247.144 167.625Z" fill="#595757"/>
<path d="M267.367 165.924C267.556 166.803 267.97 167.513 268.611 168.074C269.535 168.915 270.76 169.327 272.286 169.327C273.813 169.327 275.377 168.747 276.753 167.569L277.733 169.981C276.169 171.327 274.322 171.981 272.192 171.981C269.742 171.981 267.763 171.29 266.236 169.925C264.71 168.541 263.937 166.747 263.937 164.503C263.937 162.26 264.616 160.503 265.973 159.082C267.33 157.661 269.101 156.95 271.306 156.95C273.511 156.95 275.227 157.661 276.602 159.063C277.978 160.484 278.657 162.223 278.657 164.298C278.657 164.859 278.619 165.401 278.506 165.905H267.367V165.924ZM267.311 163.344H275.321C275.283 162.409 274.887 161.549 274.133 160.783C273.379 160.016 272.437 159.624 271.269 159.624C270.1 159.624 269.082 160.054 268.328 160.876C267.763 161.512 267.424 162.335 267.292 163.344H267.311Z" fill="#595757"/>
<path d="M281.446 171.645V157.306H284.537V159.456C285.027 158.745 285.611 158.203 286.309 157.829C287.138 157.343 288.099 157.081 289.211 157.081H289.437V159.998H289.098C287.741 159.998 286.648 160.409 285.838 161.232C285.084 162.036 284.707 163.288 284.707 164.971V171.645H281.446Z" fill="#595757"/>
<path d="M297.919 168.934L301.782 157.306H305.194L300.161 171.645H295.657L290.625 157.306H294.036L297.9 168.934H297.919Z" fill="#595757"/>
<path d="M310.904 153.267C310.904 153.828 310.697 154.296 310.282 154.726C309.868 155.137 309.378 155.343 308.793 155.343C308.209 155.343 307.719 155.137 307.305 154.726C306.89 154.314 306.683 153.828 306.683 153.267C306.683 152.707 306.89 152.202 307.305 151.791C307.719 151.379 308.209 151.174 308.793 151.174C309.378 151.174 309.868 151.379 310.282 151.791C310.697 152.202 310.904 152.688 310.904 153.267ZM307.173 171.645V157.306H310.471V171.645H307.173Z" fill="#595757"/>
<path d="M313.468 164.503C313.468 162.447 314.259 160.671 315.824 159.194C317.388 157.717 319.386 156.969 321.779 156.969C323.664 156.969 325.436 157.567 327.094 158.782L326.02 161.325C324.587 160.222 323.155 159.661 321.779 159.661C320.29 159.661 319.103 160.128 318.179 161.063C317.256 161.998 316.785 163.138 316.785 164.503C316.785 165.868 317.256 167.008 318.179 167.924C319.103 168.859 320.309 169.308 321.779 169.308C323.193 169.308 324.625 168.766 326.076 167.681L327.151 170.224C325.549 171.402 323.758 172 321.779 172C319.386 172 317.388 171.271 315.824 169.794C314.259 168.317 313.468 166.56 313.468 164.503Z" fill="#595757"/>
<path d="M332.503 165.924C332.692 166.803 333.106 167.513 333.747 168.074C334.671 168.915 335.896 169.327 337.404 169.327C339.006 169.327 340.495 168.747 341.87 167.569L342.85 169.981C341.286 171.327 339.439 171.981 337.309 171.981C334.859 171.981 332.88 171.29 331.354 169.925C329.827 168.541 329.054 166.747 329.054 164.503C329.054 162.26 329.733 160.503 331.09 159.082C332.447 157.661 334.218 156.95 336.424 156.95C338.629 156.95 340.344 157.661 341.72 159.063C343.095 160.484 343.774 162.223 343.774 164.298C343.774 164.859 343.736 165.401 343.623 165.905H332.484L332.503 165.924ZM332.447 163.344H340.476C340.438 162.409 340.042 161.549 339.288 160.783C338.534 160.016 337.592 159.624 336.424 159.624C335.255 159.624 334.256 160.054 333.483 160.876C332.918 161.512 332.579 162.335 332.447 163.344Z" fill="#595757"/>
<path d="M180.896 87.1983C170.228 80.0007 156.545 82.9358 149.383 93.7604C143.39 102.809 134.343 103.931 130.838 103.931C119.416 103.931 111.595 95.9664 109.276 87.7218C109.276 87.7218 109.239 87.5722 109.22 87.4975C109.201 87.404 109.163 87.3105 109.144 87.217C108.24 83.7771 108.014 82.1319 108.014 78.4863C108.014 58.7628 128.406 36.8146 157.789 36.8146C187.172 36.8146 205.096 59.5294 209.525 72.1486C209.45 71.9243 209.393 71.7 209.299 71.4756C200.742 46.7605 177.127 29 149.346 29C114.365 29 86 57.1364 86 91.8348C86 122.85 108.541 149.397 139.828 149.397C164.782 149.397 181.556 135.526 189.245 116.4C193.467 105.95 190.47 93.6482 180.896 87.1983Z" fill="#003668"/>
<path d="M209.883 73.3453C206.189 61.0251 188.85 36.7773 157.752 36.7773C128.369 36.7773 107.976 58.7256 107.976 78.4491C107.976 82.1133 108.202 83.7398 109.107 87.1798C108.73 85.6654 108.522 84.1698 108.522 82.6929C108.522 62.1655 129.254 47.9197 150.571 47.9197C179.426 47.9197 202.796 71.1205 202.796 99.7243C202.796 122.159 189.792 141.564 170.869 150.893C195.258 142.162 212.635 118.999 212.635 91.8162C212.635 85.385 211.768 79.7016 209.845 73.3266L209.883 73.3453Z" fill="#E6002D"/>
<path d="M262.222 42.5165L277.356 66.4838L272.513 69.5311L262.222 52.8363L252.101 69.9798L247.144 66.8577L262.222 42.4978V42.5165ZM256.323 74.2423V85.1604H289.343V90.5072H250.216V74.2423H256.323ZM288.099 73.9806H282.049V42.7969H288.099V53.9767H295.148V59.9218H288.099V73.9619V73.9806Z" fill="#595757"/>
<path d="M335.839 67.1942H306.833V53.1167H328.074V48.9663H306.833V43.769H334.181V58.0709H312.883V62.3334H335.839V67.1942ZM309.472 72.3354H348.052V90.5259H309.472V72.3354ZM342.002 77.1961H315.522V85.4968H342.002V77.1961ZM341.946 42.7969H348.052V69.3815H341.946V42.7969Z" fill="#595757"/>
<path d="M360.246 51.9203V46.8352H371.743V42.1987H378.246V46.8352H389.196V51.9203H377.247L389.629 64.3713L385.671 68.0917L374.985 57.0615L364.412 68.9703L360.341 65.2126L372.78 51.939H360.228L360.246 51.9203ZM399.449 81.1222C399.449 82.7674 399.11 84.3004 398.431 85.74C397.753 87.1795 396.848 88.4321 395.698 89.5351C394.567 90.6381 393.21 91.4794 391.646 92.1338C390.082 92.7694 388.423 93.0872 386.67 93.0872C384.918 93.0872 383.297 92.7694 381.714 92.1338C380.13 91.4981 378.773 90.6381 377.643 89.5351C376.512 88.4508 375.607 87.1795 374.929 85.74C374.25 84.3004 373.911 82.7674 373.911 81.1222C373.911 79.4771 374.25 77.9441 374.929 76.5045C375.607 75.065 376.512 73.7937 377.643 72.7094C378.792 71.6251 380.149 70.7464 381.714 70.1107C383.297 69.4751 384.936 69.1573 386.67 69.1573C388.404 69.1573 390.082 69.4751 391.646 70.1107C393.21 70.7464 394.549 71.6064 395.698 72.7094C396.829 73.7937 397.734 75.065 398.431 76.5045C399.11 77.9441 399.449 79.4771 399.449 81.1222ZM393.437 81.0662C393.437 79.2527 392.777 77.6823 391.439 76.3737C390.101 75.065 388.499 74.392 386.614 74.392C384.729 74.392 383.202 75.0463 381.883 76.3737C380.564 77.6823 379.904 79.2527 379.904 81.0662C379.904 82.8796 380.564 84.5061 381.883 85.7961C383.202 87.086 384.786 87.7404 386.614 87.7404C388.442 87.7404 390.082 87.086 391.439 85.7961C392.777 84.5061 393.437 82.917 393.437 81.0662ZM397.508 68.7273V59.4358H388.932V54.2572H397.508V42.797H403.614V68.7273H397.508Z" fill="#595757"/>
</g>
<defs>
<clipPath id="clip0_315_11">
<rect width="327" height="143" fill="white" transform="translate(86 29)"/>
</clipPath>
</defs>
</svg>
