<svg width="512" height="512" viewBox="0 0 512 512" fill="none" xmlns="http://www.w3.org/2000/svg">
<rect width="512" height="512" fill="white"/>
<g clip-path="url(#clip0_315_10)">
<path d="M229.325 276.761H247.584L229.325 234.316V276.761Z" fill="#456E33"/>
<path d="M283.057 276.761H264.733L282.944 234.316L283.057 276.761Z" fill="#456E33"/>
<path d="M359.073 248.26C349.799 227.425 353.953 212.611 349.557 200.712C341.232 178.121 335.693 176.543 332.521 144.838C331.137 131.023 326.145 113.891 321.83 106.806C315.212 95.9855 317.16 91.4286 313.505 85.3582C307.789 75.826 300.962 78.2734 300.962 78.2734L300.93 78.3378V78.2734L256.231 169.845L211.532 78.2895C211.532 78.2895 204.705 75.8421 198.989 85.3743C195.35 91.4447 197.282 96.0016 190.664 106.822C186.333 113.907 181.341 131.039 179.956 144.855C176.784 176.559 171.245 178.137 162.921 200.728C158.541 212.627 162.679 227.425 153.405 248.277C144.323 268.71 143.132 276.761 143.132 276.761H211.532V189.763C203.159 194.529 198.924 200.277 198.602 200.728C197.524 202.225 195.833 203.014 194.126 203.014C193.031 203.014 191.92 202.676 190.954 202C188.49 200.245 187.895 196.847 189.634 194.384C190.101 193.724 197.298 183.789 211.516 177.493V177.445C205.993 176.575 201.758 171.809 201.758 166.045C201.758 160.28 205.993 155.498 211.516 154.628V154.129L211.725 154.596C212.257 154.516 212.772 154.467 213.319 154.467C219.712 154.467 224.897 159.652 224.897 166.028C224.897 169.152 223.657 171.986 221.628 174.063C228.359 172.437 236.168 171.793 245.072 172.872C248.083 173.242 250.225 175.979 249.855 178.99C249.484 182.001 246.747 184.143 243.752 183.773C236.86 182.935 230.774 183.338 225.492 184.465L257.02 252.93L287.356 184.626C281.913 183.386 275.601 182.903 268.404 183.773C265.409 184.143 262.672 182.001 262.301 178.99C261.931 175.979 264.072 173.242 267.084 172.872C276.004 171.793 283.797 172.437 290.528 174.063C288.515 171.986 287.275 169.152 287.275 166.012C287.275 159.62 292.444 154.451 298.836 154.451C299.48 154.451 300.108 154.516 300.72 154.612L300.897 154.21V154.644C306.291 155.627 310.397 160.344 310.397 166.012C310.397 171.68 306.291 176.382 300.897 177.364V177.59C314.938 183.885 322.055 193.691 322.506 194.352C324.261 196.831 323.665 200.245 321.186 202C320.22 202.676 319.125 202.998 318.03 202.998C316.307 202.998 314.632 202.193 313.553 200.696C313.215 200.229 309.061 194.625 300.897 189.907V276.745H369.346C369.346 276.745 368.155 268.694 359.057 248.244L359.073 248.26Z" fill="#456E33"/>
<path d="M161.343 313.151L169.136 300.946C171.519 297.274 173.001 295.133 173.548 294.602C174.031 294.118 174.82 293.877 175.883 293.877H176.301V291.768H166.882V293.877H168.573C169.394 293.877 169.571 294.247 169.571 294.795C169.571 295.342 169.474 295.761 169.265 296.067L156.593 316.291V293.877H159.507V291.768H145.273V293.877H148.848V343.454H145.273V345.564H159.523V343.454H156.609V320.284L167.107 343.454H164.418V345.564H178.266V343.454H175.271L161.343 313.151Z" fill="#456E33"/>
<path d="M189.907 291.124H189.666C185.029 291.124 181.679 293.539 179.731 298.289C177.815 302.926 176.849 309.56 176.849 317.997C176.849 327.031 177.928 334.035 180.053 338.801C182.227 343.68 185.496 346.143 189.746 346.143C193.997 346.143 197.33 343.728 199.472 338.962C201.581 334.309 202.644 327.256 202.644 317.997C202.644 308.739 201.613 302.169 199.569 297.822C197.491 293.378 194.239 291.124 189.907 291.124ZM185.254 301.3C185.254 298.788 185.689 296.775 186.558 295.326C187.396 293.909 188.41 293.233 189.666 293.233C190.922 293.233 192.017 293.861 192.886 295.181C193.788 296.534 194.239 298.353 194.239 300.608V336.321C194.239 338.672 193.804 340.588 192.951 342.021C192.13 343.39 191.131 344.066 189.907 344.066C188.539 344.066 187.444 343.39 186.59 342.021C185.705 340.588 185.254 338.672 185.254 336.321V301.3Z" fill="#456E33"/>
<path d="M224.204 323.794L218.81 292.122L218.746 291.768H205.977V293.877H209.552V339.735C209.552 341.168 209.326 342.166 208.859 342.698C208.425 343.213 207.587 343.454 206.396 343.454H205.977V345.564H215.477V343.454H215.058C213.851 343.454 213.014 343.197 212.579 342.698C212.128 342.182 211.903 341.184 211.903 339.735V297.661L220.211 345.21L220.275 345.564H222.578L230.693 298.788V343.454H227.119V345.564H242.029V343.454H238.454V293.877H242.11V291.768H229.663L224.22 323.794H224.204Z" fill="#456E33"/>
<path d="M258.759 291.124H258.517C253.88 291.124 250.531 293.539 248.583 298.289C246.666 302.926 245.7 309.56 245.7 317.997C245.7 327.031 246.779 334.035 248.905 338.801C251.078 343.68 254.347 346.143 258.598 346.143C262.849 346.143 266.182 343.728 268.339 338.962C270.433 334.309 271.512 327.256 271.512 317.997C271.512 308.739 270.481 302.169 268.436 297.822C266.359 293.378 263.106 291.124 258.775 291.124H258.759ZM254.089 301.3C254.089 298.788 254.524 296.775 255.394 295.326C256.231 293.909 257.245 293.233 258.501 293.233C259.757 293.233 260.852 293.861 261.722 295.165C262.607 296.518 263.074 298.337 263.074 300.608V336.321C263.074 338.672 262.639 340.588 261.786 342.021C260.965 343.39 259.967 344.066 258.743 344.066C257.374 344.066 256.279 343.39 255.426 342.021C254.54 340.588 254.089 338.672 254.089 336.321V301.3Z" fill="#456E33"/>
<path d="M293.185 293.877H294.795C295.455 293.877 295.97 294.086 296.373 294.521C296.775 294.956 296.985 295.519 296.985 296.228V335.082C296.985 337.819 296.437 339.944 295.342 341.41C294.263 342.859 292.814 343.551 290.914 343.551C289.385 343.551 288.177 343.116 287.307 342.247C286.438 341.393 286.003 340.17 286.003 338.64V293.877H289.578V291.768H274.667V293.877H278.242V333.407C278.242 337.448 279.16 340.604 280.979 342.794C282.815 345.016 285.424 346.143 288.74 346.143C292.057 346.143 294.811 345.21 296.566 343.39C298.321 341.571 299.207 338.817 299.207 335.226V296.212C299.207 295.535 299.4 294.972 299.802 294.521C300.205 294.086 300.72 293.877 301.38 293.877H302.974V291.768H293.185V293.877Z" fill="#456E33"/>
<path d="M325.743 293.877H327.675C329.768 293.877 330.75 294.875 330.75 297.033V333.375L316.081 291.768H305.116V293.877H308.691V340.315C308.691 341.554 308.465 342.424 308.047 342.826C307.612 343.245 306.775 343.454 305.551 343.454H305.116V345.564H316.049V343.454H313.795C313.119 343.454 311.042 343.454 311.042 339.171V301.026L326.757 345.29L326.854 345.58H333.101V295.616C333.101 294.811 333.359 293.893 335.404 293.893H336.676V291.784H325.743V293.893V293.877Z" fill="#456E33"/>
<path d="M339.075 291.768V306.646H341.152L341.184 306.243C341.555 301.847 342.424 298.627 343.76 296.695C345 294.907 346.788 293.974 349.235 293.877V343.454H345.66V345.564H360.571V343.454H356.996V293.877C359.411 293.974 361.199 294.891 362.439 296.695C363.775 298.627 364.645 301.847 365.047 306.243L365.079 306.63H367.156V291.751H339.075V291.768Z" fill="#456E33"/>
<path d="M149.588 367.64H149.862C150.184 367.64 150.426 367.753 150.603 367.994C150.764 368.22 150.86 368.461 150.86 368.751V371.746C150.86 372.374 150.989 372.825 151.231 373.099C151.472 373.372 151.875 373.501 152.422 373.501H163.017V371.665H153.63C153.485 371.665 153.372 371.617 153.292 371.521C153.211 371.424 153.163 371.311 153.163 371.166V366.722H149.572V367.608L149.588 367.64Z" fill="#456E33"/>
<path d="M160.554 368.349H162.808V360.781H165.578V358.945H162.808V353.036H159.266V353.937H159.539C159.877 353.937 160.135 354.066 160.312 354.324C160.457 354.565 160.538 354.823 160.538 355.081V368.332L160.554 368.349Z" fill="#456E33"/>
<path d="M158.251 355.886H153.421V353.052H150.12V353.776H150.313C150.474 353.776 150.619 353.873 150.764 354.034C150.909 354.211 150.989 354.404 150.989 354.63V355.886H146.207V357.705H148.703L148.542 357.931C148.252 358.349 148.027 358.8 147.866 359.283C147.705 359.766 147.624 360.281 147.624 360.813C147.624 361.489 147.753 362.117 147.994 362.697C148.236 363.276 148.558 363.792 148.977 364.243C149.379 364.661 149.862 364.999 150.426 365.257C150.973 365.515 151.585 365.643 152.229 365.643C152.873 365.643 153.469 365.515 154.016 365.257C154.564 365.015 155.063 364.661 155.466 364.243C155.868 363.808 156.206 363.293 156.464 362.713C156.705 362.133 156.834 361.505 156.834 360.829C156.834 360.298 156.754 359.782 156.593 359.299C156.432 358.816 156.206 358.349 155.916 357.947L155.755 357.721H158.3V355.902L158.251 355.886ZM154.306 361.972C154.194 362.326 154.016 362.648 153.823 362.922C153.63 363.18 153.388 363.405 153.131 363.566C152.857 363.743 152.551 363.824 152.245 363.824C151.939 363.824 151.617 363.743 151.344 363.566C151.07 363.405 150.828 363.164 150.619 362.89C150.426 362.616 150.281 362.294 150.168 361.94C150.055 361.586 150.007 361.215 150.007 360.813C150.007 360.459 150.071 360.088 150.184 359.734C150.297 359.38 150.474 359.074 150.667 358.784C150.877 358.526 151.118 358.301 151.376 358.124C151.939 357.77 152.599 357.77 153.147 358.124C153.405 358.301 153.646 358.526 153.855 358.816C154.049 359.106 154.21 359.412 154.322 359.766C154.435 360.12 154.499 360.491 154.499 360.861C154.499 361.231 154.435 361.602 154.322 361.956L154.306 361.972Z" fill="#456E33"/>
<path d="M180.44 373.743H182.806V366.336V366.255C182.806 366.255 182.774 366.255 182.758 366.255H177.428V362.423H184.948V360.587H181.728L181.873 360.362C182.114 360.008 182.291 359.589 182.404 359.154C182.517 358.704 182.565 357.963 182.565 356.965V353.164L182.549 353.068C182.549 353.068 182.533 353.068 182.501 353.068H169.764V354.903H179.667C179.876 354.903 180.037 354.952 180.117 355.065C180.198 355.161 180.23 355.306 180.23 355.499V356.723C180.23 357.673 180.182 358.43 180.101 358.993C180.021 359.557 179.828 360.088 179.57 360.555L179.522 360.62H167.3V362.455H174.836V366.287H169.651V368.123H180.053C180.198 368.123 180.278 368.187 180.327 368.252C180.375 368.316 180.407 368.413 180.407 368.493V373.791L180.44 373.743Z" fill="#456E33"/>
<path d="M200.889 367.463C200.631 366.883 200.277 366.384 199.842 365.965C199.391 365.547 198.86 365.192 198.264 364.951C197.669 364.693 197.024 364.564 196.348 364.564C195.672 364.564 195.012 364.693 194.416 364.951C193.82 365.209 193.289 365.547 192.854 365.965C192.403 366.4 192.049 366.899 191.791 367.463C191.534 368.026 191.421 368.638 191.421 369.282C191.421 369.926 191.55 370.554 191.791 371.134C192.049 371.698 192.403 372.197 192.854 372.615C193.289 373.034 193.82 373.388 194.416 373.63C195.591 374.113 197.057 374.129 198.264 373.63C198.86 373.388 199.391 373.05 199.842 372.615C200.277 372.197 200.631 371.698 200.889 371.134C201.147 370.57 201.275 369.942 201.275 369.298C201.275 368.654 201.147 368.059 200.889 367.479V367.463ZM198.184 371.279C197.652 371.842 197.041 372.132 196.332 372.132C195.978 372.132 195.64 372.068 195.318 371.907C194.996 371.762 194.722 371.553 194.48 371.279C194.239 371.037 194.046 370.731 193.917 370.393C193.772 370.055 193.707 369.685 193.707 369.298C193.707 368.912 193.772 368.574 193.917 368.236C194.062 367.898 194.255 367.592 194.48 367.334C194.706 367.076 194.996 366.851 195.302 366.706C195.608 366.545 195.962 366.464 196.316 366.464C197.024 366.464 197.636 366.754 198.168 367.318C198.683 367.898 198.941 368.558 198.941 369.298C198.941 370.039 198.683 370.731 198.168 371.295L198.184 371.279Z" fill="#456E33"/>
<path d="M205.542 361.65H187.122V363.486H205.542V361.65Z" fill="#456E33"/>
<path d="M188.555 353.937H188.845C189.151 353.937 189.408 354.05 189.585 354.292C189.763 354.517 189.843 354.775 189.843 355.048V357.367C189.843 358.349 190.004 359.026 190.342 359.38C190.664 359.734 191.228 359.911 192.049 359.911H203.127V358.092H192.741C192.564 358.092 192.435 358.043 192.339 357.931C192.242 357.834 192.194 357.673 192.194 357.48V354.903H203.03V353.036H188.571V353.937H188.555Z" fill="#456E33"/>
<path d="M211.017 367.254H211.307C211.629 367.254 211.87 367.383 212.047 367.608C212.208 367.833 212.289 368.075 212.289 368.365V371.746C212.289 372.374 212.418 372.825 212.659 373.099C212.901 373.372 213.303 373.501 213.867 373.501H224.559V371.666H215.075C214.93 371.666 214.817 371.617 214.736 371.521C214.656 371.424 214.608 371.311 214.608 371.166V366.336H211.001V367.222L211.017 367.254Z" fill="#456E33"/>
<path d="M222.095 368.348H224.365V360.797H227.135V358.961H224.365V353.052H220.823V353.937H221.097C221.435 353.937 221.692 354.066 221.853 354.34C222.014 354.581 222.095 354.839 222.095 355.097V368.348Z" fill="#456E33"/>
<path d="M213.432 360.974C213.432 360.974 214.189 362.101 214.527 362.504C214.881 362.922 215.284 363.293 215.719 363.582C216.17 363.904 216.636 364.162 217.087 364.355C217.522 364.532 217.941 364.629 218.327 364.661L219.567 363.132C219.1 363.083 218.569 362.954 218.021 362.745C217.442 362.52 216.894 362.149 216.395 361.634C215.896 361.119 215.461 360.426 215.139 359.573C214.817 358.703 214.64 357.609 214.64 356.288V353.036H211.001V353.905H211.242C211.58 353.905 211.854 354.034 212.031 354.275C212.208 354.501 212.289 354.759 212.289 355.032V356.304C212.289 357.625 212.112 358.72 211.79 359.573C211.452 360.426 211.033 361.103 210.518 361.634C210.019 362.149 209.471 362.52 208.891 362.745C208.344 362.954 207.829 363.099 207.346 363.148L208.586 364.677C208.972 364.661 209.391 364.548 209.841 364.355C210.325 364.162 210.791 363.888 211.242 363.566C211.677 363.26 212.08 362.906 212.434 362.487C212.772 362.085 213.448 360.974 213.448 360.974H213.432Z" fill="#456E33"/>
<path d="M249.726 369.556H231.305V371.392H249.726V369.556Z" fill="#456E33"/>
<path d="M232.867 353.937H233.141C233.463 353.937 233.704 354.05 233.881 354.292C234.043 354.517 234.139 354.775 234.139 355.048V363.003C234.139 363.985 234.316 364.677 234.687 365.08C235.041 365.466 235.637 365.676 236.442 365.676H247.117V363.856H237.037C236.86 363.856 236.732 363.792 236.635 363.695C236.538 363.582 236.49 363.437 236.49 363.244V360.314H246.924V358.494H236.49V354.903H247.021V353.052H232.867V353.953V353.937Z" fill="#456E33"/>
<path d="M362.567 353.052V353.937H362.841C363.179 353.937 363.437 354.082 363.598 354.34C363.759 354.581 363.839 354.839 363.839 355.097V359.138H360.088V360.974H363.839V373.743H366.078V353.036H362.567V353.052Z" fill="#456E33"/>
<path d="M352.938 365.305C352.858 365.209 352.81 365.096 352.81 364.919V364.806V361.006H358.526V359.187H352.81V354.936H360.233V353.1H349.251V354.002H349.525C349.847 354.002 350.088 354.115 350.282 354.356C350.443 354.581 350.523 355.209 350.523 355.483V364.468C350.523 365.45 350.732 366.175 351.135 366.61C351.538 367.044 352.133 367.254 352.938 367.254H361.086V365.418H353.357C353.051 365.418 352.987 365.354 352.938 365.305Z" fill="#456E33"/>
<path d="M285.327 367.141C285.069 366.545 284.715 366.014 284.28 365.563C283.829 365.128 283.298 364.758 282.702 364.5C282.106 364.226 281.462 364.098 280.802 364.098C280.142 364.098 279.466 364.226 278.87 364.5C278.274 364.774 277.743 365.128 277.308 365.563C276.857 366.014 276.487 366.545 276.245 367.141C276.004 367.737 275.875 368.381 275.875 369.057C275.875 369.733 276.004 370.393 276.245 371.005C276.503 371.601 276.857 372.132 277.308 372.583C277.743 373.018 278.274 373.388 278.87 373.646C280.045 374.161 281.511 374.161 282.702 373.646C283.298 373.388 283.829 373.034 284.28 372.583C284.715 372.149 285.069 371.601 285.327 371.005C285.584 370.41 285.713 369.749 285.713 369.073C285.713 368.397 285.584 367.753 285.327 367.157V367.141ZM282.654 371.295C282.139 371.891 281.511 372.197 280.786 372.197C280.061 372.197 279.417 371.907 278.902 371.295C278.403 370.699 278.145 369.959 278.145 369.057C278.145 368.155 278.403 367.431 278.902 366.835C279.417 366.223 280.045 365.917 280.786 365.917C281.527 365.917 282.139 366.223 282.67 366.835C283.185 367.431 283.443 368.188 283.443 369.057C283.443 369.927 283.185 370.716 282.67 371.295H282.654Z" fill="#456E33"/>
<path d="M270.626 363.47L271.737 364.903C272.606 364.726 273.556 364.387 274.555 363.888C275.569 363.373 276.535 362.681 277.389 361.811C278.274 360.958 278.999 359.927 279.578 358.72C280.142 357.528 280.432 356.127 280.432 354.565V353.164C280.432 353.164 280.432 353.132 280.4 353.084C280.4 353.084 280.4 353.068 280.367 353.068H271.866V354.903H277.888V355.322C277.888 355.676 277.872 356.031 277.823 356.369C277.775 356.707 277.711 357.029 277.63 357.335L277.598 357.431H271.978V359.251H276.809L276.648 359.476C275.956 360.507 275.07 361.36 274.007 362.02C272.961 362.681 271.817 363.164 270.642 363.454L270.626 363.47Z" fill="#456E33"/>
<path d="M284.393 365.064H286.647V353.052H283.105V353.937H283.395C283.717 353.937 283.99 354.066 284.151 354.34C284.312 354.581 284.393 354.839 284.393 355.097V365.064Z" fill="#456E33"/>
<path d="M304.263 373.743H306.501V353.052H302.991V353.937H303.264C303.602 353.937 303.86 354.082 304.021 354.34C304.182 354.581 304.263 354.839 304.263 355.097V373.743Z" fill="#456E33"/>
<path d="M295.857 362.439C295.857 362.439 296.63 363.695 296.969 364.194C297.323 364.661 297.709 365.128 298.144 365.531C298.563 365.933 299.013 366.287 299.464 366.561C299.883 366.835 300.302 367.028 300.688 367.141L301.976 365.595C301.429 365.45 300.881 365.176 300.318 364.79C299.754 364.387 299.223 363.824 298.74 363.164C298.273 362.52 297.902 361.731 297.596 360.829C297.291 359.943 297.146 358.929 297.146 357.834V354.855H300.833V353.052H290.914V354.855H294.618V357.834C294.618 358.913 294.457 359.927 294.151 360.813C293.845 361.698 293.458 362.487 292.991 363.164C292.524 363.824 291.977 364.371 291.413 364.79C290.866 365.193 290.302 365.466 289.771 365.611L291.059 367.157C291.446 367.028 291.848 366.835 292.283 366.577C292.75 366.287 293.185 365.949 293.603 365.547C294.022 365.144 294.424 364.693 294.763 364.21C295.101 363.727 295.809 362.455 295.809 362.455L295.857 362.439Z" fill="#456E33"/>
<path d="M312.587 368.815H312.861C313.183 368.815 313.425 368.944 313.602 369.17C313.763 369.395 313.859 369.653 313.859 369.926V371.746C313.859 372.374 313.988 372.825 314.246 373.098C314.487 373.372 314.89 373.501 315.437 373.501H326.306V371.665H316.645C316.5 371.665 316.387 371.617 316.307 371.52C316.226 371.424 316.194 371.311 316.194 371.166V367.914H312.603V368.799L312.587 368.815Z" fill="#456E33"/>
<path d="M323.826 368.928H326.081V353.036H322.538V353.921H322.812C323.15 353.921 323.408 354.05 323.569 354.324C323.73 354.565 323.81 354.823 323.81 355.081V365.788H319.559V367.415H323.81V368.928H323.826Z" fill="#456E33"/>
<path d="M314.004 367.109H316.403V364.049H322.055V362.214H309.158V364.049H314.004V367.109Z" fill="#456E33"/>
<path d="M319.286 355.628C319.06 355.097 318.754 354.646 318.384 354.243C318.014 353.873 317.547 353.551 317.031 353.325C316.516 353.1 315.969 352.987 315.373 352.987C314.777 352.987 314.214 353.1 313.714 353.325C313.215 353.551 312.748 353.857 312.378 354.243C312.008 354.646 311.702 355.097 311.492 355.628C311.283 356.143 311.17 356.723 311.17 357.335C311.17 357.947 311.283 358.542 311.492 359.058C311.702 359.589 312.008 360.056 312.378 360.442C312.764 360.813 313.215 361.119 313.714 361.344C314.214 361.57 314.777 361.682 315.373 361.682C315.969 361.682 316.516 361.57 317.031 361.344C317.547 361.119 317.997 360.813 318.384 360.442C318.754 360.056 319.044 359.589 319.27 359.058C319.495 358.542 319.608 357.963 319.608 357.335C319.608 356.707 319.495 356.159 319.27 355.628H319.286ZM316.838 359.122C316.436 359.637 315.953 359.895 315.389 359.895C314.825 359.895 314.326 359.637 313.94 359.122C313.569 358.623 313.376 358.011 313.376 357.319C313.376 356.626 313.569 356.014 313.94 355.515C314.326 354.984 314.825 354.726 315.389 354.726C315.953 354.726 316.436 354.984 316.838 355.483C317.241 355.982 317.434 356.578 317.434 357.27C317.434 357.963 317.241 358.591 316.838 359.09V359.122Z" fill="#456E33"/>
<path d="M333.004 367.398H333.278C333.6 367.398 333.842 367.511 334.019 367.753C334.18 367.978 334.276 368.236 334.276 368.509V371.746C334.276 372.374 334.405 372.825 334.647 373.098C334.888 373.372 335.307 373.501 335.854 373.501H346.61V371.665H337.062C336.917 371.665 336.804 371.617 336.724 371.52C336.643 371.424 336.595 371.311 336.595 371.166V366.48H332.988V367.382L333.004 367.398Z" fill="#456E33"/>
<path d="M344.308 368.284H346.401V352.987H343.229V353.873H343.31C343.68 353.873 343.937 353.986 344.099 354.211C344.243 354.42 344.308 354.678 344.308 354.968V368.268V368.284Z" fill="#456E33"/>
<path d="M340.701 368.284H342.794V352.987H339.622V353.873H339.719C340.073 353.873 340.347 353.986 340.492 354.211C340.637 354.42 340.701 354.678 340.701 354.968V358.639H337.529V360.475H340.701V368.268V368.284Z" fill="#456E33"/>
<path d="M333.938 361.65H333.987C333.987 361.65 334.743 362.729 335.082 363.099C335.42 363.47 335.774 363.808 336.144 364.081C336.531 364.355 336.885 364.581 337.239 364.742C337.545 364.887 337.787 364.983 337.98 365.015L339.204 363.598C338.721 363.47 338.237 363.244 337.771 362.938C337.304 362.616 336.853 362.198 336.45 361.682C336.08 361.167 335.758 360.539 335.532 359.782C335.291 359.042 335.178 358.156 335.178 357.158V353.052H331.62V354.114H332.07C332.521 354.114 332.698 354.34 332.763 354.517C332.843 354.742 332.892 354.984 332.892 355.242V357.158C332.892 358.156 332.779 359.042 332.554 359.782C332.328 360.523 332.006 361.167 331.636 361.682C331.265 362.214 330.815 362.648 330.331 362.954C329.848 363.26 329.365 363.47 328.866 363.598L330.09 365.015C330.283 364.983 330.525 364.903 330.847 364.758C331.201 364.597 331.587 364.387 331.942 364.098C333.101 363.164 333.906 361.666 333.954 361.666L333.938 361.65Z" fill="#456E33"/>
<path d="M259.966 364.726C259.966 364.726 259.854 364.758 259.773 364.774C259.355 364.854 258.823 364.903 258.211 364.903H254.46V360.716H258.421C258.517 360.716 258.582 360.684 258.63 360.636C258.678 360.587 258.694 360.507 258.694 360.41V353.164L258.678 353.068H251.433V354.887H256.456V358.929H251.127V359.863H251.191C251.497 359.863 251.755 359.976 251.932 360.217C252.093 360.443 252.189 360.7 252.189 360.974V364.951C252.189 365.643 252.302 366.126 252.527 366.384C252.737 366.642 253.155 366.771 253.735 366.771H257.358C258.179 366.771 258.872 366.738 259.403 366.674C259.596 366.658 259.789 366.61 259.966 366.561V364.742V364.726Z" fill="#456E33"/>
<path d="M265.538 361.779V373.743H267.631V353.084H264.459V353.97H264.539C264.91 353.97 265.167 354.082 265.328 354.324C265.473 354.533 265.538 354.791 265.538 355.081V361.763V361.779Z" fill="#456E33"/>
<path d="M260.417 353.084V353.97H260.514C260.868 353.97 261.142 354.082 261.287 354.324C261.432 354.533 261.496 354.791 261.496 355.081V358.865H259.21V360.7H261.496V364.387V366.191V373.743H263.589V353.084H260.417Z" fill="#456E33"/>
<path d="M231.209 362.986C231.209 363.679 230.645 364.258 229.953 364.258C229.26 364.258 228.697 363.695 228.697 362.986C228.697 362.278 229.26 361.714 229.953 361.714C230.645 361.714 231.209 362.278 231.209 362.986Z" fill="#456E33"/>
</g>
<defs>
<clipPath id="clip0_315_10">
<rect width="226.247" height="296" fill="white" transform="translate(143.132 78)"/>
</clipPath>
</defs>
</svg>
