<svg width="512" height="200" viewBox="0 0 512 200" fill="none" xmlns="http://www.w3.org/2000/svg">
<rect width="512" height="200" fill="white"/>
<g clip-path="url(#clip0_315_5)">
<path d="M146.931 140.051C137.105 146.128 123.203 147.892 113.753 141.9C111.562 140.513 109.593 138.835 107.898 136.952C104.885 133.631 102.728 129.676 101.684 125.465C94.408 96.1042 124.299 67.7881 124.299 67.7881C124.436 67.6682 124.573 67.5313 124.71 67.4115C125.617 66.5726 126.525 65.7337 127.466 64.9291C110.638 48.9392 90.265 43.2897 77.1855 52.5857C60.8361 64.2272 62.1201 94.8373 80.0445 120.962C89.1693 134.247 100.828 143.817 112.247 148.491C117.4 150.751 123.067 152 129.041 152C133.886 152 138.543 151.179 142.874 149.655C144.637 149.039 146.332 148.354 147.959 147.618L146.931 140.051Z" fill="#E95E97"/>
<path d="M129.521 96.6689C130.137 95.0596 130.839 93.5017 131.695 91.9096C139.793 76.9983 155.56 68.9006 166.927 73.814C168.537 74.5159 169.992 75.4404 171.259 76.5531C171.55 76.8271 171.841 77.101 172.115 77.392C173.947 79.3608 175.299 81.826 176.138 84.6337C180.195 99.0828 171.704 120.363 154.464 134.641C151.965 136.712 149.431 138.527 146.914 140.05C137.088 146.128 123.186 147.891 113.736 141.899C111.785 140.667 109.97 139.143 108.395 137.534C108.224 137.346 108.035 137.157 107.864 136.969C105.69 134.572 103.961 131.85 102.78 128.94C106.529 142.139 119.061 151.401 134.023 150.921C138.971 150.767 143.645 149.535 147.942 147.617C148.387 147.429 148.815 147.241 149.243 147.035C159.583 141.985 169.923 132.997 178.175 120.979C196.1 94.8542 197.366 64.244 181.034 52.6026C176.874 49.6408 171.944 48.1857 166.636 48.1172C154.396 48.5794 140.066 55.6157 127.638 68.5411C125.789 70.4585 124.042 72.4615 122.399 74.4988C115.482 83.1614 110.432 93.9297 108.515 103.346C108.498 103.465 108.463 103.585 108.446 103.705C108.429 103.825 108.395 103.945 108.378 104.065C106.546 113.566 107.488 122.417 111.682 128.632C112.281 129.522 112.949 130.344 113.651 131.08L114.147 131.542C114.609 131.953 115.089 132.329 115.602 132.655C116.784 133.579 118.033 134.332 119.369 134.949C127.757 138.527 140.614 134.932 150.938 125.173C160.028 116.579 164.993 105.486 164.633 96.4463C164.514 93.108 162.425 90.2661 159.224 89.4786C155.235 88.5199 151.092 91.1906 149.979 95.4705C149.363 99.8874 147.137 104.356 143.148 107.66C137.344 112.436 130.753 111.478 128.699 106.256C127.757 103.876 128.271 100.059 129.572 96.686L129.521 96.6689Z" fill="#DD0041"/>
<path d="M446.973 67.7363H434.886V137.842H446.973V67.7363Z" fill="#231815"/>
<path d="M432.13 110.895C422.44 110.895 414.103 104.783 410.474 96.0522C409.635 101.051 407.7 105.691 404.944 109.714C411.449 117.024 420.917 121.612 431.462 121.612H441.221V110.895H432.13Z" fill="#231815"/>
<path d="M408.025 90.3345C408.025 107.608 394.039 121.612 376.765 121.612H375.258V110.895H376.029C387.019 110.895 395.922 99.8702 395.922 86.26V68.2671H408.008V90.3516L408.025 90.3345Z" fill="#231815"/>
<path d="M272.779 67.6167C267.9 67.6167 263.945 71.5714 263.945 76.4505V90.814H223.543V68.0961H211.473V92.7657C211.473 97.6448 215.428 101.599 220.307 101.599H263.928V127.005H227.258V117.093H260.47V106.393H215.188V128.974C215.188 133.853 219.143 137.808 224.022 137.808H276.015V78.3166H285.465V67.6167H272.762H272.779Z" fill="#231815"/>
<path d="M347.815 99.8706H295.48V110.57H315.39V122.982H327.477V110.57H347.815V99.8706Z" fill="#231815"/>
<path d="M320.304 62.3096C308.713 62.3096 299.332 71.7083 299.332 83.2813C299.332 84.8392 299.503 86.3629 299.828 87.818C301.352 93.2964 305.786 97.2168 311.436 97.2168C315.87 97.2168 319.739 95.5733 322.392 92.7314C321.725 92.9197 321.023 93.0225 320.304 93.0225C315.424 93.0225 311.47 88.6569 311.47 83.2813C311.47 77.9057 315.424 73.5401 320.304 73.5401C325.183 73.5401 329.137 77.9057 329.137 83.2813C329.137 83.6751 329.103 84.0517 329.069 84.4283C328.453 93.1081 322.581 99.8704 311.436 99.8704H307.481C311.025 102.61 315.476 103.739 320.304 103.739C331.894 103.739 341.275 94.8543 341.275 83.2813C341.275 71.7083 331.894 62.3096 320.304 62.3096Z" fill="#231815"/>
<path d="M354.543 67.6167H341.857V78.3337H351.308V127.039H310.956V115.124H298.887V129.008C298.887 133.887 302.841 137.842 307.721 137.842H363.394V76.4505C363.394 71.5714 359.439 67.6167 354.56 67.6167H354.543Z" fill="#231815"/>
</g>
<defs>
<clipPath id="clip0_315_5">
<rect width="381.275" height="103.9" fill="white" transform="translate(65.7153 48.1001)"/>
</clipPath>
</defs>
</svg>
