<svg width="512" height="512" viewBox="0 0 512 512" fill="none" xmlns="http://www.w3.org/2000/svg">
<rect width="512" height="512" fill="white"/>
<g clip-path="url(#clip0_315_5)">
<path d="M136.189 299.978C125.398 306.652 110.132 308.588 99.7541 302.008C97.3476 300.485 95.1856 298.643 93.3243 296.575C90.0155 292.927 87.6466 288.585 86.4998 283.96C78.5096 251.717 111.335 220.621 111.335 220.621C111.486 220.489 111.636 220.339 111.786 220.207C112.783 219.286 113.779 218.365 114.813 217.481C96.3324 199.922 73.9599 193.717 59.5963 203.926C41.6418 216.71 43.0519 250.326 62.736 279.015C72.7566 293.604 85.5597 304.114 98.0997 309.246C103.759 311.728 109.982 313.1 116.543 313.1C121.863 313.1 126.977 312.198 131.734 310.525C133.67 309.848 135.531 309.096 137.317 308.287L136.189 299.978Z" fill="#E95E97"/>
<path d="M117.069 252.337C117.746 250.57 118.517 248.859 119.457 247.111C128.35 230.735 145.665 221.843 158.148 227.239C159.916 228.009 161.514 229.025 162.905 230.247C163.224 230.547 163.544 230.848 163.845 231.168C165.857 233.33 167.342 236.037 168.263 239.12C172.719 254.988 163.394 278.357 144.462 294.037C141.717 296.311 138.934 298.304 136.171 299.978C125.379 306.652 110.113 308.588 99.7353 302.008C97.592 300.654 95.5992 298.981 93.8696 297.214C93.6816 297.007 93.4747 296.8 93.2867 296.593C90.8991 293.961 89.0002 290.972 87.703 287.776C91.8203 302.271 105.582 312.442 122.014 311.916C127.447 311.747 132.58 310.393 137.299 308.287C137.787 308.081 138.257 307.874 138.727 307.648C150.083 302.102 161.438 292.232 170.5 279.034C190.184 250.344 191.576 216.729 173.64 203.945C169.071 200.692 163.657 199.094 157.829 199.019C144.386 199.527 128.65 207.254 115.001 221.448C112.971 223.554 111.053 225.753 109.248 227.991C101.653 237.504 96.1068 249.329 94.0012 259.669C93.9824 259.801 93.9448 259.933 93.926 260.064C93.9072 260.196 93.8696 260.327 93.8508 260.459C91.8391 270.893 92.8731 280.613 97.4792 287.438C98.1373 288.415 98.8705 289.318 99.6413 290.126L100.187 290.634C100.694 291.085 101.221 291.499 101.785 291.856C103.082 292.871 104.454 293.698 105.921 294.375C115.133 298.304 129.252 294.356 140.589 283.64C150.572 274.202 156.024 262.019 155.629 252.093C155.497 248.427 153.204 245.306 149.688 244.441C145.308 243.388 140.758 246.321 139.536 251.021C138.859 255.872 136.415 260.779 132.035 264.407C125.661 269.652 118.423 268.6 116.167 262.865C115.133 260.252 115.697 256.06 117.126 252.356L117.069 252.337Z" fill="#DD0041"/>
<path d="M465.686 220.564H452.413V297.552H465.686V220.564Z" fill="#231815"/>
<path d="M449.386 267.961C438.745 267.961 429.59 261.249 425.604 251.661C424.683 257.15 422.558 262.245 419.531 266.663C426.675 274.691 437.072 279.73 448.653 279.73H459.37V267.961H449.386Z" fill="#231815"/>
<path d="M422.915 245.381C422.915 264.351 407.555 279.73 388.586 279.73H386.931V267.961H387.777C399.847 267.961 409.623 255.853 409.623 240.907V221.147H422.897V245.4L422.915 245.381Z" fill="#231815"/>
<path d="M274.392 220.433C269.034 220.433 264.691 224.776 264.691 230.134V245.907H220.322V220.959H207.067V248.051C207.067 253.409 211.41 257.752 216.768 257.752H264.672V285.651H224.401V274.766H260.874V263.016H211.147V287.813C211.147 293.172 215.49 297.515 220.848 297.515H277.945V232.183H288.323V220.433H274.373H274.392Z" fill="#231815"/>
<path d="M356.794 255.853H299.321V267.603H321.186V281.233H334.459V267.603H356.794V255.853Z" fill="#231815"/>
<path d="M326.582 214.604C313.854 214.604 303.551 224.926 303.551 237.635C303.551 239.346 303.739 241.019 304.096 242.617C305.77 248.633 310.639 252.939 316.843 252.939C321.712 252.939 325.961 251.134 328.875 248.013C328.142 248.22 327.371 248.333 326.582 248.333C321.224 248.333 316.881 243.538 316.881 237.635C316.881 231.732 321.224 226.938 326.582 226.938C331.94 226.938 336.283 231.732 336.283 237.635C336.283 238.067 336.245 238.481 336.208 238.895C335.531 248.427 329.082 255.853 316.843 255.853H312.5C316.392 258.861 321.28 260.102 326.582 260.102C339.31 260.102 349.612 250.344 349.612 237.635C349.612 224.926 339.31 214.604 326.582 214.604Z" fill="#231815"/>
<path d="M364.183 220.433H350.252V232.202H360.629V285.689H316.317V272.604H303.062V287.851C303.062 293.209 307.405 297.552 312.763 297.552H373.903V230.134C373.903 224.776 369.56 220.433 364.202 220.433H364.183Z" fill="#231815"/>
</g>
<defs>
<clipPath id="clip0_315_5">
<rect width="418.705" height="114.1" fill="white" transform="translate(47 199)"/>
</clipPath>
</defs>
</svg>
