<?xml version="1.0" encoding="UTF-8"?>
<svg id="_레이어_1" data-name="레이어_1" xmlns="http://www.w3.org/2000/svg" viewBox="0 0 315.63 156.24">
  <defs>
    <style>
      .cls-1 {
        fill: #231815;
      }

      .cls-2 {
        fill: #898989;
      }

      .cls-3 {
        fill: #008a7c;
      }
    </style>
  </defs>
  <g>
    <path class="cls-3" d="M112.92,75.1s29.35-19.94,33.56-39.29c0,0,1.97-7.76-4.41-10.26,0,0-8.88-5.07-32.44,8.23,0,0,15.47-7.7,23.16-3.09,0,0,4.48,2.9,2.17,9.35,0,0-2.3,8.62-9.94,16.32l-18.43-18.16-38.58,38.65-1.97-1.97,18.29-18.38-12.35-12.4-32.55,32.82,38.91,38.59,2-2.03,2.1,2.03,2.03-2.04,2.02,2.03-2.03,2.03-2.02-2.02-2.01,2.01,2.02,2,2.01-2,2.02,2-2.01,2.02,2.05,2,1.97-1.97,1.97,1.97-1.97,2.11,2.04,2.04,1.97-2.04,2.1,1.97,2.04-2.03-1.97-2.11,1.91-1.97,2.04,1.97,2.04-1.97-2.04-2.04,2.04-2.04,2.02,2.02,2.02-2.04-2-2.09,1.91-1.91-2.02-2.02,2.02-2.02,2.02,2.02-2.02,2.02,2.14,1.94,6.06-6.12-2.01-2.01,1.97-1.97,2,2.01,30.53-30.78-12.57-12.46s-16.34,16.56-34.24,23.93c0,0-21.52,9.94-27.05,1.32,0,0,11.06,6.38,41.46-14.15ZM92.49,117.35l2.02,2.02-2.02,2.02-2.02-2.02,2.02-2.02ZM84.46,105.21l2.02,2.02-2.02,2.03-2.02-2.03,2.02-2.02ZM76.33,105.21l2.02,2.02-2.02,2.03-2.02-2.03,2.02-2.02Z"/>
    <rect class="cls-3" x="60.68" y="107.92" width="2.86" height="2.86" transform="translate(-59.12 75.89) rotate(-44.97)"/>
    <polygon class="cls-3" points="64.15 113.41 66.17 115.43 68.19 113.41 66.17 111.39 64.15 113.41"/>
    <rect class="cls-3" x="64.74" y="116.03" width="2.86" height="2.86" transform="translate(-63.66 81.14) rotate(-44.98)"/>
    <rect class="cls-3" x="68.78" y="111.98" width="2.86" height="2.86" transform="translate(-59.62 82.8) rotate(-44.97)"/>
    <rect class="cls-3" x="72.91" y="116.03" width="2.86" height="2.86" transform="translate(-61.27 86.92) rotate(-44.98)"/>
    <rect class="cls-3" x="76.99" y="120.1" width="2.86" height="2.86" transform="translate(-62.96 91.01) rotate(-44.99)"/>
    <rect class="cls-3" x="81.03" y="120.1" width="2.86" height="2.86" transform="translate(-61.78 93.87) rotate(-44.99)"/>
    <rect class="cls-3" x="85.07" y="128.19" width="2.86" height="2.86" transform="translate(-66.34 99.22) rotate(-45.03)"/>
    <rect class="cls-3" x="93.2" y="128.2" width="2.86" height="2.86" transform="translate(-63.95 104.9) rotate(-45.01)"/>
    <rect class="cls-3" x="101.29" y="124.12" width="2.86" height="2.86" transform="translate(-58.68 109.37) rotate(-44.99)"/>
    <rect class="cls-3" x="101.29" y="120.07" width="2.86" height="2.86" transform="translate(-55.84 108.3) rotate(-45.03)"/>
    <rect class="cls-3" x="105.34" y="124.12" width="2.86" height="2.86" transform="translate(-57.5 112.27) rotate(-45)"/>
    <rect class="cls-3" x="109.42" y="120.03" width="2.86" height="2.86" transform="translate(-53.43 114.16) rotate(-45.07)"/>
    <rect class="cls-3" x="109.42" y="115.99" width="2.86" height="2.86" transform="translate(-50.55 112.65) rotate(-44.96)"/>
    <rect class="cls-3" x="113.45" y="111.96" width="2.86" height="2.86" transform="translate(-46.53 114.48) rotate(-45.01)"/>
    <rect class="cls-3" x="117.49" y="111.96" width="2.86" height="2.86" transform="translate(-45.35 117.46) rotate(-45.06)"/>
    <polygon class="cls-3" points="120.99 109.29 123.02 111.32 125.04 109.29 123.02 107.27 120.99 109.29"/>
    <rect class="cls-3" x="56.61" y="111.98" width="2.86" height="2.86" transform="translate(-63.22 74.35) rotate(-45.04)"/>
  </g>
  <g>
    <polygon class="cls-1" points="229.83 55.67 229.83 61.46 224.31 61.46 224.31 65.38 229.83 65.38 229.83 70.72 236.31 70.72 236.31 55.67 229.83 55.67"/>
    <polygon class="cls-1" points="200.13 60.5 194.4 60.5 194.4 55.56 187.92 55.56 187.92 75.03 194.4 75.03 194.4 64.78 200.13 64.78 200.13 60.5"/>
    <polygon class="cls-1" points="276.19 66.4 272.34 66.4 272.34 55.69 243.74 55.69 243.74 59.98 265.86 59.98 265.86 66.4 240.07 66.4 240.07 70.69 255.35 70.69 255.35 76.77 261.83 76.77 261.83 70.69 276.19 70.69 276.19 66.4"/>
    <path class="cls-1" d="M173.81,80.07v-7.44h-6.65v7.24c0,2.48,2,4.48,4.48,4.48h22.55v-4.28h-20.38Z"/>
    <path class="cls-1" d="M250.74,80.07v-8.05h-6.64v7.85c0,2.48,2,4.48,4.48,4.48h23.58v-4.28h-21.41Z"/>
    <path class="cls-1" d="M217.75,61.15h6.34v-4.12h-6.71v-2.4h-6.48v2.4h-7.03v4.12h6.46c-.25,1.16-1.51,4.63-7.15,4.93v4s6.52.17,10.77-4.43c0,0,3.39,4.69,11.46,4.17v-3.73s-6.26-.25-7.65-4.93Z"/>
    <path class="cls-1" d="M223.14,70.7c-7.79,0-14.09,3.17-14.09,7.07s6.31,7.08,14.09,7.08,14.09-3.17,14.09-7.08-6.31-7.07-14.09-7.07ZM223.14,80.83c-4.07,0-7.37-1.37-7.37-3.06s3.3-3.06,7.37-3.06,7.36,1.37,7.36,3.06-3.3,3.06-7.36,3.06Z"/>
    <path class="cls-1" d="M177.3,59.25v-3.69h-6.84v3.49c-.14,2.34-1.29,7.55-8.71,8.67v3.73s7.2.52,11.89-4.78c4.69,5.3,11.9,4.78,11.9,4.78v-3.73c-6.79-1.82-8.05-6.21-8.24-8.46Z"/>
  </g>
  <g>
    <path class="cls-2" d="M166.83,99.24l.98-1.15c.76.76,1.79,1.25,2.81,1.25,1.28,0,1.99-.6,1.99-1.49,0-.96-.72-1.26-1.69-1.69l-1.46-.63c-1.02-.43-2.15-1.23-2.15-2.77,0-1.66,1.46-2.91,3.47-2.91,1.23,0,2.4.52,3.2,1.33l-.87,1.06c-.66-.59-1.39-.95-2.32-.95-1.08,0-1.78.52-1.78,1.36,0,.9.85,1.25,1.71,1.59l1.45.62c1.25.53,2.15,1.31,2.15,2.85,0,1.69-1.41,3.07-3.71,3.07-1.45,0-2.8-.57-3.76-1.55Z"/>
    <path class="cls-2" d="M175.69,98.51c0-1.69,1.43-2.57,4.72-2.93-.01-.92-.34-1.72-1.51-1.72-.83,0-1.61.37-2.28.8l-.62-1.12c.82-.52,1.92-1.03,3.18-1.03,1.96,0,2.87,1.25,2.87,3.34v4.75h-1.35l-.14-.9h-.04c-.72.62-1.56,1.09-2.51,1.09-1.36,0-2.32-.89-2.32-2.28ZM180.41,98.56v-1.94c-2.34.29-3.13.88-3.13,1.76,0,.77.53,1.09,1.23,1.09s1.25-.33,1.89-.92Z"/>
    <path class="cls-2" d="M184.39,92.71h1.35l.13,1.09h.04c.73-.7,1.53-1.29,2.61-1.29,1.68,0,2.42,1.12,2.42,3.13v4.96h-1.65v-4.76c0-1.36-.4-1.91-1.33-1.91-.73,0-1.23.37-1.94,1.08v5.59h-1.63v-7.89Z"/>
    <path class="cls-2" d="M192.78,96.67c0-2.64,1.82-4.16,3.9-4.16,1,0,1.74.4,2.31.9l-.82,1.08c-.43-.39-.87-.62-1.42-.62-1.32,0-2.27,1.12-2.27,2.8s.9,2.77,2.22,2.77c.66,0,1.25-.32,1.72-.72l.67,1.09c-.72.65-1.65.98-2.55.98-2.14,0-3.77-1.51-3.77-4.12Z"/>
    <path class="cls-2" d="M200.75,89.17h1.63v3.03l-.06,1.56c.69-.66,1.48-1.25,2.55-1.25,1.68,0,2.42,1.12,2.42,3.13v4.96h-1.65v-4.76c0-1.36-.4-1.91-1.33-1.91-.73,0-1.23.37-1.94,1.08v5.59h-1.63v-11.43Z"/>
    <path class="cls-2" d="M209.1,96.67c0-2.57,1.75-4.16,3.6-4.16,2.09,0,3.21,1.51,3.21,3.74,0,.32-.03.65-.07.83h-5.12c.13,1.51,1.08,2.41,2.44,2.41.7,0,1.3-.22,1.88-.59l.57,1.05c-.73.49-1.63.83-2.67.83-2.14,0-3.84-1.52-3.84-4.12ZM214.49,95.95c0-1.36-.62-2.15-1.76-2.15-.99,0-1.86.76-2.02,2.15h3.79Z"/>
    <path class="cls-2" d="M217.2,96.67c0-2.64,1.76-4.16,3.71-4.16s3.71,1.52,3.71,4.16-1.76,4.12-3.71,4.12-3.71-1.51-3.71-4.12ZM222.94,96.67c0-1.68-.77-2.8-2.02-2.8s-2.01,1.12-2.01,2.8.77,2.77,2.01,2.77,2.02-1.1,2.02-2.77Z"/>
    <path class="cls-2" d="M226.56,92.71h1.35l.13,1.09h.04c.73-.7,1.53-1.29,2.61-1.29,1.68,0,2.42,1.12,2.42,3.13v4.96h-1.65v-4.76c0-1.36-.4-1.91-1.33-1.91-.73,0-1.23.37-1.94,1.08v5.59h-1.63v-7.89Z"/>
    <path class="cls-2" d="M234.94,102.06c0-.66.42-1.28,1.15-1.72v-.07c-.4-.24-.72-.66-.72-1.31s.44-1.15.87-1.46v-.06c-.53-.42-1.03-1.16-1.03-2.09,0-1.79,1.42-2.84,3.06-2.84.44,0,.85.09,1.15.2h2.8v1.23h-1.51c.3.32.52.85.52,1.45,0,1.72-1.3,2.71-2.95,2.71-.36,0-.76-.09-1.1-.24-.26.23-.43.46-.43.83,0,.47.32.77,1.32.77h1.45c1.86,0,2.84.57,2.84,1.92,0,1.52-1.61,2.75-4.13,2.75-1.89,0-3.27-.7-3.27-2.08ZM240.75,101.65c0-.66-.52-.86-1.48-.86h-1.19c-.37,0-.73-.04-1.06-.11-.47.34-.67.75-.67,1.15,0,.77.8,1.23,2.11,1.23,1.38,0,2.29-.67,2.29-1.41ZM239.76,95.35c0-1.06-.66-1.68-1.49-1.68s-1.49.6-1.49,1.68.67,1.69,1.49,1.69,1.49-.65,1.49-1.69Z"/>
    <path class="cls-2" d="M243.23,95.94h3.79v1.22h-3.79v-1.22Z"/>
    <path class="cls-2" d="M248.34,102.06c0-.66.42-1.28,1.15-1.72v-.07c-.4-.24-.72-.66-.72-1.31s.44-1.15.87-1.46v-.06c-.53-.42-1.03-1.16-1.03-2.09,0-1.79,1.42-2.84,3.06-2.84.44,0,.85.09,1.15.2h2.8v1.23h-1.51c.3.32.52.85.52,1.45,0,1.72-1.3,2.71-2.95,2.71-.36,0-.76-.09-1.1-.24-.26.23-.43.46-.43.83,0,.47.32.77,1.32.77h1.45c1.86,0,2.84.57,2.84,1.92,0,1.52-1.61,2.75-4.13,2.75-1.89,0-3.27-.7-3.27-2.08ZM254.15,101.65c0-.66-.52-.86-1.48-.86h-1.19c-.37,0-.73-.04-1.06-.11-.47.34-.67.75-.67,1.15,0,.77.8,1.23,2.11,1.23,1.38,0,2.29-.67,2.29-1.41ZM253.16,95.35c0-1.06-.66-1.68-1.49-1.68s-1.49.6-1.49,1.68.67,1.69,1.49,1.69,1.49-.65,1.49-1.69Z"/>
    <path class="cls-2" d="M257.11,97.67v-4.96h1.65v4.76c0,1.36.39,1.89,1.32,1.89.73,0,1.23-.34,1.89-1.18v-5.48h1.65v7.89h-1.35l-.13-1.19h-.04c-.72.83-1.49,1.38-2.58,1.38-1.68,0-2.41-1.1-2.41-3.11Z"/>
    <path class="cls-2" d="M266.1,92.71h1.35l.13,1.09h.04c.73-.7,1.53-1.29,2.61-1.29,1.68,0,2.42,1.12,2.42,3.13v4.96h-1.65v-4.76c0-1.36-.4-1.91-1.33-1.91-.73,0-1.23.37-1.94,1.08v5.59h-1.63v-7.89Z"/>
  </g>
</svg>