<svg width="512" height="512" viewBox="0 0 512 512" fill="none" xmlns="http://www.w3.org/2000/svg">
<rect width="512" height="512" fill="white"/>
<g clip-path="url(#clip0_315_6)">
<path d="M282.432 279.38C282.482 278.777 282.508 278.187 282.57 277.596C282.633 277.018 282.683 276.453 282.734 275.862C282.771 275.41 282.646 274.606 282.847 274.179C282.96 273.877 282.658 273.701 282.972 273.438C282.784 272.093 283.462 270.649 283.123 269.317C282.696 268.827 283.739 268.412 283.06 267.948C283.098 267.734 283.475 267.721 283.349 267.47C283.098 266.792 283.324 266.578 283.224 265.925C283.915 265.51 282.96 264.769 283.324 264.392C283.274 264.154 283.136 263.777 283.236 263.4C283.01 263.123 283.136 263.01 283.173 262.746C283.224 262.407 283.136 262.106 283.098 261.767C283.098 261.377 283.048 261 283.098 260.598C283.136 260.246 283.161 259.882 283.161 259.493C283.211 258.839 283.261 257.872 282.796 257.357C282.972 257.131 283.211 256.829 283.123 256.54C282.495 256.314 283.362 255.673 282.696 255.435L282.734 255.347C282.734 255.095 282.646 254.894 282.42 254.706L282.545 254.631C282.696 254.279 282.796 253.588 282.244 253.462C282.47 252.708 282.156 251.578 281.528 251.063C281.842 250.347 281.201 249.995 281.126 249.417L281.025 249.48C280.874 248.826 279.731 248.538 279.329 247.771C279.254 247.947 279.015 247.821 278.864 247.859C278.437 247.193 277.658 247.558 277.256 247.005C277.005 246.678 277.005 247.206 276.678 247.156L276.628 247.08C276.44 246.892 275.987 247.005 275.698 247.218C276.163 247.52 275.548 247.847 275.434 248.186C275.51 248.889 274.618 249.492 274.593 250.196C275.736 251.176 274.555 252.822 275.221 253.776L275.296 253.663C275.987 254.266 275.007 254.869 275.347 255.485C276.163 256.075 275.912 256.967 276.012 257.746C276.578 258.312 275.761 259.204 276.515 259.518L276.414 259.568C276.452 260.07 276.1 260.498 276.301 260.925C276.1 261.088 276.301 261.465 276.063 261.653C276.465 262.483 276.289 263.299 276.326 264.078C275.623 264.367 276.477 264.907 276.151 265.159C276 265.422 276.414 265.875 276.088 266.038L276.326 266.427L276.063 266.679C276.025 266.98 275.397 267.319 276 267.571C276.063 267.872 275.862 267.973 275.837 268.387C276.151 268.676 275.573 269.129 276.113 269.468C275.987 269.581 275.924 269.757 275.749 269.757C275.698 269.895 275.711 270.096 275.849 270.209C275.736 270.51 276.125 270.963 275.711 271.252C276.125 272.307 275.397 273.488 275.648 274.581L275.46 274.769L275.698 275.046C275.774 275.649 274.982 276.415 275.472 277.031C275.397 277.307 275.447 277.634 275.146 277.822C275.146 278.237 275.007 278.827 274.744 279.229C274.819 279.141 274.97 279.656 274.945 279.744C274.919 279.945 274.794 280.109 274.693 280.272C274.593 280.498 274.555 280.687 274.492 280.9C274.404 281.164 274.279 281.302 274.14 281.579C273.852 282.056 273.789 282.533 273.362 282.948C272.897 283.375 272.294 283.714 271.666 283.815C271.176 283.94 270.824 284.028 270.409 284.292C270.083 284.481 269.668 284.443 269.341 284.619C269.015 284.795 268.638 285.046 268.361 285.247C267.708 285.699 267.155 286.265 266.665 286.855C267.13 286.177 267.821 286.528 268.336 286.101C268.512 286.164 269.027 286.152 269.015 286.265C269.58 286.478 268.977 286.403 269.454 286.516C270.284 286.026 271.666 286.667 272.495 286.817C273.801 287.081 274.442 287.998 275.623 288.425C276.641 288.802 277.796 288.262 278.588 287.559C279.354 286.88 279.819 285.85 280.585 285.184C280.849 284.945 281 284.87 281.214 284.569C281.477 284.116 281.854 283.476 281.955 282.935C282.018 282.634 281.98 282.257 282.055 281.918C282.106 281.604 282.244 281.34 282.307 281.026C282.394 280.498 282.42 279.945 282.47 279.418L282.432 279.38Z" fill="#8FC31F"/>
<path d="M264.04 261C264.856 260.56 264.605 261.666 264.994 261.967C264.894 261.892 264.831 262.746 264.844 262.822C264.894 263.136 265.07 263.412 265.183 263.701C265.409 264.279 265.422 264.807 265.384 265.435C265.346 266 265.434 266.603 265.346 267.156C265.309 267.47 265.258 267.797 265.208 268.111C265.12 268.425 265.057 269.782 264.856 269.895C264.944 270.284 264.806 271.151 264.417 271.415C264.19 271.553 264.027 271.377 263.864 271.666C263.713 271.892 263.738 272.181 263.688 272.42C263.6 272.646 263.437 272.759 263.336 272.935C263.072 273.463 263.462 274.355 263.035 274.744C263.135 274.995 263.361 275.699 263.738 275.95C263.613 276.189 263.864 276.503 263.889 276.767C264.429 277.269 264.015 277.847 264.366 278.325C264.316 279.016 265.246 279.242 265.597 279.82C266.326 279.807 267.143 279.493 267.495 278.84L267.419 278.739L267.595 278.589L267.645 278.689L268.537 278.099L268.412 277.986C268.537 278.124 268.638 277.609 268.6 277.646C268.638 277.609 268.575 277.558 268.6 277.496C268.625 277.445 268.738 277.496 268.763 277.445C268.977 277.106 269.341 276.805 269.555 276.403C269.706 276.063 269.844 275.85 270.07 275.523C270.309 275.196 270.585 274.794 270.799 274.418C270.912 274.254 270.912 274.078 270.937 273.902C271.037 273.588 271.088 273.199 271.213 272.91C271.276 272.759 271.452 272.621 271.477 272.47C271.477 272.47 271.477 272.093 271.427 272.156C272.294 271.239 271.088 270.41 271.954 269.493C271.703 269.254 271.753 268.613 271.879 268.287C272.708 267.558 271.665 267.03 272.042 266.151C271.766 265.221 272.57 263.978 271.992 262.998C272.218 262.294 271.867 261.578 272.168 261.025C272.269 260.196 272.105 259.379 272.093 258.588C272.055 258.173 272.155 257.771 272.168 257.332C272.168 256.817 272.042 256.276 272.545 255.912C272.771 255.384 272.331 254.982 272.005 254.643C272.231 254.178 271.716 254.43 271.59 254.178C270.987 254.103 270.485 253.852 269.869 253.776C269.417 253.739 269.052 253.513 268.588 253.437C267.934 253.349 267.294 253.789 266.829 254.191C266.64 254.392 266.477 254.631 266.238 254.807C266.175 254.882 265.51 255.07 265.572 254.97C265.007 255.862 263.939 255.259 263.437 255.987C262.52 255.686 262.808 256.93 261.992 256.817C261.54 257.156 261.829 256.201 261.389 256.528C261.477 256.452 260.861 256.302 260.786 256.302C260.623 256.314 260.371 256.352 260.22 256.389C259.743 256.515 259.328 256.867 258.826 256.955C258.462 257.043 257.884 256.93 257.444 256.93C256.916 256.967 256.125 257.131 255.572 256.955C255.321 256.842 255.195 256.616 254.969 256.452C254.756 256.251 254.404 256.176 254.127 256.151C254.039 256.138 253.072 256.251 253.11 256.327C253.047 256.214 252.921 256.101 252.946 255.912H252.796C252.607 256.013 252.645 256.163 252.482 256.251C251.929 256.075 251.916 255.296 251.213 255.296C250.848 255.648 250.522 254.995 250.069 255.033C249.429 255.435 248.574 255.221 247.934 255.636C248.072 256.05 247.632 256.226 247.368 256.477C247.456 256.967 246.916 257.118 247.293 257.508C246.615 257.307 246.464 258.023 245.899 258.161C245.358 257.96 245.12 258.55 244.793 258.915C245.12 259.455 244.353 259.719 244.089 260.121C243.876 261.113 242.871 261.553 242.305 262.269C242.142 262.382 241.778 262.746 241.552 262.596C241.451 262.709 241.338 262.746 241.351 262.922C240.961 263.312 240.459 263.714 239.981 264.091C239.73 264.317 239.391 264.417 239.19 264.706C238.913 265.083 238.712 265.422 238.411 265.787C238.172 266.076 238.222 266.365 238.072 266.641C237.959 266.855 237.783 266.842 237.619 266.955C237.406 267.081 237.506 266.993 237.381 267.219C237.255 267.483 237.142 267.797 237.104 268.086C236.891 268.978 236.652 270.397 237.594 271.113L237.519 271.164L238.172 272.031L238.235 271.93C238.675 272.194 239.278 272.156 239.743 272.571C240.132 272.382 240.923 272.32 241.376 272.37L241.527 272.571C242.13 272.031 243.122 272.696 243.625 272.169C245.032 272.131 246.238 272.131 247.557 272.018C248.524 271.842 249.617 271.566 250.635 271.101C251.602 270.724 252.657 270.322 253.65 269.92C254.215 269.556 254.906 269.405 255.333 268.978L255.459 269.053C256.452 268.438 257.268 268.01 258.198 267.219C259.517 266.829 259.266 265.41 260.623 265.02C260.522 264.769 260.484 264.166 260.949 264.229C260.974 263.865 261.389 263.601 261.213 263.249C261.753 262.973 261.816 262.169 261.678 261.754C261.615 261.465 262.482 261.101 262.67 261.063C262.909 261.013 263.072 261.088 263.349 260.988C263.587 260.887 263.826 260.736 264.065 260.988L264.04 261ZM252.356 266.829C252.168 267.571 251.602 266.767 251.213 267.294C249.517 267.784 248.059 268.249 246.049 267.885C244.969 267.734 243.901 268.061 243.336 266.943C243.813 265.762 245.446 265.096 246.326 264.317C246.941 264.593 247.808 263.751 248.198 264.329L249.014 264.643C249.391 264.116 249.617 265.033 250.057 264.643C249.793 265.146 250.484 265.146 250.585 265.46C250.848 265.648 251.024 265.46 251.326 265.46C251.451 265.46 251.59 265.523 251.715 265.523C251.853 265.523 251.904 265.36 252.105 265.372C252.281 265.372 252.356 265.661 252.544 265.736C252.846 265.887 253.348 265.724 253.7 265.724C254.19 265.724 254.58 265.724 255.044 265.535C254.353 266.415 253.399 266.691 252.343 266.855L252.356 266.829Z" fill="#8FC31F"/>
<path d="M286.101 290.31C286.101 290.134 286.063 289.984 285.975 289.795C283.224 290.599 280.535 292.371 277.671 292.773C276.703 292.936 276.188 292.961 275.309 293.388C274.467 293.752 273.537 294.154 272.595 294.016C272.118 293.953 270.271 293.589 270.02 293.187C268.675 293.614 269.567 292.345 268.5 292.157C268.638 292.107 268.688 291.981 268.688 291.906C268.663 291.654 268.273 291.152 267.897 291.315C267.972 291.102 268.173 290.85 268.098 290.7C268.098 290.7 267.821 290.599 267.796 290.574C267.683 290.511 267.582 290.36 267.52 290.26C267.281 289.896 267.118 289.481 266.942 289.104C266.841 288.715 266.804 288.313 266.64 287.948C266.502 287.571 266.037 287.408 265.949 287.056C265.799 286.717 265.912 286.554 265.547 286.365C265.246 286.202 263.889 285.951 264.417 285.36C263.022 284.845 262.356 287.848 262.105 290.8C262.055 290.901 261.954 291.039 261.917 291.164C261.917 291.227 261.954 291.416 261.942 291.428C261.891 291.516 261.891 291.592 261.891 291.654C261.866 291.73 261.829 291.793 261.841 291.881C261.841 291.931 261.841 291.969 261.866 292.019C261.879 292.107 261.866 292.182 261.879 292.27C261.904 292.371 261.967 292.458 261.929 292.546C261.929 292.634 261.879 292.722 261.904 292.835C261.904 292.948 261.942 293.036 261.967 293.162C261.967 293.25 261.866 293.363 261.841 293.464C261.803 293.539 261.753 293.639 261.766 293.765C261.766 294.142 262.08 294.494 261.854 294.883C261.917 294.908 261.967 294.921 262.017 294.971C262.067 295.335 262.092 295.599 262.143 295.8C262.118 295.813 262.08 295.825 262.03 295.825C262.256 296.265 262.507 296.667 262.62 297.082C262.545 297.396 262.972 297.748 263.198 298.011C263.286 298.124 263.311 298.2 263.361 298.288C263.613 298.665 263.826 299.042 264.103 299.418C264.291 299.657 265.095 300.197 265.158 300.461C265.397 300.436 265.61 300.625 265.836 300.574C266 300.838 266.464 300.7 266.678 300.976C266.69 300.976 266.728 300.951 266.753 300.926C267.582 301.253 268.462 301.454 269.404 301.479C269.869 301.479 270.321 301.454 270.774 301.403C270.924 301.454 271.025 301.429 271.113 301.341C271.276 301.341 271.402 301.303 271.527 301.253C271.552 301.265 271.578 301.29 271.628 301.303C271.678 301.328 271.779 301.29 271.854 301.29C271.917 301.29 271.967 301.253 272.042 301.24C272.181 301.24 272.331 301.177 272.495 301.14C272.62 301.114 272.733 301.114 272.884 301.077C272.972 301.077 273.186 300.951 273.248 301.027C273.248 301.001 273.362 300.888 273.311 300.876C273.55 300.913 273.764 300.775 273.927 300.687C273.889 300.612 273.927 300.562 273.99 300.524C274.882 300.16 275.723 299.745 276.565 299.268C276.766 299.167 277.005 299.104 277.218 299.042L277.281 298.928C277.281 298.928 277.369 298.866 277.419 298.841C277.507 298.803 277.646 298.803 277.721 298.74C277.771 298.702 277.809 298.627 277.872 298.589C277.935 298.476 278.337 298.238 278.575 297.999C278.889 297.823 279.178 297.622 279.455 297.396C279.555 297.32 279.681 297.232 279.794 297.145H279.819C279.882 297.145 279.945 297.069 280.02 297.057C280.095 297.057 280.146 297.006 280.196 296.994C280.322 296.918 280.435 296.856 280.573 296.78C280.698 296.705 280.824 296.655 280.95 296.604C281.038 296.567 281.176 296.366 281.289 296.441C281.289 296.441 281.352 296.29 281.289 296.303C281.528 296.265 281.666 296.077 281.817 295.938C281.741 295.8 281.917 295.687 281.942 295.549C281.967 295.549 281.98 295.549 281.98 295.549C282.193 295.499 282.219 295.423 282.344 295.273C282.947 294.745 283.563 294.23 284.141 293.665C284.254 293.564 284.354 293.476 284.505 293.388C284.505 293.388 284.518 293.3 284.543 293.263C284.543 293.212 284.593 293.212 284.643 293.175C284.706 293.099 284.832 293.074 284.894 292.961C284.957 292.898 284.957 292.823 284.982 292.785C285.033 292.659 285.435 292.245 285.535 291.918C285.9 291.365 286.075 290.813 286.088 290.298L286.101 290.31Z" fill="#8FC31F"/>
<path d="M192.832 343.175H194.679V343.263C194.679 344.042 194.968 344.583 195.533 344.897C196.098 345.223 196.839 345.361 197.731 345.349C198.561 345.349 199.214 345.098 199.767 344.633C200.319 344.168 200.583 343.54 200.583 342.786C200.583 342.145 200.345 341.63 199.867 341.241C199.39 340.864 198.661 340.474 197.706 340.085L196.965 339.796C195.947 339.369 195.181 338.967 194.691 338.565C194.201 338.163 193.824 337.71 193.56 337.208C193.334 336.731 193.209 336.165 193.209 335.55C193.209 334.469 193.56 333.565 194.327 332.811C195.093 332.082 196.262 331.705 197.895 331.68C199.377 331.68 200.432 331.944 201.061 332.509C201.639 333.062 201.965 333.69 201.978 334.419V334.519H200.106V334.419C200.106 334.193 200.005 333.967 199.842 333.741C199.628 333.514 199.365 333.351 199.013 333.263C198.649 333.163 198.209 333.112 197.782 333.112C196.865 333.125 196.186 333.364 195.746 333.803C195.294 334.268 195.106 334.783 195.118 335.361C195.118 335.763 195.194 336.102 195.432 336.467C195.621 336.793 195.91 337.082 196.299 337.334C196.651 337.535 197.267 337.836 198.108 338.213L198.988 338.59C200.407 339.193 201.337 339.796 201.814 340.474C202.267 341.153 202.505 341.869 202.518 342.623C202.518 343.314 202.342 344.03 201.953 344.708C201.588 345.399 201.061 345.877 200.407 346.228C199.716 346.593 198.837 346.769 197.706 346.781C196.638 346.781 195.746 346.643 195.03 346.404C194.327 346.165 193.749 345.738 193.422 345.148C193.058 344.57 192.857 343.929 192.857 343.251V343.163L192.832 343.175Z" fill="#B5B5B6"/>
<path d="M205.696 346.317H203.975L209.729 332.057L211.601 332.032L217.066 346.254H215.081L213.586 342.372L207.279 342.397L205.696 346.317ZM207.807 340.952L213.021 340.914L210.496 334.306L207.807 340.952Z" fill="#B5B5B6"/>
<path d="M220.873 346.228H219.152L219.076 331.994H220.948L227.468 342.07L228.097 343.201L228.046 342.082L227.996 331.957H229.679L229.755 346.191L227.921 346.216L221.375 336.077L220.785 334.909L220.81 336.065L220.873 346.253V346.228Z" fill="#B5B5B6"/>
<path d="M246.187 343.025H247.871V343.138C247.871 343.678 247.708 344.231 247.343 344.834C246.916 345.437 246.401 345.839 245.748 346.103C245.082 346.379 244.303 346.53 243.398 346.53C241.589 346.542 240.107 345.914 238.951 344.645C237.783 343.402 237.217 341.517 237.205 339.017C237.192 336.542 237.745 334.632 238.876 333.364C240.019 332.082 241.501 331.454 243.323 331.441C244.228 331.441 244.994 331.58 245.66 331.843C246.301 332.095 246.841 332.509 247.268 333.1C247.645 333.703 247.833 334.268 247.833 334.808V334.909H246.137V334.808C246.137 334.457 246.037 334.117 245.798 333.791C245.572 333.477 245.27 333.263 244.868 333.1C244.479 332.936 243.976 332.848 243.411 332.848C241.941 332.848 240.886 333.452 240.17 334.595C239.454 335.738 239.102 337.195 239.127 338.954C239.127 340.763 239.479 342.233 240.22 343.376C240.936 344.52 242.016 345.072 243.474 345.072C244.454 345.072 245.145 344.846 245.559 344.444C245.974 344.042 246.187 343.59 246.175 343.113V342.999L246.187 343.025Z" fill="#B5B5B6"/>
<path d="M252.293 346.065H250.409L250.333 331.831H252.205L252.23 338.15L258.751 338.1L258.713 331.793H260.585L260.673 346.027H258.801L258.763 339.545L252.255 339.583L252.293 346.078V346.065Z" fill="#B5B5B6"/>
<path d="M263.839 345.99L263.763 331.743L271.829 331.706V333.263L265.61 333.289L265.648 337.761L271.05 337.736V339.156L265.648 339.181L265.673 344.407L272.369 344.369V345.927L263.826 345.965L263.839 345.99Z" fill="#B5B5B6"/>
<path d="M280.673 346.341C278.889 346.341 277.444 345.701 276.314 344.394C275.171 343.1 274.605 341.241 274.593 338.804C274.593 336.404 275.133 334.532 276.264 333.251C277.382 331.944 278.814 331.266 280.598 331.266C282.369 331.266 283.839 331.906 284.932 333.213C286.088 334.494 286.653 336.341 286.666 338.753C286.666 341.19 286.126 343.062 284.995 344.356C283.915 345.663 282.457 346.341 280.673 346.354V346.341ZM280.673 344.909C281.967 344.897 282.96 344.344 283.688 343.213C284.404 342.095 284.756 340.6 284.756 338.778C284.744 336.932 284.379 335.462 283.651 334.344C282.909 333.225 281.904 332.673 280.623 332.685C279.304 332.685 278.324 333.263 277.608 334.381C276.867 335.499 276.502 336.969 276.515 338.816C276.515 340.65 276.929 342.145 277.658 343.238C278.387 344.356 279.379 344.909 280.698 344.909H280.673Z" fill="#B5B5B6"/>
<path d="M291.075 345.851H289.379L289.304 331.63H291.163L297.696 341.705L298.299 342.824L298.274 341.705L298.211 331.58H299.932L300.008 345.814H298.186L291.616 335.675L290.975 334.519L291.025 335.675L291.075 345.851Z" fill="#B5B5B6"/>
<path d="M312.973 345.073C311.44 345.789 310.021 346.178 308.651 346.178C307.232 346.191 306.101 345.902 305.197 345.336C304.342 344.771 303.614 343.98 303.073 342.912C302.558 341.869 302.269 340.5 302.269 338.829C302.269 336.944 302.521 335.487 302.998 334.444C303.5 333.401 304.166 332.585 305.083 331.982C306.001 331.391 307.056 331.09 308.287 331.09C309.141 331.09 309.908 331.215 310.611 331.504C311.327 331.756 311.868 332.145 312.27 332.71C312.684 333.251 312.91 333.803 312.91 334.319V334.407H311.214V334.319C311.214 333.979 311.076 333.69 310.837 333.401C310.574 333.138 310.209 332.924 309.807 332.761C309.393 332.585 308.915 332.509 308.413 332.509C307.031 332.509 306.001 333.062 305.259 334.168C304.531 335.236 304.154 336.743 304.166 338.628C304.179 340.525 304.581 341.995 305.347 343.088C306.088 344.193 307.119 344.733 308.488 344.733C309.305 344.733 310.184 344.545 311.265 344.168L311.239 340.098L308.036 340.123V338.703L312.935 338.678L312.973 345.073Z" fill="#B5B5B6"/>
<path d="M204.679 271.792C204.679 271.792 204.591 271.692 204.553 271.629C203.825 270.624 201.551 268.413 200.219 269.506C199.716 269.895 199.817 270.749 199.616 271.252C199.264 271.943 198.711 272.458 198.146 272.973C197.669 273.438 196.865 273.903 196.626 274.518C196.274 275.297 196.287 276.013 195.709 276.767C195.407 277.169 194.993 277.508 194.679 277.86C194.402 278.162 194.239 278.488 194.138 278.765C193.787 279.481 193.686 280.197 193.221 280.938C192.518 282.006 191.148 282.446 190.483 283.539C190.018 284.255 190.206 284.581 190.055 285.385C189.905 286.541 188.786 287.195 187.995 288.049C187.606 288.501 187.555 289.117 187.241 289.569C186.663 290.448 185.482 290.8 184.641 291.466C183.61 292.308 183.623 293.451 183.422 294.632C183.02 296.931 182.103 299.067 181.839 301.366C181.676 303.25 183.007 308.728 181.839 309.997C183.234 310.813 183.447 312.497 184.854 313.276C184.389 315.022 187.317 316.454 186.99 318.489C188.359 319.03 190.621 319.721 190.633 320.851C193.108 320.763 196.148 322.384 198.749 321.655C200.998 319.984 205.558 323.238 206.262 319.721C206.224 320.085 208.021 319.03 207.996 319.03C208.284 318.967 208.636 319.08 208.9 319.03C209.39 318.929 209.767 318.59 210.194 318.389C210.533 318.226 210.872 317.999 211.237 317.811C212.116 317.371 212.757 316.831 213.574 316.328C214.277 315.826 215.131 315.512 215.822 315.047C216.325 314.72 217.079 313.615 217.845 313.841C217.845 313.766 217.933 312.924 217.631 312.999C219.302 312.622 220.006 311.454 220.785 310.65C219.968 309.771 221.099 309.067 221.312 308.238C222.883 307.924 222.657 307.358 223.448 306.253C224.667 305.311 224.918 304.532 226.011 303.275L228.109 301.78C231.551 299.029 231.589 296.944 235.27 294.28C235.27 294.28 235.283 293.677 235.295 293.589C235.408 293.3 235.672 293.087 235.898 292.898C236.388 292.446 237.117 292.144 237.418 291.604C237.619 291.227 237.607 290.8 237.745 290.398C238.147 289.381 242.243 286.24 239.253 285.612C238.097 285.36 237.996 285.988 237.305 286.428L237.092 286.24C236.325 286.554 234.83 286.24 234.642 287.27C233.046 285.775 231.124 288.049 229.579 286.592C227.996 285.147 223.599 289.933 223.008 290.486C220.76 292.634 216.865 295.65 213.787 296.793C212.217 297.383 208.41 298.087 206.777 298.514C206.199 298.677 205.571 299.293 204.943 299.268C204.139 299.268 204.327 299.029 203.938 298.853C202.681 298.413 201.551 297.685 200.985 296.629C200.357 295.549 200.86 294.569 200.433 293.577C199.955 292.509 198.9 291.629 198.812 290.448C198.686 288.928 201.287 285.737 200.998 284.117C200.546 281.541 201.337 278.564 202.92 276.554C203.523 275.85 204.453 275.26 204.968 274.443C205.395 273.664 205.207 272.973 205.232 272.081C205.294 270.41 207.066 269.631 207.48 268.036C207.769 267.018 207.92 267.094 207.016 266.516C205.897 265.825 204.176 266.088 202.97 266.176C201.601 266.239 201.475 266.352 201.199 267.483C201.01 268.199 200.948 268.425 201.199 269.217" fill="#004098"/>
<path d="M264.504 214.756C264.203 214.052 263.964 213.198 263.399 212.695C263.148 212.419 262.984 212.507 262.821 212.042C262.683 211.652 262.658 211.25 262.57 210.848C262.444 210.358 262.03 209.956 261.891 209.479C261.615 208.826 261.452 208.072 261.037 207.544C260.648 206.992 260.057 206.615 259.668 206.074C259.165 205.434 258.625 204.843 257.909 204.441C257.23 202.833 255.384 203.474 254.517 201.941C253.901 201.388 253.411 202.23 252.821 202.243C252.469 201.991 252.494 201.652 252.381 201.401C251.59 202.004 250.886 200.006 250.371 201.401C249.831 200.446 248.863 201.539 248.486 200.446L248.361 200.572C247.858 199.856 247.067 200.572 246.401 200.496C246.037 200.471 245.76 200.233 245.346 200.22C244.793 200.22 244.215 200.383 243.662 200.421C243.26 200.471 242.846 200.396 242.431 200.421C242.117 200.471 241.778 200.609 241.439 200.66C240.798 200.723 240.182 200.66 239.542 200.773C238.775 200.924 237.833 200.873 237.155 201.3C236.715 201.589 236.3 202.13 235.923 202.507C235.358 202.871 234.642 202.871 234.026 202.657C233.788 203.285 232.946 203.147 232.519 203.713C232.18 204.052 231.602 203.801 231.174 203.926C230.697 204.115 230.546 204.529 230.195 204.856C229.818 205.208 229.34 205.17 229.089 205.71L229.215 205.911C228.147 206.904 226.865 207.871 225.659 207.971C225.697 208.776 225.32 209.63 225.848 210.472L226.074 210.271C226.539 211.364 227.971 211.992 229.001 211.929L229.353 212.256L229.516 212.117C229.981 212.394 230.383 212.758 231.011 212.595C231.011 212.595 232.732 213.198 232.996 213.235C234.102 213.424 238.624 214.756 237.883 216.766C237.72 217.18 237.217 217.57 236.715 217.394L236.69 218.575C236.112 218.851 236.175 219.705 235.484 219.655C235.459 219.756 235.383 219.982 235.597 220.133C231.577 225.183 226.79 229.882 222.355 234.819C222.016 234.467 221.84 234.693 221.74 234.078C221.677 233.638 221.664 233.211 221.677 232.784C221.689 231.879 222.091 231.15 222.016 230.271C221.953 229.203 221.84 228.135 221.802 227.042C222.116 226.816 222.029 226.1 222.029 225.773C222.029 225.598 222.079 225.321 222.029 225.158C222.029 225.095 221.752 224.63 221.727 224.768C222.091 221.942 221.287 219.178 221.425 216.514C220.873 215.12 221.287 213.725 220.584 212.444C220.722 210.421 219.378 207.368 219.528 205.12C218.322 203.863 218.775 202.532 217.983 201.087C217.958 199.893 217.631 198.913 217.619 197.72C217.104 196.979 216.802 196.237 216.048 195.722C215.596 195.433 215.483 195.182 215.32 194.717C215.144 194.177 214.805 194.026 214.352 193.675C214.151 193.524 214.139 193.536 213.963 193.323C213.8 193.16 213.712 192.996 213.548 192.845C213.347 192.657 213.084 192.456 212.92 192.217C212.744 191.941 212.682 191.564 212.355 191.376C212.003 191.137 211.614 191.175 211.752 190.546C211.538 190.622 211.199 190.408 211.124 190.685L210.307 189.843C209.541 190.006 208.95 189.466 208.234 189.265C207.97 189.177 207.681 189.152 207.43 189.001C207.154 188.838 206.94 188.524 206.614 188.461C206.5 188.423 206.4 188.398 206.312 188.386C206.073 188.348 205.897 188.235 205.709 188.122C205.571 187.996 205.433 187.971 205.232 187.921C205.031 187.87 204.855 187.732 204.679 187.619C204.402 187.418 204.088 187.519 203.774 187.468C203.536 187.431 203.284 187.255 203.033 187.142C202.769 187.016 202.48 187.041 202.204 187.054C201.99 187.066 201.814 187.079 201.613 187.104C201.563 187.104 201.199 187.267 201.174 187.242C200.206 186.551 199.817 188.31 198.787 187.732C198.41 188.712 197.392 188.662 196.701 189.089C196.726 189.378 196.538 189.642 196.89 189.793L195.633 191.313L195.784 191.476L195.42 191.815L195.746 192.154C195.746 192.154 195.658 192.732 195.671 192.77C195.684 193.009 195.822 193.235 195.834 193.486C195.885 193.938 195.596 194.152 195.407 194.479C195.118 194.868 195.432 194.981 195.52 195.232C195.545 195.484 195.332 195.76 195.307 195.999C195.269 196.25 195.282 196.501 195.332 196.778C195.432 197.255 195.633 197.67 195.897 198.059C196.123 198.511 196.488 198.901 196.726 199.341C196.94 199.831 196.89 200.408 197.267 200.848C197.581 201.263 197.807 201.439 197.832 201.966C197.882 202.682 197.807 203.436 197.731 204.165C197.731 204.73 197.819 205.195 197.643 205.748C197.103 207.683 196.061 209.743 196.55 211.74C196.676 212.243 196.626 212.595 196.55 213.122C196.513 213.323 196.488 213.537 196.475 213.751C196.5 213.838 196.676 214.215 196.638 214.228C196.161 215.497 196.199 217.029 195.319 217.959C195.558 219.291 194.767 218.65 194.289 219.856C193.108 220.133 192.417 221.037 192.04 221.803C190.897 222.469 189.452 222.193 188.686 222.042C188.724 223.437 187.128 222.042 186.751 223.248C186.6 223.248 186.412 223.248 186.261 223.022C185.759 223.675 184.842 223.927 184.063 224.228C183.447 226.351 181.6 224.379 180.306 225.246C178.485 226.163 176.55 225.183 175.193 224.417C174.263 224.58 172.216 223.751 171.876 223.097C171.826 223.022 171.135 222.909 170.997 222.846C170.658 222.721 170.331 222.557 170.03 222.369C169.452 222.004 168.937 221.515 168.597 220.912C168.12 219.944 168.472 219.04 168.748 218.035C168.886 217.708 168.962 217.394 169.113 217.042C169.326 216.514 169.427 215.509 169.766 215.095C170.595 214.014 171.299 212.896 172.04 211.866C172.379 211.1 172.731 210.358 173.158 209.63C173.56 209.002 174.088 208.411 174.326 207.683C174.389 207.469 174.326 207.218 174.389 207.004C174.389 206.992 174.678 206.439 174.728 206.677C174.402 205.27 176.11 205.12 176.01 203.788C177.681 202.808 177.203 201.125 177.831 199.818C178.296 199.617 178.548 199.278 178.598 198.775C178.673 198.248 178.698 197.82 179.063 197.33C179.201 197.117 179.188 197.042 179.276 196.803C179.402 196.363 179.703 196.011 179.791 195.597C179.867 195.157 179.904 194.68 180.093 194.227C180.357 193.599 180.872 193.072 181.06 192.418C181.274 191.866 181.148 191.237 181.387 190.647C181.638 190.031 181.651 189.328 181.6 188.662C181.512 187.242 180.997 185.923 180.369 184.705C180.708 183.926 180.432 183.222 180.771 182.657C180.796 182.305 180.733 182.029 180.47 181.828C180.909 180.408 178.372 179.792 179.251 178.121C178.975 177.606 178.51 177.016 177.97 176.928C178.158 176.966 178.07 176.325 178.032 176.237C177.919 175.986 177.681 175.785 177.454 175.609C177.115 175.207 176.851 174.604 176.55 174.152C176.399 173.95 176.223 173.8 176.06 173.599C175.859 173.335 175.758 173.021 175.557 172.782C175.319 172.543 175.03 172.393 175.03 172.129C175.03 171.865 175.206 171.702 175.03 171.45C174.892 171.187 174.615 171.099 174.414 170.948C174.025 170.747 173.774 170.383 173.535 170.056C173.346 169.767 173.371 169.378 172.982 169.264C171.751 168.888 170.997 168.146 170.118 167.317C170.017 167.179 169.954 167.066 169.879 166.928C169.829 166.865 169.766 166.79 169.628 166.714C169.402 166.563 169.15 166.463 168.899 166.287C168.472 166.036 167.957 165.709 167.743 165.257C166.349 165.445 166.173 164.189 164.967 164.955C164.678 164.767 164.427 164.943 164.226 165.156C164.075 165.269 163.962 165.32 163.849 165.408C163.698 165.508 163.597 165.684 163.484 165.759C163.296 165.91 163.246 165.91 163.246 166.073C163.246 166.237 163.246 166.375 163.195 166.551C163.17 166.576 163.019 166.965 163.007 166.94L162.844 166.802C162.517 167.506 161.286 167.845 161.725 168.825C160.947 169.315 160.582 170.722 159.979 171.124L160.193 171.35C160.08 171.224 158.685 173.234 158.597 173.423C158.07 174.265 157.504 174.981 156.838 175.697C157.077 176.011 156.047 176.953 155.846 177.154C155.557 177.43 155.281 177.594 155.142 177.983C155.029 178.31 154.992 178.674 154.828 179.013C154.74 179.177 154.665 179.302 154.527 179.39C154.477 179.415 154.049 179.591 154.062 179.541C153.936 180.81 152.517 182.142 152.265 183.26C152.253 183.323 152.102 183.348 152.077 183.385C152.039 183.461 152.039 183.486 152.014 183.536C151.964 183.699 151.939 183.85 151.889 184.026C151.775 184.29 151.612 184.516 151.637 184.83C151.662 185.119 151.574 185.358 151.524 185.634C151.512 186.036 151.524 186.476 151.285 186.803C151.122 187.029 150.883 187.192 150.67 187.368C150.306 187.707 150.192 188.009 150.042 188.448C149.966 188.737 149.753 188.863 149.589 189.077C149.376 189.353 149.376 189.592 149.326 189.931C149.263 190.295 149.087 190.609 148.836 190.936C148.496 191.376 148.12 191.803 148.107 192.393C147.542 192.67 147.73 193.775 147.491 194.215C146.901 194.567 146.424 195.27 145.657 195.207C144.903 196.112 144.589 196.966 143.534 197.469C144.049 198.285 142.579 198.65 142.83 199.617C142.303 200.886 141.624 202.142 140.82 203.135C139.325 204.177 138.861 204.881 137.73 206.15C136.8 206.715 136.31 207.193 135.305 207.708C135.28 207.708 135.016 208.901 134.979 209.014C134.803 209.416 134.589 209.856 134.313 210.183C133.772 210.811 133.144 211.288 132.529 211.791C132.039 212.218 131.586 212.745 131.21 213.273C130.845 213.801 130.619 214.391 130.28 214.919C129.916 215.447 129.438 215.924 128.923 216.351C128.496 216.728 127.805 217.029 127.416 217.457C125.029 219.982 122.365 222.231 119.501 224.216C118.156 225.12 116.875 226.967 115.192 227.256C113.734 227.394 113.533 229.366 111.787 229.304C111.573 229.568 110.543 230.397 109.928 230.623C109.689 231.113 108.847 231.276 108.508 231.351C108.119 232.595 107.139 231.012 106.799 232.181C106.008 232.746 105.154 233.047 104.249 233.387C103.332 233.6 102.427 233.952 101.435 234.053C99.3369 235.321 97.9298 233.852 96.1333 235.259C96.0328 235.334 95.2036 235.058 95.0026 235.095C94.676 235.12 94.3619 235.359 94.0478 235.434C93.8468 235.51 93.6709 235.585 93.4448 235.636C92.9297 235.711 92.1257 235.761 91.9749 236.364C91.8116 236.842 92.4397 237.62 92.6533 237.972C92.8418 238.412 92.9423 238.852 93.3192 239.191C93.5704 239.417 93.7463 239.58 93.8845 239.92C94.0101 240.246 94.0227 240.611 94.1232 240.937C94.1609 241.063 94.2237 241.239 94.3242 241.364C94.3745 241.44 94.5755 241.59 94.588 241.653C94.7765 242.407 95.7941 243.048 95.3544 243.864C96.7363 244.141 95.8695 245.699 96.8117 246.39C97.2137 246.239 96.9876 247.081 97.4273 246.528C97.6911 246.641 98.2565 246.942 98.1057 247.357C99.4248 247.834 99.8394 249.292 100.505 250.359C101.711 250.41 102.993 251.616 103.96 252.37C104.098 252.081 104.35 252.307 104.626 252.219C104.601 253.035 105.958 253.111 105.216 254.04H106.423C106.95 254.078 106.938 254.731 107.189 255.02C109.701 255.548 110.882 257.483 113.483 256.867C113.948 258.036 115.443 257.319 116.008 257.332C116.109 257.332 116.297 257.583 116.435 257.608C116.586 257.621 116.687 257.571 116.837 257.571C117.252 257.533 117.704 257.508 118.056 257.634C118.37 257.747 118.697 257.948 119.036 257.985C119.337 258.036 119.652 258.098 119.903 258.01C120.154 257.948 120.43 257.835 120.669 257.759C120.946 257.696 121.247 257.596 121.498 257.596C121.787 257.596 122.101 257.696 122.39 257.671C122.755 257.646 123.069 257.495 123.395 257.345C123.772 257.156 123.91 257.106 124.149 256.754C124.35 256.427 124.689 256.139 125.029 255.938C125.343 255.762 125.757 255.686 126.122 255.561C126.649 255.347 127.189 255.335 127.679 255.02C128.509 254.493 129.024 253.739 129.576 252.96C130.004 252.357 130.644 250.611 131.637 250.875C131.7 250.875 132.076 250.586 132.152 250.51C132.642 250.221 133.195 250.209 133.722 249.97C133.999 249.832 134.237 249.832 134.539 249.744C134.702 249.669 134.966 249.53 135.129 249.405C135.368 249.166 135.569 248.852 135.808 248.601C136.122 248.249 136.587 247.922 136.775 247.47C138.308 247.118 139.011 245.573 140.67 245.573C140.971 245.636 140.569 245.209 141.021 245.322C140.808 244.329 142.001 243.902 142.454 243.261C142.403 243.299 143.119 243.261 143.195 243.236C143.383 243.148 143.559 243.035 143.722 242.897C144.124 242.533 144.376 242.256 144.878 241.992C145.067 241.879 145.293 241.741 145.481 241.616C145.984 241.327 146.537 241.113 147.052 240.837C147.906 240.359 148.346 239.631 149.074 239.015C149.828 238.349 150.67 237.859 151.574 237.457C151.612 237.445 151.901 237.52 151.989 237.495C152.203 237.445 152.366 237.281 152.579 237.206C152.806 237.131 153.044 237.156 153.258 237.105C153.459 237.068 153.647 237.005 153.873 237.03C154.225 237.03 154.389 237.168 154.69 237.319C155.092 237.482 155.381 237.734 155.695 238.01C156.374 238.563 157.278 238.776 158.12 238.927C158.936 239.09 159.728 239.266 160.482 239.53C161.273 239.794 162.014 240.146 162.693 240.636C162.793 240.736 163.019 241 163.158 241.063C163.334 241.1 163.271 241 163.434 240.975C163.824 240.937 164.276 241.05 164.728 240.987C164.866 240.962 165.03 240.95 165.18 240.925C165.444 240.887 165.683 240.925 165.947 240.925C166.374 240.925 166.876 240.95 167.278 241.1C167.63 241.226 167.856 241.502 168.246 241.427C168.711 241.352 169.1 241.025 169.577 241C170.055 241 170.469 241.301 170.897 241.389C171.474 241.54 172.077 241.54 172.668 241.515C173.057 241.515 173.748 241.666 174.113 241.54C174.665 241.389 175.042 241.276 175.407 241.754C175.608 241.389 176.324 241.515 176.6 241.59C176.952 241.666 177.191 241.917 177.517 241.992C177.919 242.106 178.397 242.307 178.786 242.369C179.326 242.42 179.628 242.244 180.08 242.093C180.482 241.992 180.859 241.955 181.223 241.829C181.701 241.666 182.229 241.515 182.731 241.415C182.932 241.352 184.063 241.54 184.163 241.377C185.206 239.982 186.626 241.364 188.045 240.874L188.397 241.151C189 241.289 188.246 240.987 188.673 240.874C189.402 240.51 190.093 239.957 190.746 239.455C191.55 239.191 193.322 239.568 192.957 238.462C193.447 238.324 194.214 237.972 194.503 238.462C194.465 238.399 196.576 237.834 196.726 237.771C197.053 237.646 197.48 237.482 197.706 237.193C197.882 237.005 198.033 236.779 198.184 236.578C198.221 236.527 198.284 236.339 198.36 236.289C198.41 236.239 198.586 236.289 198.586 236.276C199.025 235.937 199.44 235.535 199.742 235.032C200.056 234.568 200.043 233.952 200.395 233.5C200.709 233.135 201.023 232.934 201.299 232.495C201.563 232.017 201.84 231.502 202.417 231.351C202.593 231.753 202.468 232.231 202.468 232.645C202.443 233.098 202.631 233.563 202.543 234.015C202.443 234.455 202.216 234.819 202.154 235.271C202.103 235.774 202.129 236.264 202.141 236.779C202.129 237.294 201.915 237.796 201.915 238.286C201.865 239.467 200.985 241.276 201.262 242.269C200.973 242.595 200.885 242.947 200.809 243.337C200.671 243.714 200.47 244.078 200.357 244.43C200.294 244.706 200.357 244.932 200.357 245.221C200.357 245.673 200.219 246.088 200.257 246.528C200.269 247.068 200.382 247.545 200.231 248.035C200.081 248.525 199.905 248.952 199.804 249.493C199.742 250.058 199.804 250.636 199.754 251.201C199.679 251.679 199.226 252.219 199 252.633C198.699 253.098 198.397 253.576 198.297 254.116C198.171 254.769 198.247 255.473 198.083 256.139C197.92 256.729 197.857 257.294 197.807 257.872C197.719 258.513 197.329 259.103 197.48 259.782C197.166 260.799 196.525 262.068 196.676 262.91C194.377 264.254 196.375 265.925 195.658 267.948C194.93 269.418 197.505 268.991 196.777 270.662C196.764 270.724 196.701 270.812 196.689 270.888C198.561 272.169 200.319 273.488 202.267 274.418C202.43 274.041 202.757 273.589 203.033 273.287C203.887 273.136 204.113 272.307 205.081 272.445C206.413 272.445 207.794 272.559 208.925 271.579C209.013 270.41 210.521 270.322 210.37 269.053C211.023 268.765 211.589 267.847 212.267 268.224C212.92 268.513 213.31 266.717 213.548 266.453C213.737 266.189 213.976 266.164 214.151 265.938C214.352 265.699 214.34 265.41 214.591 265.146C214.767 264.97 214.88 264.744 215.069 264.556C215.219 264.355 215.37 264.279 215.634 264.116C216.312 263.714 216.023 263.387 216.262 262.684C216.3 262.533 216.438 262.42 216.513 262.307C216.702 261.855 216.664 261.604 216.928 261.164C217.179 260.787 217.342 260.31 217.468 259.857C217.958 257.596 218.435 255.322 218.976 253.061C219.089 252.508 219.817 245.535 220.245 245.535H220.358C220.395 244.794 220.358 243.299 221.149 242.646C221.124 242.03 221.451 240.899 220.747 240.472C221.124 240.07 221.086 238.864 221.425 239.015C221.187 238.01 221.363 237.545 222.091 236.754C222.745 235.56 224.152 235.146 224.805 233.965C227.72 231.703 230.571 229.655 233.587 227.356C235.572 226.64 237.758 224.077 240.057 223.939C240.898 223.638 242.293 224.567 242.959 223.788L243.411 224.291C244.001 224.756 245.132 224.831 245.383 225.258L245.61 225.108C245.61 225.108 245.873 225.447 245.873 225.472C245.823 225.384 246.652 225.61 246.728 225.623C247.13 225.748 248.424 225.673 248.348 226.263C248.424 226.226 248.951 225.711 248.951 225.711C249.994 226.552 251.401 226.665 252.708 226.075C253.323 225.799 253.901 225.598 254.504 225.359C254.756 225.233 254.994 225.032 255.245 224.907C255.647 224.693 255.962 224.68 256.414 224.593C256.916 224.479 257.394 224.178 257.884 223.914C258.336 223.638 258.864 223.537 259.316 223.311C260.195 222.871 261.062 221.188 262.13 222.004C263.198 221.653 262.947 220.422 264.216 220.133C264.266 220.107 264.53 219.065 264.567 218.939C264.718 218.525 264.743 218.198 264.731 217.758C264.706 217.218 265.082 216.715 264.994 216.163C264.944 215.698 264.605 215.195 264.429 214.756H264.504Z" fill="#004098"/>
<path d="M306.528 185.27C306.528 185.27 309.769 204.215 324.305 217.658C310.41 213.7 291.101 203.21 290.045 182.003C289.254 165.345 296.641 158.875 299.003 154.013C302.722 166.865 313.576 169.038 322.006 181.84C329.406 193.071 331.315 213.323 331.692 218.223C327.157 214.994 316.177 204.303 306.528 185.295V185.27Z" fill="#004098"/>
<path d="M403.264 285.976C403.264 285.436 402.209 285.159 403.063 284.732C402.586 284.431 402.8 283.903 402.573 283.501C402.611 282.446 402.209 281.328 402.259 280.486C401.82 278.79 401.443 277.998 402.033 276.591H401.82C401.857 276.692 401.719 276.742 401.656 276.855C401.506 276.629 401.091 276.516 401.267 276.177C401.418 276.026 401.606 275.85 401.845 275.963L402.134 274.807C401.845 274.694 401.694 274.883 401.506 275.033L401.619 275.172L401.342 275.461L400.802 274.33C402.686 273.413 402.008 271.214 401.97 269.719C401.681 269.87 401.367 269.82 401.217 269.493C401.179 269.166 401.317 268.94 401.593 268.802C401.82 269.016 401.593 269.292 401.983 269.493C402.674 268.413 401.644 267.332 402.083 266.34L401.593 266.264C401.191 265.837 401.933 265.624 401.694 265.096C401.43 264.744 401.367 264.568 401.016 264.568C401.091 264.141 401.367 263.877 401.707 263.613C401.769 263.676 401.857 263.827 402.033 263.764L401.732 263.475C401.782 263.249 401.82 263.061 402.083 262.923L401.656 262.546C401.656 262.37 401.518 262.043 401.845 262.031L402.146 262.319C401.744 261.754 402.372 261.164 402.247 260.737C401.782 260.46 401.832 259.618 401.166 259.53C403.352 258.915 401.129 257.809 402.184 256.578C400.149 256.415 402.888 255.397 402.335 254.493C401.945 254.794 401.367 254.97 400.978 254.606C401.468 253.814 400.588 251.766 401.845 251.754L401.518 251.716C400.965 250.322 401.418 249.279 401.493 247.972C402.121 248.324 401.97 247.621 402.41 247.495C402.774 246.992 402.586 246.389 402.109 246.151C402.573 246.465 402.209 246.603 402.058 246.879C401.857 246.791 401.543 246.942 401.493 246.603C401.43 246.113 401.656 245.711 402.058 245.41C402.159 245.359 402.209 245.497 402.322 245.598C401.468 244.706 403.403 245.548 402.888 244.166C402.511 244.241 402.473 244.354 402.222 244.693C402.109 244.857 401.795 244.166 401.795 244.153C401.681 243.814 401.983 243.324 402.058 242.985C402.184 242.181 402.46 241.063 402.284 240.246C402.247 239.882 402.347 239.718 402.184 239.404C402.121 239.279 401.405 239.053 401.506 238.776C401.694 238.311 402.109 237.809 402.498 237.62L402.385 237.419L402.058 237.683C401.857 237.645 401.681 237.683 401.631 237.507C401.832 237.394 401.795 237.218 401.795 237.017C402.146 236.892 402.222 236.289 402.812 236.439V236.188C402.021 236.125 402.649 233.726 401.845 233.6C403.164 232.557 402.109 230.849 402.599 229.68C402.423 229.567 402.272 229.806 402.134 229.919C401.656 229.165 402.599 229.304 402.875 228.864L402.423 228.286L402.774 228.072C402.649 228.135 402.712 224.731 402.712 224.429C402.737 223.499 402.435 222.545 402.146 221.64C401.945 220.861 401.996 219.806 401.694 219.127C401.267 218.952 401.38 219.957 400.903 219.316C400.865 219.077 401.179 219.077 401.279 218.939C401.506 218.298 401.003 217.645 400.526 217.343L400.689 217.193C400.501 217.054 400.35 216.841 400.425 216.59C400.35 215.836 400.689 215.233 399.897 214.994C400.651 213.135 397.335 211.539 397.611 210.27C396.983 209.479 396.543 208.662 395.89 207.934C395.84 207.858 395.664 207.708 395.727 207.582L395.136 207.871C395.337 206.79 393.754 206.376 393.892 205.019C391.757 203.65 389.156 200.961 386.593 200.471C383.741 200.308 376.869 203.336 377.837 207.167C378.276 208.951 378.44 211.288 379.168 212.921C379.495 213.562 380.349 213.838 380.6 214.504C380.776 215.057 380.6 216.075 380.751 216.451C381.178 217.381 381.467 218.411 381.241 219.492C381.668 221.791 381.543 223.424 381.354 225.459C382.183 226.69 382.359 228.211 381.882 229.542C382.711 231.59 381.643 232.306 381.706 233.877C381.731 234.454 381.241 234.266 381.58 234.693C381.204 235.183 381.442 235.598 381.329 236.012C381.266 236.389 381.141 236.791 381.103 237.156C381.003 237.495 380.99 237.909 380.94 238.198C380.789 238.939 381.367 239.555 380.475 239.957C380.148 240.095 379.834 239.819 379.608 239.907C379.344 240.02 379.294 240.334 379.03 240.447C378.515 240.661 375.676 240.874 375.538 241.264C375.06 242.369 373.063 242.332 372.321 242.847C371.831 243.148 371.166 243.99 370.475 244.731C370.475 244.731 370.462 244.731 370.437 244.731C370.387 244.756 370.349 244.832 370.349 244.832C370.06 244.882 369.834 245.234 369.57 245.045C369.47 245.535 368.904 245.183 368.678 245.523C368.741 245.673 368.427 245.56 368.615 245.724C368.578 245.812 368.477 245.987 368.326 245.925C368.138 246.377 367.61 246.503 367.246 246.716C367.221 247.118 366.781 247.545 366.505 247.847C366.58 247.884 366.505 247.985 366.53 248.085C366.241 248.06 366.203 248.513 365.902 248.236V248.651C365.851 248.839 365.613 248.814 365.537 248.902C365.437 249.367 365.148 249.668 364.947 250.02C364.871 250.045 364.784 250.045 364.708 249.982C364.57 250.46 364.055 250.108 363.816 250.435C363.854 250.573 363.565 250.472 363.728 250.648C363.678 250.736 363.59 250.925 363.439 250.862C363.251 251.302 362.748 251.415 362.371 251.653C362.346 252.018 361.894 252.445 361.63 252.772C361.693 252.859 361.643 252.897 361.655 253.01C361.366 252.985 361.329 253.45 361.027 253.199V253.588C360.964 253.802 360.763 253.764 360.65 253.839C360.474 254.442 360.097 254.782 359.947 255.272C358.979 256.314 358.062 257.357 357.032 258.4C356.316 259.091 356.567 260.008 355.851 259.995C355.851 259.97 355.826 259.932 355.826 259.895C355.65 259.845 355.864 259.644 355.638 259.731C355.575 259.644 355.499 259.468 355.6 259.355C355.311 258.978 355.474 258.475 355.462 258.048C355.148 257.797 354.997 257.231 354.846 256.842C354.746 256.892 354.708 256.779 354.632 256.741C354.783 256.503 354.406 256.251 354.783 256.113L354.431 255.9C354.318 255.774 354.431 255.598 354.381 255.473C353.791 254.857 353.791 254.078 352.899 253.751C352.999 253.349 352.446 253.249 352.283 253.174C352.245 253.148 352.233 253.048 352.208 253.023C352.17 252.985 352.132 252.973 352.082 252.947C351.957 252.91 351.818 252.809 351.743 252.709C351.655 252.633 351.605 252.52 351.517 252.445C351.454 252.369 351.366 252.282 351.253 252.256C351.19 252.244 351.102 252.219 351.002 252.181H350.977C350.537 251.817 350.06 251.465 349.57 251.113C348.451 250.962 346.931 250.284 345.964 250.586C345.336 250.121 344.532 250.498 343.866 250.46C342.346 249.945 341.63 251.804 340.336 250.9C340.926 250.234 342.22 247.998 342.723 247.47C342.723 246.214 344.268 245.46 344.243 244.291C344.218 243.739 345.713 242.96 344.833 242.445C345.399 241.678 346.492 240.183 345.738 239.668C346.806 238.336 347.987 234.769 347.899 232.922C347.622 232.042 347.208 231.389 346.73 230.824C346.781 230.773 346.843 230.698 346.906 230.673C346.441 229.743 345.813 228.437 344.883 228.085C343.765 227.608 344.318 225.221 342.685 225.66C342.848 225.61 342.094 225.17 342.094 225.17C342.007 225.07 342.019 224.919 341.919 224.831C341.768 224.668 341.592 224.592 341.391 224.467C341.265 224.391 341.127 224.316 340.976 224.203C340.738 224.04 340.16 224.077 339.733 224.052C335.7 222.092 329.406 221.251 325.21 220.698C324.958 220.61 324.732 220.534 324.431 220.371C324.431 220.371 324.154 220.497 324.104 220.509C323.978 220.534 323.853 220.509 323.689 220.447C323.451 220.346 323.199 220.158 322.898 220.158C322.71 220.158 322.509 220.258 322.333 220.271C321.88 220.321 320.235 219.655 319.996 220.333C317.609 220.158 315.121 220.12 313.174 220.132C310.511 220.522 307.948 219.957 305.536 220.346C305.058 220.271 304.443 220.924 304.179 220.321C303.438 220.22 302.734 220.057 302.207 220.597C299.556 220.509 297.068 221.489 294.568 220.534C294.116 221.313 293.525 220.823 292.797 220.773C291.867 220.698 291.842 221.024 291.025 221.225C290.309 221.401 284.492 221.602 283.06 221.929C282.52 222.042 282.231 221.929 281.879 221.879L281.98 222.08C281.829 222.143 281.716 222.231 281.616 222.344C281.477 222.432 281.477 222.645 281.201 222.796C281.239 222.947 281.151 223.11 281.1 223.223C281.063 223.298 281.012 223.349 280.975 223.424C280.975 223.462 280.95 223.512 280.95 223.512C280.95 223.562 280.975 223.6 280.95 223.638C280.874 223.989 280.824 224.291 280.598 224.58C280.51 224.668 280.56 224.756 280.56 224.844C280.56 224.969 280.56 225.107 280.51 225.208C280.472 225.271 280.447 225.321 280.447 225.422C280.447 225.509 280.497 225.522 280.523 225.585C280.56 225.648 280.523 225.736 280.497 225.824C280.497 225.912 280.523 226.012 280.497 226.1C280.497 226.175 280.485 226.238 280.485 226.314C280.485 226.477 280.523 226.653 280.485 226.803C280.485 226.904 280.46 226.979 280.485 227.042C280.485 227.092 280.548 227.256 280.598 227.193C280.485 227.306 280.46 227.545 280.485 227.695C280.975 227.947 280.46 228.5 280.799 228.776C280.761 228.851 280.774 228.927 280.849 229.015C281 229.09 281.025 229.316 281.251 229.442C281.301 229.856 281.389 230.258 281.565 230.598C281.691 230.773 281.779 230.912 281.917 231.012C281.779 231.138 281.653 231.226 281.528 231.376C281.565 231.427 281.59 231.477 281.653 231.527C281.716 231.59 281.766 231.665 281.766 231.766C281.804 231.829 281.804 231.892 281.842 231.954C281.892 232.017 281.942 232.017 281.967 232.105C282.005 232.181 282.043 232.256 282.143 232.344C282.193 232.394 282.244 232.394 282.269 232.482C282.357 232.545 282.332 232.67 282.357 232.746C282.357 232.821 282.382 232.871 282.394 232.934C282.394 233.01 282.432 233.06 282.482 233.123C282.482 233.16 282.482 233.198 282.495 233.236C282.495 233.236 282.495 233.257 282.495 233.299H282.533C282.621 233.562 282.985 233.851 283.023 234.153C283.023 234.153 283.111 234.178 283.136 234.191C283.161 234.228 283.186 234.253 283.211 234.279C283.261 234.341 283.286 234.429 283.312 234.542C283.324 234.618 283.399 234.63 283.475 234.718C283.513 234.756 283.802 234.97 283.751 235.057C283.902 235.208 284.04 235.372 284.191 235.56C284.216 235.61 284.568 236.075 284.593 236.025L284.568 236.1C284.681 236.176 284.781 236.527 284.995 236.615C284.907 236.841 285.196 236.917 285.297 237.093L285.322 237.055C285.322 237.055 285.359 237.13 285.359 237.143C285.384 237.181 285.397 237.206 285.397 237.256C285.397 237.256 285.405 237.277 285.422 237.319C285.422 237.319 285.485 237.357 285.523 237.382C285.56 237.419 285.573 237.419 285.611 237.444C285.699 237.507 285.749 237.558 285.812 237.495C285.912 237.57 286.013 237.558 286.075 237.507C286.302 238.035 286.49 238.45 286.591 238.6C287.395 238.676 286.854 239.455 287.432 239.806C287.784 240.108 288.01 240.334 288.425 240.372C289.153 239.115 291.377 240.108 292.37 239.857C293.827 239.919 295.372 240.095 296.465 239.455C297.231 240.171 298.036 238.424 299.154 238.927C300.008 237.897 301.591 238.613 302.609 238.399L302.47 238.261C303.199 237.746 304.254 237.884 304.908 237.457C305.159 237.545 305.41 237.143 305.649 237.683L306.44 237.042C308.086 237.243 309.845 236.615 311.616 236.49C312.094 236.213 312.433 236.753 312.91 236.188C313.337 236.502 313.94 235.849 314.418 236.289C316.466 234.731 319.795 235.748 321.993 235.748L321.78 235.849L322.081 235.887C322.081 235.635 322.308 235.61 322.433 235.51C323.137 236.238 324.167 235.183 324.996 235.686C325.197 235.598 325.587 235.459 325.737 235.686C328.463 236.452 329.569 235.937 330.398 236.779C330.725 237.181 330.976 237.934 331.491 238.324C331.001 241.678 328.275 244.907 326.441 247.658C326.24 248.374 326.466 249.329 325.712 249.467C325.536 250.183 323.715 252.797 321.353 254.97C319.506 256.679 316.868 258.714 316.579 259.254C316.503 259.782 314.129 261.591 311.453 264.292C309.82 265.95 308.136 267.709 306.968 269.066C306.83 269.166 306.516 269.48 306.352 269.33C306.352 269.367 306.352 269.631 306.352 269.631C305.862 269.681 305.448 270.008 305.247 270.523C305.159 270.749 305.046 270.95 304.958 271.202C304.92 271.29 304.908 271.415 304.882 271.516C304.857 271.679 304.719 271.767 304.644 271.905C304.556 272.068 304.48 272.282 304.43 272.471C304.392 272.672 304.254 272.822 304.179 273.023C304.066 273.35 304.267 274.053 303.764 274.104C303.601 274.493 303.953 274.757 303.702 275.172C303.702 275.172 303.89 275.536 303.915 275.586C303.965 275.712 304.066 275.825 304.179 275.925C304.242 275.988 304.267 276.051 304.317 276.114C304.342 276.214 304.367 276.315 304.405 276.415C304.933 278.086 307.031 277.106 308.099 278.25C308.45 278.124 308.764 278.011 309.104 277.873C309.104 277.873 309.192 277.885 309.192 277.873C309.305 277.822 309.455 277.772 309.568 277.734C309.782 277.822 309.958 277.772 310.134 277.709C310.272 277.734 310.373 277.772 310.373 277.885H310.649C310.586 277.772 310.699 277.722 310.775 277.647C311.478 277.797 311.868 277.069 312.408 276.993C313.111 278.074 313.287 276.164 314.116 276.943C314.154 276.868 314.443 276.667 314.92 276.327C315.046 276.327 315.147 276.365 315.297 276.415C315.624 276.516 315.662 276.478 315.863 276.177C315.976 276.001 316.001 275.925 316.039 275.699C316.039 275.699 315.938 275.624 315.913 275.586C315.925 275.586 315.951 275.561 315.963 275.561L316.039 275.699C316.126 275.724 316.214 275.749 316.302 275.699C316.478 275.636 316.554 275.398 316.654 275.26C316.792 275.096 316.993 275.008 317.169 274.895C317.345 274.807 318.828 274.744 318.966 274.581C319.104 274.38 319.179 274.179 319.405 274.016C319.519 273.928 319.644 273.865 319.77 273.79C319.895 273.739 319.921 273.677 320.008 273.589C320.159 273.413 320.26 273.84 320.448 273.664C320.725 273.4 321.114 273.4 321.403 273.149C321.554 272.973 321.554 272.873 321.704 272.634C321.83 272.332 322.194 272.257 322.433 272.068C322.609 271.968 322.684 271.792 322.797 271.704C323.049 271.503 323.375 271.503 323.664 271.378C323.978 271.227 324.104 270.913 324.255 270.573C324.531 270.058 324.858 269.631 325.134 269.141C325.461 268.827 326.692 268.676 326.692 268.237C328.087 268.274 327.81 266.641 329.205 266.679C329.205 266.277 329.72 265.837 330.046 265.674C331.315 265.837 330.863 264.543 331.843 264.217C331.943 264.154 331.994 263.287 332.132 263.224C332.232 263.149 332.371 263.161 332.471 263.124C332.66 263.073 332.672 263.124 332.798 263.098C332.974 263.086 333.112 262.998 333.162 262.835C333.2 262.634 333.237 262.521 333.426 262.407C333.514 262.345 333.602 262.332 333.665 262.257C333.765 262.131 333.778 262.031 333.853 261.917C334.029 261.704 333.753 261.742 333.815 261.465C334.582 261.101 334.28 259.907 334.971 259.782C335.75 259.154 336.554 257.721 337.597 257.056C337.836 256.955 338.313 256.98 338.225 256.553C338.212 256.453 338.539 256.339 338.602 256.289C338.728 256.251 338.979 256.339 339.092 256.264C339.167 256.214 339.092 256.063 339.243 255.988C339.381 255.95 339.532 256.063 339.645 255.988C339.733 255.988 339.821 255.912 339.833 255.875C339.959 255.812 340.122 255.787 340.248 255.812C340.361 255.812 340.411 255.812 340.512 255.787C340.8 255.862 341.077 255.975 341.366 256.126C344.017 257.885 346.039 258.588 345.273 263.475C344.858 264.719 345.022 267.37 343.69 268.274C344.004 268.576 343.753 268.978 343.803 269.342C343.552 269.418 343.414 269.719 343.137 269.669C343.288 270.247 341.165 273.513 340.989 273.852C341.064 274.619 340.336 275.059 340.75 275.737C340.348 277.345 340.172 277.697 341.617 279.28C342.936 279.518 346.127 278.652 346.894 277.571C347.409 277.471 347.723 277.521 348.024 276.993C349.833 276.704 352.761 271.767 353.64 269.983C355.047 269.644 354.884 267.395 355.6 266.528C356.906 265.536 356.793 265.372 358.138 264.418C361.203 262.759 363.251 260.385 366.618 259.091C368.339 257.118 371.04 257.206 373.037 255.887C374.759 255.447 376.254 254.241 377.975 253.651C378.628 253.475 378.477 254.995 379.168 254.128C380.035 255.058 379.231 256.365 379.746 257.508C379.671 262.948 379.055 266.478 379.068 271.93C378.126 272.847 378.515 273.953 378.791 274.996L377.987 275.486L378.113 275.636C376.492 277.069 376.492 278.614 375.362 280.134C375.349 280.574 374.017 280.8 374.771 281.415C374.683 282.333 373.427 282.647 373 283.388L372.598 282.998L372.522 283.614C372.284 283.715 372.12 284.016 371.869 283.966C370.625 285.009 370.412 287.169 368.753 287.973L368.867 288.099C368.502 288.602 367.723 289.054 367.849 289.632C366.995 289.745 366.944 291.114 366.253 291.014C366.103 292.333 365.06 293.112 364.495 294.154C363.829 295.361 361.68 297.697 361.228 298.753C360.65 299.707 359.545 300.172 359.331 301.429C358.389 302.848 356.605 304.079 355.298 305.248C354.62 307.497 349.72 312.258 348.841 314.406C348.69 314.796 348.577 316.115 348.414 316.316C348.225 316.592 348.263 317.459 347.735 317.145L347.899 317.283C347.208 318.678 346.014 319.595 345.788 320.813C345.939 321.957 343.803 322.685 344.255 324.005C343.627 324.771 343.589 326.077 343.288 326.831C342.094 331.191 341.667 332.208 343.866 339.08L344.745 339.281C346.027 341.216 346.14 343.163 347.974 344.432C350.273 345.776 357.585 348.239 359.896 348.025C360.499 347.724 361.505 348.264 361.969 348.013C363.741 348.201 365.675 347.56 367.434 347.447C370.261 347.925 371.831 347.736 374.369 346.543C375.437 345.638 377.045 345.588 378.264 344.57C379.859 344.068 384.822 342.234 385.864 340.713C388.653 339.62 389.483 337.397 391.631 335.424C392.071 334.809 392.159 333.439 393.025 333.088C392.85 332.12 393.666 330.186 393.704 329.13C393.415 328.716 393.076 328.075 393.503 327.61C392.988 326.128 392.548 324.532 392.221 323.163C392.196 323.012 392.322 322.937 392.41 322.861C391.229 321.329 391.518 319.859 390.086 318.527C389.671 317.761 389.445 316.605 388.44 316.655C387.749 314.821 384.885 313.979 384.043 311.982L383.917 312.07C383.591 311.869 382.46 311.831 382.359 311.391C379.935 310.072 375.274 308.389 372.899 307.61C373 308.049 373.188 308.062 373.465 308.426C372.573 309.205 374.244 309.607 374.017 310.612C371.944 311.165 370.248 310.223 368.213 310.311V310.474C367.811 310.562 367.472 310.75 367.133 310.323L367.321 310.185C367.083 309.507 367.66 308.627 368.276 307.974C367.723 306.78 369.432 306.881 369.294 305.763C369.809 305.022 370.324 304.13 371.04 303.175C370.826 302.383 372.196 301.994 371.957 301.19C372.711 299.569 374.62 299.167 374.708 297.32C375.613 296.906 375.764 296.24 376.329 295.825C376.43 295.461 376.593 294.996 377.007 294.871C377.849 295.046 378.666 293.815 379.269 294.443V294.318C379.696 293.765 380.814 293.074 381.09 292.798C382.246 291.843 384.369 293.363 385.638 293.049C385.563 291.667 386.631 293.2 387.171 292.408C387.422 292.559 387.586 292.886 387.887 292.948C388.251 293.175 388.741 292.496 389.005 292.232C389.005 292.232 389.319 292.659 389.357 292.71C390.437 291.943 391.832 291.579 393.138 291.353C393.742 291.215 395.676 291.215 395.789 291.051C396.141 290.486 396.468 291.014 396.807 291.001C397.737 290.725 399.156 289.695 400.111 289.443L399.948 289.205C400.84 288.903 400.915 288.79 401.908 288.752C404.144 288.777 402.511 287.132 403.239 286.064L403.264 285.976ZM401.694 272.634L401.556 272.797C400.475 272.282 402.109 271.227 401.694 272.634ZM401.493 266.428C402.272 266.654 401.041 267.219 401.807 267.646C401.568 267.621 401.807 268.011 401.48 267.898L401.053 267.86C401.217 267.32 401.732 267.068 401.506 266.428H401.493ZM401.87 260.335L402.033 261.113C401.656 261.49 401.355 260.95 401.066 260.85C401.166 260.85 401.681 260.762 401.87 260.335ZM401.556 229.894L401.506 230.346L401.355 230.522L401.556 229.894ZM378.352 323.05C379.382 324.005 378.452 324.922 379.495 325.876C379.784 327.522 379.281 329.557 379.495 331.065C378.653 331.806 378.49 333.213 377.46 333.628L376.832 334.52L376.631 334.382C376.053 335.022 375.299 335.022 374.935 335.738C372.296 336.329 369.809 337.837 367.108 337.422C366.052 337.585 364.457 337.171 363.427 336.455C362.434 336.543 363.427 335.726 362.51 335.701C361.178 335.399 361.216 333.716 360.311 333.15C359.934 330.223 361.027 326.768 361.228 324.243C362.258 323.351 361.542 321.417 363.025 320.813C362.396 319.356 363.389 318.075 364.218 317.057C364.118 315.964 364.294 315.989 364.784 315.135C365.826 315.097 364.821 314.193 365.663 313.904L365.537 313.753C365.738 313.037 366.379 312.522 367.145 312.497C371.819 314.733 376.442 317.937 378.339 323.062L378.352 323.05ZM399.923 274.606L399.709 274.468L400.073 274.204L400.174 274.393L399.923 274.606ZM401.191 278.513C401.292 278.149 400.877 277.848 401.418 277.684L401.191 278.513Z" fill="#004098"/>
</g>
<defs>
<clipPath id="clip0_315_6">
<rect width="311.264" height="194" fill="white" transform="translate(92 154)"/>
</clipPath>
</defs>
</svg>
