<svg width="512" height="200" viewBox="0 0 512 200" fill="none" xmlns="http://www.w3.org/2000/svg">
<rect width="512" height="200" fill="white"/>
<g clip-path="url(#clip0_315_6)">
<path d="M272.534 113.678C272.57 113.247 272.588 112.824 272.633 112.401C272.678 111.988 272.714 111.583 272.75 111.161C272.777 110.837 272.687 110.262 272.831 109.956C272.912 109.74 272.696 109.615 272.921 109.426C272.786 108.464 273.272 107.43 273.029 106.477C272.723 106.126 273.469 105.83 272.984 105.497C273.011 105.344 273.281 105.335 273.191 105.156C273.011 104.67 273.173 104.517 273.101 104.05C273.595 103.753 272.912 103.223 273.173 102.953C273.137 102.782 273.038 102.513 273.11 102.243C272.948 102.045 273.038 101.964 273.065 101.775C273.101 101.533 273.038 101.317 273.011 101.074C273.011 100.795 272.975 100.526 273.011 100.238C273.038 99.9863 273.056 99.7256 273.056 99.4469C273.092 98.9795 273.128 98.2872 272.795 97.9186C272.921 97.7568 273.092 97.5411 273.029 97.3343C272.579 97.1725 273.2 96.714 272.723 96.5432L272.75 96.4803C272.75 96.3005 272.687 96.1566 272.526 96.0218L272.615 95.9678C272.723 95.7161 272.795 95.2217 272.4 95.1318C272.561 94.5924 272.337 93.7833 271.887 93.4147C272.112 92.9022 271.653 92.6505 271.6 92.237L271.528 92.2819C271.42 91.8145 270.602 91.6077 270.314 91.0593C270.26 91.1852 270.089 91.0953 269.981 91.1222C269.676 90.6458 269.118 90.9065 268.831 90.5109C268.651 90.2772 268.651 90.6547 268.417 90.6188L268.381 90.5648C268.246 90.43 267.923 90.5109 267.716 90.6637C268.048 90.8795 267.608 91.1132 267.527 91.356C267.581 91.8594 266.943 92.2909 266.925 92.7944C267.743 93.4956 266.898 94.6733 267.374 95.3565L267.428 95.2756C267.923 95.7071 267.221 96.1386 267.464 96.5791C268.049 97.0017 267.869 97.64 267.941 98.1973C268.345 98.6019 267.761 99.2402 268.3 99.4649L268.228 99.5009C268.255 99.8605 268.004 100.166 268.147 100.472C268.004 100.589 268.147 100.858 267.977 100.993C268.264 101.587 268.138 102.171 268.165 102.728C267.662 102.935 268.273 103.322 268.04 103.501C267.932 103.69 268.228 104.014 267.995 104.131L268.165 104.409L267.977 104.589C267.95 104.805 267.5 105.048 267.932 105.228C267.977 105.443 267.833 105.515 267.815 105.812C268.04 106.019 267.626 106.342 268.013 106.585C267.923 106.666 267.878 106.792 267.752 106.792C267.716 106.891 267.725 107.034 267.824 107.115C267.743 107.331 268.022 107.655 267.725 107.862C268.022 108.617 267.5 109.462 267.68 110.244L267.545 110.379L267.716 110.577C267.77 111.008 267.203 111.556 267.554 111.997C267.5 112.195 267.536 112.428 267.32 112.563C267.32 112.86 267.221 113.283 267.033 113.57C267.087 113.507 267.194 113.876 267.176 113.939C267.158 114.083 267.069 114.199 266.997 114.316C266.925 114.478 266.898 114.613 266.853 114.766C266.79 114.955 266.7 115.054 266.601 115.251C266.394 115.593 266.349 115.935 266.044 116.231C265.711 116.537 265.28 116.78 264.83 116.852C264.479 116.941 264.228 117.004 263.931 117.193C263.697 117.328 263.401 117.301 263.167 117.427C262.933 117.553 262.664 117.733 262.466 117.876C261.998 118.2 261.603 118.605 261.252 119.027C261.585 118.542 262.079 118.793 262.448 118.488C262.574 118.533 262.942 118.524 262.933 118.605C263.338 118.757 262.906 118.703 263.248 118.784C263.841 118.434 264.83 118.892 265.423 119C266.358 119.189 266.817 119.845 267.662 120.151C268.39 120.421 269.217 120.034 269.784 119.531C270.332 119.045 270.665 118.308 271.213 117.831C271.402 117.661 271.51 117.607 271.662 117.391C271.851 117.067 272.121 116.609 272.193 116.222C272.238 116.006 272.211 115.737 272.265 115.494C272.301 115.269 272.4 115.081 272.445 114.856C272.508 114.478 272.526 114.083 272.561 113.705L272.534 113.678Z" fill="#8FC31F"/>
<path d="M259.373 100.526C259.957 100.211 259.778 101.002 260.056 101.218C259.984 101.164 259.94 101.775 259.948 101.829C259.984 102.054 260.11 102.252 260.191 102.458C260.353 102.872 260.362 103.25 260.335 103.699C260.308 104.104 260.371 104.535 260.308 104.931C260.281 105.155 260.245 105.389 260.209 105.614C260.146 105.839 260.101 106.81 259.957 106.89C260.02 107.169 259.922 107.789 259.643 107.978C259.481 108.077 259.364 107.951 259.247 108.158C259.139 108.32 259.157 108.527 259.121 108.697C259.058 108.859 258.942 108.94 258.87 109.066C258.681 109.444 258.96 110.082 258.654 110.361C258.726 110.54 258.888 111.044 259.157 111.224C259.067 111.394 259.247 111.619 259.265 111.808C259.652 112.168 259.355 112.581 259.607 112.923C259.571 113.417 260.236 113.579 260.488 113.993C261.009 113.984 261.594 113.759 261.845 113.291L261.791 113.219L261.917 113.112L261.953 113.183L262.592 112.761L262.502 112.68C262.592 112.779 262.663 112.41 262.637 112.437C262.663 112.41 262.619 112.374 262.637 112.329C262.654 112.293 262.735 112.329 262.753 112.293C262.906 112.051 263.167 111.835 263.32 111.547C263.428 111.305 263.527 111.152 263.688 110.918C263.859 110.684 264.057 110.397 264.21 110.127C264.291 110.01 264.291 109.884 264.309 109.758C264.381 109.534 264.417 109.255 264.506 109.048C264.551 108.94 264.677 108.841 264.695 108.733C264.695 108.733 264.695 108.464 264.659 108.509C265.28 107.852 264.417 107.259 265.037 106.603C264.857 106.432 264.893 105.973 264.983 105.74C265.576 105.218 264.83 104.841 265.1 104.211C264.902 103.546 265.477 102.656 265.064 101.955C265.226 101.452 264.974 100.939 265.19 100.544C265.262 99.9502 265.145 99.3658 265.136 98.7995C265.109 98.5028 265.181 98.2151 265.19 97.9005C265.19 97.5319 265.1 97.1453 265.459 96.8846C265.621 96.507 265.307 96.2194 265.073 95.9766C265.235 95.644 264.866 95.8238 264.776 95.644C264.345 95.5901 263.985 95.4103 263.544 95.3563C263.221 95.3293 262.96 95.1675 262.628 95.1136C262.16 95.0507 261.702 95.3653 261.369 95.653C261.234 95.7968 261.117 95.9676 260.946 96.0935C260.901 96.1474 260.425 96.2823 260.47 96.2104C260.065 96.8487 259.301 96.4171 258.942 96.9386C258.285 96.7228 258.492 97.6128 257.908 97.5319C257.584 97.7746 257.791 97.0914 257.476 97.3251C257.539 97.2712 257.099 97.1633 257.045 97.1633C256.928 97.1723 256.748 97.1993 256.64 97.2262C256.299 97.3161 256.002 97.5678 255.642 97.6308C255.382 97.6937 254.968 97.6128 254.653 97.6128C254.276 97.6398 253.709 97.7566 253.314 97.6308C253.134 97.5499 253.044 97.3881 252.882 97.2712C252.73 97.1273 252.478 97.0734 252.28 97.0554C252.217 97.0464 251.525 97.1273 251.552 97.1813C251.507 97.1004 251.417 97.0195 251.435 96.8846H251.327C251.192 96.9565 251.219 97.0644 251.102 97.1273C250.707 97.0015 250.698 96.4441 250.194 96.4441C249.934 96.6958 249.7 96.2283 249.376 96.2553C248.918 96.543 248.306 96.3902 247.848 96.6868C247.947 96.9835 247.632 97.1094 247.443 97.2892C247.506 97.6398 247.12 97.7476 247.389 98.0263C246.904 97.8825 246.796 98.3949 246.392 98.4938C246.005 98.35 245.834 98.7725 245.6 99.0332C245.834 99.4198 245.286 99.6086 245.097 99.8963C244.944 100.606 244.225 100.921 243.82 101.434C243.704 101.514 243.443 101.775 243.281 101.667C243.209 101.748 243.128 101.775 243.137 101.901C242.859 102.18 242.499 102.467 242.157 102.737C241.978 102.899 241.735 102.971 241.591 103.178C241.393 103.447 241.249 103.69 241.034 103.951C240.863 104.158 240.899 104.364 240.791 104.562C240.71 104.715 240.584 104.706 240.467 104.787C240.314 104.877 240.386 104.814 240.296 104.976C240.207 105.164 240.126 105.389 240.099 105.596C239.946 106.234 239.775 107.25 240.449 107.762L240.395 107.798L240.863 108.419L240.908 108.347C241.222 108.536 241.654 108.509 241.987 108.805C242.265 108.67 242.832 108.626 243.155 108.661L243.263 108.805C243.695 108.419 244.405 108.895 244.764 108.518C245.771 108.491 246.634 108.491 247.578 108.41C248.271 108.284 249.053 108.086 249.781 107.753C250.473 107.484 251.228 107.196 251.938 106.908C252.343 106.648 252.837 106.54 253.143 106.234L253.233 106.288C253.943 105.848 254.528 105.542 255.193 104.976C256.137 104.697 255.957 103.681 256.928 103.402C256.856 103.223 256.829 102.791 257.162 102.836C257.18 102.575 257.476 102.386 257.35 102.135C257.737 101.937 257.782 101.362 257.683 101.065C257.638 100.858 258.258 100.597 258.393 100.571C258.564 100.535 258.681 100.588 258.879 100.517C259.049 100.445 259.22 100.337 259.391 100.517L259.373 100.526ZM251.012 104.697C250.878 105.227 250.473 104.652 250.194 105.03C248.981 105.38 247.938 105.713 246.499 105.452C245.726 105.344 244.962 105.578 244.558 104.778C244.899 103.933 246.068 103.456 246.697 102.899C247.138 103.097 247.758 102.494 248.037 102.908L248.621 103.133C248.891 102.755 249.053 103.411 249.367 103.133C249.179 103.492 249.673 103.492 249.745 103.717C249.934 103.852 250.06 103.717 250.275 103.717C250.365 103.717 250.464 103.762 250.554 103.762C250.653 103.762 250.689 103.645 250.833 103.654C250.959 103.654 251.012 103.861 251.147 103.915C251.363 104.023 251.723 103.906 251.974 103.906C252.325 103.906 252.604 103.906 252.936 103.771C252.442 104.4 251.759 104.598 251.003 104.715L251.012 104.697Z" fill="#8FC31F"/>
<path d="M275.159 121.499C275.159 121.373 275.133 121.265 275.07 121.131C273.101 121.706 271.177 122.973 269.127 123.261C268.435 123.378 268.066 123.396 267.437 123.702C266.835 123.962 266.17 124.25 265.495 124.151C265.154 124.106 263.832 123.846 263.652 123.558C262.69 123.863 263.329 122.955 262.565 122.821C262.663 122.785 262.699 122.695 262.699 122.641C262.681 122.461 262.403 122.101 262.133 122.218C262.187 122.065 262.331 121.886 262.277 121.778C262.277 121.778 262.079 121.706 262.061 121.688C261.98 121.643 261.908 121.535 261.863 121.463C261.693 121.202 261.576 120.906 261.45 120.636C261.378 120.357 261.351 120.07 261.234 119.809C261.135 119.539 260.803 119.422 260.74 119.171C260.632 118.928 260.713 118.811 260.452 118.676C260.236 118.559 259.265 118.38 259.643 117.957C258.645 117.588 258.168 119.737 257.989 121.85C257.953 121.922 257.881 122.021 257.854 122.11C257.854 122.155 257.881 122.29 257.872 122.299C257.836 122.362 257.836 122.416 257.836 122.461C257.818 122.515 257.791 122.56 257.8 122.623C257.8 122.659 257.8 122.686 257.818 122.722C257.827 122.785 257.818 122.839 257.827 122.902C257.845 122.973 257.89 123.036 257.863 123.099C257.863 123.162 257.827 123.225 257.845 123.306C257.845 123.387 257.872 123.45 257.89 123.54C257.89 123.603 257.818 123.684 257.8 123.756C257.773 123.81 257.737 123.881 257.746 123.971C257.746 124.241 257.971 124.493 257.809 124.771C257.854 124.789 257.89 124.798 257.926 124.834C257.962 125.095 257.98 125.284 258.016 125.428C257.998 125.437 257.971 125.446 257.935 125.446C258.097 125.76 258.276 126.048 258.357 126.345C258.303 126.569 258.609 126.821 258.771 127.01C258.834 127.091 258.852 127.145 258.888 127.208C259.067 127.477 259.22 127.747 259.418 128.017C259.553 128.188 260.128 128.574 260.173 128.763C260.344 128.745 260.497 128.88 260.659 128.844C260.776 129.033 261.108 128.934 261.261 129.132C261.27 129.132 261.297 129.114 261.315 129.096C261.908 129.329 262.538 129.473 263.212 129.491C263.544 129.491 263.868 129.473 264.192 129.437C264.3 129.473 264.372 129.455 264.434 129.392C264.551 129.392 264.641 129.365 264.731 129.329C264.749 129.338 264.767 129.356 264.803 129.365C264.839 129.383 264.911 129.356 264.965 129.356C265.01 129.356 265.046 129.329 265.1 129.32C265.199 129.32 265.306 129.275 265.423 129.248C265.513 129.231 265.594 129.231 265.702 129.204C265.765 129.204 265.918 129.114 265.963 129.168C265.963 129.15 266.044 129.069 266.008 129.06C266.179 129.087 266.331 128.988 266.448 128.925C266.421 128.871 266.448 128.835 266.493 128.808C267.131 128.547 267.734 128.251 268.336 127.909C268.48 127.837 268.651 127.792 268.804 127.747L268.849 127.666C268.849 127.666 268.911 127.621 268.947 127.603C269.01 127.576 269.109 127.576 269.163 127.531C269.199 127.504 269.226 127.45 269.271 127.424C269.316 127.343 269.604 127.172 269.774 127.001C269.999 126.875 270.206 126.731 270.404 126.569C270.476 126.516 270.566 126.453 270.647 126.39H270.665C270.709 126.39 270.754 126.336 270.808 126.327C270.862 126.327 270.898 126.291 270.934 126.282C271.024 126.228 271.105 126.183 271.204 126.129C271.294 126.075 271.384 126.039 271.474 126.003C271.537 125.976 271.635 125.832 271.716 125.886C271.716 125.886 271.761 125.778 271.716 125.787C271.887 125.76 271.986 125.626 272.094 125.527C272.04 125.428 272.166 125.347 272.184 125.248C272.202 125.248 272.211 125.248 272.211 125.248C272.364 125.212 272.382 125.158 272.471 125.05C272.903 124.673 273.344 124.304 273.757 123.899C273.838 123.828 273.91 123.765 274.018 123.702C274.018 123.702 274.027 123.639 274.045 123.612C274.045 123.576 274.081 123.576 274.117 123.549C274.162 123.495 274.252 123.477 274.296 123.396C274.341 123.351 274.341 123.297 274.359 123.27C274.395 123.18 274.683 122.884 274.755 122.65C275.016 122.254 275.142 121.859 275.151 121.49L275.159 121.499Z" fill="#8FC31F"/>
<path d="M208.418 159.329H209.739V159.392C209.739 159.949 209.946 160.336 210.351 160.56C210.755 160.794 211.286 160.893 211.924 160.884C212.517 160.884 212.985 160.704 213.38 160.372C213.776 160.039 213.965 159.59 213.965 159.05C213.965 158.592 213.794 158.223 213.452 157.944C213.111 157.675 212.589 157.396 211.906 157.117L211.376 156.911C210.647 156.605 210.099 156.317 209.748 156.03C209.398 155.742 209.128 155.418 208.939 155.059C208.778 154.717 208.688 154.312 208.688 153.872C208.688 153.099 208.939 152.452 209.488 151.912C210.036 151.391 210.872 151.121 212.041 151.103C213.102 151.103 213.857 151.292 214.306 151.696C214.72 152.092 214.954 152.541 214.963 153.063V153.135H213.623V153.063C213.623 152.901 213.551 152.739 213.434 152.577C213.282 152.416 213.093 152.299 212.841 152.236C212.58 152.164 212.266 152.128 211.96 152.128C211.304 152.137 210.818 152.308 210.504 152.622C210.18 152.955 210.045 153.324 210.054 153.737C210.054 154.025 210.108 154.268 210.279 154.528C210.414 154.762 210.621 154.969 210.899 155.149C211.151 155.292 211.591 155.508 212.194 155.778L212.823 156.048C213.839 156.479 214.504 156.911 214.846 157.396C215.169 157.881 215.34 158.394 215.349 158.933C215.349 159.428 215.223 159.94 214.945 160.426C214.684 160.92 214.306 161.262 213.839 161.513C213.344 161.774 212.715 161.9 211.906 161.909C211.142 161.909 210.504 161.81 209.991 161.639C209.488 161.468 209.074 161.163 208.84 160.74C208.58 160.327 208.436 159.868 208.436 159.383V159.32L208.418 159.329Z" fill="#B5B5B6"/>
<path d="M217.624 161.577H216.392L220.51 151.373L221.849 151.355L225.76 161.532H224.339L223.269 158.754L218.756 158.772L217.624 161.577ZM219.134 157.738L222.865 157.711L221.058 152.982L219.134 157.738Z" fill="#B5B5B6"/>
<path d="M228.484 161.513H227.252L227.198 151.328H228.538L233.203 158.538L233.653 159.347L233.617 158.547L233.581 151.301H234.786L234.839 161.486L233.527 161.504L228.843 154.249L228.421 153.413L228.439 154.241L228.484 161.531V161.513Z" fill="#B5B5B6"/>
<path d="M246.598 159.221H247.803V159.302C247.803 159.689 247.686 160.084 247.425 160.516C247.12 160.947 246.751 161.235 246.284 161.424C245.807 161.622 245.25 161.73 244.603 161.73C243.308 161.739 242.247 161.289 241.42 160.381C240.584 159.491 240.18 158.143 240.171 156.354C240.162 154.583 240.557 153.216 241.366 152.308C242.184 151.391 243.245 150.942 244.549 150.933C245.196 150.933 245.744 151.031 246.221 151.22C246.679 151.4 247.066 151.697 247.372 152.119C247.641 152.551 247.776 152.955 247.776 153.342V153.414H246.562V153.342C246.562 153.09 246.491 152.847 246.32 152.614C246.158 152.389 245.942 152.236 245.654 152.119C245.376 152.002 245.016 151.939 244.612 151.939C243.56 151.939 242.805 152.371 242.292 153.189C241.78 154.007 241.528 155.05 241.546 156.309C241.546 157.603 241.798 158.655 242.328 159.473C242.841 160.291 243.614 160.687 244.657 160.687C245.358 160.687 245.852 160.525 246.149 160.237C246.446 159.95 246.598 159.626 246.589 159.284V159.203L246.598 159.221Z" fill="#B5B5B6"/>
<path d="M250.967 161.397H249.619L249.565 151.211H250.905L250.923 155.733L255.588 155.697L255.561 151.184H256.901L256.964 161.37H255.624L255.597 156.731L250.941 156.758L250.967 161.406V161.397Z" fill="#B5B5B6"/>
<path d="M259.229 161.343L259.175 151.148L264.947 151.121V152.236L260.497 152.254L260.524 155.454L264.39 155.436V156.452L260.524 156.47L260.542 160.21L265.334 160.183V161.298L259.22 161.325L259.229 161.343Z" fill="#B5B5B6"/>
<path d="M271.276 161.595C269.999 161.595 268.965 161.136 268.156 160.201C267.338 159.275 266.934 157.945 266.925 156.201C266.925 154.484 267.311 153.144 268.12 152.227C268.92 151.292 269.945 150.807 271.222 150.807C272.489 150.807 273.541 151.265 274.323 152.2C275.151 153.117 275.555 154.439 275.564 156.165C275.564 157.909 275.177 159.248 274.368 160.174C273.595 161.109 272.552 161.595 271.276 161.604V161.595ZM271.276 160.57C272.202 160.561 272.912 160.165 273.433 159.356C273.946 158.556 274.198 157.486 274.198 156.183C274.189 154.861 273.928 153.809 273.406 153.009C272.876 152.209 272.157 151.814 271.24 151.822C270.296 151.822 269.595 152.236 269.082 153.036C268.552 153.836 268.291 154.888 268.3 156.21C268.3 157.522 268.597 158.592 269.118 159.374C269.64 160.174 270.35 160.57 271.294 160.57H271.276Z" fill="#B5B5B6"/>
<path d="M278.72 161.244H277.506L277.452 151.067H278.783L283.457 158.277L283.889 159.077L283.871 158.277L283.826 151.031H285.058L285.111 161.217H283.808L279.106 153.962L278.648 153.135L278.684 153.962L278.72 161.244Z" fill="#B5B5B6"/>
<path d="M294.389 160.686C293.292 161.199 292.276 161.478 291.297 161.478C290.281 161.487 289.472 161.28 288.824 160.875C288.213 160.471 287.692 159.904 287.305 159.14C286.936 158.394 286.73 157.414 286.73 156.218C286.73 154.87 286.909 153.827 287.251 153.081C287.611 152.335 288.087 151.75 288.743 151.319C289.4 150.896 290.155 150.681 291.036 150.681C291.647 150.681 292.196 150.771 292.699 150.977C293.211 151.157 293.598 151.436 293.886 151.84C294.182 152.227 294.344 152.622 294.344 152.991V153.054H293.13V152.991C293.13 152.748 293.032 152.542 292.861 152.335C292.672 152.146 292.411 151.993 292.124 151.876C291.827 151.75 291.485 151.697 291.126 151.697C290.137 151.697 289.4 152.092 288.869 152.883C288.348 153.647 288.078 154.726 288.087 156.075C288.096 157.432 288.384 158.484 288.932 159.266C289.463 160.057 290.2 160.444 291.18 160.444C291.764 160.444 292.393 160.309 293.166 160.039L293.148 157.126L290.856 157.144V156.129L294.362 156.111L294.389 160.686Z" fill="#B5B5B6"/>
<path d="M216.896 108.248C216.896 108.248 216.833 108.176 216.806 108.131C216.284 107.412 214.657 105.829 213.704 106.612C213.344 106.89 213.416 107.502 213.273 107.861C213.021 108.356 212.625 108.724 212.221 109.093C211.879 109.425 211.304 109.758 211.133 110.199C210.881 110.756 210.89 111.268 210.477 111.808C210.261 112.095 209.964 112.338 209.739 112.59C209.542 112.806 209.425 113.039 209.353 113.237C209.101 113.75 209.029 114.262 208.697 114.792C208.193 115.557 207.213 115.871 206.737 116.653C206.404 117.166 206.539 117.4 206.431 117.975C206.323 118.802 205.523 119.269 204.957 119.881C204.678 120.204 204.642 120.645 204.417 120.969C204.004 121.598 203.159 121.85 202.556 122.326C201.819 122.928 201.828 123.747 201.684 124.592C201.397 126.237 200.741 127.765 200.552 129.41C200.435 130.759 201.388 134.678 200.552 135.586C201.55 136.171 201.702 137.375 202.709 137.933C202.377 139.182 204.471 140.207 204.238 141.664C205.218 142.05 206.836 142.545 206.845 143.354C208.616 143.291 210.791 144.45 212.652 143.929C214.261 142.733 217.525 145.062 218.028 142.545C218.001 142.805 219.287 142.05 219.269 142.05C219.476 142.005 219.727 142.086 219.916 142.05C220.267 141.978 220.536 141.735 220.842 141.592C221.085 141.475 221.328 141.313 221.588 141.178C222.218 140.863 222.676 140.477 223.26 140.117C223.764 139.758 224.375 139.533 224.87 139.2C225.229 138.967 225.769 138.175 226.317 138.337C226.317 138.283 226.38 137.681 226.164 137.735C227.36 137.465 227.863 136.629 228.421 136.054C227.836 135.424 228.645 134.921 228.798 134.328C229.922 134.103 229.76 133.698 230.327 132.907C231.199 132.233 231.378 131.676 232.16 130.777L233.662 129.707C236.125 127.738 236.152 126.246 238.786 124.34C238.786 124.34 238.795 123.908 238.804 123.845C238.885 123.639 239.074 123.486 239.236 123.351C239.586 123.027 240.108 122.812 240.323 122.425C240.467 122.155 240.458 121.85 240.557 121.562C240.845 120.834 243.776 118.586 241.636 118.137C240.809 117.957 240.737 118.406 240.242 118.721L240.09 118.586C239.541 118.811 238.471 118.586 238.337 119.323C237.195 118.254 235.819 119.881 234.714 118.838C233.581 117.804 230.434 121.229 230.012 121.625C228.403 123.162 225.616 125.32 223.413 126.138C222.289 126.56 219.566 127.064 218.397 127.369C217.983 127.486 217.534 127.927 217.084 127.909C216.509 127.909 216.644 127.738 216.365 127.612C215.466 127.298 214.657 126.776 214.252 126.021C213.803 125.248 214.163 124.547 213.857 123.836C213.515 123.072 212.76 122.443 212.697 121.598C212.607 120.51 214.468 118.227 214.261 117.067C213.938 115.224 214.504 113.093 215.637 111.655C216.068 111.152 216.734 110.729 217.102 110.145C217.408 109.587 217.273 109.093 217.291 108.455C217.336 107.259 218.604 106.702 218.9 105.56C219.107 104.832 219.215 104.886 218.568 104.472C217.768 103.978 216.536 104.166 215.673 104.229C214.693 104.274 214.603 104.355 214.405 105.164C214.27 105.677 214.225 105.838 214.405 106.405" fill="#004098"/>
<path d="M259.706 67.4335C259.49 66.93 259.319 66.3187 258.915 65.9591C258.735 65.7613 258.618 65.8243 258.501 65.4916C258.402 65.2129 258.384 64.9253 258.321 64.6376C258.231 64.287 257.935 63.9993 257.836 63.6577C257.638 63.1902 257.521 62.6508 257.225 62.2732C256.946 61.8777 256.523 61.608 256.245 61.2214C255.885 60.7629 255.499 60.3404 254.986 60.0527C254.501 58.902 253.179 59.3605 252.559 58.2637C252.118 57.8681 251.768 58.4705 251.345 58.4795C251.093 58.2997 251.111 58.0569 251.03 57.8771C250.464 58.3086 249.961 56.8792 249.592 57.8771C249.206 57.1939 248.513 57.976 248.244 57.1939L248.154 57.2838C247.794 56.7714 247.228 57.2838 246.751 57.2298C246.491 57.2119 246.293 57.0411 245.996 57.0321C245.601 57.0321 245.187 57.1489 244.791 57.1759C244.504 57.2119 244.207 57.1579 243.91 57.1759C243.686 57.2119 243.443 57.3108 243.2 57.3467C242.742 57.3917 242.301 57.3467 241.843 57.4276C241.294 57.5355 240.62 57.4996 240.135 57.8052C239.82 58.012 239.523 58.3985 239.254 58.6682C238.849 58.929 238.337 58.929 237.896 58.7761C237.725 59.2256 237.123 59.1267 236.817 59.5313C236.575 59.774 236.161 59.5942 235.855 59.6841C235.514 59.819 235.406 60.1156 235.154 60.3494C234.884 60.6011 234.543 60.5741 234.363 60.9607L234.453 61.1045C233.689 61.8147 232.772 62.507 231.909 62.5789C231.936 63.1542 231.666 63.7656 232.044 64.3679L232.205 64.2241C232.538 65.0062 233.563 65.4557 234.3 65.4107L234.552 65.6445L234.669 65.5456C235.001 65.7434 235.289 66.0041 235.739 65.8872C235.739 65.8872 236.97 66.3187 237.159 66.3457C237.95 66.4805 241.186 67.4335 240.656 68.8719C240.539 69.1685 240.18 69.4472 239.82 69.3214L239.802 70.1664C239.388 70.3642 239.433 70.9755 238.939 70.9396C238.921 71.0115 238.867 71.1733 239.02 71.2812C236.143 74.8952 232.718 78.2574 229.544 81.7905C229.302 81.5387 229.176 81.7006 229.104 81.2601C229.059 80.9454 229.05 80.6397 229.059 80.3341C229.068 79.6868 229.356 79.1654 229.302 78.5361C229.257 77.7719 229.176 77.0078 229.149 76.2257C229.374 76.0638 229.311 75.5514 229.311 75.3177C229.311 75.1918 229.347 74.994 229.311 74.8772C229.311 74.8322 229.113 74.4996 229.095 74.5985C229.356 72.5757 228.78 70.5979 228.879 68.6921C228.484 67.6942 228.78 66.6963 228.277 65.7793C228.376 64.3319 227.414 62.1474 227.522 60.5382C226.659 59.6392 226.982 58.6862 226.416 57.6524C226.398 56.7983 226.164 56.0971 226.155 55.2431C225.787 54.7127 225.571 54.1822 225.031 53.8137C224.708 53.6069 224.627 53.4271 224.51 53.0945C224.384 52.7079 224.141 52.6 223.818 52.3483C223.674 52.2404 223.665 52.2494 223.539 52.0966C223.422 51.9797 223.359 51.8628 223.242 51.755C223.099 51.6201 222.91 51.4763 222.793 51.3055C222.667 51.1077 222.622 50.838 222.388 50.7031C222.137 50.5323 221.858 50.5593 221.957 50.1098C221.804 50.1637 221.561 50.0109 221.507 50.2087L220.923 49.6064C220.375 49.7232 219.952 49.3367 219.44 49.1928C219.251 49.1299 219.044 49.1119 218.864 49.004C218.667 48.8872 218.514 48.6624 218.28 48.6175C218.199 48.5905 218.127 48.5725 218.064 48.5635C217.893 48.5365 217.768 48.4556 217.633 48.3747C217.534 48.2848 217.435 48.2668 217.291 48.2309C217.147 48.1949 217.021 48.096 216.896 48.0151C216.698 47.8713 216.473 47.9432 216.248 47.9072C216.077 47.8803 215.898 47.7544 215.718 47.6735C215.529 47.5836 215.322 47.6016 215.125 47.6106C214.972 47.6196 214.846 47.6286 214.702 47.6465C214.666 47.6465 214.405 47.7634 214.387 47.7454C213.695 47.251 213.416 48.5096 212.679 48.096C212.41 48.7973 211.681 48.7613 211.187 49.067C211.205 49.2737 211.07 49.4625 211.322 49.5704L210.423 50.6582L210.531 50.775L210.27 51.0178L210.504 51.2605C210.504 51.2605 210.441 51.674 210.45 51.701C210.459 51.8718 210.558 52.0336 210.567 52.2134C210.603 52.5371 210.396 52.6899 210.261 52.9237C210.054 53.2023 210.279 53.2833 210.342 53.4631C210.36 53.6428 210.207 53.8406 210.189 54.0114C210.162 54.1912 210.171 54.371 210.207 54.5688C210.279 54.9104 210.423 55.2071 210.612 55.4858C210.773 55.8094 211.034 56.0881 211.205 56.4028C211.358 56.7534 211.322 57.1669 211.591 57.4816C211.816 57.7782 211.978 57.9041 211.996 58.2817C212.032 58.7941 211.978 59.3335 211.924 59.8549C211.924 60.2595 211.987 60.5921 211.861 60.9877C211.475 62.3721 210.728 63.8465 211.079 65.2759C211.169 65.6355 211.133 65.8872 211.079 66.2648C211.052 66.4086 211.034 66.5614 211.025 66.7143C211.043 66.7772 211.169 67.0469 211.142 67.0559C210.8 67.9639 210.827 69.0607 210.198 69.7259C210.369 70.6789 209.802 70.2204 209.461 71.0834C208.616 71.2812 208.121 71.9285 207.852 72.4769C207.034 72.9533 206 72.7555 205.451 72.6477C205.478 73.6455 204.337 72.6477 204.067 73.5107C203.959 73.5107 203.824 73.5107 203.716 73.3489C203.357 73.8164 202.7 73.9962 202.143 74.2119C201.702 75.7312 200.381 74.3198 199.455 74.9401C198.151 75.5964 196.767 74.8952 195.796 74.3468C195.131 74.4636 193.665 73.8703 193.423 73.4028C193.387 73.3489 192.892 73.268 192.793 73.223C192.551 73.1331 192.317 73.0162 192.101 72.8814C191.688 72.6207 191.319 72.2701 191.076 71.8386C190.735 71.1463 190.986 70.4991 191.184 69.7799C191.283 69.5461 191.337 69.3214 191.445 69.0696C191.598 68.6921 191.67 67.9729 191.912 67.6762C192.506 66.9031 193.009 66.103 193.54 65.3658C193.782 64.8174 194.034 64.287 194.34 63.7656C194.627 63.3161 195.005 62.8935 195.176 62.3721C195.221 62.2193 195.176 62.0395 195.221 61.8867C195.221 61.8777 195.427 61.4821 195.463 61.6529C195.23 60.646 196.452 60.5382 196.38 59.5852C197.576 58.884 197.234 57.6794 197.684 56.7444C198.017 56.6006 198.196 56.3578 198.232 55.9982C198.286 55.6206 198.304 55.315 198.565 54.9644C198.664 54.8115 198.655 54.7576 198.718 54.5868C198.808 54.2721 199.023 54.0204 199.086 53.7238C199.14 53.4091 199.167 53.0675 199.302 52.7439C199.491 52.2944 199.86 51.9168 199.994 51.4493C200.147 51.0537 200.057 50.6042 200.228 50.1817C200.408 49.7412 200.417 49.2378 200.381 48.7613C200.318 47.7454 199.949 46.8015 199.5 45.9294C199.743 45.3721 199.545 44.8686 199.788 44.4641C199.806 44.2124 199.761 44.0146 199.572 43.8707C199.887 42.8549 198.071 42.4144 198.7 41.2187C198.502 40.8501 198.169 40.4276 197.783 40.3647C197.918 40.3916 197.855 39.9331 197.828 39.8702C197.747 39.6904 197.576 39.5466 197.414 39.4207C197.172 39.133 196.983 38.7015 196.767 38.3779C196.659 38.234 196.533 38.1262 196.416 37.9823C196.273 37.7935 196.201 37.5688 196.057 37.398C195.886 37.2272 195.679 37.1193 195.679 36.9305C195.679 36.7417 195.805 36.6248 195.679 36.445C195.58 36.2562 195.383 36.1933 195.239 36.0854C194.96 35.9416 194.78 35.6809 194.609 35.4471C194.475 35.2404 194.493 34.9617 194.214 34.8808C193.333 34.6111 192.793 34.0807 192.164 33.4873C192.092 33.3884 192.047 33.3075 191.993 33.2086C191.957 33.1637 191.912 33.1097 191.814 33.0558C191.652 32.9479 191.472 32.876 191.292 32.7501C190.986 32.5703 190.618 32.3366 190.465 32.013C189.467 32.1478 189.341 31.2488 188.478 31.7972C188.271 31.6624 188.092 31.7882 187.948 31.941C187.84 32.022 187.759 32.0579 187.678 32.1208C187.57 32.1928 187.498 32.3186 187.417 32.3726C187.283 32.4804 187.247 32.4804 187.247 32.5973C187.247 32.7142 187.247 32.8131 187.211 32.9389C187.193 32.9569 187.085 33.2356 187.076 33.2176L186.959 33.1187C186.725 33.6222 185.844 33.8649 186.159 34.5661C185.601 34.9167 185.341 35.9236 184.909 36.2113L185.062 36.3731C184.981 36.2832 183.983 37.7216 183.92 37.8565C183.543 38.4588 183.138 38.9712 182.662 39.4836C182.833 39.7084 182.095 40.3826 181.952 40.5265C181.745 40.7243 181.547 40.8411 181.448 41.1198C181.367 41.3536 181.34 41.6143 181.223 41.857C181.16 41.9739 181.106 42.0638 181.008 42.1267C180.972 42.1447 180.666 42.2705 180.675 42.2346C180.585 43.1426 179.569 44.0955 179.389 44.8956C179.38 44.9406 179.272 44.9585 179.255 44.9855C179.228 45.0394 179.228 45.0574 179.21 45.0934C179.174 45.2103 179.156 45.3181 179.12 45.444C179.039 45.6328 178.922 45.7946 178.94 46.0194C178.958 46.2261 178.895 46.3969 178.859 46.5947C178.85 46.8824 178.859 47.197 178.688 47.4308C178.571 47.5926 178.4 47.7095 178.248 47.8353C177.987 48.0781 177.906 48.2938 177.798 48.6085C177.744 48.8152 177.591 48.9051 177.474 49.058C177.322 49.2557 177.322 49.4266 177.286 49.6693C177.241 49.93 177.115 50.1547 176.935 50.3885C176.692 50.7031 176.423 51.0088 176.414 51.4313C176.009 51.6291 176.144 52.4202 175.973 52.7349C175.551 52.9866 175.209 53.49 174.661 53.4451C174.121 54.0923 173.896 54.7037 173.141 55.0633C173.51 55.6476 172.458 55.9083 172.638 56.6006C172.26 57.5085 171.775 58.4075 171.199 59.1177C170.13 59.8639 169.797 60.3673 168.988 61.2753C168.323 61.6799 167.972 62.0215 167.253 62.3901C167.235 62.3901 167.046 63.2441 167.019 63.3251C166.893 63.6127 166.74 63.9274 166.543 64.1611C166.156 64.6106 165.707 64.9522 165.266 65.3118C164.915 65.6175 164.592 65.9951 164.322 66.3727C164.061 66.7502 163.9 67.1728 163.657 67.5503C163.396 67.9279 163.055 68.2695 162.686 68.5752C162.38 68.8449 161.886 69.0607 161.607 69.3663C159.899 71.1733 157.993 72.7825 155.944 74.2029C154.982 74.8502 154.065 76.1717 152.86 76.3785C151.817 76.4774 151.673 77.8888 150.424 77.8439C150.271 78.0327 149.534 78.626 149.093 78.7878C148.922 79.1384 148.32 79.2553 148.077 79.3092C147.799 80.1992 147.097 79.0665 146.855 79.9026C146.288 80.3071 145.677 80.5229 145.03 80.7656C144.373 80.9184 143.726 81.1702 143.016 81.2421C141.515 82.1501 140.508 81.0982 139.222 82.1051C139.15 82.1591 138.557 81.9613 138.413 81.9882C138.179 82.0062 137.955 82.177 137.73 82.231C137.586 82.2849 137.46 82.3389 137.298 82.3748C136.93 82.4288 136.354 82.4647 136.246 82.8962C136.13 83.2378 136.579 83.7952 136.732 84.0469C136.867 84.3616 136.939 84.6762 137.208 84.919C137.388 85.0808 137.514 85.1977 137.613 85.4404C137.703 85.6741 137.712 85.9348 137.784 86.1686C137.811 86.2585 137.856 86.3843 137.928 86.4742C137.964 86.5282 138.107 86.6361 138.116 86.681C138.251 87.2204 138.979 87.6789 138.665 88.2632C139.654 88.461 139.033 89.5758 139.708 90.0702C139.995 89.9624 139.833 90.5647 140.148 90.1691C140.337 90.25 140.741 90.4658 140.634 90.7625C141.578 91.1041 141.874 92.1469 142.351 92.9111C143.214 92.947 144.131 93.8101 144.823 94.3495C144.922 94.1427 145.102 94.3045 145.299 94.2416C145.281 94.8259 146.252 94.8799 145.722 95.5451H146.585C146.963 95.5721 146.954 96.0396 147.133 96.2464C148.931 96.6239 149.776 98.0084 151.637 97.5679C151.97 98.4039 153.04 97.8915 153.444 97.9005C153.516 97.9005 153.651 98.0803 153.75 98.0983C153.858 98.1073 153.93 98.0713 154.038 98.0713C154.334 98.0443 154.658 98.0264 154.91 98.1163C155.134 98.1972 155.368 98.341 155.611 98.368C155.827 98.4039 156.051 98.4489 156.231 98.386C156.411 98.341 156.609 98.2601 156.78 98.2062C156.977 98.1612 157.193 98.0893 157.373 98.0893C157.58 98.0893 157.804 98.1612 158.011 98.1432C158.272 98.1252 158.497 98.0174 158.73 97.9095C159 97.7746 159.099 97.7387 159.27 97.487C159.414 97.2532 159.656 97.0465 159.899 96.9026C160.124 96.7768 160.421 96.7228 160.681 96.6329C161.059 96.4801 161.445 96.4711 161.796 96.2464C162.389 95.8688 162.758 95.3294 163.153 94.772C163.459 94.3405 163.918 93.0909 164.628 93.2797C164.673 93.2797 164.942 93.0729 164.996 93.0189C165.347 92.8122 165.743 92.8032 166.12 92.6324C166.318 92.5335 166.489 92.5335 166.705 92.4706C166.821 92.4166 167.01 92.3177 167.127 92.2278C167.298 92.057 167.442 91.8323 167.612 91.6525C167.837 91.4008 168.17 91.167 168.305 90.8434C169.401 90.5917 169.905 89.4859 171.092 89.4859C171.307 89.5308 171.02 89.2252 171.343 89.3061C171.191 88.5959 172.045 88.2902 172.368 87.8317C172.332 87.8587 172.845 87.8317 172.899 87.8137C173.033 87.7508 173.159 87.6699 173.276 87.571C173.564 87.3103 173.744 87.1125 174.103 86.9237C174.238 86.8428 174.4 86.7439 174.535 86.654C174.894 86.4473 175.29 86.2944 175.659 86.0967C176.27 85.755 176.584 85.2336 177.106 84.7931C177.645 84.3166 178.248 83.966 178.895 83.6784C178.922 83.6694 179.129 83.7233 179.192 83.7053C179.344 83.6694 179.461 83.5525 179.614 83.4986C179.776 83.4446 179.947 83.4626 180.1 83.4266C180.243 83.3997 180.378 83.3547 180.54 83.3727C180.792 83.3727 180.909 83.4716 181.124 83.5795C181.412 83.6963 181.619 83.8761 181.844 84.0739C182.329 84.4695 182.976 84.6223 183.579 84.7302C184.163 84.8471 184.729 84.9729 185.269 85.1617C185.835 85.3505 186.366 85.6022 186.851 85.9528C186.923 86.0247 187.085 86.2135 187.184 86.2585C187.31 86.2855 187.265 86.2135 187.381 86.1956C187.66 86.1686 187.984 86.2495 188.307 86.2045C188.406 86.1866 188.523 86.1776 188.631 86.1596C188.82 86.1326 188.991 86.1596 189.179 86.1596C189.485 86.1596 189.845 86.1776 190.132 86.2855C190.384 86.3754 190.546 86.5731 190.825 86.5192C191.157 86.4652 191.436 86.2315 191.778 86.2135C192.119 86.2135 192.416 86.4293 192.721 86.4922C193.135 86.6001 193.567 86.6001 193.989 86.5821C194.268 86.5821 194.762 86.69 195.023 86.6001C195.418 86.4922 195.688 86.4113 195.949 86.7529C196.093 86.4922 196.605 86.5821 196.803 86.6361C197.055 86.69 197.225 86.8698 197.459 86.9237C197.747 87.0047 198.089 87.1485 198.367 87.1934C198.754 87.2294 198.97 87.1035 199.293 86.9957C199.581 86.9237 199.851 86.8968 200.111 86.8069C200.453 86.69 200.83 86.5821 201.19 86.5102C201.334 86.4653 202.143 86.6001 202.215 86.4832C202.961 85.4853 203.977 86.4742 204.993 86.1236L205.245 86.3214C205.676 86.4203 205.137 86.2045 205.442 86.1236C205.964 85.8629 206.458 85.4674 206.926 85.1078C207.501 84.919 208.769 85.1887 208.508 84.3976C208.859 84.2987 209.407 84.047 209.614 84.3976C209.587 84.3526 211.097 83.9481 211.205 83.9031C211.439 83.8132 211.744 83.6963 211.906 83.4896C212.032 83.3547 212.14 83.1929 212.248 83.0491C212.275 83.0131 212.32 82.8783 212.374 82.8423C212.41 82.8063 212.535 82.8423 212.535 82.8333C212.85 82.5906 213.147 82.3029 213.362 81.9433C213.587 81.6107 213.578 81.1702 213.83 80.8465C214.055 80.5858 214.279 80.442 214.477 80.1273C214.666 79.7857 214.864 79.4171 215.277 79.3092C215.403 79.5969 215.313 79.9385 215.313 80.2352C215.295 80.5588 215.43 80.8915 215.367 81.2151C215.295 81.5298 215.134 81.7905 215.089 82.1141C215.053 82.4737 215.071 82.8243 215.08 83.1929C215.071 83.5615 214.918 83.9211 214.918 84.2717C214.882 85.1168 214.252 86.4113 214.45 87.1215C214.244 87.3553 214.181 87.607 214.127 87.8857C214.028 88.1554 213.884 88.4161 213.803 88.6678C213.758 88.8656 213.803 89.0274 213.803 89.2342C213.803 89.5578 213.704 89.8545 213.731 90.1691C213.74 90.5557 213.821 90.8973 213.713 91.2479C213.605 91.5985 213.479 91.9042 213.407 92.2908C213.362 92.6953 213.407 93.1088 213.371 93.5134C213.318 93.855 212.994 94.2416 212.832 94.5383C212.616 94.8709 212.401 95.2125 212.329 95.5991C212.239 96.0666 212.293 96.57 212.176 97.0465C212.059 97.469 212.014 97.8735 211.978 98.2871C211.915 98.7456 211.636 99.1681 211.744 99.6535C211.52 100.382 211.061 101.29 211.169 101.892C209.524 102.854 210.953 104.05 210.441 105.497C209.919 106.549 211.762 106.243 211.241 107.439C211.232 107.484 211.187 107.547 211.178 107.601C212.517 108.518 213.776 109.462 215.169 110.127C215.286 109.857 215.52 109.534 215.718 109.318C216.329 109.21 216.491 108.617 217.183 108.715C218.136 108.715 219.125 108.796 219.934 108.095C219.997 107.259 221.076 107.196 220.968 106.288C221.435 106.081 221.84 105.425 222.325 105.695C222.793 105.902 223.072 104.616 223.242 104.427C223.377 104.238 223.548 104.22 223.674 104.059C223.818 103.888 223.809 103.681 223.989 103.492C224.114 103.366 224.195 103.205 224.33 103.07C224.438 102.926 224.546 102.872 224.735 102.755C225.22 102.467 225.013 102.234 225.184 101.73C225.211 101.622 225.31 101.541 225.364 101.461C225.499 101.137 225.472 100.957 225.661 100.642C225.841 100.373 225.957 100.031 226.047 99.7075C226.398 98.0893 226.74 96.4621 227.126 94.8439C227.207 94.4484 227.728 89.4589 228.034 89.4589H228.115C228.142 88.9285 228.115 87.8587 228.681 87.3912C228.663 86.9507 228.897 86.1416 228.394 85.836C228.663 85.5483 228.636 84.6852 228.879 84.7931C228.708 84.0739 228.834 83.7413 229.356 83.1749C229.823 82.3209 230.83 82.0242 231.297 81.1791C233.383 79.561 235.424 78.0956 237.581 76.4504C239.002 75.938 240.566 74.104 242.211 74.0051C242.814 73.7894 243.812 74.4546 244.288 73.8973L244.612 74.2569C245.034 74.5895 245.843 74.6434 246.023 74.9491L246.185 74.8412C246.185 74.8412 246.374 75.0839 246.374 75.1019C246.338 75.039 246.931 75.2008 246.985 75.2098C247.273 75.2997 248.199 75.2458 248.145 75.6683C248.199 75.6413 248.576 75.2727 248.576 75.2727C249.322 75.8751 250.329 75.956 251.264 75.5334C251.705 75.3357 252.118 75.1918 252.55 75.021C252.73 74.9311 252.9 74.7873 253.08 74.6974C253.368 74.5445 253.593 74.5356 253.916 74.4726C254.276 74.3917 254.617 74.176 254.968 73.9872C255.292 73.7894 255.669 73.7175 255.993 73.5556C256.622 73.241 257.243 72.0363 258.007 72.6207C258.771 72.369 258.591 71.488 259.499 71.2812C259.535 71.2632 259.724 70.517 259.751 70.4271C259.859 70.1305 259.877 69.8967 259.868 69.5821C259.85 69.1955 260.119 68.8359 260.056 68.4403C260.02 68.1077 259.778 67.7481 259.652 67.4335H259.706Z" fill="#004098"/>
<path d="M289.777 46.3339C289.777 46.3339 292.097 59.8907 302.498 69.51C292.555 66.6782 278.737 59.1715 277.982 43.9965C277.416 32.0758 282.702 27.4459 284.392 23.9668C287.053 33.1635 294.821 34.7188 300.853 43.8796C306.148 51.9166 307.514 66.4085 307.784 69.9146C304.539 67.6041 296.681 59.9537 289.777 46.3518V46.3339Z" fill="#004098"/>
<path d="M359 118.397C359 118.011 358.245 117.813 358.856 117.507C358.515 117.292 358.667 116.914 358.506 116.626C358.533 115.871 358.245 115.071 358.281 114.469C357.966 113.255 357.696 112.689 358.119 111.682H357.966C357.993 111.754 357.894 111.79 357.849 111.871C357.741 111.709 357.445 111.628 357.571 111.385C357.678 111.277 357.813 111.151 357.984 111.232L358.191 110.405C357.984 110.324 357.876 110.459 357.741 110.567L357.822 110.666L357.625 110.873L357.238 110.064C358.586 109.407 358.101 107.834 358.074 106.764C357.867 106.872 357.643 106.836 357.535 106.602C357.508 106.369 357.607 106.207 357.804 106.108C357.966 106.261 357.804 106.459 358.083 106.602C358.578 105.829 357.84 105.056 358.155 104.346L357.804 104.292C357.517 103.986 358.047 103.834 357.876 103.456C357.687 103.204 357.643 103.078 357.391 103.078C357.445 102.773 357.643 102.584 357.885 102.395C357.93 102.44 357.993 102.548 358.119 102.503L357.903 102.296C357.939 102.134 357.966 102 358.155 101.901L357.849 101.631C357.849 101.505 357.75 101.271 357.984 101.262L358.2 101.469C357.912 101.065 358.362 100.642 358.272 100.336C357.939 100.139 357.975 99.5364 357.499 99.4734C359.063 99.0329 357.472 98.2418 358.227 97.3608C356.771 97.2439 358.73 96.5157 358.335 95.8684C358.056 96.0842 357.643 96.2101 357.364 95.9494C357.714 95.383 357.085 93.9176 357.984 93.9086L357.75 93.8817C357.355 92.8838 357.679 92.1376 357.732 91.2027C358.182 91.4544 358.074 90.9509 358.389 90.861C358.649 90.5014 358.515 90.0699 358.173 89.8991C358.506 90.1239 358.245 90.2227 358.137 90.4205C357.993 90.3576 357.768 90.4655 357.732 90.2227C357.687 89.8721 357.849 89.5845 358.137 89.3687C358.209 89.3327 358.245 89.4316 358.326 89.5035C357.714 88.8653 359.099 89.4676 358.73 88.4787C358.461 88.5326 358.434 88.6135 358.254 88.8563C358.173 88.9731 357.948 88.4787 357.948 88.4697C357.867 88.227 358.083 87.8764 358.137 87.6336C358.227 87.0583 358.425 86.2582 358.299 85.6738C358.272 85.4131 358.344 85.2962 358.227 85.0715C358.182 84.9816 357.67 84.8198 357.741 84.622C357.876 84.2894 358.173 83.9298 358.452 83.7949L358.371 83.6511L358.137 83.8399C357.993 83.8129 357.867 83.8399 357.831 83.714C357.975 83.6331 357.948 83.5072 357.948 83.3634C358.2 83.2735 358.254 82.842 358.676 82.9499V82.77C358.11 82.7251 358.56 81.008 357.984 80.9181C358.928 80.1719 358.173 78.9493 358.524 78.1132C358.398 78.0323 358.29 78.2031 358.191 78.2841C357.849 77.7447 358.524 77.8435 358.721 77.5289L358.398 77.1154L358.649 76.9625C358.56 77.0075 358.604 74.5712 358.604 74.3554C358.622 73.6902 358.407 73.0069 358.2 72.3597C358.056 71.8023 358.092 71.0471 357.876 70.5617C357.571 70.4358 357.652 71.155 357.31 70.6965C357.283 70.5257 357.508 70.5257 357.58 70.4268C357.741 69.9683 357.382 69.5008 357.04 69.2851L357.157 69.1772C357.022 69.0783 356.914 68.9255 356.968 68.7457C356.914 68.2063 357.157 67.7748 356.591 67.604C357.13 66.2734 354.757 65.1317 354.955 64.2237C354.505 63.6574 354.19 63.073 353.723 62.5516C353.687 62.4977 353.561 62.3898 353.606 62.2999L353.184 62.5066C353.327 61.7335 352.195 61.4368 352.294 60.4659C350.765 59.486 348.904 57.5622 347.07 57.2115C345.03 57.0947 340.112 59.2613 340.804 62.0032C341.119 63.2798 341.236 64.9519 341.757 66.1206C341.991 66.5791 342.602 66.7769 342.782 67.2533C342.908 67.6489 342.782 68.3771 342.89 68.6468C343.196 69.3121 343.402 70.0492 343.241 70.8224C343.546 72.4675 343.456 73.6362 343.322 75.0926C343.915 75.9736 344.041 77.0614 343.699 78.0144C344.292 79.4797 343.528 79.9922 343.573 81.1159C343.591 81.5294 343.241 81.3946 343.483 81.7002C343.214 82.0509 343.384 82.3475 343.304 82.6442C343.259 82.9139 343.169 83.2016 343.142 83.4623C343.07 83.705 343.061 84.0017 343.025 84.2084C342.917 84.7389 343.33 85.1794 342.692 85.467C342.458 85.5659 342.234 85.3682 342.072 85.4311C341.883 85.512 341.847 85.7367 341.658 85.8177C341.29 85.9705 339.258 86.1233 339.159 86.402C338.818 87.1931 337.388 87.1662 336.858 87.5347C336.507 87.7505 336.031 88.3528 335.536 88.8832C335.536 88.8832 335.527 88.8832 335.509 88.8832C335.473 88.9012 335.446 88.9552 335.446 88.9552C335.24 88.9911 335.078 89.2428 334.889 89.108C334.817 89.4586 334.412 89.2069 334.251 89.4496C334.296 89.5575 334.071 89.4766 334.206 89.5934C334.179 89.6564 334.107 89.7822 333.999 89.7373C333.864 90.0609 333.486 90.1508 333.226 90.3037C333.208 90.5913 332.893 90.897 332.695 91.1127C332.749 91.1397 332.695 91.2116 332.713 91.2836C332.507 91.2656 332.48 91.5892 332.264 91.3914V91.6881C332.228 91.823 332.057 91.805 332.003 91.8679C331.931 92.2005 331.724 92.4163 331.581 92.668C331.527 92.686 331.464 92.686 331.41 92.6411C331.311 92.9827 330.942 92.731 330.771 92.9647C330.798 93.0636 330.592 92.9917 330.709 93.1175C330.673 93.1804 330.61 93.3153 330.502 93.2703C330.367 93.585 330.007 93.6659 329.738 93.8367C329.72 94.0974 329.396 94.4031 329.207 94.6368C329.252 94.6998 329.216 94.7267 329.225 94.8076C329.018 94.7897 328.991 95.1223 328.776 94.9425V95.2212C328.731 95.374 328.587 95.347 328.506 95.401C328.38 95.8325 328.11 96.0752 328.003 96.4258C327.31 97.172 326.654 97.9182 325.917 98.6643C325.404 99.1588 325.584 99.8151 325.072 99.8061C325.072 99.7881 325.054 99.7611 325.054 99.7341C324.928 99.6982 325.081 99.5543 324.919 99.6173C324.874 99.5543 324.82 99.4285 324.892 99.3476C324.685 99.0779 324.802 98.7183 324.793 98.4126C324.568 98.2328 324.461 97.8283 324.353 97.5496C324.281 97.5855 324.254 97.5046 324.2 97.4777C324.308 97.3068 324.038 97.127 324.308 97.0282L324.056 96.8753C323.975 96.7854 324.056 96.6596 324.02 96.5697C323.598 96.1292 323.597 95.5718 322.959 95.338C323.031 95.0504 322.636 94.9784 322.519 94.9245C322.492 94.9065 322.483 94.8346 322.465 94.8166C322.438 94.7897 322.411 94.7807 322.375 94.7627C322.285 94.7357 322.186 94.6638 322.132 94.5919C322.069 94.5379 322.033 94.457 321.97 94.4031C321.925 94.3491 321.862 94.2862 321.782 94.2682C321.737 94.2592 321.674 94.2413 321.602 94.2143H321.584C321.269 93.9536 320.927 93.7019 320.577 93.4501C319.777 93.3423 318.689 92.8568 317.997 93.0726C317.547 92.7399 316.972 93.0096 316.495 92.9827C315.408 92.6141 314.895 93.9446 313.969 93.2973C314.392 92.8208 315.318 91.2206 315.677 90.8431C315.677 89.9441 316.783 89.4047 316.765 88.5686C316.747 88.173 317.817 87.6157 317.188 87.2471C317.592 86.6987 318.374 85.6289 317.835 85.2603C318.599 84.3073 319.444 81.7542 319.381 80.4327C319.183 79.8034 318.887 79.3359 318.545 78.9313C318.581 78.8954 318.626 78.8414 318.671 78.8235C318.338 78.1582 317.889 77.2232 317.224 76.9715C316.423 76.6299 316.819 74.9218 315.65 75.2365C315.767 75.2005 315.228 74.8858 315.228 74.8858C315.165 74.8139 315.174 74.706 315.102 74.6431C314.994 74.5262 314.868 74.4723 314.724 74.3824C314.634 74.3285 314.536 74.2745 314.428 74.1936C314.257 74.0767 313.843 74.1037 313.538 74.0857C310.652 72.6833 306.148 72.081 303.145 71.6854C302.966 71.6225 302.804 71.5685 302.588 71.4517C302.588 71.4517 302.39 71.5416 302.354 71.5506C302.264 71.5685 302.174 71.5506 302.058 71.5056C301.887 71.4337 301.707 71.2988 301.491 71.2988C301.356 71.2988 301.212 71.3708 301.087 71.3797C300.763 71.4157 299.585 70.9392 299.414 71.4247C297.706 71.2988 295.926 71.2719 294.533 71.2809C292.627 71.5595 290.793 71.155 289.067 71.4337C288.725 71.3798 288.285 71.8472 288.096 71.4157C287.566 71.3438 287.062 71.2269 286.685 71.6135C284.788 71.5506 283.008 72.2518 281.219 71.5685C280.895 72.1259 280.473 71.7753 279.951 71.7394C279.286 71.6854 279.268 71.9191 278.684 72.063C278.171 72.1888 274.009 72.3327 272.984 72.5664C272.597 72.6473 272.391 72.5664 272.139 72.5305L272.211 72.6743C272.103 72.7193 272.022 72.7822 271.95 72.8631C271.851 72.926 271.851 73.0789 271.653 73.1867C271.68 73.2946 271.617 73.4115 271.581 73.4924C271.555 73.5463 271.519 73.5823 271.492 73.6362C271.492 73.6632 271.474 73.6992 271.474 73.6992C271.474 73.7351 271.492 73.7621 271.474 73.7891C271.42 74.0408 271.384 74.2565 271.222 74.4633C271.159 74.5262 271.195 74.5892 271.195 74.6521C271.195 74.742 271.195 74.8409 271.159 74.9128C271.132 74.9578 271.114 74.9937 271.114 75.0656C271.114 75.1286 271.15 75.1376 271.168 75.1825C271.195 75.2275 271.168 75.2904 271.15 75.3533C271.15 75.4162 271.168 75.4882 271.15 75.5511C271.15 75.605 271.141 75.65 271.141 75.7039C271.141 75.8208 271.168 75.9467 271.141 76.0545C271.141 76.1265 271.123 76.1804 271.141 76.2253C271.141 76.2613 271.186 76.3782 271.222 76.3332C271.141 76.4141 271.123 76.5849 271.141 76.6928C271.492 76.8726 271.123 77.2682 271.366 77.466C271.339 77.5199 271.348 77.5738 271.402 77.6368C271.51 77.6907 271.528 77.8525 271.689 77.9424C271.725 78.2391 271.788 78.5268 271.914 78.7695C272.004 78.8954 272.067 78.9943 272.166 79.0662C272.067 79.1561 271.977 79.219 271.887 79.3269C271.914 79.3629 271.932 79.3988 271.977 79.4348C272.022 79.4797 272.058 79.5337 272.058 79.6056C272.085 79.6505 272.085 79.6955 272.112 79.7404C272.148 79.7854 272.184 79.7854 272.202 79.8483C272.229 79.9022 272.256 79.9562 272.328 80.0191C272.364 80.0551 272.4 80.0551 272.418 80.118C272.48 80.163 272.463 80.2529 272.48 80.3068C272.48 80.3607 272.498 80.3967 272.507 80.4416C272.507 80.4956 272.534 80.5315 272.57 80.5765C272.57 80.6035 272.57 80.6304 272.579 80.6574C272.579 80.6574 272.579 80.6724 272.579 80.7024H272.606C272.669 80.8911 272.93 81.0979 272.957 81.3137C272.957 81.3137 273.02 81.3317 273.038 81.3406C273.056 81.3676 273.074 81.3856 273.092 81.4036C273.128 81.4485 273.146 81.5115 273.164 81.5924C273.173 81.6463 273.227 81.6553 273.281 81.7182C273.308 81.7452 273.514 81.898 273.478 81.961C273.586 82.0688 273.685 82.1857 273.793 82.3206C273.811 82.3565 274.063 82.6891 274.081 82.6532L274.063 82.7071C274.144 82.7611 274.216 83.0128 274.368 83.0757C274.305 83.2375 274.512 83.2915 274.584 83.4173L274.602 83.3904C274.602 83.3904 274.629 83.4443 274.629 83.4533C274.647 83.4803 274.656 83.4982 274.656 83.5342C274.656 83.5342 274.662 83.5492 274.674 83.5791C274.674 83.5791 274.719 83.6061 274.746 83.6241C274.773 83.6511 274.782 83.6511 274.809 83.669C274.872 83.714 274.908 83.75 274.953 83.705C275.025 83.7589 275.097 83.75 275.142 83.714C275.303 84.0916 275.438 84.3882 275.51 84.4961C276.085 84.5501 275.699 85.1074 276.112 85.3592C276.364 85.5749 276.526 85.7367 276.823 85.7637C277.344 84.8647 278.935 85.5749 279.646 85.3951C280.688 85.4401 281.794 85.5659 282.576 85.1074C283.125 85.6199 283.7 84.3703 284.5 84.7299C285.111 83.9927 286.244 84.5051 286.972 84.3523L286.873 84.2534C287.395 83.8848 288.15 83.9837 288.617 83.678C288.797 83.741 288.977 83.4533 289.148 83.8399L289.714 83.3814C290.892 83.5252 292.151 83.0757 293.418 82.9858C293.76 82.788 294.002 83.1746 294.344 82.77C294.65 82.9948 295.081 82.5273 295.423 82.842C296.888 81.7272 299.271 82.4554 300.844 82.4554L300.691 82.5273L300.907 82.5543C300.907 82.3745 301.069 82.3565 301.159 82.2846C301.662 82.806 302.399 82.0509 302.992 82.4104C303.136 82.3475 303.415 82.2486 303.523 82.4104C305.474 82.9588 306.265 82.5903 306.858 83.1926C307.092 83.4803 307.272 84.0197 307.64 84.2984C307.29 86.6987 305.339 89.0091 304.026 90.9779C303.882 91.4903 304.044 92.1736 303.505 92.2725C303.379 92.7849 302.075 94.6548 300.385 96.2101C299.064 97.4327 297.176 98.8891 296.969 99.2757C296.915 99.6532 295.216 100.948 293.301 102.881C292.133 104.067 290.928 105.326 290.092 106.297C289.993 106.369 289.768 106.593 289.651 106.486C289.651 106.513 289.651 106.701 289.651 106.701C289.301 106.737 289.004 106.971 288.86 107.34C288.797 107.501 288.716 107.645 288.653 107.825C288.626 107.888 288.617 107.978 288.6 108.05C288.582 108.167 288.483 108.23 288.429 108.329C288.366 108.445 288.312 108.598 288.276 108.733C288.249 108.877 288.15 108.985 288.096 109.129C288.015 109.362 288.159 109.866 287.799 109.902C287.683 110.18 287.934 110.369 287.754 110.666C287.754 110.666 287.889 110.927 287.907 110.963C287.943 111.053 288.015 111.133 288.096 111.205C288.141 111.25 288.159 111.295 288.195 111.34C288.213 111.412 288.231 111.484 288.258 111.556C288.635 112.752 290.137 112.05 290.901 112.869C291.153 112.779 291.377 112.698 291.62 112.599C291.62 112.599 291.683 112.608 291.683 112.599C291.764 112.563 291.872 112.527 291.953 112.5C292.106 112.563 292.231 112.527 292.357 112.482C292.456 112.5 292.528 112.527 292.528 112.608H292.726C292.681 112.527 292.762 112.491 292.816 112.437C293.319 112.545 293.598 112.023 293.985 111.97C294.488 112.743 294.614 111.376 295.207 111.934C295.234 111.88 295.441 111.736 295.783 111.493C295.872 111.493 295.944 111.52 296.052 111.556C296.286 111.628 296.313 111.601 296.457 111.385C296.538 111.259 296.556 111.205 296.583 111.044C296.583 111.044 296.511 110.99 296.493 110.963C296.502 110.963 296.52 110.945 296.529 110.945L296.583 111.044C296.646 111.062 296.708 111.079 296.771 111.044C296.897 110.999 296.951 110.828 297.023 110.729C297.122 110.612 297.266 110.549 297.392 110.468C297.518 110.405 298.578 110.36 298.677 110.243C298.776 110.1 298.83 109.956 298.992 109.839C299.073 109.776 299.163 109.731 299.253 109.677C299.343 109.641 299.361 109.596 299.423 109.533C299.531 109.407 299.603 109.713 299.738 109.587C299.936 109.398 300.215 109.398 300.421 109.219C300.529 109.093 300.529 109.021 300.637 108.85C300.727 108.634 300.988 108.58 301.159 108.445C301.284 108.374 301.338 108.248 301.419 108.185C301.599 108.041 301.833 108.041 302.04 107.951C302.264 107.843 302.354 107.618 302.462 107.376C302.66 107.007 302.894 106.701 303.091 106.351C303.325 106.126 304.206 106.018 304.206 105.703C305.204 105.73 305.006 104.562 306.004 104.589C306.004 104.301 306.373 103.986 306.606 103.87C307.514 103.986 307.191 103.06 307.892 102.827C307.964 102.782 308 102.161 308.099 102.116C308.171 102.063 308.27 102.072 308.342 102.045C308.476 102.009 308.485 102.045 308.575 102.027C308.701 102.018 308.8 101.955 308.836 101.838C308.863 101.694 308.89 101.613 309.025 101.532C309.088 101.487 309.151 101.478 309.196 101.424C309.267 101.334 309.276 101.262 309.33 101.182C309.456 101.029 309.258 101.056 309.303 100.858C309.852 100.597 309.636 99.7431 310.131 99.6532C310.688 99.2037 311.263 98.1789 312.009 97.7024C312.18 97.6305 312.522 97.6485 312.459 97.3428C312.45 97.2709 312.684 97.19 312.729 97.154C312.819 97.127 312.998 97.19 313.079 97.136C313.133 97.1001 313.079 96.9922 313.187 96.9383C313.286 96.9113 313.394 96.9922 313.475 96.9383C313.538 96.9383 313.601 96.8843 313.61 96.8573C313.7 96.8124 313.816 96.7944 313.906 96.8124C313.987 96.8124 314.023 96.8124 314.095 96.7944C314.302 96.8484 314.5 96.9293 314.706 97.0371C316.603 98.2957 318.051 98.7992 317.502 102.296C317.206 103.186 317.322 105.083 316.37 105.73C316.594 105.946 316.414 106.234 316.45 106.495C316.271 106.549 316.172 106.764 315.974 106.728C316.082 107.142 314.563 109.479 314.437 109.722C314.491 110.27 313.969 110.585 314.266 111.071C313.978 112.221 313.852 112.473 314.886 113.606C315.83 113.776 318.114 113.156 318.662 112.383C319.031 112.311 319.255 112.347 319.471 111.97C320.766 111.763 322.86 108.23 323.49 106.953C324.496 106.71 324.38 105.101 324.892 104.481C325.827 103.771 325.746 103.654 326.708 102.971C328.902 101.784 330.367 100.085 332.776 99.1588C334.008 97.7474 335.941 97.8103 337.37 96.8663C338.602 96.5517 339.672 95.6887 340.903 95.2661C341.371 95.1403 341.263 96.228 341.757 95.6077C342.378 96.273 341.802 97.208 342.171 98.026C342.117 101.919 341.676 104.445 341.685 108.347C341.011 109.003 341.29 109.794 341.488 110.54L340.912 110.891L341.002 110.999C339.842 112.023 339.842 113.129 339.033 114.217C339.024 114.532 338.071 114.693 338.611 115.134C338.548 115.79 337.649 116.015 337.343 116.545L337.055 116.267L337.002 116.707C336.831 116.779 336.714 116.995 336.534 116.959C335.644 117.705 335.491 119.251 334.305 119.827L334.385 119.917C334.125 120.276 333.567 120.6 333.657 121.013C333.046 121.094 333.01 122.074 332.516 122.002C332.408 122.946 331.662 123.504 331.257 124.25C330.78 125.113 329.243 126.785 328.92 127.54C328.506 128.223 327.715 128.556 327.562 129.455C326.888 130.471 325.611 131.352 324.676 132.188C324.191 133.797 320.685 137.204 320.055 138.742C319.948 139.02 319.867 139.964 319.75 140.108C319.615 140.306 319.642 140.926 319.264 140.701L319.381 140.8C318.887 141.798 318.033 142.455 317.871 143.327C317.979 144.145 316.45 144.666 316.774 145.61C316.325 146.158 316.298 147.093 316.082 147.633C315.228 150.752 314.922 151.48 316.495 156.398L317.125 156.542C318.042 157.926 318.123 159.32 319.435 160.228C321.08 161.19 326.312 162.952 327.967 162.799C328.398 162.583 329.117 162.97 329.45 162.79C330.718 162.925 332.102 162.466 333.361 162.385C335.383 162.727 336.507 162.592 338.323 161.738C339.087 161.091 340.238 161.055 341.11 160.327C342.252 159.967 345.803 158.654 346.549 157.567C348.545 156.785 349.138 155.193 350.675 153.782C350.99 153.341 351.053 152.361 351.673 152.11C351.547 151.418 352.132 150.033 352.159 149.278C351.952 148.981 351.709 148.523 352.015 148.19C351.646 147.129 351.332 145.988 351.098 145.008C351.08 144.9 351.17 144.846 351.233 144.792C350.388 143.695 350.594 142.643 349.57 141.69C349.273 141.142 349.111 140.315 348.392 140.351C347.897 139.038 345.848 138.436 345.245 137.007L345.155 137.07C344.922 136.926 344.113 136.899 344.041 136.584C342.306 135.64 338.97 134.435 337.271 133.878C337.343 134.193 337.478 134.202 337.676 134.462C337.038 135.02 338.233 135.307 338.071 136.027C336.588 136.422 335.374 135.748 333.918 135.811V135.928C333.63 135.991 333.388 136.126 333.145 135.82L333.28 135.721C333.109 135.236 333.522 134.606 333.963 134.139C333.567 133.285 334.79 133.357 334.691 132.557C335.06 132.026 335.428 131.388 335.941 130.705C335.788 130.138 336.768 129.86 336.597 129.284C337.136 128.124 338.503 127.837 338.566 126.515C339.213 126.219 339.321 125.742 339.726 125.445C339.797 125.185 339.914 124.852 340.211 124.762C340.813 124.888 341.398 124.007 341.829 124.457V124.367C342.135 123.971 342.935 123.477 343.133 123.279C343.96 122.596 345.479 123.683 346.387 123.459C346.333 122.47 347.097 123.567 347.484 123C347.664 123.108 347.781 123.342 347.996 123.387C348.257 123.549 348.608 123.063 348.796 122.874C348.796 122.874 349.021 123.18 349.048 123.216C349.821 122.668 350.819 122.407 351.754 122.245C352.186 122.146 353.57 122.146 353.651 122.029C353.903 121.625 354.136 122.002 354.379 121.993C355.044 121.796 356.06 121.058 356.744 120.879L356.627 120.708C357.265 120.492 357.319 120.411 358.029 120.384C359.629 120.402 358.461 119.224 358.982 118.46L359 118.397ZM357.876 108.85L357.777 108.967C357.004 108.598 358.173 107.843 357.876 108.85ZM357.732 104.409C358.29 104.571 357.409 104.975 357.957 105.281C357.786 105.263 357.957 105.542 357.723 105.461L357.418 105.434C357.535 105.047 357.903 104.867 357.741 104.409H357.732ZM358.002 100.049L358.119 100.606C357.849 100.876 357.634 100.489 357.427 100.417C357.499 100.417 357.867 100.354 358.002 100.049ZM357.777 78.2661L357.741 78.5897L357.634 78.7156L357.777 78.2661ZM341.173 144.927C341.91 145.61 341.245 146.266 341.991 146.95C342.198 148.127 341.838 149.584 341.991 150.662C341.389 151.193 341.272 152.2 340.535 152.496L340.085 153.135L339.941 153.036C339.528 153.494 338.988 153.494 338.728 154.007C336.84 154.429 335.06 155.508 333.127 155.211C332.372 155.328 331.23 155.031 330.493 154.519C329.783 154.582 330.493 153.998 329.837 153.98C328.884 153.764 328.911 152.559 328.263 152.155C327.994 150.06 328.776 147.588 328.92 145.781C329.657 145.143 329.144 143.758 330.205 143.327C329.756 142.284 330.466 141.367 331.059 140.639C330.987 139.856 331.113 139.874 331.464 139.263C332.21 139.236 331.491 138.589 332.093 138.382L332.003 138.274C332.147 137.762 332.605 137.393 333.154 137.375C336.498 138.975 339.806 141.268 341.164 144.936L341.173 144.927ZM356.609 110.261L356.456 110.163L356.717 109.974L356.788 110.109L356.609 110.261ZM357.517 113.057C357.589 112.797 357.292 112.581 357.678 112.464L357.517 113.057Z" fill="#004098"/>
</g>
<defs>
<clipPath id="clip0_315_6">
<rect width="222.736" height="138.823" fill="white" transform="translate(136.264 23.958)"/>
</clipPath>
</defs>
</svg>
